<svg width="440" height="360" viewBox="0 0 440 360" fill="none" xmlns="http://www.w3.org/2000/svg">
<path d="M71.8162 360H368.184C393.322 360 405.891 360 415.492 355.232C423.938 351.038 430.805 344.345 435.108 336.114C440 326.756 440 314.506 440 290.005V114.957C440 90.4564 440 78.2062 435.108 68.8482C430.805 60.6167 423.938 53.9243 415.492 49.7301C405.891 44.962 393.322 44.962 368.184 44.962H271.493C258.089 44.962 240.946 43.7468 224.114 31.2911C207.282 18.8354 221.62 29.4684 203.853 16.1013C186.086 2.73418 177.026 0 161.462 0H71.8162C46.6781 0 34.1091 2.38419e-06 24.5077 4.76812C16.062 8.96228 9.19547 15.6547 4.89218 23.8862C0 33.2441 0 45.4944 0 69.995V290.005C0 314.506 0 326.756 4.89218 336.114C9.19547 344.345 16.062 351.038 24.5077 355.232C34.1091 360 46.6782 360 71.8162 360Z" fill="#F6F6F6"/>
</svg>
