<svg preserveAspectRatio="none" width="100%" height="100%" overflow="visible" style="display: block;" viewBox="0 0 1778.34 821.001" fill="none" xmlns="http://www.w3.org/2000/svg">
<g id="Group 1942">
<path id="Vector" opacity="0.7" d="M51.8321 11.957H11.959V51.8114M51.8321 11.957V51.8114M51.8321 11.957H91.7051M51.8321 51.8114H11.959M51.8321 51.8114V91.6658M51.8321 51.8114H91.7051M11.959 51.8114V91.6658M51.8321 91.6658H11.959M51.8321 91.6658V131.52M51.8321 91.6658H91.7051M11.959 91.6658V131.52M51.8321 131.52H11.959M51.8321 131.52V171.375M51.8321 131.52H91.7051M11.959 131.52V171.375M51.8321 171.375H11.959M51.8321 171.375V211.229M51.8321 171.375H91.7051M11.959 171.375V211.229M51.8321 211.229H11.959M51.8321 211.229V251.083M51.8321 211.229H91.7051M11.959 211.229V251.083M51.8321 251.083H11.959M51.8321 251.083V290.938M51.8321 251.083H91.7051M11.959 251.083V290.938M51.8321 290.938H11.959M51.8321 290.938V330.792M51.8321 290.938H91.7051M11.959 290.938V330.792M51.8321 330.792H11.959M51.8321 330.792V370.646M51.8321 330.792H91.7051M11.959 330.792V370.646M51.8321 370.646H11.959M51.8321 370.646V410.501M51.8321 370.646H91.7051M11.959 370.646V410.501M51.8321 410.501H11.959M51.8321 410.501V450.355M51.8321 410.501H91.7051M11.959 410.501V450.355M51.8321 450.355H11.959M51.8321 450.355V490.209M51.8321 450.355H91.7051M11.959 450.355V490.209M51.8321 490.209H11.959M51.8321 490.209V530.064M51.8321 490.209H91.7051M11.959 490.209V530.064M51.8321 530.064H11.959M51.8321 530.064V569.918M51.8321 530.064H91.7051M11.959 530.064V569.918M51.8321 569.918H11.959M51.8321 569.918V609.773M51.8321 569.918H91.7051M11.959 569.918V609.773M51.8321 609.773H11.959M51.8321 609.773V649.627M51.8321 609.773H91.7051M11.959 609.773V649.627M51.8321 649.627H11.959M51.8321 649.627V689.481M51.8321 649.627H91.7051M11.959 649.627V689.481M51.8321 689.481H11.959M51.8321 689.481V729.336M51.8321 689.481H91.7051M11.959 689.481V729.336M51.8321 729.336H11.959M51.8321 729.336V769.19M51.8321 729.336H91.7051M11.959 729.336V769.19M51.8321 769.19H11.959M51.8321 769.19V809.044M51.8321 769.19H91.7051M11.959 769.19V809.044H51.8321M51.8321 809.044H91.7051M91.7051 11.957V51.8114M91.7051 11.957H131.578M91.7051 51.8114V91.6658M91.7051 51.8114H131.578M91.7051 91.6658V131.52M91.7051 91.6658H131.578M91.7051 131.52V171.375M91.7051 131.52H131.578M91.7051 171.375V211.229M91.7051 171.375H131.578M91.7051 211.229V251.083M91.7051 211.229H131.578M91.7051 251.083V290.938M91.7051 251.083H131.578M91.7051 290.938V330.792M91.7051 290.938H131.578M91.7051 330.792V370.646M91.7051 330.792H131.578M91.7051 370.646V410.501M91.7051 370.646H131.578M91.7051 410.501V450.355M91.7051 410.501H131.578M91.7051 450.355V490.209M91.7051 450.355H131.578M91.7051 490.209V530.064M91.7051 490.209H131.578M91.7051 530.064V569.918M91.7051 530.064H131.578M91.7051 569.918V609.773M91.7051 569.918H131.578M91.7051 609.773V649.627M91.7051 609.773H131.578M91.7051 649.627V689.481M91.7051 649.627H131.578M91.7051 689.481V729.336M91.7051 689.481H131.578M91.7051 729.336V769.19M91.7051 729.336H131.578M91.7051 769.19V809.044M91.7051 769.19H131.578M91.7051 809.044H131.578M131.578 11.957V51.8114M131.578 11.957H171.451M131.578 51.8114V91.6658M131.578 51.8114H171.451M131.578 91.6658V131.52M131.578 91.6658H171.451M131.578 131.52V171.375M131.578 131.52H171.451M131.578 171.375V211.229M131.578 171.375H171.451M131.578 211.229V251.083M131.578 211.229H171.451M131.578 251.083V290.938M131.578 251.083H171.451M131.578 290.938V330.792M131.578 290.938H171.451M131.578 330.792V370.646M131.578 330.792H171.451M131.578 370.646V410.501M131.578 370.646H171.451M131.578 410.501V450.355M131.578 410.501H171.451M131.578 450.355V490.209M131.578 450.355H171.451M131.578 490.209V530.064M131.578 490.209H171.451M131.578 530.064V569.918M131.578 530.064H171.451M131.578 569.918V609.773M131.578 569.918H171.451M131.578 609.773V649.627M131.578 609.773H171.451M131.578 649.627V689.481M131.578 649.627H171.451M131.578 689.481V729.336M131.578 689.481H171.451M131.578 729.336V769.19M131.578 729.336H171.451M131.578 769.19V809.044M131.578 769.19H171.451M131.578 809.044H171.451M171.451 11.957V51.8114M171.451 11.957H211.324M171.451 51.8114V91.6658M171.451 51.8114H211.324M171.451 91.6658V131.52M171.451 91.6658H211.324M171.451 131.52V171.375M171.451 131.52H211.324M171.451 171.375V211.229M171.451 171.375H211.324M171.451 211.229V251.083M171.451 211.229H211.324M171.451 251.083V290.938M171.451 251.083H211.324M171.451 290.938V330.792M171.451 290.938H211.324M171.451 330.792V370.646M171.451 330.792H211.324M171.451 370.646V410.501M171.451 370.646H211.324M171.451 410.501V450.355M171.451 410.501H211.324M171.451 450.355V490.209M171.451 450.355H211.324M171.451 490.209V530.064M171.451 490.209H211.324M171.451 530.064V569.918M171.451 530.064H211.324M171.451 569.918V609.773M171.451 569.918H211.324M171.451 609.773V649.627M171.451 609.773H211.324M171.451 649.627V689.481M171.451 649.627H211.324M171.451 689.481V729.336M171.451 689.481H211.324M171.451 729.336V769.19M171.451 729.336H211.324M171.451 769.19V809.044M171.451 769.19H211.324M171.451 809.044H211.324M211.324 11.957V51.8114M211.324 11.957H251.197M211.324 51.8114V91.6658M211.324 51.8114H251.197M211.324 91.6658V131.52M211.324 91.6658H251.197M211.324 131.52V171.375M211.324 131.52H251.197M211.324 171.375V211.229M211.324 171.375H251.197M211.324 211.229V251.083M211.324 211.229H251.197M211.324 251.083V290.938M211.324 251.083H251.197M211.324 290.938V330.792M211.324 290.938H251.197M211.324 330.792V370.646M211.324 330.792H251.197M211.324 370.646V410.501M211.324 370.646H251.197M211.324 410.501V450.355M211.324 410.501H251.197M211.324 450.355V490.209M211.324 450.355H251.197M211.324 490.209V530.064M211.324 490.209H251.197M211.324 530.064V569.918M211.324 530.064H251.197M211.324 569.918V609.773M211.324 569.918H251.197M211.324 609.773V649.627M211.324 609.773H251.197M211.324 649.627V689.481M211.324 649.627H251.197M211.324 689.481V729.336M211.324 689.481H251.197M211.324 729.336V769.19M211.324 729.336H251.197M211.324 769.19V809.044M211.324 769.19H251.197M211.324 809.044H251.197M251.197 11.957V51.8114M251.197 11.957H291.07M251.197 51.8114V91.6658M251.197 51.8114H291.07M251.197 91.6658V131.52M251.197 91.6658H291.07M251.197 131.52V171.375M251.197 131.52H291.07M251.197 171.375V211.229M251.197 171.375H291.07M251.197 211.229V251.083M251.197 211.229H291.07M251.197 251.083V290.938M251.197 251.083H291.07M251.197 290.938V330.792M251.197 290.938H291.07M251.197 330.792V370.646M251.197 330.792H291.07M251.197 370.646V410.501M251.197 370.646H291.07M251.197 410.501V450.355M251.197 410.501H291.07M251.197 450.355V490.209M251.197 450.355H291.07M251.197 490.209V530.064M251.197 490.209H291.07M251.197 530.064V569.918M251.197 530.064H291.07M251.197 569.918V609.773M251.197 569.918H291.07M251.197 609.773V649.627M251.197 609.773H291.07M251.197 649.627V689.481M251.197 649.627H291.07M251.197 689.481V729.336M251.197 689.481H291.07M251.197 729.336V769.19M251.197 729.336H291.07M251.197 769.19V809.044M251.197 769.19H291.07M251.197 809.044H291.07M291.07 11.957V51.8114M291.07 11.957H330.944M291.07 51.8114V91.6658M291.07 51.8114H330.944M291.07 91.6658V131.52M291.07 91.6658H330.944M291.07 131.52V171.375M291.07 131.52H330.944M291.07 171.375V211.229M291.07 171.375H330.944M291.07 211.229V251.083M291.07 211.229H330.944M291.07 251.083V290.938M291.07 251.083H330.944M291.07 290.938V330.792M291.07 290.938H330.944M291.07 330.792V370.646M291.07 330.792H330.944M291.07 370.646V410.501M291.07 370.646H330.944M291.07 410.501V450.355M291.07 410.501H330.944M291.07 450.355V490.209M291.07 450.355H330.944M291.07 490.209V530.064M291.07 490.209H330.944M291.07 530.064V569.918M291.07 530.064H330.944M291.07 569.918V609.773M291.07 569.918H330.944M291.07 609.773V649.627M291.07 609.773H330.944M291.07 649.627V689.481M291.07 649.627H330.944M291.07 689.481V729.336M291.07 689.481H330.944M291.07 729.336V769.19M291.07 729.336H330.944M291.07 769.19V809.044M291.07 769.19H330.944M291.07 809.044H330.944M330.944 11.957V51.8114M330.944 11.957H370.817M330.944 51.8114V91.6658M330.944 51.8114H370.817M330.944 91.6658V131.52M330.944 91.6658H370.817M330.944 131.52V171.375M330.944 131.52H370.817M330.944 171.375V211.229M330.944 171.375H370.817M330.944 211.229V251.083M330.944 211.229H370.817M330.944 251.083V290.938M330.944 251.083H370.817M330.944 290.938V330.792M330.944 290.938H370.817M330.944 330.792V370.646M330.944 330.792H370.817M330.944 370.646V410.501M330.944 370.646H370.817M330.944 410.501V450.355M330.944 410.501H370.817M330.944 450.355V490.209M330.944 450.355H370.817M330.944 490.209V530.064M330.944 490.209H370.817M330.944 530.064V569.918M330.944 530.064H370.817M330.944 569.918V609.773M330.944 569.918H370.817M330.944 609.773V649.627M330.944 609.773H370.817M330.944 649.627V689.481M330.944 649.627H370.817M330.944 689.481V729.336M330.944 689.481H370.817M330.944 729.336V769.19M330.944 729.336H370.817M330.944 769.19V809.044M330.944 769.19H370.817M330.944 809.044H370.817M370.817 11.957V51.8114M370.817 11.957H410.69M370.817 51.8114V91.6658M370.817 51.8114H410.69M370.817 91.6658V131.52M370.817 91.6658H410.69M370.817 131.52V171.375M370.817 131.52H410.69M370.817 171.375V211.229M370.817 171.375H410.69M370.817 211.229V251.083M370.817 211.229H410.69M370.817 251.083V290.938M370.817 251.083H410.69M370.817 290.938V330.792M370.817 290.938H410.69M370.817 330.792V370.646M370.817 330.792H410.69M370.817 370.646V410.501M370.817 370.646H410.69M370.817 410.501V450.355M370.817 410.501H410.69M370.817 450.355V490.209M370.817 450.355H410.69M370.817 490.209V530.064M370.817 490.209H410.69M370.817 530.064V569.918M370.817 530.064H410.69M370.817 569.918V609.773M370.817 569.918H410.69M370.817 609.773V649.627M370.817 609.773H410.69M370.817 649.627V689.481M370.817 649.627H410.69M370.817 689.481V729.336M370.817 689.481H410.69M370.817 729.336V769.19M370.817 729.336H410.69M370.817 769.19V809.044M370.817 769.19H410.69M370.817 809.044H410.69M410.69 11.957V51.8114M410.69 11.957H450.563M410.69 51.8114V91.6658M410.69 51.8114H450.563M410.69 91.6658V131.52M410.69 91.6658H450.563M410.69 131.52V171.375M410.69 131.52H450.563M410.69 171.375V211.229M410.69 171.375H450.563M410.69 211.229V251.083M410.69 211.229H450.563M410.69 251.083V290.938M410.69 251.083H450.563M410.69 290.938V330.792M410.69 290.938H450.563M410.69 330.792V370.646M410.69 330.792H450.563M410.69 370.646V410.501M410.69 370.646H450.563M410.69 410.501V450.355M410.69 410.501H450.563M410.69 450.355V490.209M410.69 450.355H450.563M410.69 490.209V530.064M410.69 490.209H450.563M410.69 530.064V569.918M410.69 530.064H450.563M410.69 569.918V609.773M410.69 569.918H450.563M410.69 609.773V649.627M410.69 609.773H450.563M410.69 649.627V689.481M410.69 649.627H450.563M410.69 689.481V729.336M410.69 689.481H450.563M410.69 729.336V769.19M410.69 729.336H450.563M410.69 769.19V809.044M410.69 769.19H450.563M410.69 809.044H450.563M450.563 11.957V51.8114M450.563 11.957H490.436M450.563 51.8114V91.6658M450.563 51.8114H490.436M450.563 91.6658V131.52M450.563 91.6658H490.436M450.563 131.52V171.375M450.563 131.52H490.436M450.563 171.375V211.229M450.563 171.375H490.436M450.563 211.229V251.083M450.563 211.229H490.436M450.563 251.083V290.938M450.563 251.083H490.436M450.563 290.938V330.792M450.563 290.938H490.436M450.563 330.792V370.646M450.563 330.792H490.436M450.563 370.646V410.501M450.563 370.646H490.436M450.563 410.501V450.355M450.563 410.501H490.436M450.563 450.355V490.209M450.563 450.355H490.436M450.563 490.209V530.064M450.563 490.209H490.436M450.563 530.064V569.918M450.563 530.064H490.436M450.563 569.918V609.773M450.563 569.918H490.436M450.563 609.773V649.627M450.563 609.773H490.436M450.563 649.627V689.481M450.563 649.627H490.436M450.563 689.481V729.336M450.563 689.481H490.436M450.563 729.336V769.19M450.563 729.336H490.436M450.563 769.19V809.044M450.563 769.19H490.436M450.563 809.044H490.436M490.436 11.957V51.8114M490.436 11.957H530.309M490.436 51.8114V91.6658M490.436 51.8114H530.309M490.436 91.6658V131.52M490.436 91.6658H530.309M490.436 131.52V171.375M490.436 131.52H530.309M490.436 171.375V211.229M490.436 171.375H530.309M490.436 211.229V251.083M490.436 211.229H530.309M490.436 251.083V290.938M490.436 251.083H530.309M490.436 290.938V330.792M490.436 290.938H530.309M490.436 330.792V370.646M490.436 330.792H530.309M490.436 370.646V410.501M490.436 370.646H530.309M490.436 410.501V450.355M490.436 410.501H530.309M490.436 450.355V490.209M490.436 450.355H530.309M490.436 490.209V530.064M490.436 490.209H530.309M490.436 530.064V569.918M490.436 530.064H530.309M490.436 569.918V609.773M490.436 569.918H530.309M490.436 609.773V649.627M490.436 609.773H530.309M490.436 649.627V689.481M490.436 649.627H530.309M490.436 689.481V729.336M490.436 689.481H530.309M490.436 729.336V769.19M490.436 729.336H530.309M490.436 769.19V809.044M490.436 769.19H530.309M490.436 809.044H530.309M530.309 11.957V51.8114M530.309 11.957H570.182M530.309 51.8114V91.6658M530.309 51.8114H570.182M530.309 91.6658V131.52M530.309 91.6658H570.182M530.309 131.52V171.375M530.309 131.52H570.182M530.309 171.375V211.229M530.309 171.375H570.182M530.309 211.229V251.083M530.309 211.229H570.182M530.309 251.083V290.938M530.309 251.083H570.182M530.309 290.938V330.792M530.309 290.938H570.182M530.309 330.792V370.646M530.309 330.792H570.182M530.309 370.646V410.501M530.309 370.646H570.182M530.309 410.501V450.355M530.309 410.501H570.182M530.309 450.355V490.209M530.309 450.355H570.182M530.309 490.209V530.064M530.309 490.209H570.182M530.309 530.064V569.918M530.309 530.064H570.182M530.309 569.918V609.773M530.309 569.918H570.182M530.309 609.773V649.627M530.309 609.773H570.182M530.309 649.627V689.481M530.309 649.627H570.182M530.309 689.481V729.336M530.309 689.481H570.182M530.309 729.336V769.19M530.309 729.336H570.182M530.309 769.19V809.044M530.309 769.19H570.182M530.309 809.044H570.182M570.182 11.957V51.8114M570.182 11.957H610.055M570.182 51.8114V91.6658M570.182 51.8114H610.055M570.182 91.6658V131.52M570.182 91.6658H610.055M570.182 131.52V171.375M570.182 131.52H610.055M570.182 171.375V211.229M570.182 171.375H610.055M570.182 211.229V251.083M570.182 211.229H610.055M570.182 251.083V290.938M570.182 251.083H610.055M570.182 290.938V330.792M570.182 290.938H610.055M570.182 330.792V370.646M570.182 330.792H610.055M570.182 370.646V410.501M570.182 370.646H610.055M570.182 410.501V450.355M570.182 410.501H610.055M570.182 450.355V490.209M570.182 450.355H610.055M570.182 490.209V530.064M570.182 490.209H610.055M570.182 530.064V569.918M570.182 530.064H610.055M570.182 569.918V609.773M570.182 569.918H610.055M570.182 609.773V649.627M570.182 609.773H610.055M570.182 649.627V689.481M570.182 649.627H610.055M570.182 689.481V729.336M570.182 689.481H610.055M570.182 729.336V769.19M570.182 729.336H610.055M570.182 769.19V809.044M570.182 769.19H610.055M570.182 809.044H610.055M610.055 11.957V51.8114M610.055 11.957H649.928M610.055 51.8114V91.6658M610.055 51.8114H649.928M610.055 91.6658V131.52M610.055 91.6658H649.928M610.055 131.52V171.375M610.055 131.52H649.928M610.055 171.375V211.229M610.055 171.375H649.928M610.055 211.229V251.083M610.055 211.229H649.928M610.055 251.083V290.938M610.055 251.083H649.928M610.055 290.938V330.792M610.055 290.938H649.928M610.055 330.792V370.646M610.055 330.792H649.928M610.055 370.646V410.501M610.055 370.646H649.928M610.055 410.501V450.355M610.055 410.501H649.928M610.055 450.355V490.209M610.055 450.355H649.928M610.055 490.209V530.064M610.055 490.209H649.928M610.055 530.064V569.918M610.055 530.064H649.928M610.055 569.918V609.773M610.055 569.918H649.928M610.055 609.773V649.627M610.055 609.773H649.928M610.055 649.627V689.481M610.055 649.627H649.928M610.055 689.481V729.336M610.055 689.481H649.928M610.055 729.336V769.19M610.055 729.336H649.928M610.055 769.19V809.044M610.055 769.19H649.928M610.055 809.044H649.928M649.928 11.957V51.8114M649.928 11.957H689.801M649.928 51.8114V91.6658M649.928 51.8114H689.801M649.928 91.6658V131.52M649.928 91.6658H689.801M649.928 131.52V171.375M649.928 131.52H689.801M649.928 171.375V211.229M649.928 171.375H689.801M649.928 211.229V251.083M649.928 211.229H689.801M649.928 251.083V290.938M649.928 251.083H689.801M649.928 290.938V330.792M649.928 290.938H689.801M649.928 330.792V370.646M649.928 330.792H689.801M649.928 370.646V410.501M649.928 370.646H689.801M649.928 410.501V450.355M649.928 410.501H689.801M649.928 450.355V490.209M649.928 450.355H689.801M649.928 490.209V530.064M649.928 490.209H689.801M649.928 530.064V569.918M649.928 530.064H689.801M649.928 569.918V609.773M649.928 569.918H689.801M649.928 609.773V649.627M649.928 609.773H689.801M649.928 649.627V689.481M649.928 649.627H689.801M649.928 689.481V729.336M649.928 689.481H689.801M649.928 729.336V769.19M649.928 729.336H689.801M649.928 769.19V809.044M649.928 769.19H689.801M649.928 809.044H689.801M689.801 11.957V51.8114M689.801 11.957H729.674M689.801 51.8114V91.6658M689.801 51.8114H729.674M689.801 91.6658V131.52M689.801 91.6658H729.674M689.801 131.52V171.375M689.801 131.52H729.674M689.801 171.375V211.229M689.801 171.375H729.674M689.801 211.229V251.083M689.801 211.229H729.674M689.801 251.083V290.938M689.801 251.083H729.674M689.801 290.938V330.792M689.801 290.938H729.674M689.801 330.792V370.646M689.801 330.792H729.674M689.801 370.646V410.501M689.801 370.646H729.674M689.801 410.501V450.355M689.801 410.501H729.674M689.801 450.355V490.209M689.801 450.355H729.674M689.801 490.209V530.064M689.801 490.209H729.674M689.801 530.064V569.918M689.801 530.064H729.674M689.801 569.918V609.773M689.801 569.918H729.674M689.801 609.773V649.627M689.801 609.773H729.674M689.801 649.627V689.481M689.801 649.627H729.674M689.801 689.481V729.336M689.801 689.481H729.674M689.801 729.336V769.19M689.801 729.336H729.674M689.801 769.19V809.044M689.801 769.19H729.674M689.801 809.044H729.674M729.674 11.957V51.8114M729.674 11.957H769.547M729.674 51.8114V91.6658M729.674 51.8114H769.547M729.674 91.6658V131.52M729.674 91.6658H769.547M729.674 131.52V171.375M729.674 131.52H769.547M729.674 171.375V211.229M729.674 171.375H769.547M729.674 211.229V251.083M729.674 211.229H769.547M729.674 251.083V290.938M729.674 251.083H769.547M729.674 290.938V330.792M729.674 290.938H769.547M729.674 330.792V370.646M729.674 330.792H769.547M729.674 370.646V410.501M729.674 370.646H769.547M729.674 410.501V450.355M729.674 410.501H769.547M729.674 450.355V490.209M729.674 450.355H769.547M729.674 490.209V530.064M729.674 490.209H769.547M729.674 530.064V569.918M729.674 530.064H769.547M729.674 569.918V609.773M729.674 569.918H769.547M729.674 609.773V649.627M729.674 609.773H769.547M729.674 649.627V689.481M729.674 649.627H769.547M729.674 689.481V729.336M729.674 689.481H769.547M729.674 729.336V769.19M729.674 729.336H769.547M729.674 769.19V809.044M729.674 769.19H769.547M729.674 809.044H769.547M769.547 11.957V51.8114M769.547 11.957H809.42M769.547 51.8114V91.6658M769.547 51.8114H809.42M769.547 91.6658V131.52M769.547 91.6658H809.42M769.547 131.52V171.375M769.547 131.52H809.42M769.547 171.375V211.229M769.547 171.375H809.42M769.547 211.229V251.083M769.547 211.229H809.42M769.547 251.083V290.938M769.547 251.083H809.42M769.547 290.938V330.792M769.547 290.938H809.42M769.547 330.792V370.646M769.547 330.792H809.42M769.547 370.646V410.501M769.547 370.646H809.42M769.547 410.501V450.355M769.547 410.501H809.42M769.547 450.355V490.209M769.547 450.355H809.42M769.547 490.209V530.064M769.547 490.209H809.42M769.547 530.064V569.918M769.547 530.064H809.42M769.547 569.918V609.773M769.547 569.918H809.42M769.547 609.773V649.627M769.547 609.773H809.42M769.547 649.627V689.481M769.547 649.627H809.42M769.547 689.481V729.336M769.547 689.481H809.42M769.547 729.336V769.19M769.547 729.336H809.42M769.547 769.19V809.044M769.547 769.19H809.42M769.547 809.044H809.42M809.42 11.957V51.8114M809.42 11.957H849.293M809.42 51.8114V91.6658M809.42 51.8114H849.293M809.42 91.6658V131.52M809.42 91.6658H849.293M809.42 131.52V171.375M809.42 131.52H849.293M809.42 171.375V211.229M809.42 171.375H849.293M809.42 211.229V251.083M809.42 211.229H849.293M809.42 251.083V290.938M809.42 251.083H849.293M809.42 290.938V330.792M809.42 290.938H849.293M809.42 330.792V370.646M809.42 330.792H849.293M809.42 370.646V410.501M809.42 370.646H849.293M809.42 410.501V450.355M809.42 410.501H849.293M809.42 450.355V490.209M809.42 450.355H849.293M809.42 490.209V530.064M809.42 490.209H849.293M809.42 530.064V569.918M809.42 530.064H849.293M809.42 569.918V609.773M809.42 569.918H849.293M809.42 609.773V649.627M809.42 609.773H849.293M809.42 649.627V689.481M809.42 649.627H849.293M809.42 689.481V729.336M809.42 689.481H849.293M809.42 729.336V769.19M809.42 729.336H849.293M809.42 769.19V809.044M809.42 769.19H849.293M809.42 809.044H849.293M849.293 11.957V51.8114M849.293 11.957H889.167M849.293 51.8114V91.6658M849.293 51.8114H889.167M849.293 91.6658V131.52M849.293 91.6658H889.167M849.293 131.52V171.375M849.293 131.52H889.167M849.293 171.375V211.229M849.293 171.375H889.167M849.293 211.229V251.083M849.293 211.229H889.167M849.293 251.083V290.938M849.293 251.083H889.167M849.293 290.938V330.792M849.293 290.938H889.167M849.293 330.792V370.646M849.293 330.792H889.167M849.293 370.646V410.501M849.293 370.646H889.167M849.293 410.501V450.355M849.293 410.501H889.167M849.293 450.355V490.209M849.293 450.355H889.167M849.293 490.209V530.064M849.293 490.209H889.167M849.293 530.064V569.918M849.293 530.064H889.167M849.293 569.918V609.773M849.293 569.918H889.167M849.293 609.773V649.627M849.293 609.773H889.167M849.293 649.627V689.481M849.293 649.627H889.167M849.293 689.481V729.336M849.293 689.481H889.167M849.293 729.336V769.19M849.293 729.336H889.167M849.293 769.19V809.044M849.293 769.19H889.167M849.293 809.044H889.167M889.167 11.957V51.8114M889.167 11.957H929.04M889.167 51.8114V91.6658M889.167 51.8114H929.04M889.167 91.6658V131.52M889.167 91.6658H929.04M889.167 131.52V171.375M889.167 131.52H929.04M889.167 171.375V211.229M889.167 171.375H929.04M889.167 211.229V251.083M889.167 211.229H929.04M889.167 251.083V290.938M889.167 251.083H929.04M889.167 290.938V330.792M889.167 290.938H929.04M889.167 330.792V370.646M889.167 330.792H929.04M889.167 370.646V410.501M889.167 370.646H929.04M889.167 410.501V450.355M889.167 410.501H929.04M889.167 450.355V490.209M889.167 450.355H929.04M889.167 490.209V530.064M889.167 490.209H929.04M889.167 530.064V569.918M889.167 530.064H929.04M889.167 569.918V609.773M889.167 569.918H929.04M889.167 609.773V649.627M889.167 609.773H929.04M889.167 649.627V689.481M889.167 649.627H929.04M889.167 689.481V729.336M889.167 689.481H929.04M889.167 729.336V769.19M889.167 729.336H929.04M889.167 769.19V809.044M889.167 769.19H929.04M889.167 809.044H929.04M929.04 11.957V51.8114M929.04 11.957H968.913M929.04 51.8114V91.6658M929.04 51.8114H968.913M929.04 91.6658V131.52M929.04 91.6658H968.913M929.04 131.52V171.375M929.04 131.52H968.913M929.04 171.375V211.229M929.04 171.375H968.913M929.04 211.229V251.083M929.04 211.229H968.913M929.04 251.083V290.938M929.04 251.083H968.913M929.04 290.938V330.792M929.04 290.938H968.913M929.04 330.792V370.646M929.04 330.792H968.913M929.04 370.646V410.501M929.04 370.646H968.913M929.04 410.501V450.355M929.04 410.501H968.913M929.04 450.355V490.209M929.04 450.355H968.913M929.04 490.209V530.064M929.04 490.209H968.913M929.04 530.064V569.918M929.04 530.064H968.913M929.04 569.918V609.773M929.04 569.918H968.913M929.04 609.773V649.627M929.04 609.773H968.913M929.04 649.627V689.481M929.04 649.627H968.913M929.04 689.481V729.336M929.04 689.481H968.913M929.04 729.336V769.19M929.04 729.336H968.913M929.04 769.19V809.044M929.04 769.19H968.913M929.04 809.044H968.913M968.913 11.957V51.8114M968.913 11.957H1008.79M968.913 51.8114V91.6658M968.913 51.8114H1008.79M968.913 91.6658V131.52M968.913 91.6658H1008.79M968.913 131.52V171.375M968.913 131.52H1008.79M968.913 171.375V211.229M968.913 171.375H1008.79M968.913 211.229V251.083M968.913 211.229H1008.79M968.913 251.083V290.938M968.913 251.083H1008.79M968.913 290.938V330.792M968.913 290.938H1008.79M968.913 330.792V370.646M968.913 330.792H1008.79M968.913 370.646V410.501M968.913 370.646H1008.79M968.913 410.501V450.355M968.913 410.501H1008.79M968.913 450.355V490.209M968.913 450.355H1008.79M968.913 490.209V530.064M968.913 490.209H1008.79M968.913 530.064V569.918M968.913 530.064H1008.79M968.913 569.918V609.773M968.913 569.918H1008.79M968.913 609.773V649.627M968.913 609.773H1008.79M968.913 649.627V689.481M968.913 649.627H1008.79M968.913 689.481V729.336M968.913 689.481H1008.79M968.913 729.336V769.19M968.913 729.336H1008.79M968.913 769.19V809.044M968.913 769.19H1008.79M968.913 809.044H1008.79M1008.79 11.957V51.8114M1008.79 11.957H1048.66M1008.79 51.8114V91.6658M1008.79 51.8114H1048.66M1008.79 91.6658V131.52M1008.79 91.6658H1048.66M1008.79 131.52V171.375M1008.79 131.52H1048.66M1008.79 171.375V211.229M1008.79 171.375H1048.66M1008.79 211.229V251.083M1008.79 211.229H1048.66M1008.79 251.083V290.938M1008.79 251.083H1048.66M1008.79 290.938V330.792M1008.79 290.938H1048.66M1008.79 330.792V370.646M1008.79 330.792H1048.66M1008.79 370.646V410.501M1008.79 370.646H1048.66M1008.79 410.501V450.355M1008.79 410.501H1048.66M1008.79 450.355V490.209M1008.79 450.355H1048.66M1008.79 490.209V530.064M1008.79 490.209H1048.66M1008.79 530.064V569.918M1008.79 530.064H1048.66M1008.79 569.918V609.773M1008.79 569.918H1048.66M1008.79 609.773V649.627M1008.79 609.773H1048.66M1008.79 649.627V689.481M1008.79 649.627H1048.66M1008.79 689.481V729.336M1008.79 689.481H1048.66M1008.79 729.336V769.19M1008.79 729.336H1048.66M1008.79 769.19V809.044M1008.79 769.19H1048.66M1008.79 809.044H1048.66M1048.66 11.957V51.8114M1048.66 11.957H1088.53M1048.66 51.8114V91.6658M1048.66 51.8114H1088.53M1048.66 91.6658V131.52M1048.66 91.6658H1088.53M1048.66 131.52V171.375M1048.66 131.52H1088.53M1048.66 171.375V211.229M1048.66 171.375H1088.53M1048.66 211.229V251.083M1048.66 211.229H1088.53M1048.66 251.083V290.938M1048.66 251.083H1088.53M1048.66 290.938V330.792M1048.66 290.938H1088.53M1048.66 330.792V370.646M1048.66 330.792H1088.53M1048.66 370.646V410.501M1048.66 370.646H1088.53M1048.66 410.501V450.355M1048.66 410.501H1088.53M1048.66 450.355V490.209M1048.66 450.355H1088.53M1048.66 490.209V530.064M1048.66 490.209H1088.53M1048.66 530.064V569.918M1048.66 530.064H1088.53M1048.66 569.918V609.773M1048.66 569.918H1088.53M1048.66 609.773V649.627M1048.66 609.773H1088.53M1048.66 649.627V689.481M1048.66 649.627H1088.53M1048.66 689.481V729.336M1048.66 689.481H1088.53M1048.66 729.336V769.19M1048.66 729.336H1088.53M1048.66 769.19V809.044M1048.66 769.19H1088.53M1048.66 809.044H1088.53M1088.53 11.957V51.8114M1088.53 11.957H1128.4M1088.53 51.8114V91.6658M1088.53 51.8114H1128.4M1088.53 91.6658V131.52M1088.53 91.6658H1128.4M1088.53 131.52V171.375M1088.53 131.52H1128.4M1088.53 171.375V211.229M1088.53 171.375H1128.4M1088.53 211.229V251.083M1088.53 211.229H1128.4M1088.53 251.083V290.938M1088.53 251.083H1128.4M1088.53 290.938V330.792M1088.53 290.938H1128.4M1088.53 330.792V370.646M1088.53 330.792H1128.4M1088.53 370.646V410.501M1088.53 370.646H1128.4M1088.53 410.501V450.355M1088.53 410.501H1128.4M1088.53 450.355V490.209M1088.53 450.355H1128.4M1088.53 490.209V530.064M1088.53 490.209H1128.4M1088.53 530.064V569.918M1088.53 530.064H1128.4M1088.53 569.918V609.773M1088.53 569.918H1128.4M1088.53 609.773V649.627M1088.53 609.773H1128.4M1088.53 649.627V689.481M1088.53 649.627H1128.4M1088.53 689.481V729.336M1088.53 689.481H1128.4M1088.53 729.336V769.19M1088.53 729.336H1128.4M1088.53 769.19V809.044M1088.53 769.19H1128.4M1088.53 809.044H1128.4M1128.4 11.957V51.8114M1128.4 11.957H1168.28M1128.4 51.8114V91.6658M1128.4 51.8114H1168.28M1128.4 91.6658V131.52M1128.4 91.6658H1168.28M1128.4 131.52V171.375M1128.4 131.52H1168.28M1128.4 171.375V211.229M1128.4 171.375H1168.28M1128.4 211.229V251.083M1128.4 211.229H1168.28M1128.4 251.083V290.938M1128.4 251.083H1168.28M1128.4 290.938V330.792M1128.4 290.938H1168.28M1128.4 330.792V370.646M1128.4 330.792H1168.28M1128.4 370.646V410.501M1128.4 370.646H1168.28M1128.4 410.501V450.355M1128.4 410.501H1168.28M1128.4 450.355V490.209M1128.4 450.355H1168.28M1128.4 490.209V530.064M1128.4 490.209H1168.28M1128.4 530.064V569.918M1128.4 530.064H1168.28M1128.4 569.918V609.773M1128.4 569.918H1168.28M1128.4 609.773V649.627M1128.4 609.773H1168.28M1128.4 649.627V689.481M1128.4 649.627H1168.28M1128.4 689.481V729.336M1128.4 689.481H1168.28M1128.4 729.336V769.19M1128.4 729.336H1168.28M1128.4 769.19V809.044M1128.4 769.19H1168.28M1128.4 809.044H1168.28M1168.28 11.957V51.8114M1168.28 11.957H1208.15M1168.28 51.8114V91.6658M1168.28 51.8114H1208.15M1168.28 91.6658V131.52M1168.28 91.6658H1208.15M1168.28 131.52V171.375M1168.28 131.52H1208.15M1168.28 171.375V211.229M1168.28 171.375H1208.15M1168.28 211.229V251.083M1168.28 211.229H1208.15M1168.28 251.083V290.938M1168.28 251.083H1208.15M1168.28 290.938V330.792M1168.28 290.938H1208.15M1168.28 330.792V370.646M1168.28 330.792H1208.15M1168.28 370.646V410.501M1168.28 370.646H1208.15M1168.28 410.501V450.355M1168.28 410.501H1208.15M1168.28 450.355V490.209M1168.28 450.355H1208.15M1168.28 490.209V530.064M1168.28 490.209H1208.15M1168.28 530.064V569.918M1168.28 530.064H1208.15M1168.28 569.918V609.773M1168.28 569.918H1208.15M1168.28 609.773V649.627M1168.28 609.773H1208.15M1168.28 649.627V689.481M1168.28 649.627H1208.15M1168.28 689.481V729.336M1168.28 689.481H1208.15M1168.28 729.336V769.19M1168.28 729.336H1208.15M1168.28 769.19V809.044M1168.28 769.19H1208.15M1168.28 809.044H1208.15M1208.15 11.957V51.8114M1208.15 11.957H1248.02M1208.15 51.8114V91.6658M1208.15 51.8114H1248.02M1208.15 91.6658V131.52M1208.15 91.6658H1248.02M1208.15 131.52V171.375M1208.15 131.52H1248.02M1208.15 171.375V211.229M1208.15 171.375H1248.02M1208.15 211.229V251.083M1208.15 211.229H1248.02M1208.15 251.083V290.938M1208.15 251.083H1248.02M1208.15 290.938V330.792M1208.15 290.938H1248.02M1208.15 330.792V370.646M1208.15 330.792H1248.02M1208.15 370.646V410.501M1208.15 370.646H1248.02M1208.15 410.501V450.355M1208.15 410.501H1248.02M1208.15 450.355V490.209M1208.15 450.355H1248.02M1208.15 490.209V530.064M1208.15 490.209H1248.02M1208.15 530.064V569.918M1208.15 530.064H1248.02M1208.15 569.918V609.773M1208.15 569.918H1248.02M1208.15 609.773V649.627M1208.15 609.773H1248.02M1208.15 649.627V689.481M1208.15 649.627H1248.02M1208.15 689.481V729.336M1208.15 689.481H1248.02M1208.15 729.336V769.19M1208.15 729.336H1248.02M1208.15 769.19V809.044M1208.15 769.19H1248.02M1208.15 809.044H1248.02M1248.02 11.957V51.8114M1248.02 11.957H1287.9M1248.02 51.8114V91.6658M1248.02 51.8114H1287.9M1248.02 91.6658V131.52M1248.02 91.6658H1287.9M1248.02 131.52V171.375M1248.02 131.52H1287.9M1248.02 171.375V211.229M1248.02 171.375H1287.9M1248.02 211.229V251.083M1248.02 211.229H1287.9M1248.02 251.083V290.938M1248.02 251.083H1287.9M1248.02 290.938V330.792M1248.02 290.938H1287.9M1248.02 330.792V370.646M1248.02 330.792H1287.9M1248.02 370.646V410.501M1248.02 370.646H1287.9M1248.02 410.501V450.355M1248.02 410.501H1287.9M1248.02 450.355V490.209M1248.02 450.355H1287.9M1248.02 490.209V530.064M1248.02 490.209H1287.9M1248.02 530.064V569.918M1248.02 530.064H1287.9M1248.02 569.918V609.773M1248.02 569.918H1287.9M1248.02 609.773V649.627M1248.02 609.773H1287.9M1248.02 649.627V689.481M1248.02 649.627H1287.9M1248.02 689.481V729.336M1248.02 689.481H1287.9M1248.02 729.336V769.19M1248.02 729.336H1287.9M1248.02 769.19V809.044M1248.02 769.19H1287.9M1248.02 809.044H1287.9M1287.9 11.957V51.8114M1287.9 11.957H1327.77M1287.9 51.8114V91.6658M1287.9 51.8114H1327.77M1287.9 91.6658V131.52M1287.9 91.6658H1327.77M1287.9 131.52V171.375M1287.9 131.52H1327.77M1287.9 171.375V211.229M1287.9 171.375H1327.77M1287.9 211.229V251.083M1287.9 211.229H1327.77M1287.9 251.083V290.938M1287.9 251.083H1327.77M1287.9 290.938V330.792M1287.9 290.938H1327.77M1287.9 330.792V370.646M1287.9 330.792H1327.77M1287.9 370.646V410.501M1287.9 370.646H1327.77M1287.9 410.501V450.355M1287.9 410.501H1327.77M1287.9 450.355V490.209M1287.9 450.355H1327.77M1287.9 490.209V530.064M1287.9 490.209H1327.77M1287.9 530.064V569.918M1287.9 530.064H1327.77M1287.9 569.918V609.773M1287.9 569.918H1327.77M1287.9 609.773V649.627M1287.9 609.773H1327.77M1287.9 649.627V689.481M1287.9 649.627H1327.77M1287.9 689.481V729.336M1287.9 689.481H1327.77M1287.9 729.336V769.19M1287.9 729.336H1327.77M1287.9 769.19V809.044M1287.9 769.19H1327.77M1287.9 809.044H1327.77M1327.77 11.957V51.8114M1327.77 11.957H1367.64M1327.77 51.8114V91.6658M1327.77 51.8114H1367.64M1327.77 91.6658V131.52M1327.77 91.6658H1367.64M1327.77 131.52V171.375M1327.77 131.52H1367.64M1327.77 171.375V211.229M1327.77 171.375H1367.64M1327.77 211.229V251.083M1327.77 211.229H1367.64M1327.77 251.083V290.938M1327.77 251.083H1367.64M1327.77 290.938V330.792M1327.77 290.938H1367.64M1327.77 330.792V370.646M1327.77 330.792H1367.64M1327.77 370.646V410.501M1327.77 370.646H1367.64M1327.77 410.501V450.355M1327.77 410.501H1367.64M1327.77 450.355V490.209M1327.77 450.355H1367.64M1327.77 490.209V530.064M1327.77 490.209H1367.64M1327.77 530.064V569.918M1327.77 530.064H1367.64M1327.77 569.918V609.773M1327.77 569.918H1367.64M1327.77 609.773V649.627M1327.77 609.773H1367.64M1327.77 649.627V689.481M1327.77 649.627H1367.64M1327.77 689.481V729.336M1327.77 689.481H1367.64M1327.77 729.336V769.19M1327.77 729.336H1367.64M1327.77 769.19V809.044M1327.77 769.19H1367.64M1327.77 809.044H1367.64M1367.64 11.957V51.8114M1367.64 11.957H1407.52M1367.64 51.8114V91.6658M1367.64 51.8114H1407.52M1367.64 91.6658V131.52M1367.64 91.6658H1407.52M1367.64 131.52V171.375M1367.64 131.52H1407.52M1367.64 171.375V211.229M1367.64 171.375H1407.52M1367.64 211.229V251.083M1367.64 211.229H1407.52M1367.64 251.083V290.938M1367.64 251.083H1407.52M1367.64 290.938V330.792M1367.64 290.938H1407.52M1367.64 330.792V370.646M1367.64 330.792H1407.52M1367.64 370.646V410.501M1367.64 370.646H1407.52M1367.64 410.501V450.355M1367.64 410.501H1407.52M1367.64 450.355V490.209M1367.64 450.355H1407.52M1367.64 490.209V530.064M1367.64 490.209H1407.52M1367.64 530.064V569.918M1367.64 530.064H1407.52M1367.64 569.918V609.773M1367.64 569.918H1407.52M1367.64 609.773V649.627M1367.64 609.773H1407.52M1367.64 649.627V689.481M1367.64 649.627H1407.52M1367.64 689.481V729.336M1367.64 689.481H1407.52M1367.64 729.336V769.19M1367.64 729.336H1407.52M1367.64 769.19V809.044M1367.64 769.19H1407.52M1367.64 809.044H1407.52M1407.52 11.957V51.8114M1407.52 11.957H1447.39M1407.52 51.8114V91.6658M1407.52 51.8114H1447.39M1407.52 91.6658V131.52M1407.52 91.6658H1447.39M1407.52 131.52V171.375M1407.52 131.52H1447.39M1407.52 171.375V211.229M1407.52 171.375H1447.39M1407.52 211.229V251.083M1407.52 211.229H1447.39M1407.52 251.083V290.938M1407.52 251.083H1447.39M1407.52 290.938V330.792M1407.52 290.938H1447.39M1407.52 330.792V370.646M1407.52 330.792H1447.39M1407.52 370.646V410.501M1407.52 370.646H1447.39M1407.52 410.501V450.355M1407.52 410.501H1447.39M1407.52 450.355V490.209M1407.52 450.355H1447.39M1407.52 490.209V530.064M1407.52 490.209H1447.39M1407.52 530.064V569.918M1407.52 530.064H1447.39M1407.52 569.918V609.773M1407.52 569.918H1447.39M1407.52 609.773V649.627M1407.52 609.773H1447.39M1407.52 649.627V689.481M1407.52 649.627H1447.39M1407.52 689.481V729.336M1407.52 689.481H1447.39M1407.52 729.336V769.19M1407.52 729.336H1447.39M1407.52 769.19V809.044M1407.52 769.19H1447.39M1407.52 809.044H1447.39M1447.39 11.957V51.8114M1447.39 11.957H1487.26M1447.39 51.8114V91.6658M1447.39 51.8114H1487.26M1447.39 91.6658V131.52M1447.39 91.6658H1487.26M1447.39 131.52V171.375M1447.39 131.52H1487.26M1447.39 171.375V211.229M1447.39 171.375H1487.26M1447.39 211.229V251.083M1447.39 211.229H1487.26M1447.39 251.083V290.938M1447.39 251.083H1487.26M1447.39 290.938V330.792M1447.39 290.938H1487.26M1447.39 330.792V370.646M1447.39 330.792H1487.26M1447.39 370.646V410.501M1447.39 370.646H1487.26M1447.39 410.501V450.355M1447.39 410.501H1487.26M1447.39 450.355V490.209M1447.39 450.355H1487.26M1447.39 490.209V530.064M1447.39 490.209H1487.26M1447.39 530.064V569.918M1447.39 530.064H1487.26M1447.39 569.918V609.773M1447.39 569.918H1487.26M1447.39 609.773V649.627M1447.39 609.773H1487.26M1447.39 649.627V689.481M1447.39 649.627H1487.26M1447.39 689.481V729.336M1447.39 689.481H1487.26M1447.39 729.336V769.19M1447.39 729.336H1487.26M1447.39 769.19V809.044M1447.39 769.19H1487.26M1447.39 809.044H1487.26M1487.26 11.957V51.8114M1487.26 11.957H1527.14M1487.26 51.8114V91.6658M1487.26 51.8114H1527.14M1487.26 91.6658V131.52M1487.26 91.6658H1527.14M1487.26 131.52V171.375M1487.26 131.52H1527.14M1487.26 171.375V211.229M1487.26 171.375H1527.14M1487.26 211.229V251.083M1487.26 211.229H1527.14M1487.26 251.083V290.938M1487.26 251.083H1527.14M1487.26 290.938V330.792M1487.26 290.938H1527.14M1487.26 330.792V370.646M1487.26 330.792H1527.14M1487.26 370.646V410.501M1487.26 370.646H1527.14M1487.26 410.501V450.355M1487.26 410.501H1527.14M1487.26 450.355V490.209M1487.26 450.355H1527.14M1487.26 490.209V530.064M1487.26 490.209H1527.14M1487.26 530.064V569.918M1487.26 530.064H1527.14M1487.26 569.918V609.773M1487.26 569.918H1527.14M1487.26 609.773V649.627M1487.26 609.773H1527.14M1487.26 649.627V689.481M1487.26 649.627H1527.14M1487.26 689.481V729.336M1487.26 689.481H1527.14M1487.26 729.336V769.19M1487.26 729.336H1527.14M1487.26 769.19V809.044M1487.26 769.19H1527.14M1487.26 809.044H1527.14M1527.14 11.957V51.8114M1527.14 11.957H1567.01M1527.14 51.8114V91.6658M1527.14 51.8114H1567.01M1527.14 91.6658V131.52M1527.14 91.6658H1567.01M1527.14 131.52V171.375M1527.14 131.52H1567.01M1527.14 171.375V211.229M1527.14 171.375H1567.01M1527.14 211.229V251.083M1527.14 211.229H1567.01M1527.14 251.083V290.938M1527.14 251.083H1567.01M1527.14 290.938V330.792M1527.14 290.938H1567.01M1527.14 330.792V370.646M1527.14 330.792H1567.01M1527.14 370.646V410.501M1527.14 370.646H1567.01M1527.14 410.501V450.355M1527.14 410.501H1567.01M1527.14 450.355V490.209M1527.14 450.355H1567.01M1527.14 490.209V530.064M1527.14 490.209H1567.01M1527.14 530.064V569.918M1527.14 530.064H1567.01M1527.14 569.918V609.773M1527.14 569.918H1567.01M1527.14 609.773V649.627M1527.14 609.773H1567.01M1527.14 649.627V689.481M1527.14 649.627H1567.01M1527.14 689.481V729.336M1527.14 689.481H1567.01M1527.14 729.336V769.19M1527.14 729.336H1567.01M1527.14 769.19V809.044M1527.14 769.19H1567.01M1527.14 809.044H1567.01M1567.01 11.957V51.8114M1567.01 11.957H1606.88M1567.01 51.8114V91.6658M1567.01 51.8114H1606.88M1567.01 91.6658V131.52M1567.01 91.6658H1606.88M1567.01 131.52V171.375M1567.01 131.52H1606.88M1567.01 171.375V211.229M1567.01 171.375H1606.88M1567.01 211.229V251.083M1567.01 211.229H1606.88M1567.01 251.083V290.938M1567.01 251.083H1606.88M1567.01 290.938V330.792M1567.01 290.938H1606.88M1567.01 330.792V370.646M1567.01 330.792H1606.88M1567.01 370.646V410.501M1567.01 370.646H1606.88M1567.01 410.501V450.355M1567.01 410.501H1606.88M1567.01 450.355V490.209M1567.01 450.355H1606.88M1567.01 490.209V530.064M1567.01 490.209H1606.88M1567.01 530.064V569.918M1567.01 530.064H1606.88M1567.01 569.918V609.773M1567.01 569.918H1606.88M1567.01 609.773V649.627M1567.01 609.773H1606.88M1567.01 649.627V689.481M1567.01 649.627H1606.88M1567.01 689.481V729.336M1567.01 689.481H1606.88M1567.01 729.336V769.19M1567.01 729.336H1606.88M1567.01 769.19V809.044M1567.01 769.19H1606.88M1567.01 809.044H1606.88M1606.88 11.957V51.8114M1606.88 11.957H1646.75M1606.88 51.8114V91.6658M1606.88 51.8114H1646.75M1606.88 91.6658V131.52M1606.88 91.6658H1646.75M1606.88 131.52V171.375M1606.88 131.52H1646.75M1606.88 171.375V211.229M1606.88 171.375H1646.75M1606.88 211.229V251.083M1606.88 211.229H1646.75M1606.88 251.083V290.938M1606.88 251.083H1646.75M1606.88 290.938V330.792M1606.88 290.938H1646.75M1606.88 330.792V370.646M1606.88 330.792H1646.75M1606.88 370.646V410.501M1606.88 370.646H1646.75M1606.88 410.501V450.355M1606.88 410.501H1646.75M1606.88 450.355V490.209M1606.88 450.355H1646.75M1606.88 490.209V530.064M1606.88 490.209H1646.75M1606.88 530.064V569.918M1606.88 530.064H1646.75M1606.88 569.918V609.773M1606.88 569.918H1646.75M1606.88 609.773V649.627M1606.88 609.773H1646.75M1606.88 649.627V689.481M1606.88 649.627H1646.75M1606.88 689.481V729.336M1606.88 689.481H1646.75M1606.88 729.336V769.19M1606.88 729.336H1646.75M1606.88 769.19V809.044M1606.88 769.19H1646.75M1606.88 809.044H1646.75M1646.75 11.957V51.8114M1646.75 11.957H1686.63M1646.75 51.8114V91.6658M1646.75 51.8114H1686.63M1646.75 91.6658V131.52M1646.75 91.6658H1686.63M1646.75 131.52V171.375M1646.75 131.52H1686.63M1646.75 171.375V211.229M1646.75 171.375H1686.63M1646.75 211.229V251.083M1646.75 211.229H1686.63M1646.75 251.083V290.938M1646.75 251.083H1686.63M1646.75 290.938V330.792M1646.75 290.938H1686.63M1646.75 330.792V370.646M1646.75 330.792H1686.63M1646.75 370.646V410.501M1646.75 370.646H1686.63M1646.75 410.501V450.355M1646.75 410.501H1686.63M1646.75 450.355V490.209M1646.75 450.355H1686.63M1646.75 490.209V530.064M1646.75 490.209H1686.63M1646.75 530.064V569.918M1646.75 530.064H1686.63M1646.75 569.918V609.773M1646.75 569.918H1686.63M1646.75 609.773V649.627M1646.75 609.773H1686.63M1646.75 649.627V689.481M1646.75 649.627H1686.63M1646.75 689.481V729.336M1646.75 689.481H1686.63M1646.75 729.336V769.19M1646.75 729.336H1686.63M1646.75 769.19V809.044M1646.75 769.19H1686.63M1646.75 809.044H1686.63M1686.63 11.957V51.8114M1686.63 11.957H1726.5M1686.63 51.8114V91.6658M1686.63 51.8114H1726.5M1686.63 91.6658V131.52M1686.63 91.6658H1726.5M1686.63 131.52V171.375M1686.63 131.52H1726.5M1686.63 171.375V211.229M1686.63 171.375H1726.5M1686.63 211.229V251.083M1686.63 211.229H1726.5M1686.63 251.083V290.938M1686.63 251.083H1726.5M1686.63 290.938V330.792M1686.63 290.938H1726.5M1686.63 330.792V370.646M1686.63 330.792H1726.5M1686.63 370.646V410.501M1686.63 370.646H1726.5M1686.63 410.501V450.355M1686.63 410.501H1726.5M1686.63 450.355V490.209M1686.63 450.355H1726.5M1686.63 490.209V530.064M1686.63 490.209H1726.5M1686.63 530.064V569.918M1686.63 530.064H1726.5M1686.63 569.918V609.773M1686.63 569.918H1726.5M1686.63 609.773V649.627M1686.63 609.773H1726.5M1686.63 649.627V689.481M1686.63 649.627H1726.5M1686.63 689.481V729.336M1686.63 689.481H1726.5M1686.63 729.336V769.19M1686.63 729.336H1726.5M1686.63 769.19V809.044M1686.63 769.19H1726.5M1686.63 809.044H1726.5M1726.5 11.957V51.8114M1726.5 11.957H1766.37V51.8114M1726.5 51.8114V91.6658M1726.5 51.8114H1766.37M1726.5 91.6658V131.52M1726.5 91.6658H1766.37M1726.5 131.52V171.375M1726.5 131.52H1766.37M1726.5 171.375V211.229M1726.5 171.375H1766.37M1726.5 211.229V251.083M1726.5 211.229H1766.37M1726.5 251.083V290.938M1726.5 251.083H1766.37M1726.5 290.938V330.792M1726.5 290.938H1766.37M1726.5 330.792V370.646M1726.5 330.792H1766.37M1726.5 370.646V410.501M1726.5 370.646H1766.37M1726.5 410.501V450.355M1726.5 410.501H1766.37M1726.5 450.355V490.209M1726.5 450.355H1766.37M1726.5 490.209V530.064M1726.5 490.209H1766.37M1726.5 530.064V569.918M1726.5 530.064H1766.37M1726.5 569.918V609.773M1726.5 569.918H1766.37M1726.5 609.773V649.627M1726.5 609.773H1766.37M1726.5 649.627V689.481M1726.5 649.627H1766.37M1726.5 689.481V729.336M1726.5 689.481H1766.37M1726.5 729.336V769.19M1726.5 729.336H1766.37M1726.5 769.19V809.044M1726.5 769.19H1766.37M1726.5 809.044H1766.37V769.19M1766.37 51.8114V91.6658M1766.37 91.6658V131.52M1766.37 131.52V171.375M1766.37 171.375V211.229M1766.37 211.229V251.083M1766.37 251.083V290.938M1766.37 290.938V330.792M1766.37 330.792V370.646M1766.37 370.646V410.501M1766.37 410.501V450.355M1766.37 450.355V490.209M1766.37 490.209V530.064M1766.37 530.064V569.918M1766.37 569.918V609.773M1766.37 609.773V649.627M1766.37 649.627V689.481M1766.37 689.481V729.336M1766.37 729.336V769.19" stroke="url(#paint0_radial_0_4)" stroke-opacity="0.4" stroke-width="0.492387"/>
<path id="Vector_2" opacity="0.8" d="M171.454 159.418V171.374M171.454 171.374V183.33M171.454 171.374H159.493M171.454 171.374H183.416M171.454 478.253V490.209M171.454 490.209V502.166M171.454 490.209H159.493M171.454 490.209H183.416M171.454 797.088V809.045M171.454 809.045V821.001M171.454 809.045H159.493M171.454 809.045H183.416M490.44 159.418V171.374M490.44 171.374V183.33M490.44 171.374H478.478M490.44 171.374H502.401M490.44 478.253V490.209M490.44 490.209V502.166M490.44 490.209H478.478M490.44 490.209H502.401M490.44 797.088V809.045M490.44 809.045V821.001M490.44 809.045H478.478M490.44 809.045H502.401M809.425 159.418V171.374M809.425 171.374V183.33M809.425 171.374H797.463M809.425 171.374H821.386M809.425 478.253V490.209M809.425 490.209V502.166M809.425 490.209H797.463M809.425 490.209H821.386M809.425 797.088V809.045M809.425 809.045V821.001M809.425 809.045H797.463M809.425 809.045H821.386M1128.41 159.418V171.374M1128.41 171.374V183.33M1128.41 171.374H1116.45M1128.41 171.374H1140.37M1128.41 478.253V490.209M1128.41 490.209V502.166M1128.41 490.209H1116.45M1128.41 490.209H1140.37M1128.41 797.088V809.045M1128.41 809.045V821.001M1128.41 809.045H1116.45M1128.41 809.045H1140.37M1447.39 159.418V171.374M1447.39 171.374V183.33M1447.39 171.374H1435.43M1447.39 171.374H1459.36M1447.39 478.253V490.209M1447.39 490.209V502.166M1447.39 490.209H1435.43M1447.39 490.209H1459.36M1447.39 797.088V809.045M1447.39 809.045V821.001M1447.39 809.045H1435.43M1447.39 809.045H1459.36M1766.38 159.418V171.374M1766.38 171.374V183.33M1766.38 171.374H1754.42M1766.38 171.374H1778.34M1766.38 478.253V490.209M1766.38 490.209V502.166M1766.38 490.209H1754.42M1766.38 490.209H1778.34M1766.38 797.088V809.045M1766.38 809.045V821.001M1766.38 809.045H1754.42M1766.38 809.045H1778.34M171.454 0V11.9563M171.454 11.9563V23.9127M171.454 11.9563H159.493M171.454 11.9563H183.416M171.454 318.835V330.792M171.454 330.792V342.748M171.454 330.792H159.493M171.454 330.792H183.416M171.454 637.671V649.627M171.454 649.627V661.583M171.454 649.627H159.493M171.454 649.627H183.416M490.44 0V11.9563M490.44 11.9563V23.9127M490.44 11.9563H478.478M490.44 11.9563H502.401M490.44 318.835V330.792M490.44 330.792V342.748M490.44 330.792H478.478M490.44 330.792H502.401M490.44 637.671V649.627M490.44 649.627V661.583M490.44 649.627H478.478M490.44 649.627H502.401M809.425 0V11.9563M809.425 11.9563V23.9127M809.425 11.9563H797.463M809.425 11.9563H821.386M809.425 318.835V330.792M809.425 330.792V342.748M809.425 330.792H797.463M809.425 330.792H821.386M809.425 637.671V649.627M809.425 649.627V661.583M809.425 649.627H797.463M809.425 649.627H821.386M1128.41 0V11.9563M1128.41 11.9563V23.9127M1128.41 11.9563H1116.45M1128.41 11.9563H1140.37M1128.41 318.835V330.792M1128.41 330.792V342.748M1128.41 330.792H1116.45M1128.41 330.792H1140.37M1128.41 637.671V649.627M1128.41 649.627V661.583M1128.41 649.627H1116.45M1128.41 649.627H1140.37M1447.39 0V11.9563M1447.39 11.9563V23.9127M1447.39 11.9563H1435.43M1447.39 11.9563H1459.36M1447.39 318.835V330.792M1447.39 330.792V342.748M1447.39 330.792H1435.43M1447.39 330.792H1459.36M1447.39 637.671V649.627M1447.39 649.627V661.583M1447.39 649.627H1435.43M1447.39 649.627H1459.36M1766.38 0V11.9563M1766.38 11.9563V23.9127M1766.38 11.9563H1754.42M1766.38 11.9563H1778.34M1766.38 318.835V330.792M1766.38 330.792V342.748M1766.38 330.792H1754.42M1766.38 330.792H1778.34M1766.38 637.671V649.627M1766.38 649.627V661.583M1766.38 649.627H1754.42M1766.38 649.627H1778.34M11.9619 159.418V171.374M11.9619 171.374V183.33M11.9619 171.374H0M11.9619 171.374H23.9239M11.9619 478.253V490.209M11.9619 490.209V502.166M11.9619 490.209H0M11.9619 490.209H23.9239M11.9619 797.088V809.045M11.9619 809.045V821.001M11.9619 809.045H0M11.9619 809.045H23.9239M330.947 159.418V171.374M330.947 171.374V183.33M330.947 171.374H318.985M330.947 171.374H342.909M330.947 478.253V490.209M330.947 490.209V502.166M330.947 490.209H318.985M330.947 490.209H342.909M330.947 797.088V809.045M330.947 809.045V821.001M330.947 809.045H318.985M330.947 809.045H342.909M649.932 159.418V171.374M649.932 171.374V183.33M649.932 171.374H637.97M649.932 171.374H661.894M649.932 478.253V490.209M649.932 490.209V502.166M649.932 490.209H637.97M649.932 490.209H661.894M649.932 797.088V809.045M649.932 809.045V821.001M649.932 809.045H637.97M649.932 809.045H661.894M968.917 159.418V171.374M968.917 171.374V183.33M968.917 171.374H956.955M968.917 171.374H980.879M968.917 478.253V490.209M968.917 490.209V502.166M968.917 490.209H956.955M968.917 490.209H980.879M968.917 797.088V809.045M968.917 809.045V821.001M968.917 809.045H956.955M968.917 809.045H980.879M1287.9 159.418V171.374M1287.9 171.374V183.33M1287.9 171.374H1275.94M1287.9 171.374H1299.86M1287.9 478.253V490.209M1287.9 490.209V502.166M1287.9 490.209H1275.94M1287.9 490.209H1299.86M1287.9 797.088V809.045M1287.9 809.045V821.001M1287.9 809.045H1275.94M1287.9 809.045H1299.86M1606.89 159.418V171.374M1606.89 171.374V183.33M1606.89 171.374H1594.93M1606.89 171.374H1618.85M1606.89 478.253V490.209M1606.89 490.209V502.166M1606.89 490.209H1594.93M1606.89 490.209H1618.85M1606.89 797.088V809.045M1606.89 809.045V821.001M1606.89 809.045H1594.93M1606.89 809.045H1618.85M11.9619 5.87774e-05V11.9564M11.9619 11.9564V23.9127M11.9619 11.9564H0M11.9619 11.9564H23.9239M11.9619 318.835V330.792M11.9619 330.792V342.748M11.9619 330.792H0M11.9619 330.792H23.9239M11.9619 637.671V649.627M11.9619 649.627V661.583M11.9619 649.627H0M11.9619 649.627H23.9239M330.947 0V11.9563M330.947 11.9563V23.9127M330.947 11.9563H318.985M330.947 11.9563H342.909M330.947 318.835V330.792M330.947 330.792V342.748M330.947 330.792H318.985M330.947 330.792H342.909M330.947 637.671V649.627M330.947 649.627V661.583M330.947 649.627H318.985M330.947 649.627H342.909M649.932 0V11.9563M649.932 11.9563V23.9127M649.932 11.9563H637.97M649.932 11.9563H661.894M649.932 318.835V330.792M649.932 330.792V342.748M649.932 330.792H637.97M649.932 330.792H661.894M649.932 637.671V649.627M649.932 649.627V661.583M649.932 649.627H637.97M649.932 649.627H661.894M968.917 0V11.9563M968.917 11.9563V23.9127M968.917 11.9563H956.955M968.917 11.9563H980.879M968.917 318.835V330.792M968.917 330.792V342.748M968.917 330.792H956.955M968.917 330.792H980.879M968.917 637.671V649.627M968.917 649.627V661.583M968.917 649.627H956.955M968.917 649.627H980.879M1287.9 0V11.9563M1287.9 11.9563V23.9127M1287.9 11.9563H1275.94M1287.9 11.9563H1299.86M1287.9 318.835V330.792M1287.9 330.792V342.748M1287.9 330.792H1275.94M1287.9 330.792H1299.86M1287.9 637.671V649.627M1287.9 649.627V661.583M1287.9 649.627H1275.94M1287.9 649.627H1299.86M1606.89 0V11.9563M1606.89 11.9563V23.9127M1606.89 11.9563H1594.93M1606.89 11.9563H1618.85M1606.89 318.835V330.792M1606.89 330.792V342.748M1606.89 330.792H1594.93M1606.89 330.792H1618.85M1606.89 637.671V649.627M1606.89 649.627V661.583M1606.89 649.627H1594.93M1606.89 649.627H1618.85" stroke="url(#paint1_radial_0_4)" stroke-opacity="0.4" stroke-width="0.984774"/>
</g>
<defs>
<radialGradient id="paint0_radial_0_4" cx="0" cy="0" r="1" gradientUnits="userSpaceOnUse" gradientTransform="translate(889.167 410.501) rotate(90) scale(398.544 877.208)">
<stop stop-color="white" stop-opacity="0.5"/>
<stop offset="1" stop-color="white" stop-opacity="0"/>
</radialGradient>
<radialGradient id="paint1_radial_0_4" cx="0" cy="0" r="1" gradientUnits="userSpaceOnUse" gradientTransform="translate(889.171 410.5) rotate(90) scale(410.5 889.171)">
<stop stop-color="white" stop-opacity="0.5"/>
<stop offset="1" stop-color="white" stop-opacity="0"/>
</radialGradient>
</defs>
</svg>
