<svg width="375" height="331" viewBox="0 0 375 331" fill="none" xmlns="http://www.w3.org/2000/svg">
<path d="M884.136 2.99006L872.95 0.580078M884.136 2.99006H850.987M884.136 2.99006L895.694 5.47962M884.136 2.99006H907.613M872.95 0.580078L877.02 0.581018L881.048 0.586236L884.993 0.600908L888.814 0.629803L892.469 0.676695L895.919 0.747279L899.123 0.845327L902.098 0.970363L904.65 1.14326L906.974 1.34362L907.613 1.4138V2.99006M872.95 0.580078H840.333M840.333 0.580078H807.717M840.333 0.580078L850.987 2.99006M807.717 0.580078H775.1M807.717 0.580078L817.837 2.99006M775.1 0.580078H742.483M775.1 0.580078L784.688 2.99006M742.483 0.580078H709.867M742.483 0.580078L751.539 2.99006M709.867 0.580078H677.25M709.867 0.580078L718.39 2.99006M677.25 0.580078H644.633M677.25 0.580078L685.24 2.99006M644.633 0.580078H612.017M644.633 0.580078L652.091 2.99006M612.017 0.580078H579.4M612.017 0.580078L618.941 2.99006M579.4 0.580078H546.783M579.4 0.580078L585.792 2.99006M546.783 0.580078H514.167M546.783 0.580078L552.643 2.99006M514.167 0.580078H481.55M514.167 0.580078L519.493 2.99006M481.55 0.580078H448.933M481.55 0.580078L482.734 1.17546L484.528 2.07685L486.344 2.99006M448.933 0.580078H416.317M448.933 0.580078L449.985 1.17546L453.194 2.99006M416.317 0.580078H383.7M416.317 0.580078L420.045 2.99006M383.7 0.580078H351.083M383.7 0.580078L384.886 1.47481L386.088 2.37998L386.491 2.68455L386.896 2.99006M351.083 0.580078H318.467M351.083 0.580078L352.072 1.47481L352.404 1.77511L352.738 2.07685L353.747 2.99006M318.467 0.580078H285.85M318.467 0.580078L320.598 2.99006M285.85 0.580078L286.047 0.877056L286.244 1.17546L287.245 2.68455L287.448 2.99006M285.85 0.580078H253.234M253.234 0.580078H220.616M253.234 0.580078L254.299 2.99006M220.616 0.580078H188M220.616 0.580078L220.814 1.47481L221.149 2.99006M188 0.580078H155.384M188 0.580078V2.99006M155.384 0.580078H122.766M155.384 0.580078L155.186 1.47481L154.851 2.99006M122.766 0.580078H90.15M122.766 0.580078L121.701 2.99006M90.15 0.580078L89.9529 0.877056L89.7557 1.17546L88.755 2.68455L88.5519 2.99006M90.15 0.580078H57.5335M57.5335 0.580078H24.9163M57.5335 0.580078L55.6731 2.68455L55.4024 2.99006M24.9163 0.580078H-7.70008M24.9163 0.580078L23.9284 1.47481L23.5956 1.77511L22.927 2.37998L22.5911 2.68455L22.2531 2.99006M-7.70008 0.580078H-40.3165M-7.70008 0.580078L-8.88592 1.47481L-10.0875 2.37998L-10.4908 2.68455L-10.8963 2.99006M-40.3165 0.580078H-72.933M-40.3165 0.580078L-44.045 2.99006M-72.933 0.580078H-105.55M-72.933 0.580078L-73.9854 1.17546L-77.1944 2.99006M-105.55 0.580078H-138.167M-105.55 0.580078L-110.344 2.99006M-138.167 0.580078H-170.783M-138.167 0.580078L-143.493 2.99006M-170.783 0.580078H-203.4M-170.783 0.580078L-176.643 2.99006M-203.4 0.580078H-236.017M-203.4 0.580078L-209.792 2.99006M-236.017 0.580078H-268.633M-236.017 0.580078L-242.941 2.99006M-268.633 0.580078H-301.249M-268.633 0.580078L-276.091 2.99006M-301.249 0.580078H-333.867M-301.249 0.580078L-309.24 2.99006M-333.867 0.580078H-366.483M-333.867 0.580078L-342.39 2.99006M-366.483 0.580078H-399.1M-366.483 0.580078L-375.539 2.99006M-399.1 0.580078H-431.717M-399.1 0.580078L-408.688 2.99006M-431.717 0.580078H-464.333M-431.717 0.580078L-441.837 2.99006M-464.333 0.580078H-496.95M-464.333 0.580078L-474.986 2.99006M-496.95 0.580078L-501.02 0.581018L-505.048 0.586236L-508.993 0.600908L-512.813 0.629803L-516.468 0.676695L-519.919 0.747279L-523.123 0.845327L-526.098 0.970363L-528.65 1.14326L-530.974 1.34362L-531.612 1.41381V2.99006M-496.95 0.580078L-508.136 2.99006M-441.837 2.99006H-408.688M-441.837 2.99006H-474.986M-441.837 2.99006L-452.295 5.47962M-408.688 2.99006L-418.595 5.47962M-408.688 2.99006H-375.539M-309.24 2.99006H-276.091M-309.24 2.99006H-342.39M-309.24 2.99006L-311.278 3.60487L-317.496 5.47962M-276.091 2.99006L-283.796 5.47962M-276.091 2.99006H-242.941M-176.643 2.99006H-143.493M-176.643 2.99006H-209.792M-176.643 2.99006L-178.137 3.60487L-178.89 3.9137L-182.697 5.47962M-143.493 2.99006L-144.172 3.29652L-144.852 3.60487L-148.997 5.47962M-143.493 2.99006H-110.344M-44.045 2.99006L-44.5202 3.29652L-47.8979 5.47962M-44.045 2.99006H-10.8963M-44.045 2.99006H-77.1944M-10.8963 2.99006L-11.7111 3.60487L-12.1219 3.9137L-12.5334 4.22443L-14.1983 5.47962M-10.8963 2.99006H22.2531M88.5519 2.99006H121.701M88.5519 2.99006H55.4024M88.5519 2.99006L86.9013 5.47962M121.701 2.99006L121.566 3.29652L121.43 3.60487L121.293 3.9137L120.879 4.84918L120.601 5.47962M121.701 2.99006H154.851M221.149 2.99006H254.299M221.149 2.99006H188M221.149 2.99006L221.7 5.47962M254.299 2.99006L254.434 3.29652L254.57 3.60487L254.707 3.9137L255.399 5.47962M254.299 2.99006H287.448M353.747 2.99006H386.896M353.747 2.99006H320.598M353.747 2.99006L354.426 3.60487L355.802 4.84918L356.149 5.1637L356.499 5.47962M386.896 2.99006L387.711 3.60487L388.122 3.9137L388.534 4.22443L390.198 5.47962M386.896 2.99006H420.045M486.344 2.99006H519.493M486.344 2.99006H453.194M486.344 2.99006L487.567 3.60487L488.183 3.9137L491.297 5.47962M519.493 2.99006L520.172 3.29652L520.852 3.60487L524.997 5.47962M519.493 2.99006H552.643M618.941 2.99006H652.091M618.941 2.99006H585.792M618.941 2.99006L620.708 3.60487L621.597 3.9137L626.096 5.47962M652.091 2.99006L659.796 5.47962M652.091 2.99006H685.24M751.539 2.99006H784.688M751.539 2.99006H718.39M751.539 2.99006L760.895 5.47962M784.688 2.99006L794.595 5.47962M784.688 2.99006H817.837M-531.729 25.5268H-531.612M-498.363 25.5268L-485.707 22.3462M-498.363 25.5268L-511.505 28.8292M-498.363 25.5268H-460.232M-498.363 25.5268H-531.612M-485.707 22.3462H-523.135M-485.707 22.3462L-473.509 19.2807M-485.707 22.3462H-448.279M-523.135 22.3462L-510.259 19.2807M-523.135 22.3462H-531.612M-523.135 22.3462L-531.612 24.3641M-485.859 13.4708H-450.392M-485.859 13.4708L-474.286 10.7155M-485.859 13.4708H-521.324M-485.859 13.4708L-497.842 16.3241M-450.392 13.4708L-439.429 10.7155M-450.392 13.4708L-461.745 16.3241M-450.392 13.4708H-414.926M-474.286 10.7155H-439.429M-474.286 10.7155L-463.105 8.05349M-474.286 10.7155H-509.143M-439.429 10.7155H-404.572M-439.429 10.7155L-428.836 8.05349M-531.978 75.7301H-531.612M-501.21 75.7301L-484.889 70.4569M-501.21 75.7301L-518.341 81.2658M-501.21 75.7301H-451.98M-501.21 75.7301H-531.612M-484.889 70.4569L-469.324 65.4276M-484.889 70.4569H-436.826M-484.889 70.4569H-531.612M-516.276 65.4276H-469.324M-516.276 65.4276L-500.353 60.6256M-516.276 65.4276H-531.612M-516.276 65.4276L-531.612 70.0527M-485.134 56.0358H-440.259M-485.134 56.0358L-470.574 51.645M-485.134 56.0358H-530.01M-485.134 56.0358L-500.353 60.6256M-440.259 56.0358L-426.669 51.645M-440.259 56.0358L-454.463 60.6256M-440.259 56.0358H-395.383M-470.574 51.645H-426.669M-470.574 51.645H-514.479M-470.574 51.645L-456.63 47.4398M-426.669 51.645L-413.655 47.4398M-426.669 51.645H-382.764M-430.442 39.542H-389.213M-430.442 39.542L-418.13 35.829M-430.442 39.542H-471.672M-430.442 39.542L-443.265 43.409M-389.213 39.542L-377.722 35.829M-389.213 39.542L-401.18 43.409M-389.213 39.542H-347.983M-418.13 35.829H-377.722M-418.13 35.829H-458.539M-418.13 35.829L-406.299 32.2609M-377.722 35.829L-366.679 32.2609M-377.722 35.829H-337.313M-383.97 25.5268H-345.838M-383.97 25.5268L-373.423 22.3462M-383.97 25.5268H-422.101M-383.97 25.5268L-394.921 28.8292M-345.838 25.5268L-335.995 22.3462M-345.838 25.5268L-356.059 28.8292M-345.838 25.5268H-307.707M-373.423 22.3462H-335.995M-373.423 22.3462H-410.851M-373.423 22.3462L-363.258 19.2807M-335.995 22.3462L-326.507 19.2807M-335.995 22.3462H-298.567M-343.994 13.4708H-308.527M-343.994 13.4708L-334.858 10.7155M-343.994 13.4708H-379.459M-343.994 13.4708L-353.454 16.3241M-308.527 13.4708L-300.001 10.7155M-308.527 13.4708L-317.358 16.3241M-308.527 13.4708H-273.061M-334.858 10.7155H-300.001M-334.858 10.7155L-326.03 8.05349M-334.858 10.7155H-369.715M-300.001 10.7155H-265.143M-300.001 10.7155L-291.761 8.05349M-506.391 167.153L-483.422 156.763M-506.391 167.153L-530.988 178.28M-506.391 167.153H-436.952M-506.391 167.153H-531.612M-483.422 156.763L-461.922 147.037M-483.422 156.763H-416.28M-483.422 156.763H-531.612M-483.888 129.342H-422.807M-483.888 129.342L-464.26 121.271M-483.888 129.342L-504.734 137.916M-483.888 129.342H-531.612M-422.807 129.342L-404.964 121.271M-422.807 129.342L-441.758 137.916M-422.807 129.342H-361.726M-464.26 121.271H-404.964M-464.26 121.271H-523.556M-464.26 121.271L-445.745 113.657M-404.964 121.271L-388.132 113.657M-404.964 121.271H-345.667M-411.702 99.6562H-357.183M-411.702 99.6562L-396.015 93.2054M-411.702 99.6562H-466.22M-411.702 99.6562L-428.254 106.464M-357.183 99.6562L-342.923 93.2054M-357.183 99.6562L-372.231 106.464M-357.183 99.6562H-302.665M-396.015 93.2054H-342.923M-396.015 93.2054H-449.107M-396.015 93.2054L-381.129 87.0834M-342.923 93.2054L-329.389 87.0834M-342.923 93.2054H-289.831M-353.522 75.7301H-304.292M-353.522 75.7301L-340.699 70.4569M-353.522 75.7301H-402.751M-353.522 75.7301L-366.982 81.2658M-304.292 75.7301L-292.635 70.4569M-304.292 75.7301L-316.529 81.2658M-304.292 75.7301H-255.063M-340.699 70.4569H-292.635M-340.699 70.4569H-388.762M-340.699 70.4569L-328.469 65.4276M-292.635 70.4569L-281.517 65.4276M-292.635 70.4569H-244.572M-305.632 56.0358H-260.756M-305.632 56.0358L-294.954 51.645M-305.632 56.0358H-350.508M-305.632 56.0358L-316.792 60.6256M-260.756 56.0358L-251.049 51.645M-260.756 56.0358L-270.902 60.6256M-260.756 56.0358H-215.881M-294.954 51.645H-251.049M-294.954 51.645H-338.859M-294.954 51.645L-284.729 47.4398M-251.049 51.645L-241.753 47.4398M-251.049 51.645H-207.144M-265.524 39.542H-224.295M-265.524 39.542L-256.496 35.829M-265.524 39.542H-306.754M-265.524 39.542L-274.927 43.409M-224.295 39.542L-223.25 39.0698L-216.087 35.829M-224.295 39.542L-232.843 43.409M-224.295 39.542H-183.065M-256.496 35.829H-216.087M-256.496 35.829H-296.904M-256.496 35.829L-247.819 32.2609M-216.087 35.829L-208.199 32.2609M-216.087 35.829H-175.678M-231.445 25.5268H-193.313M-231.445 25.5268L-223.71 22.3462M-231.445 25.5268H-269.576M-231.445 25.5268L-239.475 28.8292M-193.313 25.5268L-186.282 22.3462M-193.313 25.5268L-196.018 26.7508L-200.614 28.8292M-193.313 25.5268H-155.182M-223.71 22.3462H-186.282M-223.71 22.3462H-261.138M-223.71 22.3462L-216.256 19.2807M-186.282 22.3462L-179.505 19.2807M-186.282 22.3462H-148.854M-202.129 13.4708H-166.662M-202.129 13.4708L-195.429 10.7155M-202.129 13.4708H-237.595M-202.129 13.4708L-209.066 16.3241M-166.662 13.4708L-162.074 11.3956L-161.322 11.0546L-160.571 10.7155M-166.662 13.4708L-172.97 16.3241M-166.662 13.4708H-131.196M-195.429 10.7155H-160.571M-195.429 10.7155L-188.955 8.05349M-195.429 10.7155H-230.286M-160.571 10.7155H-125.714M-160.571 10.7155L-154.687 8.05349M-481.232 285.517H-385.627M-481.232 285.517L-451.128 266.063M-481.232 285.517L-514.312 306.895M-481.232 285.517L-531.612 285.518M-385.627 285.517L-359.824 266.063M-385.627 285.517L-413.981 306.895M-385.627 285.517H-290.023M-451.128 266.063H-359.824M-451.128 266.063L-423.616 248.284M-451.128 266.063H-531.612M-359.824 266.063L-336.242 248.284M-359.824 266.063H-268.52M-375.134 216.953H-294.686M-375.134 216.953L-353.666 203.079M-375.134 216.953H-455.582M-375.134 216.953L-398.375 231.972M-294.686 216.953L-276.285 203.079M-294.686 216.953L-314.607 231.972M-294.686 216.953H-214.239M-353.666 203.079H-276.285M-353.666 203.079H-431.047M-353.666 203.079L-333.774 190.224M-276.285 203.079L-259.235 190.224M-276.285 203.079H-198.904M-298.073 167.153H-228.635M-298.073 167.153L-281.995 156.763M-298.073 167.153H-367.513M-298.073 167.153L-315.292 178.28M-228.635 167.153L-214.853 156.763M-228.635 167.153L-243.393 178.28M-228.635 167.153H-159.196M-281.995 156.763H-214.853M-281.995 156.763H-349.137M-281.995 156.763L-266.946 147.037M-214.853 156.763L-201.953 147.037M-214.853 156.763H-147.71M-239.565 129.342H-178.484M-239.565 129.342L-227.074 121.271M-239.565 129.342H-300.645M-239.565 129.342L-252.831 137.916M-178.484 129.342L-167.778 121.271M-178.484 129.342L-189.855 137.916M-178.484 129.342H-117.403M-227.074 121.271H-167.778M-227.074 121.271H-286.371M-227.074 121.271L-215.293 113.657M-167.778 121.271L-157.679 113.657M-167.778 121.271H-108.482M-193.628 99.6562H-139.11M-193.628 99.6562L-183.646 93.2054M-193.628 99.6562H-248.147M-193.628 99.6562L-204.162 106.464M-139.11 99.6562L-130.554 93.2054M-139.11 99.6562L-148.138 106.464M-139.11 99.6562H-84.5914M-183.646 93.2054H-130.554M-183.646 93.2054H-236.738M-183.646 93.2054L-174.173 87.0834M-130.554 93.2054L-122.434 87.0834M-130.554 93.2054H-77.4612M-156.604 75.7301H-107.375M-156.604 75.7301L-148.444 70.4569M-156.604 75.7301H-205.834M-156.604 75.7301L-165.17 81.2658M-107.375 75.7301L-100.381 70.4569M-107.375 75.7301L-114.718 81.2658M-107.375 75.7301H-58.1464M-148.444 70.4569H-100.381M-148.444 70.4569H-196.508M-148.444 70.4569L-140.662 65.4276M-100.381 70.4569L-93.7102 65.4276M-100.381 70.4569H-52.3175M-126.13 56.0358H-81.2534M-126.13 56.0358L-119.334 51.645M-126.13 56.0358H-171.005M-126.13 56.0358L-133.231 60.6256M-81.2534 56.0358L-75.4298 51.645M-81.2534 56.0358L-87.3409 60.6256M-81.2534 56.0358H-36.3781M-119.334 51.645H-75.4298M-119.334 51.645H-163.24M-119.334 51.645L-112.827 47.4398M-75.4298 51.645L-69.8521 47.4398M-75.4298 51.645H-31.5245M-100.607 39.542H-59.3765M-100.607 39.542L-94.8609 35.829M-100.607 39.542H-141.836M-100.607 39.542L-106.591 43.409M-59.3765 39.542L-60.0069 40.0166L-64.506 43.409M-59.3765 39.542L-54.4524 35.829M-59.3765 39.542H-18.1472M-94.8609 35.829H-54.4524M-94.8609 35.829H-135.269M-94.8609 35.829L-89.3393 32.2609M-54.4524 35.829L-49.7194 32.2609M-54.4524 35.829H-14.0431M-78.9192 25.5268H-40.788M-78.9192 25.5268L-73.9974 22.3462M-78.9192 25.5268H-117.05M-78.9192 25.5268L-84.0292 28.8292M-40.788 25.5268L-36.5692 22.3462M-40.788 25.5268L-42.4109 26.7508L-43.506 27.5764L-45.1679 28.8292M-40.788 25.5268H-2.65678M-73.9974 22.3462H-36.5692M-73.9974 22.3462H-111.425M-73.9974 22.3462L-69.2539 19.2807M-36.5692 22.3462L-35.0266 21.1834L-34.0101 20.417L-32.5027 19.2807M-36.5692 22.3462H0.858833M-60.2632 13.4708H-24.7976M-60.2632 13.4708L-57.052 11.3956L-56.0003 10.7155M-60.2632 13.4708H-95.7297M-60.2632 13.4708L-64.1184 15.9617L-64.6784 16.3241M-24.7976 13.4708L-22.0443 11.3956L-21.5931 11.0546L-21.1426 10.7155M-24.7976 13.4708L-26.6731 14.8846L-28.5816 16.3241M-24.7976 13.4708H10.6688M-56.0003 10.7155H-21.1426M-56.0003 10.7155L-51.8805 8.05349M-56.0003 10.7155H-90.8573M-21.1426 10.7155H13.7144M-21.1426 10.7155L-17.612 8.05349M-98.8135 285.517H-3.20923M-98.8135 285.517L-85.9122 266.063M-98.8135 285.517H-194.418M-98.8135 285.517L-112.991 306.895M-3.20923 285.517L5.39242 266.063M-3.20923 285.517L-12.6601 306.895M-3.20923 285.517H92.3958M-85.9122 266.063H5.39242M-85.9122 266.063H-177.216M-85.9122 266.063L-74.121 248.284M5.39242 266.063L13.2527 248.284M5.39242 266.063H96.6962M-53.343 216.953H27.1045M-53.343 216.953L-44.1424 203.079M-53.343 216.953H-133.791M-53.343 216.953L-63.3036 231.972M27.1045 216.953L33.2384 203.079M27.1045 216.953L20.4645 231.972M27.1045 216.953H107.553M-44.1424 203.079H33.2384M-44.1424 203.079H-121.523M-44.1424 203.079L-35.6173 190.224M33.2384 203.079L38.9218 190.224M33.2384 203.079H110.619M-20.3173 167.153H49.1216M-20.3173 167.153L-13.4262 156.763M-20.3173 167.153H-89.7561M-20.3173 167.153L-27.6963 178.28M49.1216 167.153L53.7159 156.763M49.1216 167.153L44.2027 178.28M49.1216 167.153H118.561M-13.4262 156.763H53.7159M-13.4262 156.763H-80.5683M-13.4262 156.763L-6.9767 147.037M53.7159 156.763L58.0156 147.037M53.7159 156.763H120.858M4.75825 129.342H65.8384M4.75825 129.342L10.1111 121.271M4.75825 129.342H-56.3226M4.75825 129.342L-0.927451 137.916M65.8384 129.342L69.4072 121.271M65.8384 129.342L62.0484 137.916M65.8384 129.342H126.919M10.1111 121.271H69.4072M10.1111 121.271H-49.185M10.1111 121.271L15.1604 113.657M69.4072 121.271L72.7736 113.657M69.4072 121.271H128.704M24.4449 99.6562H78.9638M24.4449 99.6562L28.7228 93.2054M24.4449 99.6562H-30.0733M24.4449 99.6562L19.9308 106.464M78.9638 99.6562L81.8152 93.2054M78.9638 99.6562L75.9542 106.464M78.9638 99.6562H133.482M28.7228 93.2054H81.8152M28.7228 93.2054H-24.3688M28.7228 93.2054L32.7834 87.0834M81.8152 93.2054L84.522 87.0834M81.8152 93.2054H134.908M40.3123 75.7301H89.5413M40.3123 75.7301L43.8092 70.4569M40.3123 75.7301H-8.91666M40.3123 75.7301L36.6416 81.2658M89.5413 75.7301L91.8733 70.4569M89.5413 75.7301L87.0939 81.2658M89.5413 75.7301H138.771M43.8092 70.4569H91.8733M43.8092 70.4569H-4.25415M43.8092 70.4569L45.079 68.5433L47.1449 65.4276M91.8733 70.4569L94.0967 65.4276M91.8733 70.4569H139.937M53.3733 56.0358H98.2487M53.3733 56.0358L56.2855 51.645M53.3733 56.0358H8.49722M53.3733 56.0358L51.1035 59.459L50.3292 60.6256M98.2487 56.0358L98.987 54.3666L100.19 51.645M98.2487 56.0358L96.2195 60.6256M98.2487 56.0358H143.125M56.2855 51.645L56.64 51.1093L59.074 47.4398M56.2855 51.645H100.19M56.2855 51.645H12.3801M100.19 51.645L100.897 50.0469L101.129 49.5197L101.362 48.9958L102.049 47.4398M100.19 51.645H144.095M64.3114 39.542H105.541M64.3114 39.542L65.555 37.6668L65.8623 37.204L66.1674 36.7431L66.4718 36.2851L66.7739 35.829M64.3114 39.542H23.0821M64.3114 39.542L61.7471 43.409M105.541 39.542L106.778 36.7431L106.981 36.2851L107.182 35.829M105.541 39.542L103.832 43.409M105.541 39.542H146.771M66.7739 35.829H107.182M66.7739 35.829H26.3653M66.7739 35.829L68.264 33.5824L68.5571 33.1395L69.1403 32.2609M107.182 35.829L108.176 33.5824L108.372 33.1395L108.566 32.699L108.76 32.2609M107.182 35.829H147.592M73.6064 25.5268H111.738M73.6064 25.5268L75.7158 22.3462M73.6064 25.5268H35.4745M73.6064 25.5268L73.066 26.3406L72.2466 27.5764L71.4161 28.8292M111.738 25.5268L111.558 25.9328L110.463 28.4095L110.277 28.8292M111.738 25.5268L113.144 22.3462M111.738 25.5268H149.869M75.7158 22.3462H113.144M75.7158 22.3462H38.2877M75.7158 22.3462L77.7487 19.2807M113.144 22.3462L113.658 21.1834L113.827 20.7992L113.997 20.417L114.499 19.2807M113.144 22.3462H150.572M81.6016 13.4708H117.067M81.6016 13.4708L82.9779 11.3956L83.4284 10.7155M81.6016 13.4708H46.1352M81.6016 13.4708L80.8992 14.5289L80.6639 14.8846L80.4263 15.2422L79.7089 16.3241M117.067 13.4708L117.222 13.1212L117.529 12.4263L117.834 11.7376L118.285 10.7155M117.067 13.4708L116.442 14.8846L116.285 15.2422L115.966 15.9617L115.806 16.3241M117.067 13.4708H152.534M83.4284 10.7155H118.285M83.4284 10.7155L84.9763 8.38127L85.1944 8.05349M83.4284 10.7155H48.5714M118.285 10.7155L118.435 10.3778L118.584 10.0414L118.732 9.70656L118.879 9.37312L119.318 8.38127L119.463 8.05349M118.285 10.7155H153.143M283.604 285.517H379.209M283.604 285.517L279.304 266.063M283.604 285.517H188M283.604 285.517L288.33 306.895M379.209 285.517L370.608 266.063M379.209 285.517L388.66 306.895M379.209 285.517H474.814M279.304 266.063H370.608M279.304 266.063H188M279.304 266.063L275.374 248.284M370.608 266.063L362.747 248.284M370.608 266.063H461.912M268.447 216.953H348.896M268.447 216.953L265.381 203.079M268.447 216.953H188M268.447 216.953L271.768 231.972M348.896 216.953L342.762 203.079M348.896 216.953L355.536 231.972M348.896 216.953H429.343M265.381 203.079H342.762M265.381 203.079H188M265.381 203.079L262.539 190.224M342.762 203.079L337.078 190.224M342.762 203.079H420.142M257.439 167.153H326.878M257.439 167.153L255.142 156.763M257.439 167.153H188M257.439 167.153L259.899 178.28M326.878 167.153L322.284 156.763M326.878 167.153L331.797 178.28M326.878 167.153H396.317M255.142 156.763H322.284M255.142 156.763H188M255.142 156.763L252.992 147.037M322.284 156.763L317.985 147.037M322.284 156.763H389.426M249.081 129.342H310.162M249.081 129.342L247.296 121.271M249.081 129.342H188M249.081 129.342L250.976 137.916M310.162 129.342L306.593 121.271M310.162 129.342L313.952 137.916M310.162 129.342H371.242M247.296 121.271H306.593M247.296 121.271H188M247.296 121.271L245.613 113.657M306.593 121.271L303.226 113.657M306.593 121.271H365.889M242.518 99.6562H297.036M242.518 99.6562L241.092 93.2054M242.518 99.6562H188M242.518 99.6562L244.023 106.464M297.036 99.6562L294.185 93.2054M297.036 99.6562L300.046 106.464M297.036 99.6562H351.555M241.092 93.2054H294.185M241.092 93.2054H188M241.092 93.2054L239.739 87.0834M294.185 93.2054L291.478 87.0834M294.185 93.2054H347.277M237.229 75.7301H286.459M237.229 75.7301L236.063 70.4569M237.229 75.7301H188M237.229 75.7301L238.453 81.2658M286.459 75.7301L284.127 70.4569M286.459 75.7301L288.906 81.2658M286.459 75.7301H335.688M236.063 70.4569H284.127M236.063 70.4569H188M236.063 70.4569L234.952 65.4276M284.127 70.4569L281.903 65.4276M284.127 70.4569H332.191M232.875 56.0358H277.751M232.875 56.0358L231.905 51.645M232.875 56.0358H188M232.875 56.0358L233.89 60.6256M277.751 56.0358L276.048 52.1835L275.81 51.645M277.751 56.0358L279.781 60.6256M277.751 56.0358H322.627M231.905 51.645L231.787 51.1093L230.975 47.4398M231.905 51.645H275.81M231.905 51.645H188M275.81 51.645L275.103 50.0469L274.871 49.5197L274.638 48.9958L273.951 47.4398M275.81 51.645H319.715M229.229 39.542H270.459M229.229 39.542L228.409 35.829M229.229 39.542H188M229.229 39.542L229.546 40.9734L229.653 41.4556L229.759 41.9401L229.975 42.9168L230.085 43.409M270.459 39.542L269.222 36.7431L268.817 35.829M270.459 39.542L272.168 43.409M270.459 39.542H311.689M228.409 35.829H268.817M228.409 35.829H188M228.409 35.829L227.62 32.2609M268.817 35.829L267.825 33.5824L267.628 33.1395L267.434 32.699L267.24 32.2609M268.817 35.829H309.226M226.131 25.5268H264.262M226.131 25.5268L225.428 22.3462M226.131 25.5268H188M226.131 25.5268L226.861 28.8292M264.262 25.5268L264.442 25.9328L265.537 28.4095L265.723 28.8292M264.262 25.5268L262.856 22.3462M264.262 25.5268H302.394M225.428 22.3462H262.856M225.428 22.3462H188M225.428 22.3462L224.751 19.2807M262.856 22.3462L262.342 21.1834L262.173 20.7992L262.003 20.417L261.501 19.2807M262.856 22.3462H300.284M223.467 13.4708H258.933M223.467 13.4708L222.857 10.7155M223.467 13.4708H188M223.467 13.4708L224.097 16.3241M258.933 13.4708L258.778 13.1212L258.47 12.4263L258.318 12.081L258.015 11.3956L257.865 11.0546L257.714 10.7155M258.933 13.4708L259.558 14.8846L259.715 15.2422L260.034 15.9617L260.194 16.3241M258.933 13.4708H294.399M222.857 10.7155L222.783 10.3778L222.708 10.0414L222.634 9.70656L222.269 8.05349M222.857 10.7155H257.714M222.857 10.7155H188M257.714 10.7155H292.572M257.714 10.7155L257.416 10.0414L257.268 9.70656L257.121 9.37312L256.683 8.38127L256.537 8.05349M666.023 285.517H761.627M666.023 285.517L644.52 266.063M666.023 285.517H570.419M666.023 285.517L689.652 306.895M761.627 285.517L735.824 266.063M761.627 285.517L789.981 306.895M761.627 285.517H857.232M644.52 266.063H735.824M644.52 266.063H553.216M644.52 266.063L624.869 248.284M735.824 266.063L712.242 248.284M735.824 266.063H827.128M590.239 216.953H670.687M590.239 216.953L574.904 203.079M590.239 216.953H509.791M590.239 216.953L606.839 231.972M670.687 216.953L652.285 203.079M670.687 216.953L690.607 231.972M670.687 216.953H751.134M574.904 203.079H652.285M574.904 203.079H497.523M574.904 203.079L560.696 190.224M652.285 203.079L635.235 190.224M652.285 203.079H729.666M535.196 167.153H604.635M535.196 167.153L523.71 156.763M535.196 167.153H465.756M535.196 167.153L547.494 178.28M604.635 167.153L590.853 156.763M604.635 167.153L619.393 178.28M604.635 167.153H674.074M523.71 156.763H590.853M523.71 156.763H456.568M523.71 156.763L512.961 147.037M590.853 156.763L577.954 147.037M590.853 156.763H657.995M493.404 129.342H554.484M493.404 129.342L484.482 121.271M493.404 129.342H432.323M493.404 129.342L502.879 137.916M554.484 129.342L543.778 121.271M554.484 129.342L565.855 137.916M554.484 129.342H615.565M484.482 121.271H543.778M484.482 121.271H425.185M484.482 121.271L476.066 113.657M543.778 121.271L533.679 113.657M543.778 121.271H603.074M460.591 99.6562H515.11M460.591 99.6562L453.461 93.2054M460.591 99.6562H406.073M460.591 99.6562L468.115 106.464M515.11 99.6562L506.554 93.2054M515.11 99.6562L524.139 106.464M515.11 99.6562H569.629M453.461 93.2054H506.554M453.461 93.2054H400.369M453.461 93.2054L446.695 87.0834M506.554 93.2054L498.434 87.0834M506.554 93.2054H559.646M434.146 75.7301H483.375M434.146 75.7301L428.318 70.4569M434.146 75.7301H384.917M434.146 75.7301L440.265 81.2658M483.375 75.7301L476.381 70.4569M483.375 75.7301L490.718 81.2658M483.375 75.7301H532.604M428.318 70.4569H476.381M428.318 70.4569H380.254M428.318 70.4569L422.759 65.4276M476.381 70.4569L469.71 65.4276M476.381 70.4569H524.444M412.378 56.0358L413 56.5985L413.626 57.1641L417.451 60.6256M412.378 56.0358H457.254M412.378 56.0358L407.525 51.645M412.378 56.0358H367.503M457.254 56.0358L451.43 51.645M457.254 56.0358L463.341 60.6256M457.254 56.0358H502.13M407.525 51.645H451.43M407.525 51.645H363.62M407.525 51.645L402.877 47.4398M451.43 51.645L445.852 47.4398M451.43 51.645H495.335M394.147 39.542H435.377M394.147 39.542L390.043 35.829M394.147 39.542H352.918M394.147 39.542L398.421 43.409M435.377 39.542L432.275 37.204L430.452 35.829M435.377 39.542L440.506 43.409M435.377 39.542H476.607M390.043 35.829H430.452M390.043 35.829H349.635M390.043 35.829L386.585 32.699L386.1 32.2609M430.452 35.829L425.72 32.2609M430.452 35.829H470.861M378.657 25.5268H416.788M378.657 25.5268L377.766 24.7202L375.141 22.3462M378.657 25.5268H340.526M378.657 25.5268L379.556 26.3406L381.382 27.9918L382.307 28.8292M416.788 25.5268L412.569 22.3462M416.788 25.5268L418.411 26.7508L419.506 27.5764L421.168 28.8292M416.788 25.5268H454.919M375.141 22.3462H412.569M375.141 22.3462H337.712M375.141 22.3462L372.588 20.0362L371.752 19.2807M412.569 22.3462L411.027 21.1834L410.01 20.417L408.503 19.2807M412.569 22.3462H449.997M365.331 13.4708H400.798M365.331 13.4708L363.415 11.7376L362.286 10.7155M365.331 13.4708H329.865M365.331 13.4708L368.485 16.3241M400.798 13.4708L398.044 11.3956L397.593 11.0546L397.143 10.7155M400.798 13.4708L402.673 14.8846L404.582 16.3241M400.798 13.4708H436.263M362.286 10.7155H397.143M362.286 10.7155L360.802 9.37312L360.07 8.71046L359.706 8.38127L359.344 8.05349M362.286 10.7155H327.429M397.143 10.7155H432M397.143 10.7155L393.612 8.05349M884.427 203.079H807.047M884.427 203.079L858.853 190.224M884.427 203.079H907.613M884.427 203.079L907.613 214.733M812.952 167.153H882.391M812.952 167.153L792.28 156.763M812.952 167.153H743.513M812.952 167.153L835.089 178.28M882.391 167.153L859.422 156.763M882.391 167.153L906.988 178.28M882.391 167.153H907.613M792.28 156.763H859.422M792.28 156.763H725.138M792.28 156.763L772.93 147.037M859.422 156.763L837.923 147.037M859.422 156.763H907.613M737.726 129.342H798.807M737.726 129.342L721.667 121.271M737.726 129.342H676.645M737.726 129.342L754.783 137.916M798.807 129.342L780.964 121.271M798.807 129.342L817.758 137.916M798.807 129.342H859.888M721.667 121.271H780.964M721.667 121.271H662.371M721.667 121.271L706.519 113.657M780.964 121.271L764.132 113.657M780.964 121.271H840.26M678.665 99.6562H733.183M678.665 99.6562L665.831 93.2054M678.665 99.6562H624.147M678.665 99.6562L692.208 106.464M733.183 99.6562L718.923 93.2054M733.183 99.6562L748.231 106.464M733.183 99.6562H787.702M665.831 93.2054H718.923M665.831 93.2054H612.739M665.831 93.2054L653.651 87.0834M718.923 93.2054L705.389 87.0834M718.923 93.2054H772.015M631.063 75.7301H680.292M631.063 75.7301L620.572 70.4569M631.063 75.7301H581.834M631.063 75.7301L642.076 81.2658M680.292 75.7301L668.635 70.4569M680.292 75.7301L692.529 81.2658M680.292 75.7301H729.521M620.572 70.4569H668.635M620.572 70.4569H572.508M620.572 70.4569L610.565 65.4276M668.635 70.4569L657.517 65.4276M668.635 70.4569H716.699M591.881 56.0358H636.756M591.881 56.0358L583.144 51.645M591.881 56.0358H547.005M591.881 56.0358L601.012 60.6256M636.756 56.0358L627.049 51.645M636.756 56.0358L646.902 60.6256M636.756 56.0358H681.632M583.144 51.645H627.049M583.144 51.645H539.24M583.144 51.645L574.778 47.4398M627.049 51.645L617.753 47.4398M627.049 51.645H670.954M559.065 39.542H600.294M559.065 39.542L551.678 35.829M559.065 39.542H517.836M559.065 39.542L566.759 43.409M600.294 39.542L592.087 35.829M600.294 39.542L608.844 43.409M600.294 39.542H641.525M551.678 35.829H592.087M551.678 35.829H511.269M551.678 35.829L544.579 32.2609M592.087 35.829L584.199 32.2609M592.087 35.829H632.496M531.182 25.5268H569.313M531.182 25.5268L524.854 22.3462M531.182 25.5268H493.051M531.182 25.5268L532.802 26.3406L533.616 26.7508L537.753 28.8292M569.313 25.5268L562.282 22.3462M569.313 25.5268L576.614 28.8292M569.313 25.5268H607.444M524.854 22.3462H562.282M524.854 22.3462H487.426M524.854 22.3462L518.755 19.2807M562.282 22.3462L555.505 19.2807M562.282 22.3462H599.71M507.196 13.4708H542.662M507.196 13.4708L501.714 10.7155M507.196 13.4708H471.73M507.196 13.4708L512.873 16.3241M542.662 13.4708L538.074 11.3956L537.322 11.0546L536.571 10.7155M542.662 13.4708L548.97 16.3241M542.662 13.4708H578.128M501.714 10.7155H536.571M501.714 10.7155L497.071 8.38127L496.418 8.05349M501.714 10.7155H466.857M536.571 10.7155H571.429M536.571 10.7155L530.687 8.05349M896.738 99.6562L878.2 93.2054M896.738 99.6562H842.22M896.738 99.6562L907.613 103.44M896.738 99.6562H907.613M878.2 93.2054H825.107M878.2 93.2054L860.607 87.0834M878.2 93.2054H907.613M827.98 75.7301H877.21M827.98 75.7301L812.825 70.4569M827.98 75.7301H778.751M827.98 75.7301L843.888 81.2658M877.21 75.7301L860.889 70.4569M877.21 75.7301L894.341 81.2658M877.21 75.7301H907.613M812.825 70.4569H860.889M812.825 70.4569H764.762M812.825 70.4569L798.372 65.4276M860.889 70.4569L845.324 65.4276M860.889 70.4569H907.613M771.383 56.0358H816.259M771.383 56.0358L758.764 51.645M771.383 56.0358H726.508M771.383 56.0358L784.573 60.6256M816.259 56.0358L802.669 51.645M816.259 56.0358L830.463 60.6256M816.259 56.0358H861.135M758.764 51.645H802.669M758.764 51.645H714.859M758.764 51.645L746.679 47.4398M802.669 51.645L789.655 47.4398M802.669 51.645H846.574M723.983 39.542H765.212M723.983 39.542L713.313 35.829M723.983 39.542H682.754M723.983 39.542L735.096 43.409M765.212 39.542L753.722 35.829M765.212 39.542L777.18 43.409M765.212 39.542H806.443M713.313 35.829H753.722M713.313 35.829H672.904M713.313 35.829L703.059 32.2609M753.722 35.829L742.679 32.2609M753.722 35.829H794.13M683.707 25.5268H721.839M683.707 25.5268L674.567 22.3462M683.707 25.5268H645.576M683.707 25.5268L693.198 28.8292M721.839 25.5268L711.995 22.3462M721.839 25.5268L732.059 28.8292M721.839 25.5268H759.97M674.567 22.3462H711.995M674.567 22.3462H637.138M674.567 22.3462L665.757 19.2807M711.995 22.3462L702.507 19.2807M711.995 22.3462H749.423M649.061 13.4708H684.527M649.061 13.4708L641.143 10.7155M649.061 13.4708H613.595M649.061 13.4708L657.26 16.3241M684.527 13.4708L676 10.7155M684.527 13.4708L693.358 16.3241M684.527 13.4708H719.994M641.143 10.7155H676M641.143 10.7155L633.493 8.05349M641.143 10.7155H606.286M676 10.7155H710.858M676 10.7155L667.761 8.05349M888.901 39.542L874.947 35.829M888.901 39.542H847.672M888.901 39.542L903.434 43.409M888.901 39.542H907.613M874.947 35.829H834.539M874.947 35.829L861.539 32.2609M874.947 35.829H907.613M836.232 25.5268H874.363M836.232 25.5268L824.279 22.3462M836.232 25.5268H798.101M836.232 25.5268L848.643 28.8292M874.363 25.5268L861.707 22.3462M874.363 25.5268L887.505 28.8292M874.363 25.5268H907.613M824.279 22.3462H861.707M824.279 22.3462H786.851M824.279 22.3462L812.759 19.2807M861.707 22.3462L849.509 19.2807M861.707 22.3462H899.135M790.926 13.4708H826.392M790.926 13.4708L780.572 10.7155M790.926 13.4708H755.459M790.926 13.4708L801.648 16.3241M826.392 13.4708L815.429 10.7155M826.392 13.4708L837.745 16.3241M826.392 13.4708H861.859M780.572 10.7155H815.429M780.572 10.7155L770.568 8.05349M780.572 10.7155H745.715M815.429 10.7155H850.286M815.429 10.7155L804.836 8.05349M837.745 16.3241L849.509 19.2807M837.745 16.3241H873.842M837.745 16.3241H801.648M861.859 13.4708L850.286 10.7155M861.859 13.4708L873.842 16.3241M861.859 13.4708H897.324M850.286 10.7155H885.143M850.286 10.7155L839.105 8.05349M804.836 8.05349H770.568M804.836 8.05349H839.105M804.836 8.05349L794.595 5.47962M873.842 16.3241L886.26 19.2807M873.842 16.3241H907.613M897.324 13.4708L885.143 10.7155M897.324 13.4708L907.613 15.7976M897.324 13.4708H907.613M885.143 10.7155L873.373 8.05349M885.143 10.7155H907.613M839.105 8.05349H873.373M839.105 8.05349L828.295 5.47962M873.373 8.05349L861.994 5.47962M873.373 8.05349H907.613M849.509 19.2807H886.26M849.509 19.2807H812.759M899.135 22.3462L886.26 19.2807M899.135 22.3462L907.613 24.3641M899.135 22.3462H907.613M886.26 19.2807H907.613M812.759 19.2807H776.008M812.759 19.2807L801.648 16.3241M801.648 16.3241H765.551M887.505 28.8292L901.159 32.2609M887.505 28.8292H848.643M887.505 28.8292H907.613M907.729 25.5268H907.613M901.159 32.2609H861.539M901.159 32.2609L907.613 33.8827M901.159 32.2609H907.613M861.539 32.2609H821.919M861.539 32.2609L848.643 28.8292M848.643 28.8292H809.782M693.358 16.3241L702.507 19.2807M693.358 16.3241H729.454M693.358 16.3241H657.26M719.994 13.4708L710.858 10.7155M719.994 13.4708L729.454 16.3241M719.994 13.4708H755.459M710.858 10.7155H745.715M710.858 10.7155L702.03 8.05349M667.761 8.05349H702.03M667.761 8.05349L659.796 5.47962M667.761 8.05349H633.493M729.454 16.3241L739.258 19.2807M729.454 16.3241H765.551M755.459 13.4708L745.715 10.7155M755.459 13.4708L765.551 16.3241M745.715 10.7155L736.299 8.05349M702.03 8.05349H736.299M702.03 8.05349L693.496 5.47962M765.551 16.3241L776.008 19.2807M770.568 8.05349H736.299M770.568 8.05349L760.895 5.47962M736.299 8.05349L727.195 5.47962M702.507 19.2807H739.258M702.507 19.2807H665.757M749.423 22.3462L739.258 19.2807M749.423 22.3462L759.97 25.5268M749.423 22.3462H786.851M739.258 19.2807H776.008M665.757 19.2807H629.006M665.757 19.2807L657.26 16.3241M776.008 19.2807L786.851 22.3462M657.26 16.3241H621.163M759.97 25.5268L770.921 28.8292M759.97 25.5268H798.101M786.851 22.3462L798.101 25.5268M798.101 25.5268L809.782 28.8292M732.059 28.8292L742.679 32.2609M732.059 28.8292H770.921M732.059 28.8292H693.198M770.921 28.8292L782.299 32.2609M770.921 28.8292H809.782M809.782 28.8292L821.919 32.2609M742.679 32.2609H782.299M742.679 32.2609H703.059M794.13 35.829L782.299 32.2609M794.13 35.829L806.443 39.542M794.13 35.829H834.539M782.299 32.2609H821.919M703.059 32.2609H663.439M703.059 32.2609L693.198 28.8292M821.919 32.2609L834.539 35.829M693.198 28.8292H654.337M806.443 39.542L819.265 43.409M806.443 39.542H847.672M834.539 35.829L847.672 39.542M847.672 39.542L861.349 43.409M777.18 43.409L789.655 47.4398M777.18 43.409H819.265M777.18 43.409H735.096M819.265 43.409L832.63 47.4398M819.265 43.409H861.349M861.349 43.409L875.606 47.4398M861.349 43.409H903.434M903.434 43.409H907.613M903.434 43.409L907.613 44.5208M789.655 47.4398H832.63M789.655 47.4398H746.679M846.574 51.645L832.63 47.4398M846.574 51.645L861.135 56.0358M846.574 51.645H890.479M832.63 47.4398H875.606M746.679 47.4398H703.704M746.679 47.4398L735.096 43.409M875.606 47.4398L890.479 51.645M875.606 47.4398H907.613M735.096 43.409H693.012M861.135 56.0358L876.353 60.6256M861.135 56.0358H906.01M890.479 51.645L906.01 56.0358M890.479 51.645H907.613M907.837 47.4398H907.613M906.01 56.0358L907.613 56.489M906.01 56.0358H907.613M830.463 60.6256L845.324 65.4276M830.463 60.6256H876.353M830.463 60.6256H784.573M876.353 60.6256L892.276 65.4276M876.353 60.6256H907.613M908 56.5985L907.613 56.489M845.324 65.4276H892.276M845.324 65.4276H798.372M892.276 65.4276H907.613M892.276 65.4276L907.613 70.0527M798.372 65.4276H751.421M798.372 65.4276L784.573 60.6256M784.573 60.6256H738.683M894.341 81.2658H843.888M894.341 81.2658L907.613 85.554M894.341 81.2658H907.613M907.978 75.7301H907.613M843.888 81.2658H793.435M843.888 81.2658L860.607 87.0834M907.759 85.6013L907.613 85.554M548.97 16.3241L555.505 19.2807M548.97 16.3241H585.066M548.97 16.3241H512.873M578.128 13.4708L571.429 10.7155M578.128 13.4708L585.066 16.3241M578.128 13.4708H613.595M571.429 10.7155H606.286M571.429 10.7155L564.956 8.05349M530.687 8.05349H564.956M530.687 8.05349L528.53 7.07823L524.997 5.47962M530.687 8.05349H496.418M585.066 16.3241L592.256 19.2807M585.066 16.3241H621.163M613.595 13.4708L606.286 10.7155M613.595 13.4708L621.163 16.3241M606.286 10.7155L599.224 8.05349M564.956 8.05349H599.224M564.956 8.05349L558.697 5.47962M621.163 16.3241L629.006 19.2807M633.493 8.05349L626.096 5.47962M633.493 8.05349H599.224M599.224 8.05349L598.358 7.72667L596.636 7.07823L592.397 5.47962M555.505 19.2807H592.256M555.505 19.2807H518.755M599.71 22.3462L592.256 19.2807M599.71 22.3462L607.444 25.5268M599.71 22.3462H637.138M592.256 19.2807H629.006M518.755 19.2807H482.004M518.755 19.2807L512.873 16.3241M629.006 19.2807L637.138 22.3462M512.873 16.3241H476.775M607.444 25.5268L615.475 28.8292M607.444 25.5268H645.576M637.138 22.3462L638.176 22.737L645.576 25.5268M645.576 25.5268L654.337 28.8292M576.614 28.8292L577.546 29.2512L584.199 32.2609M576.614 28.8292H615.475M576.614 28.8292H537.753M615.475 28.8292L623.819 32.2609M615.475 28.8292H654.337M654.337 28.8292L663.439 32.2609M584.199 32.2609H623.819M584.199 32.2609H544.579M632.496 35.829L623.819 32.2609M632.496 35.829L641.525 39.542M632.496 35.829H672.904M623.819 32.2609H663.439M544.579 32.2609H504.959M544.579 32.2609L537.753 28.8292M663.439 32.2609L672.904 35.829M537.753 28.8292H498.891M641.525 39.542L650.927 43.409M641.525 39.542H682.754M672.904 35.829L682.754 39.542M682.754 39.542L693.012 43.409M608.844 43.409L617.753 47.4398M608.844 43.409H650.927M608.844 43.409H566.759M650.927 43.409L660.729 47.4398M650.927 43.409H693.012M693.012 43.409L703.704 47.4398M617.753 47.4398H660.729M617.753 47.4398H574.778M670.954 51.645L660.729 47.4398M670.954 51.645L681.632 56.0358M670.954 51.645H714.859M660.729 47.4398H703.704M574.778 47.4398H531.803M574.778 47.4398L566.759 43.409M703.704 47.4398L714.859 51.645M566.759 43.409H524.674M681.632 56.0358L692.792 60.6256M681.632 56.0358H726.508M714.859 51.645L726.508 56.0358M726.508 56.0358L738.683 60.6256M646.902 60.6256L657.517 65.4276M646.902 60.6256H692.792M646.902 60.6256H601.012M692.792 60.6256L704.469 65.4276M692.792 60.6256H738.683M738.683 60.6256L751.421 65.4276M657.517 65.4276H704.469M657.517 65.4276H610.565M716.699 70.4569L704.469 65.4276M716.699 70.4569L729.521 75.7301M716.699 70.4569H764.762M704.469 65.4276H751.421M610.565 65.4276H563.614M610.565 65.4276L601.012 60.6256M751.421 65.4276L764.762 70.4569M601.012 60.6256H555.122M729.521 75.7301L742.982 81.2658M729.521 75.7301H778.751M764.762 70.4569L778.751 75.7301M778.751 75.7301L793.435 81.2658M692.529 81.2658L705.389 87.0834M692.529 81.2658H742.982M692.529 81.2658H642.076M742.982 81.2658L757.129 87.0834M742.982 81.2658H793.435M793.435 81.2658L808.867 87.0834M705.389 87.0834H757.129M705.389 87.0834H653.651M772.015 93.2054L757.129 87.0834M772.015 93.2054L787.702 99.6562M772.015 93.2054H825.107M757.129 87.0834H808.867M653.651 87.0834H601.911M653.651 87.0834L642.076 81.2658M808.867 87.0834L825.107 93.2054M808.867 87.0834H860.607M642.076 81.2658H591.623M787.702 99.6562L804.254 106.464M787.702 99.6562H842.22M825.107 93.2054L842.22 99.6562M860.607 87.0834H907.613M842.22 99.6562L860.277 106.464M748.231 106.464L764.132 113.657M748.231 106.464H804.254M748.231 106.464H692.208M804.254 106.464L821.745 113.657M804.254 106.464H860.277M860.277 106.464L879.359 113.657M860.277 106.464H907.613M764.132 113.657H821.745M764.132 113.657H706.519M840.26 121.271L821.745 113.657M840.26 121.271L859.888 129.342M840.26 121.271H899.556M821.745 113.657H879.359M706.519 113.657H648.906M706.519 113.657L692.208 106.464M879.359 113.657L899.556 121.271M879.359 113.657H907.613M692.208 106.464H636.184M859.888 129.342L880.734 137.916M859.888 129.342H907.613M899.556 121.271H907.613M899.556 121.271L907.613 124.308M817.758 137.916L837.923 147.037M817.758 137.916H880.734M817.758 137.916H754.783M880.734 137.916L902.915 147.037M880.734 137.916H907.613M837.923 147.037H902.915M837.923 147.037H772.93M902.915 147.037L907.613 148.969M902.915 147.037H907.613M772.93 147.037H707.938M772.93 147.037L754.783 137.916M754.783 137.916H691.807M906.988 178.28H835.089M906.988 178.28H907.613M906.988 178.28L907.613 178.563M835.089 178.28H763.191M835.089 178.28L858.853 190.224M404.582 16.3241L406.036 17.4201L406.525 17.7891L408.503 19.2807M404.582 16.3241H440.679M404.582 16.3241H368.485M436.263 13.4708L433.052 11.3956L432 10.7155M436.263 13.4708L440.119 15.9617L440.679 16.3241M436.263 13.4708H471.73M432 10.7155H466.857M432 10.7155L427.881 8.05349M393.612 8.05349H427.881M393.612 8.05349L392.318 7.07823L390.198 5.47962M393.612 8.05349H359.344M440.679 16.3241L441.807 17.053L445.254 19.2807M440.679 16.3241H476.775M471.73 13.4708L466.857 10.7155M471.73 13.4708L476.775 16.3241M466.857 10.7155L463.311 8.71046L462.149 8.05349M427.881 8.05349H462.149M427.881 8.05349L423.898 5.47962M476.775 16.3241L482.004 19.2807M496.418 8.05349L495.769 7.72667L491.297 5.47962M496.418 8.05349H462.149M462.149 8.05349L460.424 7.07823L457.598 5.47962M408.503 19.2807H445.254M408.503 19.2807H371.752M449.997 22.3462L445.254 19.2807M449.997 22.3462L454.919 25.5268M449.997 22.3462H487.426M445.254 19.2807H482.004M371.752 19.2807H335.002M371.752 19.2807L368.485 16.3241M482.004 19.2807L487.426 22.3462M368.485 16.3241H332.388M454.919 25.5268L458.09 27.5764L458.734 27.9918L460.029 28.8292M454.919 25.5268H493.051M487.426 22.3462L493.051 25.5268M493.051 25.5268L498.891 28.8292M421.168 28.8292L425.72 32.2609M421.168 28.8292H460.029M421.168 28.8292H382.307M460.029 28.8292L465.339 32.2609M460.029 28.8292H498.891M498.891 28.8292L504.959 32.2609M425.72 32.2609H465.339M425.72 32.2609H386.1M470.861 35.829L467.384 33.5824L466.7 33.1395L465.339 32.2609M470.861 35.829L476.607 39.542M470.861 35.829H511.269M465.339 32.2609H504.959M386.1 32.2609H346.48M386.1 32.2609L382.307 28.8292M504.959 32.2609L511.269 35.829M382.307 28.8292H343.445M476.607 39.542L482.591 43.409M476.607 39.542H517.836M511.269 35.829L517.836 39.542M517.836 39.542L524.674 43.409M440.506 43.409L443.151 45.4031L443.821 45.9085L445.852 47.4398M440.506 43.409H482.591M440.506 43.409H398.421M482.591 43.409L488.827 47.4398M482.591 43.409H524.674M524.674 43.409L531.803 47.4398M445.852 47.4398H488.827M445.852 47.4398H402.877M495.335 51.645L488.827 47.4398M495.335 51.645L502.13 56.0358M495.335 51.645H539.24M488.827 47.4398H531.803M402.877 47.4398H359.901M402.877 47.4398L401.745 46.4162L398.421 43.409M531.803 47.4398L539.24 51.645M398.421 43.409H356.338M502.13 56.0358L509.231 60.6256M502.13 56.0358H547.005M539.24 51.645L547.005 56.0358M547.005 56.0358L555.122 60.6256M463.341 60.6256L469.71 65.4276M463.341 60.6256H509.231M463.341 60.6256H417.451M509.231 60.6256L516.662 65.4276M509.231 60.6256H555.122M555.122 60.6256L563.614 65.4276M469.71 65.4276H516.662M469.71 65.4276H422.759M524.444 70.4569L516.662 65.4276M524.444 70.4569L532.604 75.7301M524.444 70.4569H572.508M516.662 65.4276H563.614M422.759 65.4276H375.807M422.759 65.4276L417.451 60.6256M563.614 65.4276L572.508 70.4569M417.451 60.6256H371.561M532.604 75.7301L541.17 81.2658M532.604 75.7301H581.834M572.508 70.4569L581.834 75.7301M581.834 75.7301L591.623 81.2658M490.718 81.2658L498.434 87.0834M490.718 81.2658H541.17M490.718 81.2658H440.265M541.17 81.2658L550.173 87.0834M541.17 81.2658H591.623M591.623 81.2658L601.911 87.0834M498.434 87.0834H550.173M498.434 87.0834H446.695M559.646 93.2054L550.173 87.0834M559.646 93.2054L569.629 99.6562M559.646 93.2054H612.739M550.173 87.0834H601.911M446.695 87.0834H394.956M446.695 87.0834L440.265 81.2658M601.911 87.0834L612.739 93.2054M440.265 81.2658H389.812M569.629 99.6562L580.162 106.464M569.629 99.6562H624.147M612.739 93.2054L624.147 99.6562M624.147 99.6562L636.184 106.464M524.139 106.464L533.679 113.657M524.139 106.464H580.162M524.139 106.464H468.115M580.162 106.464L591.293 113.657M580.162 106.464H636.184M636.184 106.464L648.906 113.657M533.679 113.657H591.293M533.679 113.657H476.066M603.074 121.271L591.293 113.657M603.074 121.271L615.565 129.342M603.074 121.271H662.371M591.293 113.657H648.906M476.066 113.657H418.453M476.066 113.657L468.115 106.464M648.906 113.657L662.371 121.271M468.115 106.464H412.093M615.565 129.342L628.831 137.916M615.565 129.342H676.645M662.371 121.271L676.645 129.342M676.645 129.342L691.807 137.916M565.855 137.916L577.954 147.037M565.855 137.916H628.831M565.855 137.916H502.879M628.831 137.916L642.946 147.037M628.831 137.916H691.807M691.807 137.916L707.938 147.037M577.954 147.037H642.946M577.954 147.037H512.961M657.995 156.763L642.946 147.037M657.995 156.763L674.074 167.153M657.995 156.763H725.138M642.946 147.037H707.938M512.961 147.037H447.969M512.961 147.037L502.879 137.916M707.938 147.037L725.138 156.763M502.879 137.916H439.903M674.074 167.153L691.292 178.28M674.074 167.153H743.513M725.138 156.763L743.513 167.153M743.513 167.153L763.191 178.28M619.393 178.28L635.235 190.224M619.393 178.28H691.292M619.393 178.28H547.494M691.292 178.28L709.774 190.224M691.292 178.28H763.191M763.191 178.28L784.314 190.224M635.235 190.224H709.774M635.235 190.224H560.696M729.666 203.079L709.774 190.224M729.666 203.079L751.134 216.953M729.666 203.079H807.047M709.774 190.224H784.314M560.696 190.224H486.156M560.696 190.224L547.494 178.28M784.314 190.224L807.047 203.079M784.314 190.224H858.853M547.494 178.28H475.595M751.134 216.953L774.375 231.972M751.134 216.953H831.582M807.047 203.079L831.582 216.953M858.853 190.224H907.613M831.582 216.953L858.143 231.972M831.582 216.953H907.613M690.607 231.972L712.242 248.284M690.607 231.972H774.375M690.607 231.972H606.839M774.375 231.972L799.616 248.284M774.375 231.972H858.143M858.143 231.972L886.99 248.284M858.143 231.972H907.613M712.242 248.284H799.616M712.242 248.284H624.869M827.128 266.063L799.616 248.284M827.128 266.063L857.232 285.517M827.128 266.063H907.613M799.616 248.284H886.99M624.869 248.284H537.495M624.869 248.284L606.839 231.972M886.99 248.284H907.613M886.99 248.284L907.613 259.945M606.839 231.972H523.071M857.232 285.517L890.312 306.895M857.232 285.517H907.613M789.981 306.895L821.284 330.496M789.981 306.895H890.312M789.981 306.895H689.652M890.312 306.895L907.613 318.076M890.312 306.895H907.613M821.284 330.496H715.737M821.284 330.496L907.613 330.496M715.737 330.496H610.19M715.737 330.496L689.652 306.895M689.652 306.895H589.321M260.194 16.3241L260.355 16.6879L260.516 17.053L260.679 17.4201L260.841 17.7891L261.335 18.9051L261.501 19.2807M260.194 16.3241H296.291M260.194 16.3241H224.097M294.399 13.4708L293.022 11.3956L292.572 10.7155M294.399 13.4708L295.574 15.2422L296.291 16.3241M294.399 13.4708H329.865M292.572 10.7155H327.429M292.572 10.7155L291.242 8.71046L290.806 8.05349M256.537 8.05349L256.393 7.72667L255.822 6.43452L255.399 5.47962M256.537 8.05349H290.806M256.537 8.05349H222.269M296.291 16.3241L296.532 16.6879L296.775 17.053L297.018 17.4201L297.263 17.7891L298.251 19.2807M296.291 16.3241H332.388M329.865 13.4708L328.03 11.3956L327.429 10.7155M329.865 13.4708L332.388 16.3241M327.429 10.7155L326.241 9.37312L325.364 8.38127L325.075 8.05349M290.806 8.05349L290.59 7.72667L290.16 7.07823L289.732 6.43452L289.521 6.1148L289.099 5.47962M290.806 8.05349H325.075M332.388 16.3241L334.34 18.5313L335.002 19.2807M359.344 8.05349L357.201 6.1148L356.499 5.47962M359.344 8.05349H325.075M325.075 8.05349L323.08 5.79651L322.798 5.47962M261.501 19.2807H298.251M261.501 19.2807H224.751M300.284 22.3462L298.251 19.2807M300.284 22.3462L302.394 25.5268M300.284 22.3462H337.712M298.251 19.2807H335.002M224.751 19.2807H188M224.751 19.2807L224.097 16.3241M335.002 19.2807L337.712 22.3462M224.097 16.3241H188M302.394 25.5268L302.934 26.3406L303.753 27.5764L304.584 28.8292M302.394 25.5268H340.526M337.712 22.3462L338.059 22.737L340.526 25.5268M340.526 25.5268L340.884 25.9328L341.245 26.3406L341.607 26.7508L343.445 28.8292M265.723 28.8292L267.24 32.2609M265.723 28.8292H304.584M265.723 28.8292H226.861M304.584 28.8292L306.86 32.2609M304.584 28.8292H343.445M343.445 28.8292L345.71 31.3903L346.094 31.8246L346.48 32.2609M267.24 32.2609H306.86M267.24 32.2609H227.62M309.226 35.829L309.528 36.2851L309.833 36.7431L310.138 37.204L311.689 39.542M309.226 35.829L308.031 34.0272L307.736 33.5824L307.443 33.1395L306.86 32.2609M309.226 35.829H349.635M306.86 32.2609H346.48M227.62 32.2609H188M227.62 32.2609L226.861 28.8292M346.48 32.2609L349.635 35.829M226.861 28.8292H188M311.689 39.542L313.927 42.9168L314.253 43.409M311.689 39.542H352.918M349.635 35.829L350.444 36.7431L352.918 39.542M352.918 39.542L354.184 40.9734L356.338 43.409M272.168 43.409L273.051 45.4031L273.273 45.9085L273.951 47.4398M272.168 43.409H314.253M272.168 43.409H230.085M314.253 43.409L316.926 47.4398M314.253 43.409H356.338M356.338 43.409L359.901 47.4398M273.951 47.4398H316.926M273.951 47.4398H230.975M319.715 51.645L316.926 47.4398M319.715 51.645L322.627 56.0358M319.715 51.645H363.62M316.926 47.4398H359.901M230.975 47.4398H188M230.975 47.4398L230.749 46.4162L230.304 44.4008L230.085 43.409M359.901 47.4398L363.62 51.645M230.085 43.409H188M322.627 56.0358L324.897 59.459L325.671 60.6256M322.627 56.0358H367.503M363.62 51.645L367.503 56.0358M367.503 56.0358L369.509 58.3051L371.561 60.6256M279.781 60.6256L281.903 65.4276M279.781 60.6256H325.671M279.781 60.6256H233.89M325.671 60.6256L328.855 65.4276M325.671 60.6256H371.561M371.561 60.6256L375.807 65.4276M281.903 65.4276H328.855M281.903 65.4276H234.952M332.191 70.4569L331.342 69.1775L328.855 65.4276M332.191 70.4569L335.688 75.7301M332.191 70.4569H380.254M328.855 65.4276H375.807M234.952 65.4276H188M234.952 65.4276L233.89 60.6256M375.807 65.4276L380.254 70.4569M233.89 60.6256H188M335.688 75.7301L339.359 81.2658M335.688 75.7301H384.917M380.254 70.4569L384.917 75.7301M384.917 75.7301L389.812 81.2658M288.906 81.2658L291.478 87.0834M288.906 81.2658H339.359M288.906 81.2658H238.453M339.359 81.2658L343.217 87.0834M339.359 81.2658H389.812M389.812 81.2658L394.956 87.0834M291.478 87.0834H343.217M291.478 87.0834H239.739M347.277 93.2054L343.217 87.0834M347.277 93.2054L351.555 99.6562M347.277 93.2054H400.369M343.217 87.0834H394.956M239.739 87.0834H188M239.739 87.0834L238.61 81.9773L238.453 81.2658M394.956 87.0834L400.369 93.2054M238.453 81.2658H188M351.555 99.6562L356.069 106.464M351.555 99.6562H406.073M400.369 93.2054L404.618 98.0116L406.073 99.6562M406.073 99.6562L412.093 106.464M300.046 106.464L303.226 113.657M300.046 106.464H356.069M300.046 106.464H244.023M356.069 106.464L360.84 113.657M356.069 106.464H412.093M412.093 106.464L418.453 113.657M303.226 113.657H360.84M303.226 113.657H245.613M365.889 121.271L360.84 113.657M365.889 121.271L371.242 129.342M365.889 121.271H425.185M360.84 113.657H418.453M245.613 113.657H188M245.613 113.657L244.023 106.464M418.453 113.657L425.185 121.271M244.023 106.464H188M371.242 129.342L376.927 137.916M371.242 129.342H432.323M425.185 121.271L432.323 129.342M432.323 129.342L439.903 137.916M313.952 137.916L317.985 147.037M313.952 137.916H376.927M313.952 137.916H250.976M376.927 137.916L382.977 147.037M376.927 137.916H439.903M439.903 137.916L447.969 147.037M317.985 147.037H382.977M317.985 147.037H252.992M389.426 156.763L382.977 147.037M389.426 156.763L396.317 167.153M389.426 156.763H456.568M382.977 147.037H447.969M252.992 147.037H188M252.992 147.037L250.976 137.916M447.969 147.037L456.568 156.763M250.976 137.916H188M396.317 167.153L403.696 178.28M396.317 167.153H465.756M456.568 156.763L465.756 167.153M465.756 167.153L475.595 178.28M331.797 178.28L337.078 190.224M331.797 178.28H403.696M331.797 178.28H259.899M403.696 178.28L411.617 190.224M403.696 178.28H475.595M475.595 178.28L486.156 190.224M337.078 190.224H411.617M337.078 190.224H262.539M420.142 203.079L411.617 190.224M420.142 203.079L429.343 216.953M420.142 203.079H497.523M411.617 190.224H486.156M262.539 190.224H188M262.539 190.224L259.899 178.28M486.156 190.224L497.523 203.079M259.899 178.28H188M429.343 216.953L439.304 231.972M429.343 216.953H509.791M497.523 203.079L509.791 216.953M509.791 216.953L523.071 231.972M355.536 231.972L362.747 248.284M355.536 231.972H439.304M355.536 231.972H271.768M439.304 231.972L450.121 248.284M439.304 231.972H523.071M523.071 231.972L537.495 248.284M362.747 248.284H450.121M362.747 248.284H275.374M461.912 266.063L450.121 248.284M461.912 266.063L474.814 285.517M461.912 266.063H553.216M450.121 248.284H537.495M275.374 248.284H188M275.374 248.284L271.768 231.972M537.495 248.284L553.216 266.063M271.768 231.972H188M474.814 285.517L488.991 306.895M474.814 285.517H570.419M553.216 266.063L570.419 285.517M570.419 285.517L589.321 306.895M388.66 306.895L399.095 330.496M388.66 306.895H488.991M388.66 306.895H288.33M488.991 306.895L504.642 330.496M488.991 306.895H589.321M589.321 306.895L610.19 330.496M504.642 330.496H399.095M504.642 330.496H610.19M399.095 330.496H293.548M293.548 330.496H188M293.548 330.496L288.33 306.895M288.33 306.895H188M115.806 16.3241L115.645 16.6879L115.484 17.053L115.321 17.4201L115.159 17.7891L114.83 18.5313L114.665 18.9051L114.499 19.2807M115.806 16.3241H151.903M115.806 16.3241H79.7089M152.534 13.4708L153.143 10.7155M152.534 13.4708L151.903 16.3241M152.534 13.4708H188M153.143 10.7155L153.217 10.3778L153.292 10.0414L153.366 9.70656L153.732 8.05349M153.143 10.7155H188M119.463 8.05349L119.607 7.72667L120.178 6.43452L120.601 5.47962M119.463 8.05349H153.732M119.463 8.05349H85.1944M151.903 16.3241L151.822 16.6879L151.742 17.053L151.66 17.4201L151.25 19.2807M151.903 16.3241H188M188 13.4708V10.7155M188 13.4708V16.3241M188 10.7155V8.05349M153.732 8.05349H188M153.732 8.05349L153.947 7.07823L154.019 6.75567L154.3 5.47962M188 16.3241V19.2807M222.269 8.05349L222.054 7.07823L221.982 6.75567L221.911 6.43452L221.84 6.1148L221.77 5.79651L221.7 5.47962M222.269 8.05349H188M188 8.05349V5.47962M114.499 19.2807H151.25M114.499 19.2807H77.7487M150.572 22.3462L150.485 22.737L150.399 23.1301L149.869 25.5268M150.572 22.3462L151.25 19.2807M150.572 22.3462H188M151.25 19.2807H188M77.7487 19.2807H40.9982M77.7487 19.2807L78.2449 18.5313L78.4923 18.1595L78.7374 17.7891L78.9825 17.4201L79.2254 17.053L79.4683 16.6879L79.7089 16.3241M188 19.2807V22.3462M79.7089 16.3241H43.6121M149.869 25.5268L149.139 28.8292M149.869 25.5268H188M188 22.3462V25.5268M188 25.5268V28.8292M110.277 28.8292L108.76 32.2609M110.277 28.8292H149.139M110.277 28.8292H71.4161M149.139 28.8292L148.38 32.2609M149.139 28.8292H188M188 28.8292V32.2609M108.76 32.2609H148.38M108.76 32.2609H69.1403M147.592 35.829L148.38 32.2609M147.592 35.829L146.771 39.542M147.592 35.829H188M148.38 32.2609H188M69.1403 32.2609H29.5204M69.1403 32.2609L71.4161 28.8292M188 32.2609V35.829M71.4161 28.8292H32.5548M146.771 39.542L146.454 40.9734L146.133 42.4271L145.915 43.409M146.771 39.542H188M188 35.829V39.542M188 39.542V43.409M103.832 43.409L102.949 45.4031L102.727 45.9085L102.049 47.4398M103.832 43.409H145.915M103.832 43.409H61.7471M145.915 43.409L145.697 44.4008L145.251 46.4162L145.025 47.4398M145.915 43.409H188M188 43.409V47.4398M102.049 47.4398H145.025M102.049 47.4398H59.074M144.095 51.645L144.213 51.1093L145.025 47.4398M144.095 51.645L143.125 56.0358M144.095 51.645H188M145.025 47.4398H188M59.074 47.4398H16.0989M59.074 47.4398L61.7471 43.409M188 47.4398V51.645M61.7471 43.409H19.6625M143.125 56.0358L142.11 60.6256M143.125 56.0358H188M188 51.645V56.0358M188 56.0358V60.6256M96.2195 60.6256L94.0967 65.4276M96.2195 60.6256H142.11M96.2195 60.6256H50.3292M142.11 60.6256L141.048 65.4276M142.11 60.6256H188M188 60.6256V65.4276M94.0967 65.4276H141.048M94.0967 65.4276H47.1449M139.937 70.4569L141.048 65.4276M139.937 70.4569L138.771 75.7301M139.937 70.4569H188M141.048 65.4276H188M47.1449 65.4276H0.193191M47.1449 65.4276L50.3292 60.6256M188 65.4276V70.4569M50.3292 60.6256H4.43891M138.771 75.7301L137.547 81.2658M138.771 75.7301H188M188 70.4569V75.7301M188 75.7301V81.2658M87.0939 81.2658L84.522 87.0834M87.0939 81.2658H137.547M87.0939 81.2658H36.6416M137.547 81.2658L136.261 87.0834M137.547 81.2658H188M188 81.2658V87.0834M84.522 87.0834H136.261M84.522 87.0834H32.7834M134.908 93.2054L136.261 87.0834M134.908 93.2054L133.482 99.6562M134.908 93.2054H188M136.261 87.0834H188M32.7834 87.0834H-18.956M32.7834 87.0834L36.6416 81.2658M188 87.0834V93.2054M36.6416 81.2658H-13.8115M133.482 99.6562L131.977 106.464M133.482 99.6562H188M188 93.2054V99.6562M188 99.6562V106.464M75.9542 106.464L72.7736 113.657M75.9542 106.464H131.977M75.9542 106.464H19.9308M131.977 106.464L130.387 113.657M131.977 106.464H188M188 106.464V113.657M72.7736 113.657H130.387M72.7736 113.657H15.1604M128.704 121.271L130.387 113.657M128.704 121.271L126.919 129.342M128.704 121.271H188M130.387 113.657H188M15.1604 113.657H-42.4528M15.1604 113.657L19.9308 106.464M188 113.657V121.271M19.9308 106.464H-36.0925M126.919 129.342L125.024 137.916M126.919 129.342H188M188 121.271V129.342M188 129.342V137.916M62.0484 137.916L58.0156 147.037M62.0484 137.916H125.024M62.0484 137.916H-0.927451M125.024 137.916L123.008 147.037M125.024 137.916H188M188 137.916V147.037M58.0156 147.037H123.008M58.0156 147.037H-6.9767M120.858 156.763L123.008 147.037M120.858 156.763L118.561 167.153M120.858 156.763H188M123.008 147.037H188M-6.9767 147.037H-71.969M-6.9767 147.037L-0.927451 137.916M188 147.037V156.763M-0.927451 137.916H-63.9033M118.561 167.153L116.101 178.28M118.561 167.153H188M188 156.763V167.153M188 167.153V178.28M44.2027 178.28L38.9218 190.224M44.2027 178.28H116.101M44.2027 178.28H-27.6963M116.101 178.28L113.461 190.224M116.101 178.28H188M188 178.28V190.224M38.9218 190.224H113.461M38.9218 190.224H-35.6173M110.619 203.079L113.461 190.224M110.619 203.079L107.553 216.953M110.619 203.079H188M113.461 190.224H188M-35.6173 190.224H-110.156M-35.6173 190.224L-27.6963 178.28M188 190.224V203.079M-27.6963 178.28H-99.5953M107.553 216.953L104.232 231.972M107.553 216.953H188M188 203.079V216.953M188 216.953V231.972M20.4645 231.972L13.2527 248.284M20.4645 231.972H104.232M20.4645 231.972H-63.3036M104.232 231.972L100.626 248.284M104.232 231.972H188M188 231.972V248.284M13.2527 248.284H100.626M13.2527 248.284H-74.121M96.6962 266.063L100.626 248.284M96.6962 266.063L92.3958 285.517M96.6962 266.063H188M100.626 248.284H188M-74.121 248.284H-161.495M-74.121 248.284L-63.3036 231.972M188 248.284V266.063M-63.3036 231.972H-147.071M92.3958 285.517L87.6696 306.895M92.3958 285.517H188M188 266.063V285.517M188 285.517V306.895M-12.6601 306.895L-23.0945 330.496M-12.6601 306.895H87.6696M-12.6601 306.895H-112.991M87.6696 306.895L82.4524 330.496M87.6696 306.895H188M188 306.895V330.496M82.4524 330.496H-23.0945M82.4524 330.496H188M-23.0945 330.496H-128.642M-128.642 330.496H-234.19M-128.642 330.496L-112.991 306.895M-112.991 306.895H-213.321M-28.5816 16.3241L-30.5245 17.7891L-32.5027 19.2807M-28.5816 16.3241H7.51525M-28.5816 16.3241H-64.6784M10.6688 13.4708L13.7144 10.7155M10.6688 13.4708L7.51525 16.3241M10.6688 13.4708H46.1352M13.7144 10.7155H48.5714M13.7144 10.7155L15.9302 8.71046L16.6566 8.05349M-17.612 8.05349H16.6566M-17.612 8.05349L-16.3182 7.07823L-14.1983 5.47962M-17.612 8.05349H-51.8805M7.51525 16.3241L4.24776 19.2807M7.51525 16.3241H43.6121M46.1352 13.4708L48.5714 10.7155M46.1352 13.4708L43.6121 16.3241M48.5714 10.7155L49.7587 9.37312L50.6358 8.38127L50.9251 8.05349M16.6566 8.05349H50.9251M16.6566 8.05349L18.7989 6.1148L19.5013 5.47962M43.6121 16.3241L41.6601 18.5313L40.9982 19.2807M85.1944 8.05349L85.4103 7.72667L85.8406 7.07823L86.4792 6.1148L86.9013 5.47962M85.1944 8.05349H50.9251M50.9251 8.05349L51.2137 7.72667L51.7879 7.07823L53.2009 5.47962M-32.5027 19.2807H4.24776M-32.5027 19.2807H-69.2539M0.858833 22.3462L1.28986 21.9569L1.71787 21.5689L3.41196 20.0362L4.24776 19.2807M0.858833 22.3462L-1.76549 24.7202L-2.65678 25.5268M0.858833 22.3462H38.2877M4.24776 19.2807H40.9982M-69.2539 19.2807H-106.004M-69.2539 19.2807L-65.8072 17.053L-64.6784 16.3241M40.9982 19.2807L38.2877 22.3462M-64.6784 16.3241H-100.776M-2.65678 25.5268L-3.10501 25.9328L-3.5563 26.3406L-4.9213 27.5764L-5.38157 27.9918L-6.30657 28.8292M-2.65678 25.5268H35.4745M38.2877 22.3462L37.9414 22.737L35.4745 25.5268M35.4745 25.5268L35.1161 25.9328L34.7548 26.3406L34.3928 26.7508L32.5548 28.8292M-45.1679 28.8292L-49.7194 32.2609M-45.1679 28.8292H-6.30657M-45.1679 28.8292H-84.0292M-6.30657 28.8292L-10.0995 32.2609M-6.30657 28.8292H32.5548M32.5548 28.8292L29.5204 32.2609M-49.7194 32.2609H-10.0995M-49.7194 32.2609H-89.3393M-14.0431 35.829L-10.0995 32.2609M-14.0431 35.829L-18.1472 39.542M-14.0431 35.829H26.3653M-10.0995 32.2609H29.5204M-89.3393 32.2609H-128.959M-89.3393 32.2609L-84.0292 28.8292M29.5204 32.2609L26.3653 35.829M-84.0292 28.8292H-122.891M-18.1472 39.542L-22.4214 43.409M-18.1472 39.542H23.0821M26.3653 35.829L25.5565 36.7431L23.0821 39.542M23.0821 39.542L21.8161 40.9734L20.5305 42.4271L19.6625 43.409M-64.506 43.409L-67.1513 45.4031L-69.8521 47.4398M-64.506 43.409H-22.4214M-64.506 43.409H-106.591M-22.4214 43.409L-26.877 47.4398M-22.4214 43.409H19.6625M19.6625 43.409L16.0989 47.4398M-69.8521 47.4398H-26.877M-69.8521 47.4398H-112.827M-31.5245 51.645L-26.877 47.4398M-31.5245 51.645L-36.3781 56.0358M-31.5245 51.645H12.3801M-26.877 47.4398H16.0989M-112.827 47.4398H-155.803M-112.827 47.4398L-106.591 43.409M16.0989 47.4398L12.3801 51.645M-106.591 43.409H-148.674M-36.3781 56.0358L-37.6254 57.1641L-41.4506 60.6256M-36.3781 56.0358H8.49722M12.3801 51.645L8.49722 56.0358M8.49722 56.0358L8.00022 56.5985L6.49128 58.3051L4.43891 60.6256M-87.3409 60.6256L-93.7102 65.4276M-87.3409 60.6256H-41.4506M-87.3409 60.6256H-133.231M-41.4506 60.6256L-46.7585 65.4276M-41.4506 60.6256H4.43891M4.43891 60.6256L0.193191 65.4276M-93.7102 65.4276H-46.7585M-93.7102 65.4276H-140.662M-52.3175 70.4569L-48.8124 67.2862L-46.7585 65.4276M-52.3175 70.4569L-58.1464 75.7301M-52.3175 70.4569H-4.25415M-46.7585 65.4276H0.193191M-140.662 65.4276H-187.614M-140.662 65.4276L-133.231 60.6256M0.193191 65.4276L-4.25415 70.4569M-133.231 60.6256H-179.122M-58.1464 75.7301L-64.2646 81.2658M-58.1464 75.7301H-8.91666M-4.25415 70.4569L-8.91666 75.7301M-8.91666 75.7301L-13.8115 81.2658M-114.718 81.2658L-122.434 87.0834M-114.718 81.2658H-64.2646M-114.718 81.2658H-165.17M-64.2646 81.2658L-70.6946 87.0834M-64.2646 81.2658H-13.8115M-13.8115 81.2658L-18.956 87.0834M-122.434 87.0834H-70.6946M-122.434 87.0834H-174.173M-77.4612 93.2054L-70.6946 87.0834M-77.4612 93.2054L-84.5914 99.6562M-77.4612 93.2054H-24.3688M-70.6946 87.0834H-18.956M-174.173 87.0834H-225.911M-174.173 87.0834L-165.17 81.2658M-18.956 87.0834L-24.3688 93.2054M-165.17 81.2658H-215.623M-84.5914 99.6562L-92.1151 106.464M-84.5914 99.6562H-30.0733M-24.3688 93.2054L-30.0733 99.6562M-30.0733 99.6562L-36.0925 106.464M-148.138 106.464L-157.679 113.657M-148.138 106.464H-92.1151M-148.138 106.464H-204.162M-92.1151 106.464L-100.066 113.657M-92.1151 106.464H-36.0925M-36.0925 106.464L-42.4528 113.657M-157.679 113.657H-100.066M-157.679 113.657H-215.293M-108.482 121.271L-100.066 113.657M-108.482 121.271L-117.403 129.342M-108.482 121.271H-49.185M-100.066 113.657H-42.4528M-215.293 113.657H-272.906M-215.293 113.657L-204.162 106.464M-42.4528 113.657L-49.185 121.271M-204.162 106.464H-260.184M-117.403 129.342L-126.879 137.916M-117.403 129.342H-56.3226M-49.185 121.271L-56.3226 129.342M-56.3226 129.342L-63.9033 137.916M-189.855 137.916L-201.953 147.037M-189.855 137.916H-126.879M-189.855 137.916H-252.831M-126.879 137.916L-136.961 147.037M-126.879 137.916H-63.9033M-63.9033 137.916L-71.969 147.037M-201.953 147.037H-136.961M-201.953 147.037H-266.946M-147.71 156.763L-136.961 147.037M-147.71 156.763L-159.196 167.153M-147.71 156.763H-80.5683M-136.961 147.037H-71.969M-266.946 147.037H-331.938M-266.946 147.037L-252.831 137.916M-71.969 147.037L-80.5683 156.763M-252.831 137.916H-315.807M-159.196 167.153L-171.494 178.28M-159.196 167.153H-89.7561M-80.5683 156.763L-89.7561 167.153M-89.7561 167.153L-99.5953 178.28M-243.393 178.28L-259.235 190.224M-243.393 178.28H-171.494M-243.393 178.28H-315.292M-171.494 178.28L-184.696 190.224M-171.494 178.28H-99.5953M-99.5953 178.28L-110.156 190.224M-259.235 190.224H-184.696M-259.235 190.224H-333.774M-198.904 203.079L-184.696 190.224M-198.904 203.079L-214.239 216.953M-198.904 203.079H-121.523M-184.696 190.224H-110.156M-333.774 190.224H-408.313M-333.774 190.224L-315.292 178.28M-110.156 190.224L-121.523 203.079M-315.292 178.28H-387.191M-214.239 216.953L-230.839 231.972M-214.239 216.953H-133.791M-121.523 203.079L-133.791 216.953M-133.791 216.953L-147.071 231.972M-314.607 231.972L-336.242 248.284M-314.607 231.972H-230.839M-314.607 231.972H-398.375M-230.839 231.972L-248.868 248.284M-230.839 231.972H-147.071M-147.071 231.972L-161.495 248.284M-336.242 248.284H-248.868M-336.242 248.284H-423.616M-268.52 266.063L-248.868 248.284M-268.52 266.063L-290.023 285.517M-268.52 266.063H-177.216M-248.868 248.284H-161.495M-423.616 248.284H-510.99M-423.616 248.284L-398.375 231.972M-161.495 248.284L-177.216 266.063M-398.375 231.972H-482.142M-290.023 285.517L-313.651 306.895M-290.023 285.517H-194.418M-177.216 266.063L-194.418 285.517M-194.418 285.517L-213.321 306.895M-413.981 306.895L-445.284 330.496M-413.981 306.895H-313.651M-413.981 306.895H-514.312M-313.651 306.895L-339.737 330.496M-313.651 306.895H-213.321M-213.321 306.895L-234.19 330.496M-339.737 330.496H-445.284M-339.737 330.496H-234.19M-445.284 330.496L-531.612 330.496M-514.312 306.895L-531.612 318.076M-514.312 306.895H-531.612M-172.97 16.3241L-179.505 19.2807M-172.97 16.3241H-136.873M-172.97 16.3241H-209.066M-131.196 13.4708L-125.714 10.7155M-131.196 13.4708L-136.873 16.3241M-131.196 13.4708H-95.7297M-125.714 10.7155H-90.8573M-125.714 10.7155L-120.418 8.05349M-154.687 8.05349H-120.418M-154.687 8.05349L-152.53 7.07823L-148.997 5.47962M-154.687 8.05349H-188.955M-136.873 16.3241L-142.755 19.2807M-136.873 16.3241H-100.776M-95.7297 13.4708L-90.8573 10.7155M-95.7297 13.4708L-100.776 16.3241M-90.8573 10.7155L-87.3109 8.71046L-86.1491 8.05349M-120.418 8.05349L-119.768 7.72667L-115.297 5.47962M-120.418 8.05349H-86.1491M-100.776 16.3241L-106.004 19.2807M-51.8805 8.05349L-47.8979 5.47962M-51.8805 8.05349H-86.1491M-86.1491 8.05349L-84.4242 7.07823L-81.5975 5.47962M-179.505 19.2807H-142.755M-179.505 19.2807H-216.256M-148.854 22.3462L-142.755 19.2807M-148.854 22.3462L-155.182 25.5268M-148.854 22.3462H-111.425M-142.755 19.2807H-106.004M-216.256 19.2807H-253.006M-216.256 19.2807L-209.066 16.3241M-106.004 19.2807L-111.425 22.3462M-209.066 16.3241H-245.163M-155.182 25.5268L-156.802 26.3406L-161.753 28.8292M-155.182 25.5268H-117.05M-111.425 22.3462L-117.05 25.5268M-117.05 25.5268L-122.891 28.8292M-200.614 28.8292L-201.546 29.2512L-208.199 32.2609M-200.614 28.8292H-161.753M-200.614 28.8292H-239.475M-161.753 28.8292L-168.579 32.2609M-161.753 28.8292H-122.891M-122.891 28.8292L-123.636 29.2512L-128.959 32.2609M-208.199 32.2609H-168.579M-208.199 32.2609H-247.819M-175.678 35.829L-168.579 32.2609M-175.678 35.829L-183.065 39.542M-175.678 35.829H-135.269M-168.579 32.2609H-128.959M-247.819 32.2609H-287.439M-247.819 32.2609L-239.475 28.8292M-128.959 32.2609L-135.269 35.829M-239.475 28.8292H-278.337M-183.065 39.542L-190.759 43.409M-183.065 39.542H-141.836M-135.269 35.829L-141.836 39.542M-141.836 39.542L-148.674 43.409M-232.843 43.409L-241.753 47.4398M-232.843 43.409H-190.759M-232.843 43.409H-274.927M-190.759 43.409L-198.778 47.4398M-190.759 43.409H-148.674M-148.674 43.409L-155.803 47.4398M-241.753 47.4398H-198.778M-241.753 47.4398H-284.729M-207.144 51.645L-198.778 47.4398M-207.144 51.645L-215.881 56.0358M-207.144 51.645H-163.24M-198.778 47.4398H-155.803M-284.729 47.4398H-327.704M-284.729 47.4398L-274.927 43.409M-155.803 47.4398L-163.24 51.645M-274.927 43.409H-317.012M-215.881 56.0358L-225.012 60.6256M-215.881 56.0358H-171.005M-163.24 51.645L-171.005 56.0358M-171.005 56.0358L-179.122 60.6256M-270.902 60.6256L-281.517 65.4276M-270.902 60.6256H-225.012M-270.902 60.6256H-316.792M-225.012 60.6256L-234.565 65.4276M-225.012 60.6256H-179.122M-179.122 60.6256L-187.614 65.4276M-281.517 65.4276H-234.565M-281.517 65.4276H-328.469M-244.572 70.4569L-234.565 65.4276M-244.572 70.4569L-255.063 75.7301M-244.572 70.4569H-196.508M-234.565 65.4276H-187.614M-328.469 65.4276H-375.421M-328.469 65.4276L-316.792 60.6256M-187.614 65.4276L-196.508 70.4569M-316.792 60.6256H-362.683M-255.063 75.7301L-266.076 81.2658M-255.063 75.7301H-205.834M-196.508 70.4569L-205.834 75.7301M-205.834 75.7301L-215.623 81.2658M-316.529 81.2658L-329.389 87.0834M-316.529 81.2658H-266.076M-316.529 81.2658H-366.982M-266.076 81.2658L-277.651 87.0834M-266.076 81.2658H-215.623M-215.623 81.2658L-225.911 87.0834M-329.389 87.0834H-277.651M-329.389 87.0834H-381.129M-289.831 93.2054L-277.651 87.0834M-289.831 93.2054L-302.665 99.6562M-289.831 93.2054H-236.738M-277.651 87.0834H-225.911M-381.129 87.0834H-432.867M-381.129 87.0834L-366.982 81.2658M-225.911 87.0834L-236.738 93.2054M-366.982 81.2658H-417.435M-302.665 99.6562L-316.208 106.464M-302.665 99.6562H-248.147M-236.738 93.2054L-248.147 99.6562M-248.147 99.6562L-260.184 106.464M-372.231 106.464L-388.132 113.657M-372.231 106.464H-316.208M-372.231 106.464H-428.254M-316.208 106.464L-330.519 113.657M-316.208 106.464H-260.184M-260.184 106.464L-272.906 113.657M-388.132 113.657H-330.519M-388.132 113.657H-445.745M-345.667 121.271L-330.519 113.657M-345.667 121.271L-361.726 129.342M-345.667 121.271H-286.371M-330.519 113.657H-272.906M-445.745 113.657H-503.359M-445.745 113.657L-428.254 106.464M-272.906 113.657L-286.371 121.271M-428.254 106.464H-484.277M-361.726 129.342L-378.783 137.916M-361.726 129.342H-300.645M-286.371 121.271L-300.645 129.342M-300.645 129.342L-315.807 137.916M-441.758 137.916L-461.922 147.037M-441.758 137.916H-378.783M-441.758 137.916H-504.734M-378.783 137.916L-396.93 147.037M-378.783 137.916H-315.807M-315.807 137.916L-331.938 147.037M-461.922 147.037H-396.93M-461.922 147.037H-526.915M-416.28 156.763L-396.93 147.037M-416.28 156.763L-436.952 167.153M-416.28 156.763H-349.137M-396.93 147.037H-331.938M-526.915 147.037L-504.734 137.916M-526.915 147.037H-531.612M-526.915 147.037L-531.612 148.969M-331.938 147.037L-349.137 156.763M-504.734 137.916H-531.612M-436.952 167.153L-459.089 178.28M-436.952 167.153H-367.513M-349.137 156.763L-367.513 167.153M-367.513 167.153L-387.191 178.28M-530.988 178.28H-459.089M-530.988 178.28H-531.612M-530.988 178.28L-531.612 178.563M-459.089 178.28L-482.853 190.224M-459.089 178.28H-387.191M-387.191 178.28L-408.313 190.224M-508.427 203.079L-482.853 190.224M-508.427 203.079H-431.047M-508.427 203.079H-531.612M-508.427 203.079L-531.612 214.733M-482.853 190.224H-408.313M-482.853 190.224H-531.612M-408.313 190.224L-431.047 203.079M-431.047 203.079L-455.582 216.953M-455.582 216.953L-482.142 231.972M-455.582 216.953H-531.612M-482.142 231.972L-510.99 248.284M-482.142 231.972H-531.612M-510.99 248.284H-531.612M-510.99 248.284L-531.612 259.945M-317.358 16.3241L-326.507 19.2807M-317.358 16.3241H-281.26M-317.358 16.3241H-353.454M-273.061 13.4708L-265.143 10.7155M-273.061 13.4708L-281.26 16.3241M-273.061 13.4708H-237.595M-265.143 10.7155H-230.286M-265.143 10.7155L-257.493 8.05349M-291.761 8.05349H-257.493M-291.761 8.05349L-283.796 5.47962M-291.761 8.05349H-326.03M-281.26 16.3241L-289.757 19.2807M-281.26 16.3241H-245.163M-237.595 13.4708L-230.286 10.7155M-237.595 13.4708L-245.163 16.3241M-230.286 10.7155L-223.224 8.05349M-257.493 8.05349L-256.555 7.72667L-250.096 5.47962M-257.493 8.05349H-223.224M-245.163 16.3241L-253.006 19.2807M-188.955 8.05349L-182.697 5.47962M-188.955 8.05349H-223.224M-223.224 8.05349L-222.358 7.72667L-216.397 5.47962M-326.507 19.2807H-289.757M-326.507 19.2807H-363.258M-298.567 22.3462L-289.757 19.2807M-298.567 22.3462L-307.707 25.5268M-298.567 22.3462H-261.138M-289.757 19.2807H-253.006M-363.258 19.2807H-400.008M-363.258 19.2807L-353.454 16.3241M-253.006 19.2807L-261.138 22.3462M-353.454 16.3241H-389.551M-307.707 25.5268L-317.198 28.8292M-307.707 25.5268H-269.576M-261.138 22.3462L-262.176 22.737L-269.576 25.5268M-269.576 25.5268L-278.337 28.8292M-356.059 28.8292L-366.679 32.2609M-356.059 28.8292H-317.198M-356.059 28.8292H-394.921M-317.198 28.8292L-327.059 32.2609M-317.198 28.8292H-278.337M-278.337 28.8292L-287.439 32.2609M-366.679 32.2609H-327.059M-366.679 32.2609H-406.299M-337.313 35.829L-327.059 32.2609M-337.313 35.829L-347.983 39.542M-337.313 35.829H-296.904M-327.059 32.2609H-287.439M-406.299 32.2609H-445.919M-406.299 32.2609L-394.921 28.8292M-287.439 32.2609L-296.904 35.829M-394.921 28.8292H-433.782M-347.983 39.542L-359.096 43.409M-347.983 39.542H-306.754M-296.904 35.829L-306.754 39.542M-306.754 39.542L-317.012 43.409M-401.18 43.409L-413.655 47.4398M-401.18 43.409H-359.096M-401.18 43.409H-443.265M-359.096 43.409L-370.679 47.4398M-359.096 43.409H-317.012M-317.012 43.409L-327.704 47.4398M-413.655 47.4398H-370.679M-413.655 47.4398H-456.63M-382.764 51.645L-370.679 47.4398M-382.764 51.645L-395.383 56.0358M-382.764 51.645H-338.859M-370.679 47.4398H-327.704M-456.63 47.4398H-499.605M-456.63 47.4398L-443.265 43.409M-327.704 47.4398L-338.859 51.645M-443.265 43.409H-485.349M-395.383 56.0358L-408.573 60.6256M-395.383 56.0358H-350.508M-338.859 51.645L-350.508 56.0358M-350.508 56.0358L-362.683 60.6256M-454.463 60.6256L-469.324 65.4276M-454.463 60.6256H-408.573M-454.463 60.6256H-500.353M-408.573 60.6256L-422.372 65.4276M-408.573 60.6256H-362.683M-362.683 60.6256L-375.421 65.4276M-469.324 65.4276H-422.372M-436.826 70.4569L-422.372 65.4276M-436.826 70.4569L-451.98 75.7301M-436.826 70.4569H-388.762M-422.372 65.4276H-375.421M-375.421 65.4276L-388.762 70.4569M-500.353 60.6256H-531.612M-451.98 75.7301L-467.888 81.2658M-451.98 75.7301H-402.751M-388.762 70.4569L-402.751 75.7301M-402.751 75.7301L-417.435 81.2658M-518.341 81.2658H-467.888M-518.341 81.2658H-531.612M-518.341 81.2658L-531.612 85.554M-467.888 81.2658L-484.607 87.0834M-467.888 81.2658H-417.435M-417.435 81.2658L-432.867 87.0834M-502.2 93.2054L-484.607 87.0834M-502.2 93.2054L-520.738 99.6562M-502.2 93.2054H-449.107M-502.2 93.2054H-531.612M-484.607 87.0834H-432.867M-484.607 87.0834H-531.612M-432.867 87.0834L-449.107 93.2054M-531.759 85.6013L-531.612 85.554M-520.738 99.6562H-466.22M-520.738 99.6562H-531.612M-520.738 99.6562L-531.612 103.44M-449.107 93.2054L-466.22 99.6562M-466.22 99.6562L-484.277 106.464M-484.277 106.464L-503.359 113.657M-484.277 106.464H-531.612M-523.556 121.271L-503.359 113.657M-523.556 121.271H-531.612M-523.556 121.271L-531.612 124.308M-503.359 113.657H-531.612M-461.745 16.3241L-473.509 19.2807M-461.745 16.3241H-425.648M-461.745 16.3241H-497.842M-414.926 13.4708L-404.572 10.7155M-414.926 13.4708L-425.648 16.3241M-414.926 13.4708H-379.459M-404.572 10.7155H-369.715M-404.572 10.7155L-394.567 8.05349M-428.836 8.05349H-394.567M-428.836 8.05349L-418.595 5.47962M-428.836 8.05349H-463.105M-425.648 16.3241L-436.759 19.2807M-425.648 16.3241H-389.551M-379.459 13.4708L-369.715 10.7155M-379.459 13.4708L-389.551 16.3241M-369.715 10.7155L-360.299 8.05349M-394.567 8.05349H-360.299M-394.567 8.05349L-384.895 5.47962M-389.551 16.3241L-400.008 19.2807M-326.03 8.05349L-317.496 5.47962M-326.03 8.05349H-360.299M-360.299 8.05349L-351.195 5.47962M-473.509 19.2807H-436.759M-473.509 19.2807H-510.259M-448.279 22.3462L-436.759 19.2807M-448.279 22.3462L-460.232 25.5268M-448.279 22.3462H-410.851M-436.759 19.2807H-400.008M-510.259 19.2807L-497.842 16.3241M-510.259 19.2807H-531.612M-400.008 19.2807L-410.851 22.3462M-497.842 16.3241H-531.612M-460.232 25.5268L-472.643 28.8292M-460.232 25.5268H-422.101M-410.851 22.3462L-422.101 25.5268M-422.101 25.5268L-433.782 28.8292M-511.505 28.8292L-525.158 32.2609M-511.505 28.8292H-472.643M-511.505 28.8292H-531.612M-472.643 28.8292L-485.539 32.2609M-472.643 28.8292H-433.782M-433.782 28.8292L-445.919 32.2609M-498.947 35.829L-485.539 32.2609M-498.947 35.829L-512.901 39.542M-498.947 35.829H-458.539M-498.947 35.829H-531.612M-485.539 32.2609H-525.158M-485.539 32.2609H-445.919M-525.158 32.2609L-531.612 33.8827M-525.158 32.2609H-531.612M-445.919 32.2609L-458.539 35.829M-512.901 39.542L-527.433 43.409M-512.901 39.542H-471.672M-512.901 39.542H-531.612M-458.539 35.829L-471.672 39.542M-471.672 39.542L-485.349 43.409M-527.433 43.409H-485.349M-527.433 43.409L-531.612 44.5208M-527.433 43.409H-531.612M-485.349 43.409L-499.605 47.4398M-514.479 51.645L-499.605 47.4398M-514.479 51.645L-530.01 56.0358M-514.479 51.645H-531.612M-499.605 47.4398H-531.612M-531.837 47.4398H-531.612M-530.01 56.0358H-531.612M-530.01 56.0358L-531.612 56.489M-532 56.5985L-531.612 56.489M-521.324 13.4708L-509.143 10.7155M-521.324 13.4708H-531.612M-521.324 13.4708L-531.612 15.7976M-509.143 10.7155L-497.373 8.05349M-509.143 10.7155H-531.612M-463.105 8.05349L-452.295 5.47962M-463.105 8.05349H-497.373M-497.373 8.05349L-485.994 5.47962M-497.373 8.05349H-531.612M659.796 5.47962H693.496M659.796 5.47962H626.096M685.24 2.99006L687.278 3.60487L693.496 5.47962M685.24 2.99006H718.39M693.496 5.47962H727.195M718.39 2.99006L720.564 3.60487L721.658 3.9137L727.195 5.47962M727.195 5.47962H760.895M760.895 5.47962H794.595M626.096 5.47962H592.397M794.595 5.47962H828.295M828.295 5.47962L817.837 2.99006M828.295 5.47962H861.994M817.837 2.99006H850.987M524.997 5.47962H558.697M524.997 5.47962H491.297M552.643 2.99006L554.137 3.60487L554.89 3.9137L558.697 5.47962M552.643 2.99006H585.792M558.697 5.47962H592.397M585.792 2.99006L592.397 5.47962M491.297 5.47962H457.598M390.198 5.47962H423.898M390.198 5.47962H356.499M420.045 2.99006L420.52 3.29652L420.996 3.60487L421.475 3.9137L423.898 5.47962M420.045 2.99006H453.194M423.898 5.47962H457.598M453.194 2.99006L457.598 5.47962M356.499 5.47962H322.798M255.399 5.47962H289.099M255.399 5.47962H221.7M287.448 2.99006L289.099 5.47962M287.448 2.99006H320.598M289.099 5.47962H322.798M320.598 2.99006L320.869 3.29652L321.141 3.60487L321.415 3.9137L322.798 5.47962M221.7 5.47962H188M120.601 5.47962H154.3M120.601 5.47962H86.9013M154.851 2.99006L154.3 5.47962M154.851 2.99006H188M154.3 5.47962H188M188 2.99006V5.47962M86.9013 5.47962H53.2009M-14.1983 5.47962H19.5013M-14.1983 5.47962H-47.8979M22.2531 2.99006L21.5739 3.60487L20.1977 4.84918L19.5013 5.47962M22.2531 2.99006H55.4024M19.5013 5.47962H53.2009M55.4024 2.99006L55.1311 3.29652L54.859 3.60487L54.5854 3.9137L53.2009 5.47962M-47.8979 5.47962H-81.5975M-148.997 5.47962H-115.297M-148.997 5.47962H-182.697M-110.344 2.99006L-111.567 3.60487L-112.183 3.9137L-115.297 5.47962M-110.344 2.99006H-77.1944M-115.297 5.47962H-81.5975M-77.1944 2.99006L-77.7371 3.29652L-81.5975 5.47962M-182.697 5.47962H-216.397M-283.796 5.47962H-250.096M-283.796 5.47962H-317.496M-242.941 2.99006L-244.708 3.60487L-245.597 3.9137L-250.096 5.47962M-242.941 2.99006H-209.792M-250.096 5.47962H-216.397M-209.792 2.99006L-210.606 3.29652L-216.397 5.47962M-317.496 5.47962H-351.195M-418.595 5.47962H-384.895M-418.595 5.47962H-452.295M-375.539 2.99006L-384.895 5.47962M-375.539 2.99006H-342.39M-384.895 5.47962H-351.195M-342.39 2.99006L-344.563 3.60487L-345.658 3.9137L-351.195 5.47962M-452.295 5.47962H-485.994M-508.136 2.99006L-519.694 5.47962M-508.136 2.99006H-474.986M-508.136 2.99006H-531.612M-519.694 5.47962H-485.994M-519.694 5.47962L-531.612 8.04719M-519.694 5.47962H-531.612M-474.986 2.99006L-477.704 3.60487L-485.994 5.47962M850.987 2.99006L853.705 3.60487L861.994 5.47962M861.994 5.47962H895.694M895.694 5.47962L907.613 8.0472M895.694 5.47962H907.613M907.613 124.308V121.271M907.613 124.308V129.342M907.613 121.271V113.657M907.613 129.342V130.847V137.916M907.613 137.916V147.037M907.613 65.4276V60.6256M907.613 65.4276V70.0527M907.613 2.99006V5.47962M907.613 5.47962V8.0472M907.613 8.0472L907.642 8.05349H907.613M907.613 8.0472V8.05349M907.613 8.05349V10.7155M907.613 10.7155V13.4708M907.613 13.4708V15.7976M907.613 15.7976V16.3241M907.613 16.3241V19.2807M907.613 19.2807V22.3462M907.613 22.3462V24.3641M907.613 24.3641V25.5268M907.613 25.5268V28.8292M907.613 28.8292V32.2609M907.613 32.2609V33.8827M907.613 33.8827V35.829M907.613 35.829V39.542M907.613 39.542V43.409M907.613 43.409V44.5208M907.613 44.5208V47.4398M907.613 47.4398V51.645M907.613 51.645V56.0358M907.613 56.0358V56.489M907.613 56.489V60.6256M907.613 70.4569V75.7301M907.613 70.4569V70.0527M907.613 75.7301V81.2658M907.613 81.2658V85.554M907.613 85.554V87.0834M907.613 87.0834V93.2054M907.613 93.2054V99.6562M907.613 99.6562V103.44M907.613 103.44V106.464M907.613 106.464V113.657M907.613 147.037V148.969M907.613 148.969V156.763M907.613 156.763V167.153M907.613 167.153V178.28M907.613 178.28V178.563M907.613 178.563V190.224M907.613 190.224V203.079M907.613 203.079V214.733M907.613 214.733V216.953M907.613 216.953V231.972M907.613 231.972V248.284M907.613 248.284V259.945M907.613 259.945V266.063M907.613 266.063V285.517M907.613 285.517V306.895M907.613 306.895V318.076M907.613 318.076V330.496M907.613 330.496V330.58H-531.612V330.496M-531.612 70.4569V75.7301M-531.612 70.4569V70.0527M-531.612 70.0527V65.4276M-531.612 65.4276V60.6256M-531.612 60.6256V56.489M-531.612 56.489V56.0358M-531.612 56.0358V51.645M-531.612 51.645V47.4398M-531.612 47.4398V44.5208M-531.612 44.5208V43.409M-531.612 43.409V39.542M-531.612 39.542V35.829M-531.612 35.829V33.8827M-531.612 33.8827V32.2609M-531.612 32.2609V28.8292M-531.612 28.8292V25.5268M-531.612 25.5268V24.3641M-531.612 24.3641V22.3462M-531.612 22.3462V19.2807M-531.612 19.2807V16.3241M-531.612 16.3241V15.7976M-531.612 15.7976V13.4708M-531.612 13.4708V10.7155M-531.612 10.7155V8.05349M-531.612 8.05349H-531.642L-531.612 8.04719M-531.612 8.05349V8.04719M-531.612 8.04719V5.47962M-531.612 5.47962V2.99006M-531.612 330.496V318.076M-531.612 318.076V306.895M-531.612 306.895V285.518M-531.612 285.518V266.063M-531.612 266.063V259.945M-531.612 259.945V248.284M-531.612 248.284V231.972M-531.612 231.972V216.953M-531.612 216.953V214.733M-531.612 214.733V203.079M-531.612 203.079V190.224M-531.612 190.224V178.563M-531.612 178.563V178.28M-531.612 178.28V167.153M-531.612 167.153V156.763M-531.612 156.763V148.969M-531.612 148.969V147.037M-531.612 147.037V137.916M-531.612 137.916V129.342M-531.612 129.342V124.308M-531.612 124.308V121.271M-531.612 121.271V113.657M-531.612 113.657V106.464M-531.612 106.464V103.44M-531.612 103.44V99.6562M-531.612 99.6562V93.2054M-531.612 93.2054V87.0834M-531.612 87.0834V85.554M-531.612 85.554V81.2658M-531.612 81.2658V75.7301" stroke="url(#paint0_radial_1589_10389)" stroke-opacity="0.6" stroke-width="1.16054" stroke-miterlimit="10" stroke-linecap="round" stroke-linejoin="round"/>
<defs>
<radialGradient id="paint0_radial_1589_10389" cx="0" cy="0" r="1" gradientUnits="userSpaceOnUse" gradientTransform="translate(188 318.417) rotate(-90) scale(516.572 2254.13)">
<stop stop-color="#757575"/>
<stop offset="0.489074" stop-color="#757575" stop-opacity="0"/>
</radialGradient>
</defs>
</svg>
