<svg width="1920" height="441" viewBox="0 0 1920 441" fill="none" xmlns="http://www.w3.org/2000/svg">
<path d="M1888.18 3.79338L1873.27 0.580078M1888.18 3.79338H1843.98M1888.18 3.79338L1903.59 7.1128M1888.18 3.79338H1919.48M1873.27 0.580078L1878.69 0.581331L1884.06 0.588289L1889.32 0.607851L1894.42 0.646378L1899.29 0.708901L1903.89 0.803012L1908.16 0.933743L1912.13 1.10046L1915.53 1.33099L1918.63 1.59813L1919.48 1.6917V3.79338M1873.27 0.580078H1829.78M1829.78 0.580078H1786.29M1829.78 0.580078L1843.98 3.79338M1786.29 0.580078H1742.8M1786.29 0.580078L1799.78 3.79338M1742.8 0.580078H1699.31M1742.8 0.580078L1755.58 3.79338M1699.31 0.580078H1655.82M1699.31 0.580078L1711.39 3.79338M1655.82 0.580078H1612.33M1655.82 0.580078L1667.19 3.79338M1612.33 0.580078H1568.84M1612.33 0.580078L1622.99 3.79338M1568.84 0.580078H1525.36M1568.84 0.580078L1578.79 3.79338M1525.36 0.580078H1481.87M1525.36 0.580078L1534.59 3.79338M1481.87 0.580078H1438.38M1481.87 0.580078L1490.39 3.79338M1438.38 0.580078H1394.89M1438.38 0.580078L1446.19 3.79338M1394.89 0.580078H1351.4M1394.89 0.580078L1401.99 3.79338M1351.4 0.580078H1307.91M1351.4 0.580078L1352.98 1.37393L1355.37 2.57577L1357.79 3.79338M1307.91 0.580078H1264.42M1307.91 0.580078L1309.31 1.37393L1313.59 3.79338M1264.42 0.580078H1220.93M1264.42 0.580078L1269.39 3.79338M1220.93 0.580078H1177.44M1220.93 0.580078L1222.51 1.77306L1224.12 2.97995L1224.65 3.38604L1225.2 3.79338M1177.44 0.580078H1133.96M1177.44 0.580078L1178.76 1.77306L1179.21 2.17346L1179.65 2.57577L1181 3.79338M1133.96 0.580078H1090.47M1133.96 0.580078L1136.8 3.79338M1090.47 0.580078L1090.73 0.976048L1090.99 1.37393L1092.33 3.38604L1092.6 3.79338M1090.47 0.580078H1046.98M1046.98 0.580078H1003.49M1046.98 0.580078L1048.4 3.79338M1003.49 0.580078H960M1003.49 0.580078L1003.75 1.77306L1004.2 3.79338M960 0.580078H916.511M960 0.580078V3.79338M916.511 0.580078H873.022M916.511 0.580078L916.248 1.77306L915.801 3.79338M873.022 0.580078H829.533M873.022 0.580078L871.602 3.79338M829.533 0.580078L829.27 0.976048L829.008 1.37393L827.673 3.38604L827.402 3.79338M829.533 0.580078H786.045M786.045 0.580078H742.555M786.045 0.580078L783.564 3.38604L783.203 3.79338M742.555 0.580078H699.067M742.555 0.580078L741.238 1.77306L740.794 2.17346L739.903 2.97995L739.455 3.38604L739.004 3.79338M699.067 0.580078H655.578M699.067 0.580078L697.485 1.77306L695.883 2.97995L695.346 3.38604L694.805 3.79338M655.578 0.580078H612.089M655.578 0.580078L650.607 3.79338M612.089 0.580078H568.6M612.089 0.580078L610.686 1.37393L606.407 3.79338M568.6 0.580078H525.111M568.6 0.580078L562.208 3.79338M525.111 0.580078H481.623M525.111 0.580078L518.009 3.79338M481.623 0.580078H438.133M481.623 0.580078L473.81 3.79338M438.133 0.580078H394.644M438.133 0.580078L429.611 3.79338M394.644 0.580078H351.156M394.644 0.580078L385.411 3.79338M351.156 0.580078H307.667M351.156 0.580078L341.212 3.79338M307.667 0.580078H264.178M307.667 0.580078L297.013 3.79338M264.178 0.580078H220.689M264.178 0.580078L252.814 3.79338M220.689 0.580078H177.201M220.689 0.580078L208.615 3.79338M177.201 0.580078H133.711M177.201 0.580078L164.415 3.79338M133.711 0.580078H90.2224M133.711 0.580078L120.217 3.79338M90.2224 0.580078H46.7338M90.2224 0.580078L76.0181 3.79338M46.7338 0.580078L41.3068 0.581331L35.9356 0.588289L30.6765 0.607851L25.5822 0.646378L20.7088 0.708901L16.1083 0.803012L11.8356 0.933743L7.86976 1.10046L4.4666 1.33099L1.36827 1.59813L0.516728 1.69172V3.79338M46.7338 0.580078L31.8189 3.79338M120.217 3.79338H164.415M120.217 3.79338H76.0181M120.217 3.79338L106.274 7.1128M164.415 3.79338L151.207 7.1128M164.415 3.79338H208.615M297.013 3.79338H341.212M297.013 3.79338H252.814M297.013 3.79338L294.296 4.61313L286.006 7.1128M341.212 3.79338L330.939 7.1128M341.212 3.79338H385.411M473.81 3.79338H518.009M473.81 3.79338H429.611M473.81 3.79338L471.817 4.61313L470.813 5.02491L465.737 7.1128M518.009 3.79338L517.105 4.202L516.197 4.61313L510.671 7.1128M518.009 3.79338H562.208M650.607 3.79338L649.973 4.202L645.469 7.1128M650.607 3.79338H694.805M650.607 3.79338H606.407M694.805 3.79338L693.718 4.61313L693.171 5.02491L692.622 5.43921L690.402 7.1128M694.805 3.79338H739.004M827.402 3.79338H871.602M827.402 3.79338H783.203M827.402 3.79338L825.202 7.1128M871.602 3.79338L871.421 4.202L871.24 4.61313L871.057 5.02491L870.505 6.27222L870.134 7.1128M871.602 3.79338H915.801M1004.2 3.79338H1048.4M1004.2 3.79338H960M1004.2 3.79338L1004.93 7.1128M1048.4 3.79338L1048.58 4.202L1048.76 4.61313L1048.94 5.02491L1049.87 7.1128M1048.4 3.79338H1092.6M1181 3.79338H1225.2M1181 3.79338H1136.8M1181 3.79338L1181.9 4.61313L1183.74 6.27222L1184.2 6.69157L1184.67 7.1128M1225.2 3.79338L1226.28 4.61313L1226.83 5.02491L1227.38 5.43921L1229.6 7.1128M1225.2 3.79338H1269.39M1357.79 3.79338H1401.99M1357.79 3.79338H1313.59M1357.79 3.79338L1359.42 4.61313L1360.24 5.02491L1364.4 7.1128M1401.99 3.79338L1402.9 4.202L1403.8 4.61313L1409.33 7.1128M1401.99 3.79338H1446.19M1534.59 3.79338H1578.79M1534.59 3.79338H1490.39M1534.59 3.79338L1536.94 4.61313L1538.13 5.02491L1544.13 7.1128M1578.79 3.79338L1589.06 7.1128M1578.79 3.79338H1622.99M1711.39 3.79338H1755.58M1711.39 3.79338H1667.19M1711.39 3.79338L1723.86 7.1128M1755.58 3.79338L1768.79 7.1128M1755.58 3.79338H1799.78M0.361812 33.8424H0.516728M44.8488 33.8424L61.7238 29.6016M44.8488 33.8424L27.3273 38.2456M44.8488 33.8424H95.6905M44.8488 33.8424H0.516728M61.7238 29.6016H11.8196M61.7238 29.6016L77.988 25.5142M61.7238 29.6016H111.628M11.8196 29.6016L28.9874 25.5142M11.8196 29.6016H0.516728M11.8196 29.6016L0.516728 32.2921M61.5219 17.7676H108.81M61.5219 17.7676L76.9516 14.0939M61.5219 17.7676H14.2343M61.5219 17.7676L45.5435 21.5721M108.81 17.7676L123.429 14.0939M108.81 17.7676L93.6736 21.5721M108.81 17.7676H156.099M76.9516 14.0939H123.429M76.9516 14.0939L91.8605 10.5446M76.9516 14.0939H30.4756M123.429 14.0939H169.905M123.429 14.0939L137.552 10.5446M0.0299903 100.78H0.516728M41.0539 100.78L62.8142 93.7491M41.0539 100.78L18.2122 108.161M41.0539 100.78H106.694M41.0539 100.78H0.516728M62.8142 93.7491L83.568 87.0434M62.8142 93.7491H126.899M62.8142 93.7491H0.516728M20.9657 87.0434H83.568M20.9657 87.0434L42.1963 80.6408M20.9657 87.0434H0.516728M20.9657 87.0434L0.516728 93.2102M62.4874 74.5211H122.321M62.4874 74.5211L81.9009 68.6666M62.4874 74.5211H2.65358M62.4874 74.5211L42.1963 80.6408M122.321 74.5211L140.441 68.6666M122.321 74.5211L103.382 80.6408M122.321 74.5211H182.156M81.9009 68.6666H140.441M81.9009 68.6666H23.3614M81.9009 68.6666L100.493 63.0597M140.441 68.6666L157.793 63.0597M140.441 68.6666H198.981M135.41 52.5293H190.382M135.41 52.5293L151.826 47.5786M135.41 52.5293H80.4377M135.41 52.5293L118.313 57.6853M190.382 52.5293L205.704 47.5786M190.382 52.5293L174.426 57.6853M190.382 52.5293H245.356M151.826 47.5786H205.704M151.826 47.5786H97.9483M151.826 47.5786L167.602 42.8211M205.704 47.5786L220.428 42.8211M205.704 47.5786H259.583M197.374 33.8424H248.215M197.374 33.8424L211.436 29.6016M197.374 33.8424H146.532M197.374 33.8424L182.773 38.2456M248.215 33.8424L261.34 29.6016M248.215 33.8424L234.588 38.2456M248.215 33.8424H299.057M211.436 29.6016H261.34M211.436 29.6016H161.532M211.436 29.6016L224.99 25.5142M261.34 29.6016L273.99 25.5142M261.34 29.6016H311.244M250.675 17.7676H297.964M250.675 17.7676L262.856 14.0939M250.675 17.7676H203.387M250.675 17.7676L238.061 21.5721M297.964 17.7676L309.332 14.0939M297.964 17.7676L286.19 21.5721M297.964 17.7676H345.252M262.856 14.0939H309.332M262.856 14.0939L274.627 10.5446M262.856 14.0939H216.38M309.332 14.0939H355.809M309.332 14.0939L320.318 10.5446M34.1456 222.678L64.7711 208.823M34.1456 222.678L1.34928 237.513M34.1456 222.678H126.731M34.1456 222.678H0.516728M64.7711 208.823L93.4367 195.857M64.7711 208.823H154.294M64.7711 208.823H0.516728M64.1495 172.263H145.591M64.1495 172.263L90.3204 161.501M64.1495 172.263L36.3544 183.694M64.1495 172.263H0.516728M145.591 172.263L169.382 161.501M145.591 172.263L120.322 183.694M145.591 172.263H227.032M90.3204 161.501H169.382M90.3204 161.501H11.2589M90.3204 161.501L115.006 151.349M169.382 161.501L191.824 151.349M169.382 161.501H248.444M160.398 132.682H233.089M160.398 132.682L181.313 124.081M160.398 132.682H87.7068M160.398 132.682L138.329 141.758M233.089 132.682L252.103 124.081M233.089 132.682L213.025 141.758M233.089 132.682H305.78M181.313 124.081H252.103M181.313 124.081H110.523M181.313 124.081L201.162 115.918M252.103 124.081L270.148 115.918M252.103 124.081H322.892M237.971 100.78H303.61M237.971 100.78L255.069 93.7491M237.971 100.78H172.332M237.971 100.78L220.025 108.161M303.61 100.78L319.153 93.7491M303.61 100.78L287.294 108.161M303.61 100.78H369.249M255.069 93.7491H319.153M255.069 93.7491H190.984M255.069 93.7491L271.375 87.0434M319.153 93.7491L333.977 87.0434M319.153 93.7491H383.238M301.824 74.5211H361.658M301.824 74.5211L316.061 68.6666M301.824 74.5211H241.99M301.824 74.5211L286.943 80.6408M361.658 74.5211L374.601 68.6666M361.658 74.5211L348.131 80.6408M361.658 74.5211H421.492M316.061 68.6666H374.601M316.061 68.6666H257.521M316.061 68.6666L329.694 63.0597M374.601 68.6666L386.996 63.0597M374.601 68.6666H433.141M355.301 52.5293H410.273M355.301 52.5293L367.339 47.5786M355.301 52.5293H300.328M355.301 52.5293L342.763 57.6853M410.273 52.5293L411.666 51.8996L421.217 47.5786M410.273 52.5293L398.876 57.6853M410.273 52.5293H465.246M367.339 47.5786H421.217M367.339 47.5786H313.461M367.339 47.5786L378.908 42.8211M421.217 47.5786L431.735 42.8211M421.217 47.5786H475.096M400.74 33.8424H451.583M400.74 33.8424L411.054 29.6016M400.74 33.8424H349.899M400.74 33.8424L390.033 38.2456M451.583 33.8424L460.958 29.6016M451.583 33.8424L447.976 35.4743L441.848 38.2456M451.583 33.8424H502.424M411.054 29.6016H460.958M411.054 29.6016H361.15M411.054 29.6016L420.992 25.5142M460.958 29.6016L469.993 25.5142M460.958 29.6016H510.862M439.828 17.7676H487.117M439.828 17.7676L448.761 14.0939M439.828 17.7676H392.541M439.828 17.7676L430.578 21.5721M487.117 17.7676L493.234 15.0008L494.238 14.5461L495.238 14.0939M487.117 17.7676L478.707 21.5721M487.117 17.7676H534.405M448.761 14.0939H495.238M448.761 14.0939L457.393 10.5446M448.761 14.0939H402.285M495.238 14.0939H541.714M495.238 14.0939L503.084 10.5446M67.6906 380.496H195.164M67.6906 380.496L107.829 354.558M67.6906 380.496L23.5843 409M67.6906 380.496L0.516728 380.497M195.164 380.496L229.568 354.558M195.164 380.496L157.358 409M195.164 380.496H322.636M107.829 354.558H229.568M107.829 354.558L144.512 330.852M107.829 354.558H0.516728M229.568 354.558L261.01 330.852M229.568 354.558H351.307M209.154 289.077H316.419M209.154 289.077L237.779 270.579M209.154 289.077H101.891M209.154 289.077L178.167 309.103M316.419 289.077L340.953 270.579M316.419 289.077L289.858 309.103M316.419 289.077H423.682M237.779 270.579H340.953M237.779 270.579H134.605M237.779 270.579L264.302 253.439M340.953 270.579L363.687 253.439M340.953 270.579H444.128M311.902 222.678H404.487M311.902 222.678L333.34 208.823M311.902 222.678H219.316M311.902 222.678L288.944 237.513M404.487 222.678L422.863 208.823M404.487 222.678L384.81 237.513M404.487 222.678H497.072M333.34 208.823H422.863M333.34 208.823H243.817M333.34 208.823L353.406 195.857M422.863 208.823L440.062 195.857M422.863 208.823H512.386M389.913 172.263H471.354M389.913 172.263L406.568 161.501M389.913 172.263H308.473M389.913 172.263L372.226 183.694M471.354 172.263L485.629 161.501M471.354 172.263L456.193 183.694M471.354 172.263H552.795M406.568 161.501H485.629M406.568 161.501H327.506M406.568 161.501L422.277 151.349M485.629 161.501L499.094 151.349M485.629 161.501H564.691M451.162 132.682H523.854M451.162 132.682L464.472 124.081M451.162 132.682H378.471M451.162 132.682L437.118 141.758M523.854 132.682L535.262 124.081M523.854 132.682L511.815 141.758M523.854 132.682H596.545M464.472 124.081H535.262M464.472 124.081H393.682M464.472 124.081L477.103 115.918M535.262 124.081L546.088 115.918M535.262 124.081H606.052M500.527 100.78H566.166M500.527 100.78L511.408 93.7491M500.527 100.78H434.888M500.527 100.78L489.107 108.161M566.166 100.78L575.492 93.7491M566.166 100.78L556.376 108.161M566.166 100.78H631.805M511.408 93.7491H575.492M511.408 93.7491H447.322M511.408 93.7491L521.784 87.0434M575.492 93.7491L584.386 87.0434M575.492 93.7491H639.577M541.161 74.5211H600.995M541.161 74.5211L550.221 68.6666M541.161 74.5211H481.327M541.161 74.5211L531.692 80.6408M600.995 74.5211L608.76 68.6666M600.995 74.5211L592.879 80.6408M600.995 74.5211H660.829M550.221 68.6666H608.76M550.221 68.6666H491.68M550.221 68.6666L558.897 63.0597M608.76 68.6666L616.197 63.0597M608.76 68.6666H667.301M575.191 52.5293H630.165M575.191 52.5293L582.852 47.5786M575.191 52.5293H520.219M575.191 52.5293L567.213 57.6853M630.165 52.5293L629.324 53.1621L623.325 57.6853M630.165 52.5293L636.73 47.5786M630.165 52.5293H685.137M582.852 47.5786H636.73M582.852 47.5786H528.974M582.852 47.5786L590.214 42.8211M636.73 47.5786L643.041 42.8211M636.73 47.5786H690.609M604.108 33.8424H654.949M604.108 33.8424L610.67 29.6016M604.108 33.8424H553.266M604.108 33.8424L597.294 38.2456M654.949 33.8424L660.574 29.6016M654.949 33.8424L652.785 35.4743L651.325 36.5751L649.109 38.2456M654.949 33.8424H705.791M610.67 29.6016H660.574M610.67 29.6016H560.766M610.67 29.6016L616.995 25.5142M660.574 29.6016L662.631 28.0511L663.986 27.0293L665.996 25.5142M660.574 29.6016H710.478M628.982 17.7676H676.27M628.982 17.7676L633.264 15.0008L634.666 14.0939M628.982 17.7676H581.694M628.982 17.7676L623.842 21.089L623.095 21.5721M676.27 17.7676L679.941 15.0008L680.543 14.5461L681.143 14.0939M676.27 17.7676L673.769 19.6528L671.225 21.5721M676.27 17.7676H723.558M634.666 14.0939H681.143M634.666 14.0939L640.159 10.5446M634.666 14.0939H588.19M681.143 14.0939H727.619M681.143 14.0939L685.851 10.5446M577.582 380.496H705.054M577.582 380.496L594.784 354.558M577.582 380.496H450.11M577.582 380.496L558.679 409M705.054 380.496L716.523 354.558M705.054 380.496L692.453 409M705.054 380.496H832.528M594.784 354.558H716.523M594.784 354.558H473.045M594.784 354.558L610.505 330.852M716.523 354.558L727.004 330.852M716.523 354.558H838.262M638.209 289.077H745.473M638.209 289.077L650.477 270.579M638.209 289.077H530.945M638.209 289.077L624.928 309.103M745.473 289.077L753.651 270.579M745.473 289.077L736.619 309.103M745.473 289.077H852.737M650.477 270.579H753.651M650.477 270.579H547.302M650.477 270.579L661.844 253.439M753.651 270.579L761.229 253.439M753.651 270.579H856.826M682.244 222.678H774.829M682.244 222.678L691.432 208.823M682.244 222.678H589.658M682.244 222.678L672.405 237.513M774.829 222.678L780.954 208.823M774.829 222.678L768.27 237.513M774.829 222.678H867.415M691.432 208.823H780.954M691.432 208.823H601.909M691.432 208.823L700.031 195.857M780.954 208.823L786.687 195.857M780.954 208.823H870.477M715.678 172.263H797.118M715.678 172.263L722.815 161.501M715.678 172.263H634.236M715.678 172.263L708.097 183.694M797.118 172.263L801.876 161.501M797.118 172.263L792.064 183.694M797.118 172.263H878.559M722.815 161.501H801.876M722.815 161.501H643.753M722.815 161.501L729.547 151.349M801.876 161.501L806.365 151.349M801.876 161.501H880.939M741.927 132.682H814.618M741.927 132.682L747.63 124.081M741.927 132.682H669.236M741.927 132.682L735.908 141.758M814.618 132.682L818.42 124.081M814.618 132.682L810.606 141.758M814.618 132.682H887.309M747.63 124.081H818.42M747.63 124.081H676.842M747.63 124.081L753.044 115.918M818.42 124.081L822.029 115.918M818.42 124.081H889.21M763.083 100.78H828.722M763.083 100.78L767.746 93.7491M763.083 100.78H697.444M763.083 100.78L758.189 108.161M828.722 100.78L831.831 93.7491M828.722 100.78L825.458 108.161M828.722 100.78H894.361M767.746 93.7491H831.831M767.746 93.7491H703.661M767.746 93.7491L769.439 91.1977L772.193 87.0434M831.831 93.7491L834.796 87.0434M831.831 93.7491H895.916M780.498 74.5211H840.332M780.498 74.5211L784.381 68.6666M780.498 74.5211H720.663M780.498 74.5211L777.471 79.0853L776.439 80.6408M840.332 74.5211L841.316 72.2955L842.92 68.6666M840.332 74.5211L837.626 80.6408M840.332 74.5211H900.166M784.381 68.6666L784.853 67.9523L788.099 63.0597M784.381 68.6666H842.92M784.381 68.6666H725.84M842.92 68.6666L843.863 66.5358L844.172 65.8329L844.482 65.1344L845.399 63.0597M842.92 68.6666H901.461M795.082 52.5293H850.054M795.082 52.5293L796.74 50.029L797.15 49.412L797.557 48.7975L797.962 48.1868L798.365 47.5786M795.082 52.5293H740.109M795.082 52.5293L791.663 57.6853M850.054 52.5293L851.704 48.7975L851.975 48.1868L852.243 47.5786M850.054 52.5293L847.776 57.6853M850.054 52.5293H905.028M798.365 47.5786H852.243M798.365 47.5786H744.487M798.365 47.5786L800.352 44.5832L800.743 43.9927L801.52 42.8211M852.243 47.5786L853.567 44.5832L853.829 43.9927L854.088 43.4053L854.347 42.8211M852.243 47.5786H906.122M807.475 33.8424H858.317M807.475 33.8424L810.288 29.6016M807.475 33.8424H756.633M807.475 33.8424L806.755 34.9274L805.662 36.5751L804.555 38.2456M858.317 33.8424L858.077 34.3837L856.617 37.686L856.37 38.2456M858.317 33.8424L860.192 29.6016M858.317 33.8424H909.158M810.288 29.6016H860.192M810.288 29.6016H760.384M810.288 29.6016L812.998 25.5142M860.192 29.6016L860.877 28.0511L861.103 27.5389L861.329 27.0293L861.999 25.5142M860.192 29.6016H910.096M818.135 17.7676H865.423M818.135 17.7676L819.97 15.0008L820.571 14.0939M818.135 17.7676H770.847M818.135 17.7676L817.199 19.1785L816.885 19.6528L816.568 20.1296L815.612 21.5721M865.423 17.7676L865.63 17.3016L866.039 16.3751L866.445 15.4568L867.047 14.0939M865.423 17.7676L864.589 19.6528L864.38 20.1296L863.955 21.089L863.742 21.5721M865.423 17.7676H912.711M820.571 14.0939H867.047M820.571 14.0939L822.635 10.9817L822.926 10.5446M820.571 14.0939H774.095M867.047 14.0939L867.247 13.6436L867.445 13.1952L867.643 12.7487L867.839 12.3041L868.423 10.9817L868.617 10.5446M867.047 14.0939H913.524M1087.47 380.496H1214.95M1087.47 380.496L1081.74 354.558M1087.47 380.496H960M1087.47 380.496L1093.77 409M1214.95 380.496L1203.48 354.558M1214.95 380.496L1227.55 409M1214.95 380.496H1342.42M1081.74 354.558H1203.48M1081.74 354.558H960M1081.74 354.558L1076.5 330.852M1203.48 354.558L1193 330.852M1203.48 354.558H1325.22M1067.26 289.077H1174.53M1067.26 289.077L1063.17 270.579M1067.26 289.077H960M1067.26 289.077L1071.69 309.103M1174.53 289.077L1166.35 270.579M1174.53 289.077L1183.38 309.103M1174.53 289.077H1281.79M1063.17 270.579H1166.35M1063.17 270.579H960M1063.17 270.579L1059.39 253.439M1166.35 270.579L1158.77 253.439M1166.35 270.579H1269.52M1052.59 222.678H1145.17M1052.59 222.678L1049.52 208.823M1052.59 222.678H960M1052.59 222.678L1055.87 237.513M1145.17 222.678L1139.05 208.823M1145.17 222.678L1151.73 237.513M1145.17 222.678H1237.76M1049.52 208.823H1139.05M1049.52 208.823H960M1049.52 208.823L1046.66 195.857M1139.05 208.823L1133.31 195.857M1139.05 208.823H1228.57M1041.44 172.263H1122.88M1041.44 172.263L1039.06 161.501M1041.44 172.263H960M1041.44 172.263L1043.97 183.694M1122.88 172.263L1118.12 161.501M1122.88 172.263L1127.94 183.694M1122.88 172.263H1204.32M1039.06 161.501H1118.12M1039.06 161.501H960M1039.06 161.501L1036.82 151.349M1118.12 161.501L1113.64 151.349M1118.12 161.501H1197.19M1032.69 132.682H1105.38M1032.69 132.682L1030.79 124.081M1032.69 132.682H960M1032.69 132.682L1034.7 141.758M1105.38 132.682L1101.58 124.081M1105.38 132.682L1109.39 141.758M1105.38 132.682H1178.07M1030.79 124.081H1101.58M1030.79 124.081H960M1030.79 124.081L1028.98 115.918M1101.58 124.081L1097.97 115.918M1101.58 124.081H1172.37M1025.64 100.78H1091.28M1025.64 100.78L1024.08 93.7491M1025.64 100.78H960M1025.64 100.78L1027.27 108.161M1091.28 100.78L1088.17 93.7491M1091.28 100.78L1094.54 108.161M1091.28 100.78H1156.92M1024.08 93.7491H1088.17M1024.08 93.7491H960M1024.08 93.7491L1022.6 87.0434M1088.17 93.7491L1085.2 87.0434M1088.17 93.7491H1152.25M1019.83 74.5211H1079.67M1019.83 74.5211L1018.54 68.6666M1019.83 74.5211H960M1019.83 74.5211L1021.19 80.6408M1079.67 74.5211L1077.4 69.3847L1077.08 68.6666M1079.67 74.5211L1082.37 80.6408M1079.67 74.5211H1139.5M1018.54 68.6666L1018.38 67.9523L1017.3 63.0597M1018.54 68.6666H1077.08M1018.54 68.6666H960M1077.08 68.6666L1076.14 66.5358L1075.83 65.8329L1075.52 65.1344L1074.6 63.0597M1077.08 68.6666H1135.62M1014.97 52.5293H1069.95M1014.97 52.5293L1013.88 47.5786M1014.97 52.5293H960M1014.97 52.5293L1015.39 54.4378L1015.54 55.0808L1015.68 55.7268L1015.97 57.0291L1016.11 57.6853M1069.95 52.5293L1068.3 48.7975L1067.76 47.5786M1069.95 52.5293L1072.22 57.6853M1069.95 52.5293H1124.92M1013.88 47.5786H1067.76M1013.88 47.5786H960M1013.88 47.5786L1012.83 42.8211M1067.76 47.5786L1066.43 44.5832L1066.17 43.9927L1065.91 43.4053L1065.65 42.8211M1067.76 47.5786H1121.63M1010.84 33.8424H1061.68M1010.84 33.8424L1009.9 29.6016M1010.84 33.8424H960M1010.84 33.8424L1011.82 38.2456M1061.68 33.8424L1061.92 34.3837L1063.38 37.686L1063.63 38.2456M1061.68 33.8424L1059.81 29.6016M1061.68 33.8424H1112.52M1009.9 29.6016H1059.81M1009.9 29.6016H960M1009.9 29.6016L1009 25.5142M1059.81 29.6016L1059.12 28.0511L1058.9 27.5389L1058.67 27.0293L1058 25.5142M1059.81 29.6016H1109.71M1007.29 17.7676H1054.58M1007.29 17.7676L1006.48 14.0939M1007.29 17.7676H960M1007.29 17.7676L1008.13 21.5721M1054.58 17.7676L1054.37 17.3016L1053.96 16.3751L1053.76 15.9147L1053.35 15.0008L1053.15 14.5461L1052.95 14.0939M1054.58 17.7676L1055.41 19.6528L1055.62 20.1296L1056.05 21.089L1056.26 21.5721M1054.58 17.7676H1101.86M1006.48 14.0939L1006.38 13.6436L1006.28 13.1952L1006.18 12.7487L1005.69 10.5446M1006.48 14.0939H1052.95M1006.48 14.0939H960M1052.95 14.0939H1099.43M1052.95 14.0939L1052.56 13.1952L1052.36 12.7487L1052.16 12.3041L1051.58 10.9817L1051.38 10.5446M1597.36 380.496H1724.84M1597.36 380.496L1568.69 354.558M1597.36 380.496H1469.89M1597.36 380.496L1628.87 409M1724.84 380.496L1690.43 354.558M1724.84 380.496L1762.64 409M1724.84 380.496H1852.31M1568.69 354.558H1690.43M1568.69 354.558H1446.95M1568.69 354.558L1542.49 330.852M1690.43 354.558L1658.99 330.852M1690.43 354.558H1812.17M1496.32 289.077H1603.58M1496.32 289.077L1475.87 270.579M1496.32 289.077H1389.05M1496.32 289.077L1518.45 309.103M1603.58 289.077L1579.05 270.579M1603.58 289.077L1630.14 309.103M1603.58 289.077H1710.85M1475.87 270.579H1579.05M1475.87 270.579H1372.7M1475.87 270.579L1456.93 253.439M1579.05 270.579L1556.31 253.439M1579.05 270.579H1682.22M1422.93 222.678H1515.51M1422.93 222.678L1407.61 208.823M1422.93 222.678H1330.34M1422.93 222.678L1439.33 237.513M1515.51 222.678L1497.14 208.823M1515.51 222.678L1535.19 237.513M1515.51 222.678H1608.1M1407.61 208.823H1497.14M1407.61 208.823H1318.09M1407.61 208.823L1393.28 195.857M1497.14 208.823L1479.94 195.857M1497.14 208.823H1586.66M1367.2 172.263H1448.65M1367.2 172.263L1355.31 161.501M1367.2 172.263H1285.76M1367.2 172.263L1379.84 183.694M1448.65 172.263L1434.37 161.501M1448.65 172.263L1463.81 183.694M1448.65 172.263H1530.09M1355.31 161.501H1434.37M1355.31 161.501H1276.25M1355.31 161.501L1344.09 151.349M1434.37 161.501L1420.91 151.349M1434.37 161.501H1513.43M1323.46 132.682H1396.15M1323.46 132.682L1313.95 124.081M1323.46 132.682H1250.76M1323.46 132.682L1333.49 141.758M1396.15 132.682L1384.74 124.081M1396.15 132.682L1408.18 141.758M1396.15 132.682H1468.84M1313.95 124.081H1384.74M1313.95 124.081H1243.16M1313.95 124.081L1304.93 115.918M1384.74 124.081L1373.91 115.918M1384.74 124.081H1455.53M1288.2 100.78H1353.83M1288.2 100.78L1280.42 93.7491M1288.2 100.78H1222.56M1288.2 100.78L1296.35 108.161M1353.83 100.78L1344.51 93.7491M1353.83 100.78L1363.62 108.161M1353.83 100.78H1419.47M1280.42 93.7491H1344.51M1280.42 93.7491H1216.34M1280.42 93.7491L1273.01 87.0434M1344.51 93.7491L1335.61 87.0434M1344.51 93.7491H1408.59M1259.17 74.5211L1260 75.2713L1260.83 76.0254L1265.93 80.6408M1259.17 74.5211H1319M1259.17 74.5211L1252.7 68.6666M1259.17 74.5211H1199.34M1319 74.5211L1311.24 68.6666M1319 74.5211L1327.12 80.6408M1319 74.5211H1378.84M1252.7 68.6666H1311.24M1252.7 68.6666H1194.16M1252.7 68.6666L1246.5 63.0597M1311.24 68.6666L1303.8 63.0597M1311.24 68.6666H1369.78M1234.86 52.5293H1289.84M1234.86 52.5293L1229.39 47.5786M1234.86 52.5293H1179.89M1234.86 52.5293L1240.56 57.6853M1289.84 52.5293L1285.7 49.412L1283.27 47.5786M1289.84 52.5293L1296.67 57.6853M1289.84 52.5293H1344.81M1229.39 47.5786H1283.27M1229.39 47.5786H1175.51M1229.39 47.5786L1224.78 43.4053L1224.13 42.8211M1283.27 47.5786L1276.96 42.8211M1283.27 47.5786H1337.15M1214.21 33.8424H1265.05M1214.21 33.8424L1213.02 32.7669L1209.52 29.6016M1214.21 33.8424H1163.37M1214.21 33.8424L1215.41 34.9274L1217.84 37.129L1219.08 38.2456M1265.05 33.8424L1259.43 29.6016M1265.05 33.8424L1267.21 35.4743L1268.67 36.5751L1270.89 38.2456M1265.05 33.8424H1315.89M1209.52 29.6016H1259.43M1209.52 29.6016H1159.62M1209.52 29.6016L1206.12 26.5215L1205 25.5142M1259.43 29.6016L1257.37 28.0511L1256.01 27.0293L1254 25.5142M1259.43 29.6016H1309.33M1196.44 17.7676H1243.73M1196.44 17.7676L1193.89 15.4568L1192.38 14.0939M1196.44 17.7676H1149.15M1196.44 17.7676L1200.65 21.5721M1243.73 17.7676L1240.06 15.0008L1239.46 14.5461L1238.86 14.0939M1243.73 17.7676L1246.23 19.6528L1248.78 21.5721M1243.73 17.7676H1291.02M1192.38 14.0939H1238.86M1192.38 14.0939L1190.4 12.3041L1189.43 11.4206L1188.94 10.9817L1188.46 10.5446M1192.38 14.0939H1145.9M1238.86 14.0939H1285.33M1238.86 14.0939L1234.15 10.5446M1888.57 270.579H1785.4M1888.57 270.579L1854.47 253.439M1888.57 270.579H1919.48M1888.57 270.579L1919.48 286.117M1793.27 222.678H1885.85M1793.27 222.678L1765.71 208.823M1793.27 222.678H1700.68M1793.27 222.678L1822.79 237.513M1885.85 222.678L1855.23 208.823M1885.85 222.678L1918.65 237.513M1885.85 222.678H1919.48M1765.71 208.823H1855.23M1765.71 208.823H1676.18M1765.71 208.823L1739.91 195.857M1855.23 208.823L1826.56 195.857M1855.23 208.823H1919.48M1692.97 172.263H1774.41M1692.97 172.263L1671.56 161.501M1692.97 172.263H1611.53M1692.97 172.263L1715.71 183.694M1774.41 172.263L1750.62 161.501M1774.41 172.263L1799.68 183.694M1774.41 172.263H1855.85M1671.56 161.501H1750.62M1671.56 161.501H1592.49M1671.56 161.501L1651.36 151.349M1750.62 161.501L1728.18 151.349M1750.62 161.501H1829.68M1614.22 132.682H1686.91M1614.22 132.682L1597.11 124.081M1614.22 132.682H1541.53M1614.22 132.682L1632.28 141.758M1686.91 132.682L1667.9 124.081M1686.91 132.682L1706.97 141.758M1686.91 132.682H1759.6M1597.11 124.081H1667.9M1597.11 124.081H1526.32M1597.11 124.081L1580.87 115.918M1667.9 124.081L1649.85 115.918M1667.9 124.081H1738.69M1550.75 100.78H1616.39M1550.75 100.78L1536.76 93.7491M1550.75 100.78H1485.11M1550.75 100.78L1565.43 108.161M1616.39 100.78L1600.85 93.7491M1616.39 100.78L1632.71 108.161M1616.39 100.78H1682.03M1536.76 93.7491H1600.85M1536.76 93.7491H1472.68M1536.76 93.7491L1523.42 87.0434M1600.85 93.7491L1586.02 87.0434M1600.85 93.7491H1664.93M1498.51 74.5211H1558.34M1498.51 74.5211L1486.86 68.6666M1498.51 74.5211H1438.67M1498.51 74.5211L1510.68 80.6408M1558.34 74.5211L1545.4 68.6666M1558.34 74.5211L1571.87 80.6408M1558.34 74.5211H1618.18M1486.86 68.6666H1545.4M1486.86 68.6666H1428.32M1486.86 68.6666L1475.7 63.0597M1545.4 68.6666L1533 63.0597M1545.4 68.6666H1603.94M1454.75 52.5293H1509.73M1454.75 52.5293L1444.9 47.5786M1454.75 52.5293H1399.78M1454.75 52.5293L1465.01 57.6853M1509.73 52.5293L1498.78 47.5786M1509.73 52.5293L1521.12 57.6853M1509.73 52.5293H1564.7M1444.9 47.5786H1498.78M1444.9 47.5786H1391.03M1444.9 47.5786L1435.44 42.8211M1498.78 47.5786L1488.27 42.8211M1498.78 47.5786H1552.66M1417.58 33.8424H1468.42M1417.58 33.8424L1409.14 29.6016M1417.58 33.8424H1366.73M1417.58 33.8424L1419.74 34.9274L1420.82 35.4743L1426.34 38.2456M1468.42 33.8424L1459.04 29.6016M1468.42 33.8424L1478.15 38.2456M1468.42 33.8424H1519.26M1409.14 29.6016H1459.04M1409.14 29.6016H1359.23M1409.14 29.6016L1401.01 25.5142M1459.04 29.6016L1450.01 25.5142M1459.04 29.6016H1508.95M1385.59 17.7676H1432.88M1385.59 17.7676L1378.29 14.0939M1385.59 17.7676H1338.31M1385.59 17.7676L1393.16 21.5721M1432.88 17.7676L1426.77 15.0008L1425.76 14.5461L1424.76 14.0939M1432.88 17.7676L1441.29 21.5721M1432.88 17.7676H1480.17M1378.29 14.0939H1424.76M1378.29 14.0939L1372.09 10.9817L1371.22 10.5446M1378.29 14.0939H1331.81M1424.76 14.0939H1471.24M1424.76 14.0939L1416.92 10.5446M1904.98 132.682L1880.27 124.081M1904.98 132.682H1832.29M1904.98 132.682L1919.48 137.727M1904.98 132.682H1919.48M1880.27 124.081H1809.48M1880.27 124.081L1856.81 115.918M1880.27 124.081H1919.48M1813.31 100.78H1878.95M1813.31 100.78L1793.1 93.7491M1813.31 100.78H1747.67M1813.31 100.78L1834.52 108.161M1878.95 100.78L1857.19 93.7491M1878.95 100.78L1901.79 108.161M1878.95 100.78H1919.48M1793.1 93.7491H1857.19M1793.1 93.7491H1729.02M1793.1 93.7491L1773.83 87.0434M1857.19 93.7491L1836.43 87.0434M1857.19 93.7491H1919.48M1737.84 74.5211H1797.68M1737.84 74.5211L1721.02 68.6666M1737.84 74.5211H1678.01M1737.84 74.5211L1755.43 80.6408M1797.68 74.5211L1779.56 68.6666M1797.68 74.5211L1816.62 80.6408M1797.68 74.5211H1857.51M1721.02 68.6666H1779.56M1721.02 68.6666H1662.48M1721.02 68.6666L1704.91 63.0597M1779.56 68.6666L1762.21 63.0597M1779.56 68.6666H1838.1M1674.64 52.5293H1729.62M1674.64 52.5293L1660.42 47.5786M1674.64 52.5293H1619.67M1674.64 52.5293L1689.46 57.6853M1729.62 52.5293L1714.3 47.5786M1729.62 52.5293L1745.57 57.6853M1729.62 52.5293H1784.59M1660.42 47.5786H1714.3M1660.42 47.5786H1606.54M1660.42 47.5786L1646.75 42.8211M1714.3 47.5786L1699.57 42.8211M1714.3 47.5786H1768.17M1620.94 33.8424H1671.78M1620.94 33.8424L1608.76 29.6016M1620.94 33.8424H1570.1M1620.94 33.8424L1633.6 38.2456M1671.78 33.8424L1658.66 29.6016M1671.78 33.8424L1685.41 38.2456M1671.78 33.8424H1722.63M1608.76 29.6016H1658.66M1608.76 29.6016H1558.85M1608.76 29.6016L1597.01 25.5142M1658.66 29.6016L1646.01 25.5142M1658.66 29.6016H1708.56M1574.75 17.7676H1622.04M1574.75 17.7676L1564.19 14.0939M1574.75 17.7676H1527.46M1574.75 17.7676L1585.68 21.5721M1622.04 17.7676L1610.67 14.0939M1622.04 17.7676L1633.81 21.5721M1622.04 17.7676H1669.33M1564.19 14.0939H1610.67M1564.19 14.0939L1553.99 10.5446M1564.19 14.0939H1517.71M1610.67 14.0939H1657.14M1610.67 14.0939L1599.68 10.5446M1894.53 52.5293L1875.93 47.5786M1894.53 52.5293H1839.56M1894.53 52.5293L1913.91 57.6853M1894.53 52.5293H1919.48M1875.93 47.5786H1822.05M1875.93 47.5786L1858.05 42.8211M1875.93 47.5786H1919.48M1824.31 33.8424H1875.15M1824.31 33.8424L1808.37 29.6016M1824.31 33.8424H1773.47M1824.31 33.8424L1840.86 38.2456M1875.15 33.8424L1858.28 29.6016M1875.15 33.8424L1892.67 38.2456M1875.15 33.8424H1919.48M1808.37 29.6016H1858.28M1808.37 29.6016H1758.47M1808.37 29.6016L1793.01 25.5142M1858.28 29.6016L1842.01 25.5142M1858.28 29.6016H1908.18M1763.9 17.7676H1811.19M1763.9 17.7676L1750.1 14.0939M1763.9 17.7676H1716.61M1763.9 17.7676L1778.2 21.5721M1811.19 17.7676L1796.57 14.0939M1811.19 17.7676L1826.33 21.5721M1811.19 17.7676H1858.48M1750.1 14.0939H1796.57M1750.1 14.0939L1736.76 10.5446M1750.1 14.0939H1703.62M1796.57 14.0939H1843.05M1796.57 14.0939L1782.45 10.5446M1826.33 21.5721L1842.01 25.5142M1826.33 21.5721H1874.46M1826.33 21.5721H1778.2M1858.48 17.7676L1843.05 14.0939M1858.48 17.7676L1874.46 21.5721M1858.48 17.7676H1905.77M1843.05 14.0939H1889.52M1843.05 14.0939L1828.14 10.5446M1782.45 10.5446H1736.76M1782.45 10.5446H1828.14M1782.45 10.5446L1768.79 7.1128M1874.46 21.5721L1891.01 25.5142M1874.46 21.5721H1919.48M1905.77 17.7676L1889.52 14.0939M1905.77 17.7676L1919.48 20.8701M1905.77 17.7676H1919.48M1889.52 14.0939L1873.83 10.5446M1889.52 14.0939H1919.48M1828.14 10.5446H1873.83M1828.14 10.5446L1813.73 7.1128M1873.83 10.5446L1858.66 7.1128M1873.83 10.5446H1919.48M1842.01 25.5142H1891.01M1842.01 25.5142H1793.01M1908.18 29.6016L1891.01 25.5142M1908.18 29.6016L1919.48 32.2921M1908.18 29.6016H1919.48M1891.01 25.5142H1919.48M1793.01 25.5142H1744.01M1793.01 25.5142L1778.2 21.5721M1778.2 21.5721H1730.07M1892.67 38.2456L1910.88 42.8211M1892.67 38.2456H1840.86M1892.67 38.2456H1919.48M1919.64 33.8424H1919.48M1910.88 42.8211H1858.05M1910.88 42.8211L1919.48 44.9836M1910.88 42.8211H1919.48M1858.05 42.8211H1805.22M1858.05 42.8211L1840.86 38.2456M1840.86 38.2456H1789.04M1633.81 21.5721L1646.01 25.5142M1633.81 21.5721H1681.94M1633.81 21.5721H1585.68M1669.33 17.7676L1657.14 14.0939M1669.33 17.7676L1681.94 21.5721M1669.33 17.7676H1716.61M1657.14 14.0939H1703.62M1657.14 14.0939L1645.37 10.5446M1599.68 10.5446H1645.37M1599.68 10.5446L1589.06 7.1128M1599.68 10.5446H1553.99M1681.94 21.5721L1695.01 25.5142M1681.94 21.5721H1730.07M1716.61 17.7676L1703.62 14.0939M1716.61 17.7676L1730.07 21.5721M1703.62 14.0939L1691.07 10.5446M1645.37 10.5446H1691.07M1645.37 10.5446L1633.99 7.1128M1730.07 21.5721L1744.01 25.5142M1736.76 10.5446H1691.07M1736.76 10.5446L1723.86 7.1128M1691.07 10.5446L1678.93 7.1128M1646.01 25.5142H1695.01M1646.01 25.5142H1597.01M1708.56 29.6016L1695.01 25.5142M1708.56 29.6016L1722.63 33.8424M1708.56 29.6016H1758.47M1695.01 25.5142H1744.01M1597.01 25.5142H1548.01M1597.01 25.5142L1585.68 21.5721M1744.01 25.5142L1758.47 29.6016M1585.68 21.5721H1537.55M1722.63 33.8424L1737.23 38.2456M1722.63 33.8424H1773.47M1758.47 29.6016L1773.47 33.8424M1773.47 33.8424L1789.04 38.2456M1685.41 38.2456L1699.57 42.8211M1685.41 38.2456H1737.23M1685.41 38.2456H1633.6M1737.23 38.2456L1752.4 42.8211M1737.23 38.2456H1789.04M1789.04 38.2456L1805.22 42.8211M1699.57 42.8211H1752.4M1699.57 42.8211H1646.75M1768.17 47.5786L1752.4 42.8211M1768.17 47.5786L1784.59 52.5293M1768.17 47.5786H1822.05M1752.4 42.8211H1805.22M1646.75 42.8211H1593.92M1646.75 42.8211L1633.6 38.2456M1805.22 42.8211L1822.05 47.5786M1633.6 38.2456H1581.78M1784.59 52.5293L1801.69 57.6853M1784.59 52.5293H1839.56M1822.05 47.5786L1839.56 52.5293M1839.56 52.5293L1857.8 57.6853M1745.57 57.6853L1762.21 63.0597M1745.57 57.6853H1801.69M1745.57 57.6853H1689.46M1801.69 57.6853L1819.51 63.0597M1801.69 57.6853H1857.8M1857.8 57.6853L1876.81 63.0597M1857.8 57.6853H1913.91M1913.91 57.6853H1919.48M1913.91 57.6853L1919.48 59.1677M1762.21 63.0597H1819.51M1762.21 63.0597H1704.91M1838.1 68.6666L1819.51 63.0597M1838.1 68.6666L1857.51 74.5211M1838.1 68.6666H1896.64M1819.51 63.0597H1876.81M1704.91 63.0597H1647.61M1704.91 63.0597L1689.46 57.6853M1876.81 63.0597L1896.64 68.6666M1876.81 63.0597H1919.48M1689.46 57.6853H1633.35M1857.51 74.5211L1877.8 80.6408M1857.51 74.5211H1917.35M1896.64 68.6666L1917.35 74.5211M1896.64 68.6666H1919.48M1919.78 63.0597H1919.48M1917.35 74.5211L1919.48 75.1252M1917.35 74.5211H1919.48M1816.62 80.6408L1836.43 87.0434M1816.62 80.6408H1877.8M1816.62 80.6408H1755.43M1877.8 80.6408L1899.03 87.0434M1877.8 80.6408H1919.48M1920 75.2713L1919.48 75.1252M1836.43 87.0434H1899.03M1836.43 87.0434H1773.83M1899.03 87.0434H1919.48M1899.03 87.0434L1919.48 93.2102M1773.83 87.0434H1711.23M1773.83 87.0434L1755.43 80.6408M1755.43 80.6408H1694.24M1901.79 108.161H1834.52M1901.79 108.161L1919.48 113.879M1901.79 108.161H1919.48M1919.97 100.78H1919.48M1834.52 108.161H1767.25M1834.52 108.161L1856.81 115.918M1919.68 113.942L1919.48 113.879M1441.29 21.5721L1450.01 25.5142M1441.29 21.5721H1489.42M1441.29 21.5721H1393.16M1480.17 17.7676L1471.24 14.0939M1480.17 17.7676L1489.42 21.5721M1480.17 17.7676H1527.46M1471.24 14.0939H1517.71M1471.24 14.0939L1462.61 10.5446M1416.92 10.5446H1462.61M1416.92 10.5446L1414.04 9.24428L1409.33 7.1128M1416.92 10.5446H1371.22M1489.42 21.5721L1499.01 25.5142M1489.42 21.5721H1537.55M1527.46 17.7676L1517.71 14.0939M1527.46 17.7676L1537.55 21.5721M1517.71 14.0939L1508.3 10.5446M1462.61 10.5446H1508.3M1462.61 10.5446L1454.26 7.1128M1537.55 21.5721L1548.01 25.5142M1553.99 10.5446L1544.13 7.1128M1553.99 10.5446H1508.3M1508.3 10.5446L1507.14 10.1089L1504.85 9.24428L1499.2 7.1128M1450.01 25.5142H1499.01M1450.01 25.5142H1401.01M1508.95 29.6016L1499.01 25.5142M1508.95 29.6016L1519.26 33.8424M1508.95 29.6016H1558.85M1499.01 25.5142H1548.01M1401.01 25.5142H1352.01M1401.01 25.5142L1393.16 21.5721M1548.01 25.5142L1558.85 29.6016M1393.16 21.5721H1345.03M1519.26 33.8424L1529.97 38.2456M1519.26 33.8424H1570.1M1558.85 29.6016L1560.23 30.1226L1570.1 33.8424M1570.1 33.8424L1581.78 38.2456M1478.15 38.2456L1479.39 38.8083L1488.27 42.8211M1478.15 38.2456H1529.97M1478.15 38.2456H1426.34M1529.97 38.2456L1541.09 42.8211M1529.97 38.2456H1581.78M1581.78 38.2456L1593.92 42.8211M1488.27 42.8211H1541.09M1488.27 42.8211H1435.44M1552.66 47.5786L1541.09 42.8211M1552.66 47.5786L1564.7 52.5293M1552.66 47.5786H1606.54M1541.09 42.8211H1593.92M1435.44 42.8211H1382.61M1435.44 42.8211L1426.34 38.2456M1593.92 42.8211L1606.54 47.5786M1426.34 38.2456H1374.52M1564.7 52.5293L1577.24 57.6853M1564.7 52.5293H1619.67M1606.54 47.5786L1619.67 52.5293M1619.67 52.5293L1633.35 57.6853M1521.12 57.6853L1533 63.0597M1521.12 57.6853H1577.24M1521.12 57.6853H1465.01M1577.24 57.6853L1590.31 63.0597M1577.24 57.6853H1633.35M1633.35 57.6853L1647.61 63.0597M1533 63.0597H1590.31M1533 63.0597H1475.7M1603.94 68.6666L1590.31 63.0597M1603.94 68.6666L1618.18 74.5211M1603.94 68.6666H1662.48M1590.31 63.0597H1647.61M1475.7 63.0597H1418.4M1475.7 63.0597L1465.01 57.6853M1647.61 63.0597L1662.48 68.6666M1465.01 57.6853H1408.9M1618.18 74.5211L1633.06 80.6408M1618.18 74.5211H1678.01M1662.48 68.6666L1678.01 74.5211M1678.01 74.5211L1694.24 80.6408M1571.87 80.6408L1586.02 87.0434M1571.87 80.6408H1633.06M1571.87 80.6408H1510.68M1633.06 80.6408L1648.63 87.0434M1633.06 80.6408H1694.24M1694.24 80.6408L1711.23 87.0434M1586.02 87.0434H1648.63M1586.02 87.0434H1523.42M1664.93 93.7491L1648.63 87.0434M1664.93 93.7491L1682.03 100.78M1664.93 93.7491H1729.02M1648.63 87.0434H1711.23M1523.42 87.0434H1460.82M1523.42 87.0434L1510.68 80.6408M1711.23 87.0434L1729.02 93.7491M1510.68 80.6408H1449.5M1682.03 100.78L1699.98 108.161M1682.03 100.78H1747.67M1729.02 93.7491L1747.67 100.78M1747.67 100.78L1767.25 108.161M1632.71 108.161L1649.85 115.918M1632.71 108.161H1699.98M1632.71 108.161H1565.43M1699.98 108.161L1718.84 115.918M1699.98 108.161H1767.25M1767.25 108.161L1787.82 115.918M1649.85 115.918H1718.84M1649.85 115.918H1580.87M1738.69 124.081L1718.84 115.918M1738.69 124.081L1759.6 132.682M1738.69 124.081H1809.48M1718.84 115.918H1787.82M1580.87 115.918H1511.88M1580.87 115.918L1565.43 108.161M1787.82 115.918L1809.48 124.081M1787.82 115.918H1856.81M1565.43 108.161H1498.16M1759.6 132.682L1781.67 141.758M1759.6 132.682H1832.29M1809.48 124.081L1832.29 132.682M1856.81 115.918H1919.48M1832.29 132.682L1856.37 141.758M1706.97 141.758L1728.18 151.349M1706.97 141.758H1781.67M1706.97 141.758H1632.28M1781.67 141.758L1804.99 151.349M1781.67 141.758H1856.37M1856.37 141.758L1881.81 151.349M1856.37 141.758H1919.48M1728.18 151.349H1804.99M1728.18 151.349H1651.36M1829.68 161.501L1804.99 151.349M1829.68 161.501L1855.85 172.263M1829.68 161.501H1908.74M1804.99 151.349H1881.81M1651.36 151.349H1574.54M1651.36 151.349L1632.28 141.758M1881.81 151.349L1908.74 161.501M1881.81 151.349H1919.48M1632.28 141.758H1557.58M1855.85 172.263L1883.65 183.694M1855.85 172.263H1919.48M1908.74 161.501H1919.48M1908.74 161.501L1919.48 165.55M1799.68 183.694L1826.56 195.857M1799.68 183.694H1883.65M1799.68 183.694H1715.71M1883.65 183.694L1913.22 195.857M1883.65 183.694H1919.48M1826.56 195.857H1913.22M1826.56 195.857H1739.91M1913.22 195.857L1919.48 198.432M1913.22 195.857H1919.48M1739.91 195.857H1653.25M1739.91 195.857L1715.71 183.694M1715.71 183.694H1631.74M1918.65 237.513H1822.79M1918.65 237.513H1919.48M1918.65 237.513L1919.48 237.89M1822.79 237.513H1726.92M1822.79 237.513L1854.47 253.439M1248.78 21.5721L1250.71 23.0335L1251.37 23.5255L1254 25.5142M1248.78 21.5721H1296.9M1248.78 21.5721H1200.65M1291.02 17.7676L1286.74 15.0008L1285.33 14.0939M1291.02 17.7676L1296.16 21.089L1296.9 21.5721M1291.02 17.7676H1338.31M1285.33 14.0939H1331.81M1285.33 14.0939L1279.84 10.5446M1234.15 10.5446H1279.84M1234.15 10.5446L1232.42 9.24428L1229.6 7.1128M1234.15 10.5446H1188.46M1296.9 21.5721L1298.41 22.544L1303.01 25.5142M1296.9 21.5721H1345.03M1338.31 17.7676L1331.81 14.0939M1338.31 17.7676L1345.03 21.5721M1331.81 14.0939L1327.08 11.4206L1325.53 10.5446M1279.84 10.5446H1325.53M1279.84 10.5446L1274.53 7.1128M1345.03 21.5721L1352.01 25.5142M1371.22 10.5446L1370.36 10.1089L1364.4 7.1128M1371.22 10.5446H1325.53M1325.53 10.5446L1323.23 9.24428L1319.46 7.1128M1254 25.5142H1303.01M1254 25.5142H1205M1309.33 29.6016L1303.01 25.5142M1309.33 29.6016L1315.89 33.8424M1309.33 29.6016H1359.23M1303.01 25.5142H1352.01M1205 25.5142H1156M1205 25.5142L1200.65 21.5721M1352.01 25.5142L1359.23 29.6016M1200.65 21.5721H1152.52M1315.89 33.8424L1320.12 36.5751L1320.98 37.129L1322.71 38.2456M1315.89 33.8424H1366.73M1359.23 29.6016L1366.73 33.8424M1366.73 33.8424L1374.52 38.2456M1270.89 38.2456L1276.96 42.8211M1270.89 38.2456H1322.71M1270.89 38.2456H1219.08M1322.71 38.2456L1329.79 42.8211M1322.71 38.2456H1374.52M1374.52 38.2456L1382.61 42.8211M1276.96 42.8211H1329.79M1276.96 42.8211H1224.13M1337.15 47.5786L1332.51 44.5832L1331.6 43.9927L1329.79 42.8211M1337.15 47.5786L1344.81 52.5293M1337.15 47.5786H1391.03M1329.79 42.8211H1382.61M1224.13 42.8211H1171.31M1224.13 42.8211L1219.08 38.2456M1382.61 42.8211L1391.03 47.5786M1219.08 38.2456H1167.26M1344.81 52.5293L1352.79 57.6853M1344.81 52.5293H1399.78M1391.03 47.5786L1399.78 52.5293M1399.78 52.5293L1408.9 57.6853M1296.67 57.6853L1300.2 60.3441L1301.09 61.0179L1303.8 63.0597M1296.67 57.6853H1352.79M1296.67 57.6853H1240.56M1352.79 57.6853L1361.1 63.0597M1352.79 57.6853H1408.9M1408.9 57.6853L1418.4 63.0597M1303.8 63.0597H1361.1M1303.8 63.0597H1246.5M1369.78 68.6666L1361.1 63.0597M1369.78 68.6666L1378.84 74.5211M1369.78 68.6666H1428.32M1361.1 63.0597H1418.4M1246.5 63.0597H1189.2M1246.5 63.0597L1244.99 61.695L1240.56 57.6853M1418.4 63.0597L1428.32 68.6666M1240.56 57.6853H1184.45M1378.84 74.5211L1388.31 80.6408M1378.84 74.5211H1438.67M1428.32 68.6666L1438.67 74.5211M1438.67 74.5211L1449.5 80.6408M1327.12 80.6408L1335.61 87.0434M1327.12 80.6408H1388.31M1327.12 80.6408H1265.93M1388.31 80.6408L1398.22 87.0434M1388.31 80.6408H1449.5M1449.5 80.6408L1460.82 87.0434M1335.61 87.0434H1398.22M1335.61 87.0434H1273.01M1408.59 93.7491L1398.22 87.0434M1408.59 93.7491L1419.47 100.78M1408.59 93.7491H1472.68M1398.22 87.0434H1460.82M1273.01 87.0434H1210.41M1273.01 87.0434L1265.93 80.6408M1460.82 87.0434L1472.68 93.7491M1265.93 80.6408H1204.75M1419.47 100.78L1430.89 108.161M1419.47 100.78H1485.11M1472.68 93.7491L1485.11 100.78M1485.11 100.78L1498.16 108.161M1363.62 108.161L1373.91 115.918M1363.62 108.161H1430.89M1363.62 108.161H1296.35M1430.89 108.161L1442.9 115.918M1430.89 108.161H1498.16M1498.16 108.161L1511.88 115.918M1373.91 115.918H1442.9M1373.91 115.918H1304.93M1455.53 124.081L1442.9 115.918M1455.53 124.081L1468.84 132.682M1455.53 124.081H1526.32M1442.9 115.918H1511.88M1304.93 115.918H1235.94M1304.93 115.918L1296.35 108.161M1511.88 115.918L1526.32 124.081M1296.35 108.161H1229.08M1468.84 132.682L1482.88 141.758M1468.84 132.682H1541.53M1526.32 124.081L1541.53 132.682M1541.53 132.682L1557.58 141.758M1408.18 141.758L1420.91 151.349M1408.18 141.758H1482.88M1408.18 141.758H1333.49M1482.88 141.758L1497.72 151.349M1482.88 141.758H1557.58M1557.58 141.758L1574.54 151.349M1420.91 151.349H1497.72M1420.91 151.349H1344.09M1513.43 161.501L1497.72 151.349M1513.43 161.501L1530.09 172.263M1513.43 161.501H1592.49M1497.72 151.349H1574.54M1344.09 151.349H1267.27M1344.09 151.349L1333.49 141.758M1574.54 151.349L1592.49 161.501M1333.49 141.758H1258.79M1530.09 172.263L1547.77 183.694M1530.09 172.263H1611.53M1592.49 161.501L1611.53 172.263M1611.53 172.263L1631.74 183.694M1463.81 183.694L1479.94 195.857M1463.81 183.694H1547.77M1463.81 183.694H1379.84M1547.77 183.694L1566.59 195.857M1547.77 183.694H1631.74M1631.74 183.694L1653.25 195.857M1479.94 195.857H1566.59M1479.94 195.857H1393.28M1586.66 208.823L1566.59 195.857M1586.66 208.823L1608.1 222.678M1586.66 208.823H1676.18M1566.59 195.857H1653.25M1393.28 195.857H1306.63M1393.28 195.857L1379.84 183.694M1653.25 195.857L1676.18 208.823M1379.84 183.694H1295.87M1608.1 222.678L1631.06 237.513M1608.1 222.678H1700.68M1676.18 208.823L1700.68 222.678M1700.68 222.678L1726.92 237.513M1535.19 237.513L1556.31 253.439M1535.19 237.513H1631.06M1535.19 237.513H1439.33M1631.06 237.513L1655.7 253.439M1631.06 237.513H1726.92M1726.92 237.513L1755.08 253.439M1556.31 253.439H1655.7M1556.31 253.439H1456.93M1682.22 270.579L1655.7 253.439M1682.22 270.579L1710.85 289.077M1682.22 270.579H1785.4M1655.7 253.439H1755.08M1456.93 253.439H1357.54M1456.93 253.439L1439.33 237.513M1755.08 253.439L1785.4 270.579M1755.08 253.439H1854.47M1439.33 237.513H1343.46M1710.85 289.077L1741.83 309.103M1710.85 289.077H1818.11M1785.4 270.579L1818.11 289.077M1854.47 253.439H1919.48M1818.11 289.077L1853.52 309.103M1818.11 289.077H1919.48M1630.14 309.103L1658.99 330.852M1630.14 309.103H1741.83M1630.14 309.103H1518.45M1741.83 309.103L1775.49 330.852M1741.83 309.103H1853.52M1853.52 309.103L1891.99 330.852M1853.52 309.103H1919.48M1658.99 330.852H1775.49M1658.99 330.852H1542.49M1812.17 354.558L1775.49 330.852M1812.17 354.558L1852.31 380.496M1812.17 354.558H1919.48M1775.49 330.852H1891.99M1542.49 330.852H1425.99M1542.49 330.852L1518.45 309.103M1891.99 330.852H1919.48M1891.99 330.852L1919.48 346.401M1518.45 309.103H1406.76M1852.31 380.496L1896.42 409M1852.31 380.496H1919.48M1762.64 409L1804.38 440.468M1762.64 409H1896.42M1762.64 409H1628.87M1896.42 409L1919.48 423.908M1896.42 409H1919.48M1804.38 440.468H1663.65M1804.38 440.468L1919.48 440.468M1663.65 440.468H1522.92M1663.65 440.468L1628.87 409M1628.87 409H1495.09M1056.26 21.5721L1056.47 22.0571L1056.69 22.544L1056.9 23.0335L1057.12 23.5255L1057.78 25.0134L1058 25.5142M1056.26 21.5721H1104.39M1056.26 21.5721H1008.13M1101.86 17.7676L1100.03 15.0008L1099.43 14.0939M1101.86 17.7676L1103.43 20.1296L1104.39 21.5721M1101.86 17.7676H1149.15M1099.43 14.0939H1145.9M1099.43 14.0939L1097.66 11.4206L1097.07 10.5446M1051.38 10.5446L1051.19 10.1089L1050.43 8.386L1049.87 7.1128M1051.38 10.5446H1097.07M1051.38 10.5446H1005.69M1104.39 21.5721L1104.71 22.0571L1105.03 22.544L1105.36 23.0335L1105.68 23.5255L1107 25.5142M1104.39 21.5721H1152.52M1149.15 17.7676L1146.71 15.0008L1145.9 14.0939M1149.15 17.7676L1152.52 21.5721M1145.9 14.0939L1144.32 12.3041L1143.15 10.9817L1142.77 10.5446M1097.07 10.5446L1096.79 10.1089L1096.21 9.24428L1095.64 8.386L1095.36 7.95971L1094.8 7.1128M1097.07 10.5446H1142.77M1152.52 21.5721L1155.12 24.5151L1156 25.5142M1188.46 10.5446L1185.6 7.95971L1184.67 7.1128M1188.46 10.5446H1142.77M1142.77 10.5446L1140.11 7.53531L1139.73 7.1128M1058 25.5142H1107M1058 25.5142H1009M1109.71 29.6016L1107 25.5142M1109.71 29.6016L1112.52 33.8424M1109.71 29.6016H1159.62M1107 25.5142H1156M1009 25.5142H960M1009 25.5142L1008.13 21.5721M1156 25.5142L1159.62 29.6016M1008.13 21.5721H960M1112.52 33.8424L1113.25 34.9274L1114.34 36.5751L1115.45 38.2456M1112.52 33.8424H1163.37M1159.62 29.6016L1160.08 30.1226L1163.37 33.8424M1163.37 33.8424L1163.85 34.3837L1164.33 34.9274L1164.81 35.4743L1167.26 38.2456M1063.63 38.2456L1065.65 42.8211M1063.63 38.2456H1115.45M1063.63 38.2456H1011.82M1115.45 38.2456L1118.48 42.8211M1115.45 38.2456H1167.26M1167.26 38.2456L1170.28 41.6604L1170.79 42.2395L1171.31 42.8211M1065.65 42.8211H1118.48M1065.65 42.8211H1012.83M1121.63 47.5786L1122.04 48.1868L1122.44 48.7975L1122.85 49.412L1124.92 52.5293M1121.63 47.5786L1120.04 45.1762L1119.65 44.5832L1119.26 43.9927L1118.48 42.8211M1121.63 47.5786H1175.51M1118.48 42.8211H1171.31M1012.83 42.8211H960M1012.83 42.8211L1011.82 38.2456M1171.31 42.8211L1175.51 47.5786M1011.82 38.2456H960M1124.92 52.5293L1127.9 57.0291L1128.34 57.6853M1124.92 52.5293H1179.89M1175.51 47.5786L1176.59 48.7975L1179.89 52.5293M1179.89 52.5293L1181.58 54.4378L1184.45 57.6853M1072.22 57.6853L1073.4 60.3441L1073.7 61.0179L1074.6 63.0597M1072.22 57.6853H1128.34M1072.22 57.6853H1016.11M1128.34 57.6853L1131.9 63.0597M1128.34 57.6853H1184.45M1184.45 57.6853L1189.2 63.0597M1074.6 63.0597H1131.9M1074.6 63.0597H1017.3M1135.62 68.6666L1131.9 63.0597M1135.62 68.6666L1139.5 74.5211M1135.62 68.6666H1194.16M1131.9 63.0597H1189.2M1017.3 63.0597H960M1017.3 63.0597L1017 61.695L1016.4 59.0077L1016.11 57.6853M1189.2 63.0597L1194.16 68.6666M1016.11 57.6853H960M1139.5 74.5211L1142.53 79.0853L1143.56 80.6408M1139.5 74.5211H1199.34M1194.16 68.6666L1199.34 74.5211M1199.34 74.5211L1202.01 77.5468L1204.75 80.6408M1082.37 80.6408L1085.2 87.0434M1082.37 80.6408H1143.56M1082.37 80.6408H1021.19M1143.56 80.6408L1147.81 87.0434M1143.56 80.6408H1204.75M1204.75 80.6408L1210.41 87.0434M1085.2 87.0434H1147.81M1085.2 87.0434H1022.6M1152.25 93.7491L1151.12 92.0433L1147.81 87.0434M1152.25 93.7491L1156.92 100.78M1152.25 93.7491H1216.34M1147.81 87.0434H1210.41M1022.6 87.0434H960M1022.6 87.0434L1021.19 80.6408M1210.41 87.0434L1216.34 93.7491M1021.19 80.6408H960M1156.92 100.78L1161.81 108.161M1156.92 100.78H1222.56M1216.34 93.7491L1222.56 100.78M1222.56 100.78L1229.08 108.161M1094.54 108.161L1097.97 115.918M1094.54 108.161H1161.81M1094.54 108.161H1027.27M1161.81 108.161L1166.96 115.918M1161.81 108.161H1229.08M1229.08 108.161L1235.94 115.918M1097.97 115.918H1166.96M1097.97 115.918H1028.98M1172.37 124.081L1166.96 115.918M1172.37 124.081L1178.07 132.682M1172.37 124.081H1243.16M1166.96 115.918H1235.94M1028.98 115.918H960M1028.98 115.918L1027.48 109.11L1027.27 108.161M1235.94 115.918L1243.16 124.081M1027.27 108.161H960M1178.07 132.682L1184.09 141.758M1178.07 132.682H1250.76M1243.16 124.081L1248.82 130.489L1250.76 132.682M1250.76 132.682L1258.79 141.758M1109.39 141.758L1113.64 151.349M1109.39 141.758H1184.09M1109.39 141.758H1034.7M1184.09 141.758L1190.45 151.349M1184.09 141.758H1258.79M1258.79 141.758L1267.27 151.349M1113.64 151.349H1190.45M1113.64 151.349H1036.82M1197.19 161.501L1190.45 151.349M1197.19 161.501L1204.32 172.263M1197.19 161.501H1276.25M1190.45 151.349H1267.27M1036.82 151.349H960M1036.82 151.349L1034.7 141.758M1267.27 151.349L1276.25 161.501M1034.7 141.758H960M1204.32 172.263L1211.9 183.694M1204.32 172.263H1285.76M1276.25 161.501L1285.76 172.263M1285.76 172.263L1295.87 183.694M1127.94 183.694L1133.31 195.857M1127.94 183.694H1211.9M1127.94 183.694H1043.97M1211.9 183.694L1219.97 195.857M1211.9 183.694H1295.87M1295.87 183.694L1306.63 195.857M1133.31 195.857H1219.97M1133.31 195.857H1046.66M1228.57 208.823L1219.97 195.857M1228.57 208.823L1237.76 222.678M1228.57 208.823H1318.09M1219.97 195.857H1306.63M1046.66 195.857H960M1046.66 195.857L1043.97 183.694M1306.63 195.857L1318.09 208.823M1043.97 183.694H960M1237.76 222.678L1247.6 237.513M1237.76 222.678H1330.34M1318.09 208.823L1330.34 222.678M1330.34 222.678L1343.46 237.513M1151.73 237.513L1158.77 253.439M1151.73 237.513H1247.6M1151.73 237.513H1055.87M1247.6 237.513L1258.16 253.439M1247.6 237.513H1343.46M1343.46 237.513L1357.54 253.439M1158.77 253.439H1258.16M1158.77 253.439H1059.39M1269.52 270.579L1258.16 253.439M1269.52 270.579L1281.79 289.077M1269.52 270.579H1372.7M1258.16 253.439H1357.54M1059.39 253.439H960M1059.39 253.439L1055.87 237.513M1357.54 253.439L1372.7 270.579M1055.87 237.513H960M1281.79 289.077L1295.07 309.103M1281.79 289.077H1389.05M1372.7 270.579L1389.05 289.077M1389.05 289.077L1406.76 309.103M1183.38 309.103L1193 330.852M1183.38 309.103H1295.07M1183.38 309.103H1071.69M1295.07 309.103L1309.49 330.852M1295.07 309.103H1406.76M1406.76 309.103L1425.99 330.852M1193 330.852H1309.49M1193 330.852H1076.5M1325.22 354.558L1309.49 330.852M1325.22 354.558L1342.42 380.496M1325.22 354.558H1446.95M1309.49 330.852H1425.99M1076.5 330.852H960M1076.5 330.852L1071.69 309.103M1425.99 330.852L1446.95 354.558M1071.69 309.103H960M1342.42 380.496L1361.32 409M1342.42 380.496H1469.89M1446.95 354.558L1469.89 380.496M1469.89 380.496L1495.09 409M1227.55 409L1241.46 440.468M1227.55 409H1361.32M1227.55 409H1093.77M1361.32 409L1382.19 440.468M1361.32 409H1495.09M1495.09 409L1522.92 440.468M1382.19 440.468H1241.46M1382.19 440.468H1522.92M1241.46 440.468H1100.73M1100.73 440.468H960M1100.73 440.468L1093.77 409M1093.77 409H960M863.742 21.5721L863.527 22.0571L863.312 22.544L863.095 23.0335L862.878 23.5255L862.441 24.5151L862.22 25.0134L861.999 25.5142M863.742 21.5721H911.871M863.742 21.5721H815.612M912.711 17.7676L913.524 14.0939M912.711 17.7676L911.871 21.5721M912.711 17.7676H960M913.524 14.0939L913.623 13.6436L913.723 13.1952L913.821 12.7487L914.309 10.5446M913.524 14.0939H960M868.617 10.5446L868.809 10.1089L869.571 8.386L870.134 7.1128M868.617 10.5446H914.309M868.617 10.5446H822.926M911.871 21.5721L911.763 22.0571L911.656 22.544L911.547 23.0335L910.999 25.5142M911.871 21.5721H960M960 17.7676V14.0939M960 17.7676V21.5721M960 14.0939V10.5446M914.309 10.5446H960M914.309 10.5446L914.595 9.24428L914.691 8.81419L915.067 7.1128M960 21.5721V25.5142M1005.69 10.5446L1005.4 9.24428L1005.31 8.81419L1005.21 8.386L1005.12 7.95971L1005.03 7.53531L1004.93 7.1128M1005.69 10.5446H960M960 10.5446V7.1128M861.999 25.5142H910.999M861.999 25.5142H812.998M910.096 29.6016L909.98 30.1226L909.865 30.6468L909.158 33.8424M910.096 29.6016L910.999 25.5142M910.096 29.6016H960M910.999 25.5142H960M812.998 25.5142H763.998M812.998 25.5142L813.66 24.5151L813.99 24.0193L814.316 23.5255L814.643 23.0335L814.967 22.544L815.291 22.0571L815.612 21.5721M960 25.5142V29.6016M815.612 21.5721H767.483M909.158 33.8424L908.185 38.2456M909.158 33.8424H960M960 29.6016V33.8424M960 33.8424V38.2456M856.37 38.2456L854.347 42.8211M856.37 38.2456H908.185M856.37 38.2456H804.555M908.185 38.2456L907.174 42.8211M908.185 38.2456H960M960 38.2456V42.8211M854.347 42.8211H907.174M854.347 42.8211H801.52M906.122 47.5786L907.174 42.8211M906.122 47.5786L905.028 52.5293M906.122 47.5786H960M907.174 42.8211H960M801.52 42.8211H748.694M801.52 42.8211L804.555 38.2456M960 42.8211V47.5786M804.555 38.2456H752.74M905.028 52.5293L904.606 54.4378L904.177 56.3761L903.887 57.6853M905.028 52.5293H960M960 47.5786V52.5293M960 52.5293V57.6853M847.776 57.6853L846.599 60.3441L846.302 61.0179L845.399 63.0597M847.776 57.6853H903.887M847.776 57.6853H791.663M903.887 57.6853L903.595 59.0077L903.002 61.695L902.7 63.0597M903.887 57.6853H960M960 57.6853V63.0597M845.399 63.0597H902.7M845.399 63.0597H788.099M901.461 68.6666L901.617 67.9523L902.7 63.0597M901.461 68.6666L900.166 74.5211M901.461 68.6666H960M902.7 63.0597H960M788.099 63.0597H730.798M788.099 63.0597L791.663 57.6853M960 63.0597V68.6666M791.663 57.6853H735.55M900.166 74.5211L898.813 80.6408M900.166 74.5211H960M960 68.6666V74.5211M960 74.5211V80.6408M837.626 80.6408L834.796 87.0434M837.626 80.6408H898.813M837.626 80.6408H776.439M898.813 80.6408L897.398 87.0434M898.813 80.6408H960M960 80.6408V87.0434M834.796 87.0434H897.398M834.796 87.0434H772.193M895.916 93.7491L897.398 87.0434M895.916 93.7491L894.361 100.78M895.916 93.7491H960M897.398 87.0434H960M772.193 87.0434H709.591M772.193 87.0434L776.439 80.6408M960 87.0434V93.7491M776.439 80.6408H715.252M894.361 100.78L892.729 108.161M894.361 100.78H960M960 93.7491V100.78M960 100.78V108.161M825.458 108.161L822.029 115.918M825.458 108.161H892.729M825.458 108.161H758.189M892.729 108.161L891.015 115.918M892.729 108.161H960M960 108.161V115.918M822.029 115.918H891.015M822.029 115.918H753.044M889.21 124.081L891.015 115.918M889.21 124.081L887.309 132.682M889.21 124.081H960M891.015 115.918H960M753.044 115.918H684.059M753.044 115.918L758.189 108.161M960 115.918V124.081M758.189 108.161H690.918M887.309 132.682L885.302 141.758M887.309 132.682H960M960 124.081V132.682M960 132.682V141.758M810.606 141.758L806.365 151.349M810.606 141.758H885.302M810.606 141.758H735.908M885.302 141.758L883.182 151.349M885.302 141.758H960M960 141.758V151.349M806.365 151.349H883.182M806.365 151.349H729.547M880.939 161.501L883.182 151.349M880.939 161.501L878.559 172.263M880.939 161.501H960M883.182 151.349H960M729.547 151.349H652.73M729.547 151.349L735.908 141.758M960 151.349V161.501M735.908 141.758H661.21M878.559 172.263L876.032 183.694M878.559 172.263H960M960 161.501V172.263M960 172.263V183.694M792.064 183.694L786.687 195.857M792.064 183.694H876.032M792.064 183.694H708.097M876.032 183.694L873.344 195.857M876.032 183.694H960M960 183.694V195.857M786.687 195.857H873.344M786.687 195.857H700.031M870.477 208.823L873.344 195.857M870.477 208.823L867.415 222.678M870.477 208.823H960M873.344 195.857H960M700.031 195.857H613.375M700.031 195.857L708.097 183.694M960 195.857V208.823M708.097 183.694H624.129M867.415 222.678L864.135 237.513M867.415 222.678H960M960 208.823V222.678M960 222.678V237.513M768.27 237.513L761.229 253.439M768.27 237.513H864.135M768.27 237.513H672.405M864.135 237.513L860.615 253.439M864.135 237.513H960M960 237.513V253.439M761.229 253.439H860.615M761.229 253.439H661.844M856.826 270.579L860.615 253.439M856.826 270.579L852.737 289.077M856.826 270.579H960M860.615 253.439H960M661.844 253.439H562.458M661.844 253.439L672.405 237.513M960 253.439V270.579M672.405 237.513H576.54M852.737 289.077L848.309 309.103M852.737 289.077H960M960 270.579V289.077M960 289.077V309.103M736.619 309.103L727.004 330.852M736.619 309.103H848.309M736.619 309.103H624.928M848.309 309.103L843.502 330.852M848.309 309.103H960M960 309.103V330.852M727.004 330.852H843.502M727.004 330.852H610.505M838.262 354.558L843.502 330.852M838.262 354.558L832.528 380.496M838.262 354.558H960M843.502 330.852H960M610.505 330.852H494.007M610.505 330.852L624.928 309.103M960 330.852V354.558M624.928 309.103H513.239M832.528 380.496L826.226 409M832.528 380.496H960M960 354.558V380.496M960 380.496V409M692.453 409L678.541 440.468M692.453 409H826.226M692.453 409H558.679M826.226 409L819.27 440.468M826.226 409H960M960 409V440.468M819.27 440.468H678.541M819.27 440.468H960M678.541 440.468H537.81M537.81 440.468H397.08M537.81 440.468L558.679 409M558.679 409H424.905M671.225 21.5721L668.634 23.5255L665.996 25.5142M671.225 21.5721H719.354M671.225 21.5721H623.095M723.558 17.7676L727.619 14.0939M723.558 17.7676L719.354 21.5721M723.558 17.7676H770.847M727.619 14.0939H774.095M727.619 14.0939L730.574 11.4206L731.542 10.5446M685.851 10.5446H731.542M685.851 10.5446L687.576 9.24428L690.402 7.1128M685.851 10.5446H640.159M719.354 21.5721L714.997 25.5142M719.354 21.5721H767.483M770.847 17.7676L774.095 14.0939M770.847 17.7676L767.483 21.5721M774.095 14.0939L775.678 12.3041L776.848 10.9817L777.233 10.5446M731.542 10.5446H777.233M731.542 10.5446L734.399 7.95971L735.335 7.1128M767.483 21.5721L764.88 24.5151L763.998 25.5142M822.926 10.5446L823.214 10.1089L823.787 9.24428L824.639 7.95971L825.202 7.1128M822.926 10.5446H777.233M777.233 10.5446L777.618 10.1089L778.384 9.24428L780.268 7.1128M665.996 25.5142H714.997M665.996 25.5142H616.995M710.478 29.6016L711.053 29.0825L711.624 28.5652L713.883 26.5215L714.997 25.5142M710.478 29.6016L706.979 32.7669L705.791 33.8424M710.478 29.6016H760.384M714.997 25.5142H763.998M616.995 25.5142H567.994M616.995 25.5142L621.59 22.544L623.095 21.5721M763.998 25.5142L760.384 29.6016M623.095 21.5721H574.965M705.791 33.8424L705.193 34.3837L704.592 34.9274L702.772 36.5751L702.158 37.129L700.925 38.2456M705.791 33.8424H756.633M760.384 29.6016L759.922 30.1226L756.633 33.8424M756.633 33.8424L756.155 34.3837L755.673 34.9274L755.19 35.4743L752.74 38.2456M649.109 38.2456L643.041 42.8211M649.109 38.2456H700.925M649.109 38.2456H597.294M700.925 38.2456L695.867 42.8211M700.925 38.2456H752.74M752.74 38.2456L748.694 42.8211M643.041 42.8211H695.867M643.041 42.8211H590.214M690.609 47.5786L695.867 42.8211M690.609 47.5786L685.137 52.5293M690.609 47.5786H744.487M695.867 42.8211H748.694M590.214 42.8211H537.388M590.214 42.8211L597.294 38.2456M748.694 42.8211L744.487 47.5786M597.294 38.2456H545.478M685.137 52.5293L679.438 57.6853M685.137 52.5293H740.109M744.487 47.5786L743.409 48.7975L740.109 52.5293M740.109 52.5293L738.421 54.4378L736.707 56.3761L735.55 57.6853M623.325 57.6853L619.798 60.3441L616.197 63.0597M623.325 57.6853H679.438M623.325 57.6853H567.213M679.438 57.6853L673.497 63.0597M679.438 57.6853H735.55M735.55 57.6853L730.798 63.0597M616.197 63.0597H673.497M616.197 63.0597H558.897M667.301 68.6666L673.497 63.0597M667.301 68.6666L660.829 74.5211M667.301 68.6666H725.84M673.497 63.0597H730.798M558.897 63.0597H501.596M558.897 63.0597L567.213 57.6853M730.798 63.0597L725.84 68.6666M567.213 57.6853H511.101M660.829 74.5211L659.166 76.0254L654.066 80.6408M660.829 74.5211H720.663M725.84 68.6666L720.663 74.5211M720.663 74.5211L720 75.2713L717.988 77.5468L715.252 80.6408M592.879 80.6408L584.386 87.0434M592.879 80.6408H654.066M592.879 80.6408H531.692M654.066 80.6408L646.989 87.0434M654.066 80.6408H715.252M715.252 80.6408L709.591 87.0434M584.386 87.0434H646.989M584.386 87.0434H521.784M639.577 93.7491L644.25 89.5216L646.989 87.0434M639.577 93.7491L631.805 100.78M639.577 93.7491H703.661M646.989 87.0434H709.591M521.784 87.0434H459.182M521.784 87.0434L531.692 80.6408M709.591 87.0434L703.661 93.7491M531.692 80.6408H470.505M631.805 100.78L623.647 108.161M631.805 100.78H697.444M703.661 93.7491L697.444 100.78M697.444 100.78L690.918 108.161M556.376 108.161L546.088 115.918M556.376 108.161H623.647M556.376 108.161H489.107M623.647 108.161L615.074 115.918M623.647 108.161H690.918M690.918 108.161L684.059 115.918M546.088 115.918H615.074M546.088 115.918H477.103M606.052 124.081L615.074 115.918M606.052 124.081L596.545 132.682M606.052 124.081H676.842M615.074 115.918H684.059M477.103 115.918H408.118M477.103 115.918L489.107 108.161M684.059 115.918L676.842 124.081M489.107 108.161H421.836M596.545 132.682L586.513 141.758M596.545 132.682H669.236M676.842 124.081L669.236 132.682M669.236 132.682L661.21 141.758M511.815 141.758L499.094 151.349M511.815 141.758H586.513M511.815 141.758H437.118M586.513 141.758L575.912 151.349M586.513 141.758H661.21M661.21 141.758L652.73 151.349M499.094 151.349H575.912M499.094 151.349H422.277M564.691 161.501L575.912 151.349M564.691 161.501L552.795 172.263M564.691 161.501H643.753M575.912 151.349H652.73M422.277 151.349H345.459M422.277 151.349L437.118 141.758M652.73 151.349L643.753 161.501M437.118 141.758H362.421M552.795 172.263L540.161 183.694M552.795 172.263H634.236M643.753 161.501L634.236 172.263M634.236 172.263L624.129 183.694M456.193 183.694L440.062 195.857M456.193 183.694H540.161M456.193 183.694H372.226M540.161 183.694L526.718 195.857M540.161 183.694H624.129M624.129 183.694L613.375 195.857M440.062 195.857H526.718M440.062 195.857H353.406M512.386 208.823L526.718 195.857M512.386 208.823L497.072 222.678M512.386 208.823H601.909M526.718 195.857H613.375M353.406 195.857H266.749M353.406 195.857L372.226 183.694M613.375 195.857L601.909 208.823M372.226 183.694H288.258M497.072 222.678L480.675 237.513M497.072 222.678H589.658M601.909 208.823L589.658 222.678M589.658 222.678L576.54 237.513M384.81 237.513L363.687 253.439M384.81 237.513H480.675M384.81 237.513H288.944M480.675 237.513L463.073 253.439M480.675 237.513H576.54M576.54 237.513L562.458 253.439M363.687 253.439H463.073M363.687 253.439H264.302M444.128 270.579L463.073 253.439M444.128 270.579L423.682 289.077M444.128 270.579H547.302M463.073 253.439H562.458M264.302 253.439H164.916M264.302 253.439L288.944 237.513M562.458 253.439L547.302 270.579M288.944 237.513H193.079M423.682 289.077L401.548 309.103M423.682 289.077H530.945M547.302 270.579L530.945 289.077M530.945 289.077L513.239 309.103M289.858 309.103L261.01 330.852M289.858 309.103H401.548M289.858 309.103H178.167M401.548 309.103L377.509 330.852M401.548 309.103H513.239M513.239 309.103L494.007 330.852M261.01 330.852H377.509M261.01 330.852H144.512M351.307 354.558L377.509 330.852M351.307 354.558L322.636 380.496M351.307 354.558H473.045M377.509 330.852H494.007M144.512 330.852H28.0139M144.512 330.852L178.167 309.103M494.007 330.852L473.045 354.558M178.167 309.103H66.4772M322.636 380.496L291.132 409M322.636 380.496H450.11M473.045 354.558L450.11 380.496M450.11 380.496L424.905 409M157.358 409L115.621 440.468M157.358 409H291.132M157.358 409H23.5843M291.132 409L256.351 440.468M291.132 409H424.905M424.905 409L397.08 440.468M256.351 440.468H115.621M256.351 440.468H397.08M115.621 440.468L0.516728 440.468M23.5843 409L0.516728 423.908M23.5843 409H0.516728M478.707 21.5721L469.993 25.5142M478.707 21.5721H526.836M478.707 21.5721H430.578M534.405 17.7676L541.714 14.0939M534.405 17.7676L526.836 21.5721M534.405 17.7676H581.694M541.714 14.0939H588.19M541.714 14.0939L548.776 10.5446M503.084 10.5446H548.776M503.084 10.5446L505.959 9.24428L510.671 7.1128M503.084 10.5446H457.393M526.836 21.5721L518.994 25.5142M526.836 21.5721H574.965M581.694 17.7676L588.19 14.0939M581.694 17.7676L574.965 21.5721M588.19 14.0939L592.919 11.4206L594.468 10.5446M548.776 10.5446L549.642 10.1089L555.604 7.1128M548.776 10.5446H594.468M574.965 21.5721L567.994 25.5142M640.159 10.5446L645.469 7.1128M640.159 10.5446H594.468M594.468 10.5446L596.768 9.24428L600.537 7.1128M469.993 25.5142H518.994M469.993 25.5142H420.992M510.862 29.6016L518.994 25.5142M510.862 29.6016L502.424 33.8424M510.862 29.6016H560.766M518.994 25.5142H567.994M420.992 25.5142H371.992M420.992 25.5142L430.578 21.5721M567.994 25.5142L560.766 29.6016M430.578 21.5721H382.449M502.424 33.8424L500.265 34.9274L493.663 38.2456M502.424 33.8424H553.266M560.766 29.6016L553.266 33.8424M553.266 33.8424L545.478 38.2456M441.848 38.2456L440.606 38.8083L431.735 42.8211M441.848 38.2456H493.663M441.848 38.2456H390.033M493.663 38.2456L484.561 42.8211M493.663 38.2456H545.478M545.478 38.2456L544.485 38.8083L537.388 42.8211M431.735 42.8211H484.561M431.735 42.8211H378.908M475.096 47.5786L484.561 42.8211M475.096 47.5786L465.246 52.5293M475.096 47.5786H528.974M484.561 42.8211H537.388M378.908 42.8211H326.081M378.908 42.8211L390.033 38.2456M537.388 42.8211L528.974 47.5786M390.033 38.2456H338.218M465.246 52.5293L454.988 57.6853M465.246 52.5293H520.219M528.974 47.5786L520.219 52.5293M520.219 52.5293L511.101 57.6853M398.876 57.6853L386.996 63.0597M398.876 57.6853H454.988M398.876 57.6853H342.763M454.988 57.6853L444.296 63.0597M454.988 57.6853H511.101M511.101 57.6853L501.596 63.0597M386.996 63.0597H444.296M386.996 63.0597H329.694M433.141 68.6666L444.296 63.0597M433.141 68.6666L421.492 74.5211M433.141 68.6666H491.68M444.296 63.0597H501.596M329.694 63.0597H272.394M329.694 63.0597L342.763 57.6853M501.596 63.0597L491.68 68.6666M342.763 57.6853H286.651M421.492 74.5211L409.318 80.6408M421.492 74.5211H481.327M491.68 68.6666L481.327 74.5211M481.327 74.5211L470.505 80.6408M348.131 80.6408L333.977 87.0434M348.131 80.6408H409.318M348.131 80.6408H286.943M409.318 80.6408L396.579 87.0434M409.318 80.6408H470.505M470.505 80.6408L459.182 87.0434M333.977 87.0434H396.579M333.977 87.0434H271.375M383.238 93.7491L396.579 87.0434M383.238 93.7491L369.249 100.78M383.238 93.7491H447.322M396.579 87.0434H459.182M271.375 87.0434H208.773M271.375 87.0434L286.943 80.6408M459.182 87.0434L447.322 93.7491M286.943 80.6408H225.756M369.249 100.78L354.565 108.161M369.249 100.78H434.888M447.322 93.7491L434.888 100.78M434.888 100.78L421.836 108.161M287.294 108.161L270.148 115.918M287.294 108.161H354.565M287.294 108.161H220.025M354.565 108.161L339.132 115.918M354.565 108.161H421.836M421.836 108.161L408.118 115.918M270.148 115.918H339.132M270.148 115.918H201.162M322.892 124.081L339.132 115.918M322.892 124.081L305.78 132.682M322.892 124.081H393.682M339.132 115.918H408.118M201.162 115.918H132.177M201.162 115.918L220.025 108.161M408.118 115.918L393.682 124.081M220.025 108.161H152.754M305.78 132.682L287.723 141.758M305.78 132.682H378.471M393.682 124.081L378.471 132.682M378.471 132.682L362.421 141.758M213.025 141.758L191.824 151.349M213.025 141.758H287.723M213.025 141.758H138.329M287.723 141.758L268.641 151.349M287.723 141.758H362.421M362.421 141.758L345.459 151.349M191.824 151.349H268.641M191.824 151.349H115.006M248.444 161.501L268.641 151.349M248.444 161.501L227.032 172.263M248.444 161.501H327.506M268.641 151.349H345.459M115.006 151.349H38.1884M115.006 151.349L138.329 141.758M345.459 151.349L327.506 161.501M138.329 141.758H63.6307M227.032 172.263L204.29 183.694M227.032 172.263H308.473M327.506 161.501L308.473 172.263M308.473 172.263L288.258 183.694M120.322 183.694L93.4367 195.857M120.322 183.694H204.29M120.322 183.694H36.3544M204.29 183.694L180.093 195.857M204.29 183.694H288.258M288.258 183.694L266.749 195.857M93.4367 195.857H180.093M93.4367 195.857H6.78035M154.294 208.823L180.093 195.857M154.294 208.823L126.731 222.678M154.294 208.823H243.817M180.093 195.857H266.749M6.78035 195.857L36.3544 183.694M6.78035 195.857H0.516728M6.78035 195.857L0.516728 198.432M266.749 195.857L243.817 208.823M36.3544 183.694H0.516728M126.731 222.678L97.2146 237.513M126.731 222.678H219.316M243.817 208.823L219.316 222.678M219.316 222.678L193.079 237.513M1.34928 237.513H97.2146M1.34928 237.513H0.516728M1.34928 237.513L0.516728 237.89M97.2146 237.513L65.5297 253.439M97.2146 237.513H193.079M193.079 237.513L164.916 253.439M31.4301 270.579L65.5297 253.439M31.4301 270.579H134.605M31.4301 270.579H0.516728M31.4301 270.579L0.516728 286.117M65.5297 253.439H164.916M65.5297 253.439H0.516728M164.916 253.439L134.605 270.579M134.605 270.579L101.891 289.077M101.891 289.077L66.4772 309.103M101.891 289.077H0.516728M66.4772 309.103L28.0139 330.852M66.4772 309.103H0.516728M28.0139 330.852H0.516728M28.0139 330.852L0.516728 346.401M286.19 21.5721L273.99 25.5142M286.19 21.5721H334.32M286.19 21.5721H238.061M345.252 17.7676L355.809 14.0939M345.252 17.7676L334.32 21.5721M345.252 17.7676H392.541M355.809 14.0939H402.285M355.809 14.0939L366.01 10.5446M320.318 10.5446H366.01M320.318 10.5446L330.939 7.1128M320.318 10.5446H274.627M334.32 21.5721L322.991 25.5142M334.32 21.5721H382.449M392.541 17.7676L402.285 14.0939M392.541 17.7676L382.449 21.5721M402.285 14.0939L411.701 10.5446M366.01 10.5446L367.26 10.1089L375.872 7.1128M366.01 10.5446H411.701M382.449 21.5721L371.992 25.5142M457.393 10.5446L465.737 7.1128M457.393 10.5446H411.701M411.701 10.5446L412.856 10.1089L420.804 7.1128M273.99 25.5142H322.991M273.99 25.5142H224.99M311.244 29.6016L322.991 25.5142M311.244 29.6016L299.057 33.8424M311.244 29.6016H361.15M322.991 25.5142H371.992M224.99 25.5142H175.989M224.99 25.5142L238.061 21.5721M371.992 25.5142L361.15 29.6016M238.061 21.5721H189.932M299.057 33.8424L286.403 38.2456M299.057 33.8424H349.899M361.15 29.6016L359.765 30.1226L349.899 33.8424M349.899 33.8424L338.218 38.2456M234.588 38.2456L220.428 42.8211M234.588 38.2456H286.403M234.588 38.2456H182.773M286.403 38.2456L273.255 42.8211M286.403 38.2456H338.218M338.218 38.2456L326.081 42.8211M220.428 42.8211H273.255M220.428 42.8211H167.602M259.583 47.5786L273.255 42.8211M259.583 47.5786L245.356 52.5293M259.583 47.5786H313.461M273.255 42.8211H326.081M167.602 42.8211H114.775M167.602 42.8211L182.773 38.2456M326.081 42.8211L313.461 47.5786M182.773 38.2456H130.957M245.356 52.5293L230.539 57.6853M245.356 52.5293H300.328M313.461 47.5786L300.328 52.5293M300.328 52.5293L286.651 57.6853M174.426 57.6853L157.793 63.0597M174.426 57.6853H230.539M174.426 57.6853H118.313M230.539 57.6853L215.094 63.0597M230.539 57.6853H286.651M286.651 57.6853L272.394 63.0597M157.793 63.0597H215.094M157.793 63.0597H100.493M198.981 68.6666L215.094 63.0597M198.981 68.6666L182.156 74.5211M198.981 68.6666H257.521M215.094 63.0597H272.394M100.493 63.0597H43.1927M100.493 63.0597L118.313 57.6853M272.394 63.0597L257.521 68.6666M118.313 57.6853H62.2015M182.156 74.5211L164.569 80.6408M182.156 74.5211H241.99M257.521 68.6666L241.99 74.5211M241.99 74.5211L225.756 80.6408M103.382 80.6408L83.568 87.0434M103.382 80.6408H164.569M103.382 80.6408H42.1963M164.569 80.6408L146.17 87.0434M164.569 80.6408H225.756M225.756 80.6408L208.773 87.0434M83.568 87.0434H146.17M126.899 93.7491L146.17 87.0434M126.899 93.7491L106.694 100.78M126.899 93.7491H190.984M146.17 87.0434H208.773M208.773 87.0434L190.984 93.7491M42.1963 80.6408H0.516728M106.694 100.78L85.483 108.161M106.694 100.78H172.332M190.984 93.7491L172.332 100.78M172.332 100.78L152.754 108.161M18.2122 108.161H85.483M18.2122 108.161H0.516728M18.2122 108.161L0.516728 113.879M85.483 108.161L63.191 115.918M85.483 108.161H152.754M152.754 108.161L132.177 115.918M39.7336 124.081L63.191 115.918M39.7336 124.081L15.0159 132.682M39.7336 124.081H110.523M39.7336 124.081H0.516728M63.191 115.918H132.177M63.191 115.918H0.516728M132.177 115.918L110.523 124.081M0.321833 113.942L0.516728 113.879M15.0159 132.682H87.7068M15.0159 132.682H0.516728M15.0159 132.682L0.516728 137.727M110.523 124.081L87.7068 132.682M87.7068 132.682L63.6307 141.758M63.6307 141.758L38.1884 151.349M63.6307 141.758H0.516728M11.2589 161.501L38.1884 151.349M11.2589 161.501H0.516728M11.2589 161.501L0.516728 165.55M38.1884 151.349H0.516728M93.6736 21.5721L77.988 25.5142M93.6736 21.5721H141.803M93.6736 21.5721H45.5435M156.099 17.7676L169.905 14.0939M156.099 17.7676L141.803 21.5721M156.099 17.7676H203.387M169.905 14.0939H216.38M169.905 14.0939L183.243 10.5446M137.552 10.5446H183.243M137.552 10.5446L151.207 7.1128M137.552 10.5446H91.8605M141.803 21.5721L126.989 25.5142M141.803 21.5721H189.932M203.387 17.7676L216.38 14.0939M203.387 17.7676L189.932 21.5721M216.38 14.0939L228.935 10.5446M183.243 10.5446H228.935M183.243 10.5446L196.14 7.1128M189.932 21.5721L175.989 25.5142M274.627 10.5446L286.006 7.1128M274.627 10.5446H228.935M228.935 10.5446L241.073 7.1128M77.988 25.5142H126.989M77.988 25.5142H28.9874M111.628 29.6016L126.989 25.5142M111.628 29.6016L95.6905 33.8424M111.628 29.6016H161.532M126.989 25.5142H175.989M28.9874 25.5142L45.5435 21.5721M28.9874 25.5142H0.516728M175.989 25.5142L161.532 29.6016M45.5435 21.5721H0.516728M95.6905 33.8424L79.1424 38.2456M95.6905 33.8424H146.532M161.532 29.6016L146.532 33.8424M146.532 33.8424L130.957 38.2456M27.3273 38.2456L9.12209 42.8211M27.3273 38.2456H79.1424M27.3273 38.2456H0.516728M79.1424 38.2456L61.9486 42.8211M79.1424 38.2456H130.957M130.957 38.2456L114.775 42.8211M44.0703 47.5786L61.9486 42.8211M44.0703 47.5786L25.4653 52.5293M44.0703 47.5786H97.9483M44.0703 47.5786H0.516728M61.9486 42.8211H9.12209M61.9486 42.8211H114.775M9.12209 42.8211L0.516728 44.9835M9.12209 42.8211H0.516728M114.775 42.8211L97.9483 47.5786M25.4653 52.5293L6.08872 57.6853M25.4653 52.5293H80.4377M25.4653 52.5293H0.516728M97.9483 47.5786L80.4377 52.5293M80.4377 52.5293L62.2015 57.6853M6.08872 57.6853H62.2015M6.08872 57.6853L0.516728 59.1677M6.08872 57.6853H0.516728M62.2015 57.6853L43.1927 63.0597M23.3614 68.6666L43.1927 63.0597M23.3614 68.6666L2.65358 74.5211M23.3614 68.6666H0.516728M43.1927 63.0597H0.516728M0.216886 63.0597H0.516728M2.65358 74.5211H0.516728M2.65358 74.5211L0.516728 75.1252M0 75.2713L0.516728 75.1252M14.2343 17.7676L30.4756 14.0939M14.2343 17.7676H0.516728M14.2343 17.7676L0.516728 20.8701M30.4756 14.0939L46.1691 10.5446M30.4756 14.0939H0.516728M91.8605 10.5446L106.274 7.1128M91.8605 10.5446H46.1691M46.1691 10.5446L61.341 7.1128M46.1691 10.5446H0.516728M1589.06 7.1128H1633.99M1589.06 7.1128H1544.13M1622.99 3.79338L1625.7 4.61313L1633.99 7.1128M1622.99 3.79338H1667.19M1633.99 7.1128H1678.93M1667.19 3.79338L1670.08 4.61313L1671.54 5.02491L1678.93 7.1128M1678.93 7.1128H1723.86M1723.86 7.1128H1768.79M1544.13 7.1128H1499.2M1768.79 7.1128H1813.73M1813.73 7.1128L1799.78 3.79338M1813.73 7.1128H1858.66M1799.78 3.79338H1843.98M1409.33 7.1128H1454.26M1409.33 7.1128H1364.4M1446.19 3.79338L1448.18 4.61313L1449.19 5.02491L1454.26 7.1128M1446.19 3.79338H1490.39M1454.26 7.1128H1499.2M1490.39 3.79338L1499.2 7.1128M1364.4 7.1128H1319.46M1229.6 7.1128H1274.53M1229.6 7.1128H1184.67M1269.39 3.79338L1270.03 4.202L1270.66 4.61313L1271.3 5.02491L1274.53 7.1128M1269.39 3.79338H1313.59M1274.53 7.1128H1319.46M1313.59 3.79338L1319.46 7.1128M1184.67 7.1128H1139.73M1049.87 7.1128H1094.8M1049.87 7.1128H1004.93M1092.6 3.79338L1094.8 7.1128M1092.6 3.79338H1136.8M1094.8 7.1128H1139.73M1136.8 3.79338L1137.16 4.202L1137.52 4.61313L1137.89 5.02491L1139.73 7.1128M1004.93 7.1128H960M870.134 7.1128H915.067M870.134 7.1128H825.202M915.801 3.79338L915.067 7.1128M915.801 3.79338H960M915.067 7.1128H960M960 3.79338V7.1128M825.202 7.1128H780.268M690.402 7.1128H735.335M690.402 7.1128H645.469M739.004 3.79338L738.099 4.61313L736.264 6.27222L735.335 7.1128M739.004 3.79338H783.203M735.335 7.1128H780.268M783.203 3.79338L782.841 4.202L782.479 4.61313L782.114 5.02491L780.268 7.1128M645.469 7.1128H600.537M510.671 7.1128H555.604M510.671 7.1128H465.737M562.208 3.79338L560.577 4.61313L559.757 5.02491L555.604 7.1128M562.208 3.79338H606.407M555.604 7.1128H600.537M606.407 3.79338L605.684 4.202L600.537 7.1128M465.737 7.1128H420.804M330.939 7.1128H375.872M330.939 7.1128H286.006M385.411 3.79338L383.056 4.61313L381.87 5.02491L375.872 7.1128M385.411 3.79338H429.611M375.872 7.1128H420.804M429.611 3.79338L428.525 4.202L420.804 7.1128M286.006 7.1128H241.073M151.207 7.1128H196.14M151.207 7.1128H106.274M208.615 3.79338L196.14 7.1128M208.615 3.79338H252.814M196.14 7.1128H241.073M252.814 3.79338L249.915 4.61313L248.456 5.02491L241.073 7.1128M106.274 7.1128H61.341M31.8189 3.79338L16.4082 7.1128M31.8189 3.79338H76.0181M31.8189 3.79338H0.516728M16.4082 7.1128H61.341M16.4082 7.1128L0.516728 10.5362M16.4082 7.1128H0.516728M76.0181 3.79338L72.394 4.61313L61.341 7.1128M1843.98 3.79338L1847.61 4.61313L1858.66 7.1128M1858.66 7.1128H1903.59M1903.59 7.1128L1919.48 10.5362M1903.59 7.1128H1919.48M1919.48 165.55V161.501M1919.48 165.55V172.263M1919.48 161.501V151.349M1919.48 172.263V174.269V183.694M1919.48 183.694V195.857M1919.48 87.0434V80.6408M1919.48 87.0434V93.2102M1919.48 3.79338V7.1128M1919.48 7.1128V10.5362M1919.48 10.5362L1919.52 10.5446H1919.48M1919.48 10.5362V10.5446M1919.48 10.5446V14.0939M1919.48 14.0939V17.7676M1919.48 17.7676V20.8701M1919.48 20.8701V21.5721M1919.48 21.5721V25.5142M1919.48 25.5142V29.6016M1919.48 29.6016V32.2921M1919.48 32.2921V33.8424M1919.48 33.8424V38.2456M1919.48 38.2456V42.8211M1919.48 42.8211V44.9836M1919.48 44.9836V47.5786M1919.48 47.5786V52.5293M1919.48 52.5293V57.6853M1919.48 57.6853V59.1677M1919.48 59.1677V63.0597M1919.48 63.0597V68.6666M1919.48 68.6666V74.5211M1919.48 74.5211V75.1252M1919.48 75.1252V80.6408M1919.48 93.7491V100.78M1919.48 93.7491V93.2102M1919.48 100.78V108.161M1919.48 108.161V113.879M1919.48 113.879V115.918M1919.48 115.918V124.081M1919.48 124.081V132.682M1919.48 132.682V137.727M1919.48 137.727V141.758M1919.48 141.758V151.349M1919.48 195.857V198.432M1919.48 198.432V208.823M1919.48 208.823V222.678M1919.48 222.678V237.513M1919.48 237.513V237.89M1919.48 237.89V253.439M1919.48 253.439V270.579M1919.48 270.579V286.117M1919.48 286.117V289.077M1919.48 289.077V309.103M1919.48 309.103V330.852M1919.48 330.852V346.401M1919.48 346.401V354.558M1919.48 354.558V380.496M1919.48 380.496V409M1919.48 409V423.908M1919.48 423.908V440.468M1919.48 440.468V440.58H0.516728V440.468M0.516728 93.7491V100.78M0.516728 93.7491V93.2102M0.516728 93.2102V87.0434M0.516728 87.0434V80.6408M0.516728 80.6408V75.1252M0.516728 75.1252V74.5211M0.516728 74.5211V68.6666M0.516728 68.6666V63.0597M0.516728 63.0597V59.1677M0.516728 59.1677V57.6853M0.516728 57.6853V52.5293M0.516728 52.5293V47.5786M0.516728 47.5786V44.9835M0.516728 44.9835V42.8211M0.516728 42.8211V38.2456M0.516728 38.2456V33.8424M0.516728 33.8424V32.2921M0.516728 32.2921V29.6016M0.516728 29.6016V25.5142M0.516728 25.5142V21.5721M0.516728 21.5721V20.8701M0.516728 20.8701V17.7676M0.516728 17.7676V14.0939M0.516728 14.0939V10.5446M0.516728 10.5446H0.477747L0.516728 10.5362M0.516728 10.5446V10.5362M0.516728 10.5362V7.1128M0.516728 7.1128V3.79338M0.516728 440.468V423.908M0.516728 423.908V409M0.516728 409V380.497M0.516728 380.497V354.558M0.516728 354.558V346.401M0.516728 346.401V330.852M0.516728 330.852V309.103M0.516728 309.103V289.077M0.516728 289.077V286.117M0.516728 286.117V270.579M0.516728 270.579V253.439M0.516728 253.439V237.89M0.516728 237.89V237.513M0.516728 237.513V222.678M0.516728 222.678V208.823M0.516728 208.823V198.432M0.516728 198.432V195.857M0.516728 195.857V183.694M0.516728 183.694V172.263M0.516728 172.263V165.55M0.516728 165.55V161.501M0.516728 161.501V151.349M0.516728 151.349V141.758M0.516728 141.758V137.727M0.516728 137.727V132.682M0.516728 132.682V124.081M0.516728 124.081V115.918M0.516728 115.918V113.879M0.516728 113.879V108.161M0.516728 108.161V100.78" stroke="url(#paint0_radial_2548_72)" stroke-width="1.16054" stroke-miterlimit="10" stroke-linecap="round" stroke-linejoin="round"/>
<defs>
<radialGradient id="paint0_radial_2548_72" cx="0" cy="0" r="1" gradientUnits="userSpaceOnUse" gradientTransform="translate(960 424.363) rotate(-90) scale(688.762 3005.51)">
<stop stop-color="#757575"/>
<stop offset="0.489074" stop-color="#757575" stop-opacity="0"/>
</radialGradient>
</defs>
</svg>
