<svg width="110" height="32" viewBox="0 0 110 32" fill="none" xmlns="http://www.w3.org/2000/svg">
<path d="M59.9441 14.9831C59.9667 14.9755 60.0096 14.9633 60.0338 14.9622C61.1424 14.9187 62.5921 14.9736 63.4783 15.7009C64.3871 16.4473 64.2523 17.6763 64.2544 18.7242C64.2565 20.0564 64.2383 21.4076 64.2764 22.7419C64.2941 23.3623 64.7614 23.5521 64.7936 23.9335C64.6422 24.0998 62.5206 24.1139 62.2155 23.9589C62.0109 23.8546 61.9722 23.2904 61.947 23.0785C61.0549 24.0686 60.0795 24.4466 58.7426 24.3141C57.9896 24.2394 57.3859 23.9378 56.9084 23.3509C56.5695 22.8195 56.4164 22.3093 56.41 21.6764C56.3686 17.7946 60.7825 19.2107 61.7182 18.2203C61.8342 18.0974 61.8723 17.9489 61.8653 17.7836C61.8551 17.5572 61.7628 17.2503 61.5866 17.0968C61.2949 16.8428 60.739 16.8255 60.3759 16.8445C58.9924 16.9168 59.4779 17.4045 58.9392 18.0038C58.6744 18.0846 56.7924 18.1098 56.6318 17.9572C56.5985 17.4935 56.9943 16.5737 57.2951 16.218C58.0465 15.3299 58.8613 15.1152 59.9441 14.9831ZM59.2083 22.4483C59.9516 22.9905 60.9926 22.4722 61.5087 21.815C61.7837 21.4644 62.0872 20.057 61.8079 19.8056C60.818 20.387 59.2077 20.0276 58.8323 21.2057C58.6857 21.6659 58.8124 22.1515 59.2083 22.4483Z" fill="#9C9C9C"/>
<path d="M91.5583 15.2032C92.3317 15.215 93.1057 15.2117 93.8786 15.1934C93.9629 16.6707 93.906 19.0328 93.9022 20.5551C94.8674 18.9576 96.0581 16.7278 97.1087 15.2188C97.8623 15.1788 98.8575 15.2029 99.6256 15.2003C99.7035 18.0044 99.6444 21.1981 99.6288 24.0281C99.2561 24.076 97.6931 24.0564 97.2328 24.0609C97.1474 23.5727 97.1554 19.2998 97.2231 18.7613C96.6323 19.8194 96.0366 20.8586 95.4013 21.8907C94.9936 22.5524 94.6026 23.4181 94.0864 23.9935C93.2765 24.0664 92.3693 24.0505 91.5507 24.0517C91.4417 22.367 91.5744 20.2582 91.5233 18.533C91.5072 17.9922 91.4981 15.5841 91.5583 15.2032Z" fill="#9C9C9C"/>
<path d="M43.027 18.453C43.2177 17.7098 45.0529 12.6723 45.4106 12.2247C45.7452 12.0378 47.6536 12.1217 48.1493 12.1256C47.8637 12.6194 47.5408 13.5491 47.2979 14.1135C46.7356 15.42 46.0564 16.8304 45.5285 18.1418C45.3267 18.8105 44.8969 19.5122 44.6413 20.1647C43.7548 22.4283 42.2667 25.3997 39.2616 24.0304C39.1782 23.3511 39.2 22.4623 39.2367 21.7807C40.0358 22.05 41.8987 22.4295 41.504 20.7939C41.3669 20.2259 40.8081 19.2503 40.5347 18.6801L38.6034 14.6198C38.2642 13.9102 37.7049 12.8336 37.4604 12.1289C38.0437 12.1317 39.8096 12.0473 40.2421 12.1874C40.5775 12.4936 42.6429 17.5686 43.027 18.453Z" fill="#9C9C9C"/>
<path d="M87.7278 15.2158C88.5131 15.1922 89.2752 15.2301 90.0745 15.1875L90.0771 24.0316C89.6244 24.0077 88.0313 24.1349 87.745 24.0054L87.7042 23.8679C87.6913 22.6932 87.6752 21.4595 87.6908 20.2865C86.5811 20.2748 85.4532 20.285 84.3419 20.2849C84.2893 21.5274 84.3505 22.7976 84.3086 24.0481C83.8456 24.0444 82.403 24.1065 82.0576 23.9783C81.8976 23.5797 81.9722 16.0525 82.012 15.2092L84.0846 15.2038C84.1405 15.1925 84.1974 15.2226 84.2528 15.2442C84.3801 15.4925 84.3183 17.8866 84.3398 18.3658L87.6559 18.3687C87.7547 17.4169 87.6693 16.2365 87.7278 15.2158Z" fill="#9C9C9C"/>
<path d="M68.7495 14.9822C68.7936 14.9714 68.8537 14.9569 68.8983 14.954C70.421 14.8548 71.977 15.2467 72.8229 16.6189C73.1925 17.2174 73.2725 17.6953 73.3412 18.377C72.6623 18.4119 71.6053 18.387 70.9103 18.3737C70.7218 17.8582 70.5182 17.2192 69.9483 17.022C68.9853 16.689 68.1131 17.2206 67.8117 18.1527C67.4814 19.1732 67.4411 20.3664 67.8724 21.3611C68.2285 22.1828 69.1266 22.5256 69.9419 22.1642C70.486 21.9123 70.7314 21.3696 70.9114 20.8203L71.6375 20.803C71.9518 20.7999 72.9991 20.7591 73.2569 20.8255L73.3117 20.9221C73.3219 21.551 73.0039 22.2771 72.6258 22.7916C71.2723 24.6317 68.2301 24.8237 66.5146 23.4007C65.7702 22.7829 65.3013 21.6602 65.1821 20.666C64.8619 17.9959 65.6144 15.3939 68.7495 14.9822Z" fill="#9C9C9C"/>
<path d="M49.7883 15.2033C49.8405 15.1955 49.9008 15.2215 49.9532 15.2385C50.1496 15.6333 49.9185 17.6145 50.0731 18.1994C50.2109 18.7206 50.2132 18.7891 50.6867 19.1121C51.6106 19.2735 52.1456 19.2331 52.9988 18.8925C53.0913 17.7281 52.9502 16.3775 53.0707 15.2125L55.4223 15.2012C55.4803 17.4941 55.432 19.9765 55.4314 22.284C55.433 22.8707 55.4314 23.4573 55.4266 24.044C54.6413 24.0408 53.8566 24.048 53.0718 24.0653C52.9861 23.3073 53.0076 21.4629 53.0101 20.629C51.4331 21.1097 48.1457 21.3341 47.7728 19.2701C47.589 18.2529 47.6925 16.2828 47.7033 15.2051L49.7883 15.2033Z" fill="#9C9C9C"/>
<path d="M73.6554 15.1983C76.1153 15.2427 78.8927 15.2431 81.3505 15.1934C81.393 15.7681 81.3742 16.499 81.3742 17.0859L78.6467 17.0885C78.7085 18.3362 78.6623 20.0432 78.6618 21.3248L78.6602 24.0166C77.8942 24.0186 77.094 24.0442 76.3216 24.0514C76.2781 23.1887 76.3017 22.16 76.3017 21.2857C76.2964 19.8861 76.3001 18.4865 76.3135 17.087L73.6549 17.0888C73.6312 16.4588 73.6312 15.8282 73.6554 15.1983Z" fill="#9C9C9C"/>
<path d="M32.1848 0H32.2263C32.3095 0.529543 32.2688 2.66675 32.2687 3.29679L32.2666 10.3919L32.2662 20.2409C32.2663 21.8273 32.3272 23.7269 32.1911 25.2875C32.1056 26.2675 31.3625 27.8657 30.767 28.6742C29.7495 30.0786 28.3081 31.1259 26.651 31.6651C26.2046 31.8061 25.6131 31.812 25.2267 32H6.99243C6.92572 31.9625 6.80466 31.9013 6.72898 31.8877C5.96736 31.7507 5.27212 31.5547 4.57703 31.2163C2.53158 30.2259 0.996531 28.4334 0.34269 26.2718C0.173724 25.7025 0.198574 25.0614 0 24.4844V7.72409C0.0917238 7.25963 0.13392 6.79518 0.222218 6.3327C0.648067 4.10205 2.1777 2.22518 4.12002 1.10482C6.08214 -0.0269673 7.96985 0.0911691 10.1357 0.093694L14.387 0.0973817L28.869 0.0947786C29.2976 0.0955932 31.9799 0.173414 32.1848 0ZM24.6119 30.9184C26.7917 30.6365 28.3086 29.9009 29.6989 28.1678C31.5256 25.8908 31.1401 22.996 31.1401 20.2713L31.1389 11.8671L31.1402 5.0342C31.1407 4.09808 31.1958 2.19262 31.081 1.32994C31.0743 1.27984 31.0672 1.22981 31.0594 1.17986L14.752 1.18109L9.94635 1.17649C9.50926 1.17598 8.05053 1.14585 7.71575 1.19072C4.4895 1.59102 2.02899 3.4155 1.34049 6.70994C1.02816 8.20446 1.12184 9.74845 1.1228 11.2702L1.1272 16.7162L1.12398 21.3388C1.12381 22.5478 1.11422 23.5248 1.22843 24.7318C1.51265 27.7359 3.80106 30.1566 6.75599 30.7741C7.6767 30.9661 8.64946 30.9202 9.59777 30.9196L12.5345 30.9177C16.5041 30.9151 20.6579 30.8511 24.6119 30.9184Z" fill="#9C9C9C"/>
<path d="M10.2515 7.95018C10.5406 7.90481 11.5971 7.89938 11.8941 7.92696C13.6466 8.08963 14.9273 8.5462 16.0854 9.86789C16.0803 9.2732 16.0918 8.67846 16.1198 8.08441L19.1463 8.08638C19.0914 8.84282 19.1314 9.8673 19.1248 10.6468C19.1095 12.4383 19.1553 14.2469 19.1232 16.0381C19.9275 14.8142 21.5673 13.452 22.5178 12.276C22.5801 12.199 22.7946 12.0824 22.8916 12.0344C24.14 12.0408 25.3885 12.0403 26.6369 12.0328C26.3319 12.5162 25.8691 12.9471 25.4999 13.381C24.5322 14.5185 23.2402 15.6768 22.3271 16.8336C22.5773 17.3125 23.127 18.1532 23.432 18.6513L25.4472 21.9544C25.7649 22.4709 26.4316 23.4919 26.6334 24.0067C25.5002 24.0187 24.3668 24.0196 23.2336 24.0092C22.6385 23.5174 20.7751 20.088 20.1369 19.1587L19.7009 19.6627C19.5065 19.8659 19.3144 20.0995 19.1308 20.3144C19.112 21.5376 19.1278 22.8019 19.1274 24.0283C18.2461 23.9766 17.0148 24.0146 16.1172 24.0285C16.0832 23.5919 16.0482 23.2258 16.069 22.7878C16.0581 22.7986 16.047 22.8092 16.0358 22.8197C13.6946 25.0326 8.02697 24.5932 6.36968 21.7031C5.88865 20.8643 5.57261 20.0213 5.59377 19.0499C6.53554 19.0443 7.81632 19.083 8.71775 19.0104C9.06885 19.6908 9.17654 20.2933 9.88225 20.7179C11.1719 21.4937 13.652 21.4349 14.5317 20.0618C14.7209 19.7665 14.8098 19.2079 14.7024 18.904C14.1265 17.275 11.5263 17.5448 10.1598 17.1561C9.21924 16.9756 8.52299 16.7392 7.70525 16.2412C5.63556 14.9807 5.22911 12.1306 6.51497 10.1776C7.45265 8.75327 8.60818 8.2877 10.2515 7.95018ZM8.84327 12.6374C8.93066 12.8729 9.03786 13.1892 9.14695 13.4081C10.8433 14.7113 13.0089 14.2302 14.9022 14.9622C15.4386 15.1463 15.6297 15.2242 16.0976 15.5748C16.0561 14.6538 16.1315 13.7937 16.0379 12.8664C15.5075 12.8531 14.9769 12.8525 14.4464 12.8645C14.3099 12.6163 14.2154 12.3858 14.0878 12.1389C13.4299 10.8667 12.1612 10.6394 10.859 10.7307C9.64802 11.0439 9.06284 11.3201 8.84327 12.6374Z" fill="#9C9C9C"/>
<path d="M101.086 15.2122L103.432 15.1972C103.466 16.247 103.444 17.4123 103.446 18.4709C104.385 17.6184 105.754 16.1737 106.703 15.2279C107.525 15.1601 109.013 15.2121 109.881 15.2175C108.692 16.4332 107.323 17.6667 106.175 18.8941C106.557 19.3004 107.048 20.012 107.393 20.4783L109.421 23.2146C109.547 23.3845 109.886 23.9199 110 24.0007V24.047C109.017 24.0571 108.035 24.0544 107.052 24.0392C106.619 23.7339 104.738 20.9408 104.334 20.3509C104.099 20.6541 103.729 21.006 103.452 21.2916C103.421 22.1651 103.442 23.1673 103.438 24.0511C102.655 24.0453 101.871 24.048 101.087 24.0592C101.04 23.1683 101.078 21.9104 101.078 20.9972L101.086 15.2122Z" fill="#9C9C9C"/>
</svg>
