<svg width="900" height="900" viewBox="0 0 900 900" fill="none" xmlns="http://www.w3.org/2000/svg">
<path d="M426.284 879.77L425.184 899.303L424.185 899.247L425.285 879.713L426.284 879.77Z" fill="#9C9C9C"/>
<path d="M450.528 899.998L449.529 900L449.496 880.436L450.495 880.434L450.528 899.998Z" fill="#9C9C9C"/>
<path d="M403.799 877.948L401.721 897.402L400.726 897.295L402.804 877.842L403.799 877.948Z" fill="#9C9C9C"/>
<path d="M474.059 899.381L473.061 899.432L472.049 879.894L473.048 879.842L474.059 899.381Z" fill="#9C9C9C"/>
<path d="M381.443 874.964L378.394 894.289L377.407 894.134L380.456 874.808L381.443 874.964Z" fill="#9C9C9C"/>
<path d="M497.574 897.531L496.579 897.635L494.519 878.18L495.513 878.075L497.574 897.531Z" fill="#9C9C9C"/>
<path d="M359.305 870.826L355.222 889.958L354.245 889.751L358.327 870.617L359.305 870.826Z" fill="#9C9C9C"/>
<path d="M520.963 894.45L519.976 894.608L516.877 875.29L517.865 875.133L520.963 894.45Z" fill="#9C9C9C"/>
<path d="M337.41 865.53L332.309 884.418L331.344 884.158L336.444 865.27L337.41 865.53Z" fill="#9C9C9C"/>
<path d="M544.161 890.139L543.183 890.35L539.061 871.224L540.039 871.014L544.161 890.139Z" fill="#9C9C9C"/>
<path d="M315.819 859.088L309.72 877.678L308.77 877.366L314.869 858.777L315.819 859.088Z" fill="#9C9C9C"/>
<path d="M567.098 884.61L566.134 884.872L561.005 865.992L561.97 865.729L567.098 884.61Z" fill="#9C9C9C"/>
<path d="M294.597 851.516L287.522 869.757L286.589 869.395L293.664 851.154L294.597 851.516Z" fill="#9C9C9C"/>
<path d="M589.707 877.879L588.757 878.191L582.643 859.607L583.593 859.294L589.707 877.879Z" fill="#9C9C9C"/>
<path d="M273.807 842.838L265.784 860.68L264.871 860.271L272.895 842.427L273.807 842.838Z" fill="#9C9C9C"/>
<path d="M611.917 869.967L610.985 870.329L603.908 852.09L604.839 851.728L611.917 869.967Z" fill="#9C9C9C"/>
<path d="M253.512 833.079L244.565 850.478L243.676 850.021L252.622 832.622L253.512 833.079Z" fill="#9C9C9C"/>
<path d="M633.664 860.906L632.752 861.316L624.736 843.469L625.648 843.06L633.664 860.906Z" fill="#9C9C9C"/>
<path d="M233.771 822.273L223.933 839.185L223.069 838.682L232.908 821.771L233.771 822.273Z" fill="#9C9C9C"/>
<path d="M654.885 850.726L653.996 851.182L645.067 833.774L645.957 833.317L654.885 850.726Z" fill="#9C9C9C"/>
<path d="M214.644 810.461L203.945 826.841L203.108 826.295L213.806 809.914L214.644 810.461Z" fill="#9C9C9C"/>
<path d="M675.521 839.463L674.656 839.965L664.845 823.038L665.709 822.537L675.521 839.463Z" fill="#9C9C9C"/>
<path d="M196.179 797.681L184.653 813.49L183.845 812.9L195.372 797.092L196.179 797.681Z" fill="#9C9C9C"/>
<path d="M695.802 826.965L694.966 827.514L684.24 811.151L685.077 810.602L695.802 826.965Z" fill="#9C9C9C"/>
<path d="M178.222 783.805L165.845 798.958L165.07 798.325L177.447 783.172L178.222 783.805Z" fill="#9C9C9C"/>
<path d="M715.127 813.615L714.319 814.205L702.774 798.411L703.581 797.82L715.127 813.615Z" fill="#9C9C9C"/>
<path d="M161.209 769.179L148.075 783.68L147.334 783.009L160.467 768.508L161.209 769.179Z" fill="#9C9C9C"/>
<path d="M733.704 799.303L732.927 799.933L720.592 784.747L721.369 784.117L733.704 799.303Z" fill="#9C9C9C"/>
<path d="M145.005 753.717L131.15 767.531L130.444 766.823L144.299 753.009L145.005 753.717Z" fill="#9C9C9C"/>
<path d="M751.488 784.072L750.745 784.741L737.653 770.202L738.396 769.533L751.488 784.072Z" fill="#9C9C9C"/>
<path d="M129.358 737.145L114.771 750.183L114.105 749.438L128.692 736.399L129.358 737.145Z" fill="#9C9C9C"/>
<path d="M768.833 767.565L768.127 768.273L754.264 754.469L754.969 753.761L768.833 767.565Z" fill="#9C9C9C"/>
<path d="M114.866 720.096L99.6354 732.376L99.0073 731.598L114.239 719.319L114.866 720.096Z" fill="#9C9C9C"/>
<path d="M784.92 750.568L784.252 751.312L769.703 738.231L770.372 737.488L784.92 750.568Z" fill="#9C9C9C"/>
<path d="M101.296 702.352L85.4584 713.84L84.872 713.031L100.709 701.543L101.296 702.352Z" fill="#9C9C9C"/>
<path d="M800.089 732.785L799.458 733.562L784.261 721.24L784.891 720.464L800.089 732.785Z" fill="#9C9C9C"/>
<path d="M88.3351 683.432L71.8935 694.037L71.3518 693.197L87.7934 682.591L88.3351 683.432Z" fill="#9C9C9C"/>
<path d="M814.755 713.631L814.169 714.441L798.318 702.973L798.905 702.162L814.755 713.631Z" fill="#9C9C9C"/>
<path d="M76.6914 664.362L59.7285 674.111L59.2303 673.244L76.1932 663.495L76.6914 664.362Z" fill="#9C9C9C"/>
<path d="M827.988 694.32L827.445 695.16L811.025 684.521L811.569 683.682L827.988 694.32Z" fill="#9C9C9C"/>
<path d="M66.0611 644.728L48.6195 653.592L48.1665 652.7L65.6082 643.836L66.0611 644.728Z" fill="#9C9C9C"/>
<path d="M840.202 674.346L839.702 675.211L822.754 665.437L823.254 664.57L840.202 674.346Z" fill="#9C9C9C"/>
<path d="M56.4671 624.576L38.5903 632.526L38.1844 631.613L56.0613 623.662L56.4671 624.576Z" fill="#9C9C9C"/>
<path d="M851.362 653.743L850.908 654.634L833.474 645.753L833.929 644.863L851.362 653.743Z" fill="#9C9C9C"/>
<path d="M47.9282 603.941L29.6625 610.951L29.3046 610.017L47.5703 603.008L47.9282 603.941Z" fill="#9C9C9C"/>
<path d="M861.444 632.55L861.037 633.464L843.164 625.507L843.571 624.594L861.444 632.55Z" fill="#9C9C9C"/>
<path d="M40.4707 582.859L21.8625 588.904L21.5534 587.953L40.1616 581.908L40.4707 582.859Z" fill="#9C9C9C"/>
<path d="M870.423 610.795L870.065 611.729L851.798 604.724L852.156 603.79L870.423 610.795Z" fill="#9C9C9C"/>
<path d="M33.8252 560.297L14.9057 565.283L14.6514 564.315L33.5707 559.33L33.8252 560.297Z" fill="#9C9C9C"/>
<path d="M878.274 588.504L877.966 589.456L859.352 583.428L859.66 582.476L878.274 588.504Z" fill="#9C9C9C"/>
<path d="M28.8673 539.473L9.72613 543.522L9.51928 542.544L28.6605 538.494L28.8673 539.473Z" fill="#9C9C9C"/>
<path d="M884.971 565.698L884.714 566.664L865.806 561.636L866.063 560.669L884.971 565.698Z" fill="#9C9C9C"/>
<path d="M24.7653 517.211L5.43525 520.235L5.28069 519.247L24.6107 516.223L24.7653 517.211Z" fill="#9C9C9C"/>
<path d="M890.485 542.388L890.28 543.367L871.13 539.358L871.335 538.379L890.485 542.388Z" fill="#9C9C9C"/>
<path d="M21.8273 494.586L2.36395 496.572L2.26256 495.577L21.7259 493.591L21.8273 494.586Z" fill="#9C9C9C"/>
<path d="M894.782 518.583L894.63 519.571L875.293 516.597L875.444 515.608L894.782 518.583Z" fill="#9C9C9C"/>
<path d="M20.0833 471.606L0.541019 472.542L0.492601 471.544L20.0359 470.607L20.0833 471.606Z" fill="#9C9C9C"/>
<path d="M897.665 495.952L897.562 496.946L878.101 494.945L878.203 493.95L897.665 495.952Z" fill="#9C9C9C"/>
<path d="M19.5652 449.865L0 449.821L0.00249726 448.822L19.5668 448.864L19.5652 449.865Z" fill="#9C9C9C"/>
<path d="M899.364 474.051L879.825 473.027L879.878 472.028L899.416 473.052L899.364 474.051Z" fill="#9C9C9C"/>
<path d="M20.386 423.588L20.3259 424.586L0.796436 423.411L0.856573 422.413L20.386 423.588Z" fill="#9C9C9C"/>
<path d="M899.99 454.588L880.424 454.394L880.435 453.394L900 453.587L899.99 454.588Z" fill="#9C9C9C"/>
<path d="M22.2717 401.789L22.1619 402.783L2.71501 400.63L2.82478 399.637L22.2717 401.789Z" fill="#9C9C9C"/>
<path d="M899.671 431.872L880.121 432.657L880.082 431.659L899.631 430.872L899.671 431.872Z" fill="#9C9C9C"/>
<path d="M25.1964 380.429L25.037 381.416L5.72215 378.293L5.88243 377.306L25.1964 380.429Z" fill="#9C9C9C"/>
<path d="M898.06 407.564L878.581 409.4L878.487 408.404L897.966 406.568L898.06 407.564Z" fill="#9C9C9C"/>
<path d="M29.5221 357.693L29.3095 358.67L10.1906 354.514L10.4031 353.537L29.5221 357.693Z" fill="#9C9C9C"/>
<path d="M895.163 383.569L875.81 386.445L875.664 385.456L895.016 382.579L895.163 383.569Z" fill="#9C9C9C"/>
<path d="M35.0166 335.4L34.7519 336.365L15.8828 331.192L16.1475 330.228L35.0166 335.4Z" fill="#9C9C9C"/>
<path d="M891.43 362.022L872.244 365.853L872.048 364.872L891.234 361.041L891.43 362.022Z" fill="#9C9C9C"/>
<path d="M41.6397 313.609L41.325 314.557L22.7575 308.389L23.0732 307.44L41.6397 313.609Z" fill="#9C9C9C"/>
<path d="M886.194 338.885L867.238 343.728L866.99 342.759L885.946 337.916L886.194 338.885Z" fill="#9C9C9C"/>
<path d="M49.3519 292.365L48.9872 293.297L30.7719 286.154L31.1376 285.223L49.3519 292.365Z" fill="#9C9C9C"/>
<path d="M879.788 316.229L861.112 322.064L860.814 321.11L879.489 315.275L879.788 316.229Z" fill="#9C9C9C"/>
<path d="M58.1077 271.715L57.6932 272.626L39.8797 264.535L40.2931 263.624L58.1077 271.715Z" fill="#9C9C9C"/>
<path d="M872.258 294.102L853.915 300.907L853.567 299.969L871.91 293.165L872.258 294.102Z" fill="#9C9C9C"/>
<path d="M67.8602 251.694L67.4 252.581L50.0327 243.571L50.4938 242.683L67.8602 251.694Z" fill="#9C9C9C"/>
<path d="M862.695 270.351L844.76 278.168L844.361 277.252L862.296 269.434L862.695 270.351Z" fill="#9C9C9C"/>
<path d="M78.5668 232.332L78.061 233.195L61.1862 223.295L61.692 222.431L78.5668 232.332Z" fill="#9C9C9C"/>
<path d="M852.902 249.392L835.395 258.126L834.949 257.231L852.455 248.496L852.902 249.392Z" fill="#9C9C9C"/>
<path d="M90.1838 213.66L89.6345 214.496L73.2926 203.737L73.843 202.901L90.1838 213.66Z" fill="#9C9C9C"/>
<path d="M842.107 229.079L825.073 238.703L824.581 237.833L841.614 228.209L842.107 229.079Z" fill="#9C9C9C"/>
<path d="M102.667 195.703L102.075 196.509L86.3085 184.924L86.9013 184.118L102.667 195.703Z" fill="#9C9C9C"/>
<path d="M830.35 209.442L813.831 219.927L813.296 219.083L829.814 208.599L830.35 209.442Z" fill="#9C9C9C"/>
<path d="M117.584 176.527L116.949 177.299L101.842 164.867L102.477 164.095L117.584 176.527Z" fill="#9C9C9C"/>
<path d="M816.137 188.347L800.216 199.72L799.635 198.907L815.556 187.535L816.137 188.347Z" fill="#9C9C9C"/>
<path d="M131.828 160.103L131.154 160.841L116.701 147.656L117.374 146.916L131.828 160.103Z" fill="#9C9C9C"/>
<path d="M802.424 170.174L787.104 182.343L786.482 181.56L801.802 169.391L802.424 170.174Z" fill="#9C9C9C"/>
<path d="M146.827 144.464L146.116 145.168L132.352 131.264L133.064 130.56L146.827 144.464Z" fill="#9C9C9C"/>
<path d="M787.86 152.761L773.178 165.693L772.518 164.943L787.199 152.011L787.86 152.761Z" fill="#9C9C9C"/>
<path d="M164.579 127.826L163.831 128.49L150.846 113.855L151.594 113.192L164.579 127.826Z" fill="#9C9C9C"/>
<path d="M770.489 134.105L756.534 147.817L755.833 147.104L769.788 133.392L770.489 134.105Z" fill="#9C9C9C"/>
<path d="M181.129 113.885L180.348 114.51L168.123 99.2335L168.904 98.6095L181.129 113.885Z" fill="#9C9C9C"/>
<path d="M754.16 118.344L740.922 132.749L740.184 132.073L753.424 117.668L754.16 118.344Z" fill="#9C9C9C"/>
<path d="M198.342 100.795L197.53 101.379L186.1 85.5001L186.912 84.9168L198.342 100.795Z" fill="#9C9C9C"/>
<path d="M737.062 103.42L724.574 118.481L723.805 117.842L736.291 102.781L737.062 103.42Z" fill="#9C9C9C"/>
<path d="M218.63 87.0162L217.788 87.5548L207.243 71.0751L208.085 70.5364L218.63 87.0162Z" fill="#9C9C9C"/>
<path d="M719.208 89.3546L707.508 105.035L706.707 104.438L718.407 88.7572L719.208 89.3546Z" fill="#9C9C9C"/>
<path d="M237.23 75.7845L236.361 76.2787L226.674 59.2807L227.543 58.7864L237.23 75.7845Z" fill="#9C9C9C"/>
<path d="M698.086 74.4825L687.267 90.7834L686.433 90.2312L697.252 73.9304L698.086 74.4825Z" fill="#9C9C9C"/>
<path d="M256.434 65.4752L255.54 65.9251L246.741 48.4515L247.634 48.0015L256.434 65.4752Z" fill="#9C9C9C"/>
<path d="M678.652 62.3216L668.689 79.1601L667.829 78.6505L677.792 61.813L678.652 62.3216Z" fill="#9C9C9C"/>
<path d="M276.225 56.114L275.309 56.5168L267.426 38.6119L268.341 38.2081L276.225 56.114Z" fill="#9C9C9C"/>
<path d="M658.511 51.1102L649.437 68.4431L648.551 67.9791L657.625 50.6472L658.511 51.1102Z" fill="#9C9C9C"/>
<path d="M296.595 47.7247L295.66 48.0796L288.718 29.788L289.653 29.4341L296.595 47.7247Z" fill="#9C9C9C"/>
<path d="M637.671 40.881L629.513 58.6639L628.605 58.2467L636.762 40.4638L637.671 40.881Z" fill="#9C9C9C"/>
<path d="M320.524 39.391L319.571 39.6931L313.666 21.0412L314.618 20.7391L320.524 39.391Z" fill="#9C9C9C"/>
<path d="M616.135 31.6715L608.924 49.858L607.995 49.4896L615.205 31.3021L616.135 31.6715Z" fill="#9C9C9C"/>
<path d="M342.121 33.1968L341.153 33.4482L336.239 14.5109L337.207 14.2604L342.121 33.1968Z" fill="#9C9C9C"/>
<path d="M593.905 23.5228L587.666 42.0653L586.718 41.7467L592.957 23.2032L593.905 23.5228Z" fill="#9C9C9C"/>
<path d="M364.277 28.0948L363.297 28.2937L359.393 9.12284L360.373 8.9239L364.277 28.0948Z" fill="#9C9C9C"/>
<path d="M570.983 16.4799L565.739 35.3288L564.775 35.0602L570.02 16.2123L570.983 16.4799Z" fill="#9C9C9C"/>
<path d="M383.753 24.6154L382.765 24.766L379.814 5.42604L380.803 5.27447L383.753 24.6154Z" fill="#9C9C9C"/>
<path d="M547.365 10.5994L543.136 29.7019L542.159 29.4855L546.389 10.3839L547.365 10.5994Z" fill="#9C9C9C"/>
<path d="M406.952 21.6743L405.957 21.7718L404.046 2.30152L405.041 2.20307L406.952 21.6743Z" fill="#9C9C9C"/>
<path d="M523.052 5.93898L519.855 25.2403L518.868 25.0771L522.066 5.77579L523.052 5.93898Z" fill="#9C9C9C"/>
<path d="M430.708 19.9799L429.709 20.0233L428.848 0.478041L429.847 0.434552L430.708 19.9799Z" fill="#9C9C9C"/>
<path d="M501.491 2.95407L499.264 22.3903L498.27 22.2767L500.498 2.83943L501.491 2.95407Z" fill="#9C9C9C"/>
<path d="M451.62 19.5709L450.62 19.5644L450.738 0L451.738 0.00547376L451.62 19.5709Z" fill="#9C9C9C"/>
<path d="M479.36 0.971898L478.11 20.4965L477.112 20.4325L478.362 0.907863L479.36 0.971898Z" fill="#9C9C9C"/>
</svg>
