<svg width="1000" height="686" viewBox="0 0 1000 686" fill="none" xmlns="http://www.w3.org/2000/svg">
<path d="M999.592 -120V45.6625L944.87 -9.05833V-120H943.866L944.037 -119.829V-9.89584L889.316 -64.6167V-120H888.482V-64.6167L833.761 -9.89584V-120H499.592V-64.6167L444.87 -9.89584V-120H443.866L389.316 -65.45V-120H388.482V-64.6167L333.761 -9.89584V-120H0V47.0833H165.664L110.943 101.804H0V102.808L0.170835 102.637H110.105L55.3838 157.358H0V158.192H55.3838L110.105 212.912H0V213.746H110.105L55.3838 268.467H0V269.3H54.5505L0 323.854V324.858H110.105L55.3838 379.579H0V879.996H333.753V769.892L388.474 824.612V879.996H389.307V824.612L444.029 769.892V879.825L443.858 879.996H444.862V769.058L499.583 714.338V880H833.753V824.617L833.924 824.446L833.753 824.275V769.896L888.474 824.617V880H889.307V825.45L943.858 880H944.862V769.896L999.583 824.617V880H1000V379.583H834.336L889.057 324.863H999.996V323.858L999.825 324.029H889.891L944.612 269.308H999.996V268.475H944.612L889.891 213.754H999.996V212.921H889.891L944.612 158.2H999.996V157.367H945.445L999.996 102.817V101.812H889.891L944.612 47.0917H999.996V-120H999.579H999.592ZM888.895 -63.8542L944.033 -8.71667V46.25H833.753V-8.71667L888.891 -63.8542H888.895ZM944.866 -7.88334L999 46.25H944.866V-7.88334ZM611.288 824.029L556.567 769.308H666.501L721.223 824.029H611.288ZM389.899 712.917L444.62 658.196H555.388L610.109 712.917H389.899ZM277.606 824.029H167.672L222.394 769.308H332.328L277.606 824.029ZM55.9713 491.283L110.693 436.562V546.496L55.9713 601.217V491.283ZM165.66 380.417L111.526 434.55V380.417H165.66ZM167.085 268.717V157.95L221.806 103.229V324.275L167.085 378.996V269.062L167.256 268.892L167.085 268.721V268.717ZM332.332 -9.30416H222.398L167.676 -64.025H277.611L332.332 -9.30416ZM555.734 -64.025H665.668L610.947 -9.30416H501.013L555.734 -64.025ZM833.169 435.975L887.891 490.696H777.956L723.235 435.975H833.169ZM777.198 491.112L722.06 546.25H667.093V435.971H722.06L777.198 491.108V491.112ZM832.928 769.062V823.442L723.239 713.754H832.928V768.721L832.757 768.892L832.928 769.062ZM611.293 712.917L556.155 657.779L611.293 602.642H666.26V712.921H611.293V712.917ZM555.392 657.362H445.458L500.179 602.642H610.113L555.392 657.362ZM111.288 768.475L56.5671 713.754H276.777L222.056 768.475H111.288ZM166.256 603.229V712.917H56.5671L166.256 603.229ZM500.421 -7.88334L554.555 46.25H500.421V-7.88334ZM722.056 -8.47083L776.777 46.25H556.567L611.288 -8.47083H722.056ZM832.924 157.95V268.717L778.202 323.438V102.392L832.924 47.6708V157.604L832.753 157.775L832.924 157.946V157.95ZM612.122 601.804L666.256 547.671V601.804H612.122ZM389.899 601.804L444.62 547.083H500.421H665.668L610.947 601.804H389.899ZM278.198 712.917V658.783L332.332 712.917H278.198ZM332.919 713.75V767.883L278.786 713.75H332.919ZM277.365 712.917H167.085V657.95L222.223 602.812L277.361 657.95V712.917H277.365ZM278.198 157.95L332.919 103.229V212.917V323.438L278.198 268.717V157.95ZM388.895 47.2542L389.066 47.0833H555.388L610.109 101.804H389.062L334.34 47.0833H388.72L388.891 47.2542H388.895ZM722.648 378.992V269.058L777.369 214.337V324.271L722.648 378.992ZM221.81 602.046L167.089 656.767V436.554L221.81 491.275V602.042V602.046ZM221.223 380.412L167.089 434.546V380.412H221.223ZM167.264 435.55L221.814 381V490.1L167.264 435.55ZM333.761 379.579V269.892L388.482 324.612V435.379L333.761 490.1V379.579ZM387.895 101.8H333.761V47.6667L387.895 101.8ZM333.761 102.633H388.728L443.866 157.771L388.728 212.908H333.761V102.629V102.633ZM721.819 268.712L667.097 323.433V157.946L667.268 157.775L667.097 157.604V103.225L721.819 157.946V268.712ZM721.819 378.992L667.268 324.442L721.819 269.892V378.992ZM666.264 545.658L611.543 490.938V269.892L666.093 324.442L666.264 324.612V379.579V545.654V545.658ZM444.629 158.192H555.396L610.118 212.912H555.742L555.571 212.742L555.4 212.912H499.6H389.912L444.633 158.192H444.629ZM610.709 378.992L555.988 324.271V214.337L610.709 269.058V378.992ZM444.875 269.058L499.596 214.337V268.712L499.425 268.883L499.596 269.054V379.992V435.375L444.875 490.096V269.05V269.058ZM499.008 213.746L444.875 267.879V213.746H499.008ZM499.596 436.558V546.246H389.907L499.596 436.558ZM500.429 213.746H554.563L500.429 267.879V213.746ZM555.15 214.333V323.433L500.6 268.883L555.15 214.333ZM556.576 213.746H610.951L611.122 213.917L611.293 213.746H666.26V323.433L556.571 213.746H556.576ZM612.13 212.912L666.264 158.779V212.912H612.13ZM611.122 212.742L556.571 158.192H665.672L611.122 212.742ZM444.037 213.746V268.712L388.899 323.85L333.761 268.712V213.746H444.041H444.037ZM389.316 324.612L444.037 269.892V379.825L389.316 434.546V324.612ZM444.037 381V490.933L389.316 545.654V435.721L444.037 381ZM388.482 545.654L333.932 491.104L388.482 436.554V545.654ZM387.895 546.242H333.761V492.108L387.895 546.242ZM500.429 379.992V269.887L555.15 324.608V435.375L500.429 490.096V379.992ZM555.984 325.442L610.705 380.163V490.096L555.984 435.375V325.442ZM666.264 47.075V156.762L556.576 47.075H666.264ZM665.676 157.354H555.742L501.021 102.633H610.955L665.676 157.354ZM499.842 102.633L554.563 157.354H444.629L389.907 102.633H499.842ZM500.429 491.279L555.567 436.142L610.705 491.279V546.246H500.425V491.279H500.429ZM611.543 492.112L665.676 546.246H611.543V492.112ZM667.097 325.446L721.231 379.579H667.097V325.446ZM777.377 213.154L722.656 267.875V157.942L777.377 103.221V213.154ZM722.239 157.183L667.101 102.046V47.0792H777.381V102.046L722.244 157.183H722.239ZM332.932 101.212L278.798 47.0792H332.932V101.212ZM278.211 47.6708L332.761 102.221L278.211 156.771V47.6708ZM222.656 602.046V492.112L277.377 546.833V656.767L222.656 602.046ZM277.377 545.658L222.656 490.938V381.004L277.377 435.725V545.658ZM223.244 380.412H332.932V490.1L223.244 380.412ZM388.732 547.079L388.903 547.25L389.074 547.079H443.45L333.761 656.767V547.079H388.728H388.732ZM723.248 379.579L832.936 269.892V379.579H723.248ZM778.215 101.212V47.0792H832.349L778.215 101.212ZM555.575 46.075L501.025 -8.475H610.126L555.575 46.075ZM278.802 46.2458L332.936 -7.8875V46.2458H278.802ZM277.798 46.075L223.248 -8.475H332.349L277.798 46.075ZM276.794 47.0792L167.106 156.767V47.0792H276.794ZM277.382 47.6667V157.6L222.66 212.321V102.387L277.382 47.6667ZM222.66 213.5L277.382 158.779V268.712L222.66 323.433V213.5ZM277.798 269.471L332.936 324.608V379.575H222.656V324.608L277.794 269.471H277.798ZM221.827 379.575H167.693L221.827 325.442V379.575ZM277.798 713.912L332.349 768.463H223.248L277.798 713.912ZM278.215 657.596V436.554L332.765 491.104L332.936 491.275V547.075V657.596L332.765 657.767L332.936 657.938V712.317L278.215 657.596ZM334.361 657.35L389.082 602.629H499.017L444.295 657.35H334.361ZM443.462 658.183L388.912 712.733L334.361 658.183H443.462ZM667.11 712.904V603.217L776.798 712.904H667.11ZM667.697 602.625H777.632L832.353 657.346H722.419L667.697 602.625ZM667.697 601.792L722.248 547.242L776.798 601.792H667.697ZM667.11 601.204V547.071H721.244L667.11 601.204ZM667.11 435.125V380.992L721.244 435.125H667.11ZM832.924 -64.8625H778.79L832.924 -118.996V-64.8625ZM832.924 -64.0292V46.25H777.956L722.819 -8.8875L777.956 -64.025H832.924V-64.0292ZM722.056 -9.30833H612.122L666.843 -64.0292H776.777L722.056 -9.30833ZM333.753 46.2458V-7.8875L387.887 46.2458H333.753ZM166.497 -64.0292L221.219 -9.30833H111.284L56.563 -64.0292H166.497ZM111.284 -8.475H222.052L276.773 46.2458H56.563L111.284 -8.475ZM166.251 381.004V435.383L166.081 435.554L166.251 435.725V602.046L111.53 656.767V435.721L166.251 381V381.004ZM110.697 547.671V657.604L55.9755 712.325V602.392L110.697 547.671ZM55.1421 712.325L0.587505 657.779L55.138 603.229V712.329L55.1421 712.325ZM110.526 768.888L55.388 824.025H0.41667V713.746H55.3838L110.522 768.883L110.526 768.888ZM111.288 769.304H221.223L166.501 824.025H56.563L111.284 769.304H111.288ZM333.757 658.783L387.891 712.917H333.757V658.783ZM500.425 714.338L554.559 768.471H500.425V714.338ZM501.013 713.75H666.26H722.06L776.781 768.471H555.738L501.017 713.75H501.013ZM667.681 769.304H777.615L832.336 824.025H722.402L667.681 769.304ZM832.336 824.858L777.786 879.408L723.235 824.858H832.336ZM889.07 712.912L888.899 712.742L888.728 712.912H777.961L723.239 658.192H944.287L999.008 712.912H889.074H889.07ZM833.515 657.358L778.794 602.637H888.728L943.45 657.358H833.515ZM888.728 601.804H777.961L723.239 547.083H943.45L888.728 601.804ZM723.239 546.25L777.961 491.529H888.728L943.45 546.25H723.235H723.239ZM889.907 491.529H999.008L944.458 546.079L889.907 491.529ZM889.074 490.696L834.353 435.975H944.287L999.008 490.696H889.074ZM722.406 435.142L667.685 380.421H722.064L722.235 380.592L722.406 380.421H888.728L943.45 435.142H722.406ZM777.619 -64.8583H556.571L611.288 -119.583H832.336L777.615 -64.8625L777.619 -64.8583ZM610.109 -119.583L500.421 -9.89584V-119.583H610.109ZM499.587 -9.0625L499.417 -8.89167L499.587 -8.72083V46.2458H389.899L499.587 -63.4417V-9.0625ZM444.033 -118.996V-9.0625L389.312 45.6583V-64.2708L444.033 -118.996ZM388.478 -63.4417V45.6583L333.928 -8.89167L388.478 -63.4417ZM332.919 -119.583V-9.89584L223.231 -119.583H332.919ZM222.052 -119.583L276.773 -64.8625H55.7296L1.00418 -119.583H222.048H222.052ZM54.5505 -64.8625H0.41667V-118.996L54.5505 -64.8625ZM0.41667 -64.0292H55.3838L110.522 -8.89167L55.3838 46.2458H0.41667V-64.0292ZM166.251 47.6708V101.804H112.118L166.251 47.6708ZM111.284 102.637H166.251V212.917H111.284L111.113 212.746L56.1463 157.779L111.284 102.642V102.637ZM166.251 213.75V267.883L112.118 213.75H166.251ZM111.113 213.921L165.664 268.471H56.563L111.113 213.921ZM1.00418 324.029L55.7255 269.308H165.66L110.938 324.029H1.00418ZM166.251 269.896V379.583H56.563L166.251 269.896ZM110.697 380.417V435.383L55.5588 490.521L0.41667 435.383V380.417H110.697ZM0.41667 436.562L55.138 491.283V602.05L0.41667 656.771V436.558V436.562ZM54.5505 712.917H0.41667V658.783L54.5505 712.917ZM0.41667 824.862H54.5505L0.41667 878.996V824.862ZM55.7296 824.862H276.773L222.052 879.583H1.00418L55.7255 824.862H55.7296ZM223.231 879.583L332.919 769.896V879.583H223.231ZM388.895 823.854L333.928 768.888L333.757 768.717V713.75H388.724L388.895 713.921L389.066 713.75H444.033V768.717L388.895 823.854ZM444.866 713.75H499L444.866 767.883V713.75ZM500.421 769.304H555.388L610.526 824.442L555.388 879.579H500.421V769.3V769.304ZM556.567 879.583L611.288 824.862H722.056L776.777 879.583H556.563H556.567ZM778.79 879.583L832.924 825.45V879.583H778.79ZM833.757 713.75H887.891L833.757 767.883V713.75ZM833.928 768.888L888.478 714.338V823.438L833.928 768.888ZM944.033 878.992L889.312 824.271V714.338L944.033 769.058V878.992ZM999.588 823.438L889.899 713.75H999.588V823.438ZM999.588 712.329L945.454 658.196H999.588V712.329ZM944.62 657.362L889.482 602.225L944.62 547.087H999.588V657.367H944.62V657.362ZM999.588 546.25H945.454L999.588 492.117V546.25ZM889.899 380.417H999.588V490.104L889.899 380.417ZM833.753 378.992V324.858H887.887L833.753 378.992ZM888.72 324.025H833.753V213.746H888.72L888.891 213.917L943.858 268.883L888.72 324.021V324.025ZM833.753 212.912V158.779L887.887 212.912H833.753ZM888.891 212.742L834.34 158.192H943.441L888.891 212.742ZM998.996 102.637L944.275 157.358H834.34L889.062 102.637H998.996ZM833.749 156.771V47.0833H943.437L833.749 156.771Z" fill="url(#paint0_radial_1589_7802)"/>
<defs>
<radialGradient id="paint0_radial_1589_7802" cx="0" cy="0" r="1" gradientUnits="userSpaceOnUse" gradientTransform="translate(485.196 380) scale(489.653 489.649)">
<stop stop-color="#757575" stop-opacity="0.3"/>
<stop offset="1" stop-color="#757575" stop-opacity="0"/>
</radialGradient>
</defs>
</svg>
