<svg width="116" height="24" viewBox="0 0 116 24" fill="none" xmlns="http://www.w3.org/2000/svg"><path d="M7.56985 6.44187L0.0661589 21.0322C-0.00801324 21.1769 -0.0203547 21.3445 0.0318459 21.4982C0.0840465 21.6518 0.196519 21.7789 0.344555 21.8515L4.38834 23.8376C4.46167 23.8737 4.54155 23.8953 4.62344 23.9012C4.70532 23.9071 4.78759 23.8972 4.86555 23.872C4.94351 23.8469 5.01564 23.8069 5.0778 23.7545C5.13997 23.7021 5.19096 23.6382 5.22786 23.5666L12.7305 8.97627C12.7674 8.90454 12.7894 8.82641 12.7954 8.74635C12.8014 8.66628 12.7911 8.58585 12.7653 8.50965C12.7394 8.43345 12.6985 8.36298 12.6447 8.30226C12.591 8.24155 12.5255 8.19179 12.4521 8.15582L8.40829 6.17085C8.335 6.13467 8.25512 6.11301 8.17324 6.10712C8.09136 6.10122 8.00909 6.1112 7.93117 6.13648C7.85325 6.16177 7.78122 6.20186 7.71921 6.25445C7.6572 6.30704 7.60644 6.37109 7.56985 6.44292V6.44187Z" fill="url(#paint0_linear_1589_420)"/><path d="M20.8477 6.22461H25.3746C25.7191 6.22461 25.9996 6.49986 25.9996 6.83545V23.1651C25.9996 23.3272 25.9338 23.4827 25.8166 23.5974C25.6995 23.7121 25.5405 23.7767 25.3746 23.777H20.8477C20.6818 23.7767 20.5228 23.7121 20.4057 23.5974C20.2885 23.4827 20.2227 23.3272 20.2227 23.1651V6.83651C20.2227 6.49986 20.5032 6.22461 20.8477 6.22461Z" fill="url(#paint1_linear_1589_420)"/><path d="M13.882 6.49265L10.6701 22.3967C10.6379 22.5554 10.6716 22.72 10.7636 22.8544C10.8556 22.9888 10.9985 23.082 11.1608 23.1134L15.5967 23.9879C15.9369 24.0546 16.2684 23.8397 16.3344 23.5072L19.5452 7.60423C19.5771 7.44562 19.5433 7.28113 19.4514 7.1468C19.3594 7.01246 19.2167 6.91923 19.0545 6.88752L14.6175 6.01202C14.5368 5.99614 14.4537 5.99599 14.373 6.01157C14.2923 6.02716 14.2155 6.05816 14.147 6.10282C14.0786 6.14748 14.0199 6.2049 13.9742 6.2718C13.9285 6.33869 13.8979 6.41374 13.882 6.49265Z" fill="url(#paint2_linear_1589_420)"/><path d="M107.32 5.33594C112.071 5.33594 115.829 8.78351 115.971 14.2236C115.986 14.7983 115.996 15.1988 116 15.4834C116.001 15.5649 115.986 15.646 115.956 15.7217C115.926 15.7973 115.88 15.8658 115.823 15.9238C115.766 15.9819 115.698 16.0282 115.623 16.0596C115.548 16.091 115.467 16.1076 115.386 16.1074H103.917C104.094 18.2409 105.797 19.5908 107.959 19.5908C109.498 19.5908 110.759 18.9496 111.644 17.79C111.738 17.6662 111.876 17.5828 112.029 17.5576C112.183 17.5325 112.341 17.5678 112.47 17.6553L115.334 19.5781C115.401 19.6243 115.459 19.6835 115.504 19.752C115.549 19.8206 115.58 19.8979 115.595 19.9785C115.61 20.0592 115.609 20.1424 115.592 20.2227C115.575 20.3027 115.543 20.3788 115.497 20.4463C113.964 22.713 111.433 24.0009 107.678 24.001L107.215 23.9912C102.47 23.804 98.2432 20.7122 98.2432 14.6494C98.2433 8.74812 102.57 5.33603 107.32 5.33594ZM71.8604 5.29785C76.8936 5.29792 79.8017 7.68077 79.8018 11.875V22.9912C79.8017 23.1546 79.7363 23.3112 79.6211 23.4268C79.5058 23.5423 79.3495 23.6074 79.1865 23.6074H74.9072C74.7467 23.6072 74.5923 23.5441 74.4775 23.4316C74.3628 23.3192 74.2969 23.1657 74.293 23.0049L74.2705 22.0781L74.2363 22.1152C72.783 23.3588 71.3638 23.9629 69.5547 23.9629L69.2451 23.958C66.0516 23.8254 63.4229 21.6523 63.4229 18.3457C63.423 15.2175 65.4789 13.7595 69.3076 12.7646L74.2012 11.4844C74.0597 10.3119 73.1374 9.74327 71.6484 9.74316C70.33 9.74316 69.3808 10.2485 68.9424 11.2607C68.8868 11.3979 68.7849 11.5112 68.6543 11.5801C68.5235 11.649 68.3718 11.6697 68.2275 11.6377L64.3506 10.7148C64.2659 10.6947 64.1863 10.6566 64.1172 10.6035C64.048 10.5504 63.9907 10.4831 63.9492 10.4062C63.9077 10.3294 63.8835 10.2443 63.877 10.1572C63.8704 10.0702 63.8817 9.98253 63.9111 9.90039C65.0241 6.88101 68.1183 5.29785 71.8604 5.29785ZM55.3076 5.44043C59.2782 5.44046 62.0078 7.78764 62.0078 12.2666V22.9902C62.0077 23.1539 61.9425 23.311 61.8271 23.4268C61.7117 23.5424 61.5548 23.6074 61.3916 23.6074H56.8779C56.7975 23.6074 56.7179 23.5914 56.6436 23.5605C56.569 23.5296 56.5004 23.484 56.4434 23.4268C56.3864 23.3696 56.3414 23.3012 56.3105 23.2266C56.2798 23.1519 56.2637 23.072 56.2637 22.9912V13.4756C56.2637 11.5208 55.1651 10.5616 53.6748 10.5615C52.4347 10.5615 51.4409 11.3439 50.873 12.5166V22.9922C50.8727 23.1555 50.8085 23.3122 50.6934 23.4277C50.5782 23.5433 50.4217 23.6081 50.2588 23.6084H45.7441C45.5812 23.6083 45.4248 23.5433 45.3096 23.4277C45.1944 23.3122 45.1299 23.1555 45.1299 22.9922V13.4775C45.1299 11.5218 44.0312 10.5627 42.541 10.5625C41.2661 10.5625 40.3071 11.3449 39.7393 12.5176L39.7441 22.9912C39.7438 23.1545 39.6786 23.3113 39.5635 23.4268C39.4483 23.5422 39.2918 23.6071 39.1289 23.6074H34.6143C34.4514 23.6073 34.2949 23.5423 34.1797 23.4268C34.0646 23.3112 34.0001 23.1545 34 22.9912V6.44922C34 6.109 34.2761 5.83223 34.6143 5.83203H39.1289C39.4672 5.83203 39.7441 6.10887 39.7441 6.44922V7.75195C40.8776 6.33066 42.473 5.44153 44.7061 5.44141C46.7979 5.44141 48.6064 6.29428 49.7051 7.89453C51.0518 6.29424 52.9666 5.44043 55.3076 5.44043ZM86.6201 0C86.9594 7.78015e-05 87.2353 0.277058 87.2354 0.616211V10.7373L92.377 5.99414C92.4906 5.88949 92.6396 5.83159 92.7939 5.83105H98.2344C98.7968 5.83105 99.0638 6.5237 98.6504 6.90332L93.3711 11.7324L99.3916 22.6934C99.4432 22.7872 99.4693 22.8929 99.4678 23C99.4662 23.1072 99.4362 23.2124 99.3818 23.3047C99.3275 23.3968 99.25 23.4733 99.1572 23.5264C99.0644 23.5794 98.9593 23.6075 98.8525 23.6074H93.708C93.5957 23.6073 93.4856 23.576 93.3896 23.5176C93.2936 23.4591 93.215 23.3753 93.1631 23.2754L88.9736 15.2168L88.9727 15.2178L87.2354 16.8174V22.9912C87.2353 23.0722 87.2194 23.1528 87.1885 23.2275C87.1576 23.302 87.1125 23.3697 87.0557 23.4268C86.9985 23.484 86.9302 23.5296 86.8555 23.5605C86.7808 23.5914 86.7009 23.6075 86.6201 23.6074H82.2139C82.1332 23.6075 82.0531 23.5914 81.9785 23.5605C81.9039 23.5296 81.8364 23.484 81.7793 23.4268C81.7222 23.3696 81.6765 23.3022 81.6455 23.2275C81.6146 23.1528 81.5987 23.0722 81.5986 22.9912V0.617188C81.5988 0.277029 81.8737 0.000130288 82.2129 0H86.6201ZM71.6455 16.0332C69.9085 16.5317 69.129 16.9585 69.1289 17.9531C69.1289 19.0547 70.0845 19.5174 71.0068 19.5176L71.2803 19.5088C71.8996 19.4611 72.4266 19.2428 73.1709 18.8076L74.1631 18.2021L74.1992 15.3223L71.6455 16.0332ZM107.146 9.70898C105.692 9.70898 104.204 10.5634 104.026 12.624L110.229 12.623C110.195 10.5974 108.707 9.70904 107.146 9.70898Z" fill="black"/><defs><linearGradient id="paint0_linear_1589_420" x1="1.62388" y1="22.8128" x2="12.598" y2="1.95864" gradientUnits="userSpaceOnUse"><stop stop-color="#FF00FF"/><stop offset="0.17" stop-color="#E90CF9"/><stop offset="0.54" stop-color="#C023ED"/><stop offset="0.73" stop-color="#B02DE9"/><stop offset="1" stop-color="#B02DE9"/></linearGradient><linearGradient id="paint1_linear_1589_420" x1="0.000491686" y1="27.5754" x2="25.4013" y2="1.58422" gradientUnits="userSpaceOnUse"><stop stop-color="#B02DE9"/><stop offset="0.02" stop-color="#B02DE9"/><stop offset="0.8" stop-color="#6D00CC"/><stop offset="1" stop-color="#6D00CC"/></linearGradient><linearGradient id="paint2_linear_1589_420" x1="7.41131e-05" y1="27.5756" x2="25.4009" y2="1.58442" gradientUnits="userSpaceOnUse"><stop stop-color="#FF00FF"/><stop offset="0.02" stop-color="#FF00FF"/><stop offset="0.09" stop-color="#E90CF9"/><stop offset="0.23" stop-color="#C023ED"/><stop offset="0.3" stop-color="#B02DE9"/><stop offset="0.42" stop-color="#A42BE3"/><stop offset="0.63" stop-color="#8626D5"/><stop offset="0.85" stop-color="#6021C3"/><stop offset="1" stop-color="#6021C3"/></linearGradient></defs></svg>
