<svg width="164" height="30" viewBox="0 0 164 30" fill="none" xmlns="http://www.w3.org/2000/svg"><g clip-path="url(#clip0_1589_438)"><path d="M13.2219 28.6044C13.1907 28.7978 12.9927 29.049 12.8024 29.1147C10.2817 29.2308 7.73381 29.1302 5.20535 29.165C3.93919 29.0529 4.86745 27.0541 5.22089 26.4318C5.57433 25.8093 5.95107 25.4072 6.38219 24.9279C6.16081 22.933 5.94331 20.9382 5.77241 18.9393C5.71415 18.258 5.80348 18.4948 5.71415 18.4948C5.62482 18.4948 4.782 19.5811 4.67713 19.7435C3.86539 20.9498 3.37213 22.9678 1.47287 22.4884C-0.42638 22.009 0.272731 19.902 0.649475 18.6687C1.35635 16.353 2.68855 14.0063 4.4907 12.3672C4.73539 12.1468 5.19758 11.8569 5.38789 11.6365C5.57822 11.4161 5.47723 11.5204 5.49276 11.4316C5.60539 10.8091 5.46558 9.80011 5.50054 9.11969C5.54326 8.26143 5.76464 7.41864 6.04041 6.61063C4.45187 5.74852 3.55078 4.08226 3.67507 2.27682C3.72556 1.53455 4.12173 0.30515 5.01504 0.24716C5.90835 0.18917 6.17634 0.908251 6.68902 1.55774C7.2017 2.20723 7.71051 2.54744 8.3164 2.91472C8.93395 2.44307 9.52819 1.94048 10.2118 1.55388C13.35 -0.22836 18.1156 -0.255422 21.2461 1.55388C21.9257 1.94821 22.4928 2.4276 23.1026 2.91472C23.6386 2.58223 24.1823 2.17244 24.5979 1.69692C25.2 1.0049 25.3203 0.15051 26.4429 0.243295C27.0992 0.301285 27.4216 0.885055 27.5963 1.45337C28.21 3.4289 27.1924 5.67893 25.3709 6.60678C25.5146 6.94699 25.6233 7.30652 25.7049 7.66607C25.9923 8.93798 25.9495 10.2486 25.9612 11.5437C27.9148 12.9973 29.3635 15.0077 30.2801 17.2538C30.8083 18.5528 32.0046 21.7152 30.1559 22.4227C29.0917 22.8325 28.2411 22.3029 27.6935 21.4136C27.1303 20.4974 26.738 19.5657 25.9728 18.7577C25.934 18.7152 25.6815 18.4407 25.6428 18.4871C25.6155 19.2409 25.5573 19.9987 25.4873 20.7487C25.3553 22.1404 25.1806 23.5322 25.0213 24.924C25.033 25.0245 25.4485 25.3725 25.5456 25.4846C26.0234 26.0374 26.5243 26.8918 26.7263 27.5954C26.8972 28.1947 27.0875 29.0374 26.2447 29.1612H18.8303C18.5933 29.1959 18.1932 28.8596 18.1932 28.6393V25.5657C16.5815 26.1302 14.8337 26.1457 13.2257 25.5657V28.6006L13.2219 28.6044ZM6.43269 5.65959C6.65795 5.16475 6.93371 4.68923 7.24055 4.24077C7.31046 4.14025 7.61728 3.79617 7.59398 3.71498C7.57068 3.6338 6.98809 3.27039 6.87933 3.18534C6.48705 2.86832 6.09477 2.50879 5.79572 2.09899C5.49665 1.68919 5.4112 1.39923 5.31021 1.31032C4.89852 0.950777 4.7082 2.03327 4.68879 2.27682C4.57616 3.69952 5.16651 4.97917 6.43269 5.65959ZM24.9785 5.65959C26.237 4.95598 26.8428 3.71111 26.7225 2.27682C26.7069 2.06805 26.501 1.00877 26.1593 1.29098C25.8175 1.57321 25.7049 2.04873 25.5185 2.27682C25.033 2.85287 24.3688 3.29359 23.7745 3.74591C24.2639 4.31809 24.6678 4.97145 24.9785 5.65959ZM25.5223 27.9666C25.3087 27.2862 24.9048 26.5903 24.4153 26.0722C24.1863 25.8287 23.8172 25.6392 23.7745 25.2797C23.7512 25.1019 23.7978 24.8119 23.8134 24.6225C23.8638 24.0387 23.9804 23.4588 24.0426 22.8789C24.2173 21.232 24.3144 19.5811 24.4736 17.9342C24.5125 17.5167 24.5008 16.8788 25.0446 16.8015C25.4097 16.7474 26.1321 17.304 26.4117 17.5477C27.0448 18.0965 27.5847 18.7964 28.0081 19.5115C28.4314 20.2268 28.6993 20.9961 29.0761 21.232C29.418 21.4485 29.8762 21.402 29.9383 20.9458C30.051 20.1185 29.5073 18.5914 29.1849 17.7989C28.544 16.2255 27.5459 14.6443 26.3146 13.4651C25.9068 13.0747 25.2932 12.6997 24.9358 12.3285C24.7727 12.1545 24.7222 11.9844 24.7028 11.7485C24.5824 10.2524 24.8348 9.08103 24.4232 7.54235C23.1686 2.85287 18.4574 0.788404 13.8704 1.49202C9.93213 2.09512 6.87157 5.35804 6.66183 9.34778C6.61911 10.1596 6.73174 11.0643 6.66183 11.8607C6.63853 12.1352 6.53754 12.2241 6.35112 12.4019C6.16469 12.5798 5.79183 12.831 5.53548 13.0591C3.69837 14.6944 2.29239 16.9948 1.67484 19.3801C1.53113 19.9291 1.07671 21.7307 2.24578 21.3015C2.61863 21.1662 3.12744 20.0064 3.35659 19.6237C3.8887 18.7345 4.50236 17.8955 5.34517 17.277C5.73745 16.9871 6.3317 16.527 6.73951 17.0412C6.87546 17.2126 6.85215 17.4008 6.87546 17.5862C7.04635 18.9703 7.10849 20.4355 7.24442 21.8351C7.38037 23.2345 7.54349 23.8222 7.59398 24.7732C7.60175 24.9279 7.6134 25.1637 7.59398 25.3144C7.55903 25.6238 7.08907 25.9407 6.87546 26.1843C6.42491 26.6947 6.07147 27.3248 5.84621 27.9627H11.9751V24.58C11.9751 24.4021 12.2276 24.1238 12.4023 24.0773C12.7868 23.9769 13.0043 24.201 13.3229 24.3209C14.8802 24.8969 16.2746 24.9742 17.8553 24.4098C18.2244 24.2784 18.737 23.9111 19.1138 24.1238C19.2071 24.1779 19.4284 24.4447 19.4284 24.5451V27.9666H25.5223Z" fill="#24A2FF"/><path d="M13.4195 11.1139C13.8079 11.1497 13.8856 11.4656 14.068 11.7053C14.9031 12.7801 16.4139 12.9231 17.3073 11.8406C17.5598 11.5391 17.7734 10.8742 18.3093 11.1873C19.0434 11.6164 18.022 12.7414 17.5947 13.0546C16.1188 14.1293 13.8117 13.6732 12.9883 12.0069C12.7075 11.4386 12.9883 11.1303 13.3961 11.1139H13.4195Z" fill="#24A2FF"/><path d="M10.8831 7.1789C12.9222 6.90055 13.1863 9.81167 11.3336 10.0243C9.3839 10.2485 9.1198 7.4186 10.8831 7.1789Z" fill="#24A2FF"/><path d="M20.0032 7.17797C22.2948 6.84937 22.2286 10.3635 20.0109 10.0118C18.4534 9.76434 18.4846 7.39448 20.0032 7.17797Z" fill="#24A2FF"/><mask id="mask0_1589_438" style="mask-type:luminance" maskUnits="userSpaceOnUse" x="-1" y="-1" width="34" height="32"><path d="M32.1801 -0.828125H-0.826172V30.2064H32.1801V-0.828125Z" fill="white"/><path d="M13.2199 28.6044C13.1888 28.7978 12.9907 29.049 12.8004 29.1147C10.2797 29.2308 7.73185 29.1302 5.20339 29.165C3.93723 29.0529 4.86549 27.0541 5.21894 26.4318C5.57237 25.8093 5.94912 25.4072 6.38023 24.9279C6.15885 22.933 5.94135 20.9382 5.77045 18.9393C5.7122 18.258 5.80153 18.4948 5.7122 18.4948C5.62286 18.4948 4.78005 19.5811 4.67518 19.7435C3.86343 20.9498 3.37017 22.9678 1.47092 22.4884C-0.428333 22.009 0.270778 19.902 0.647522 18.6687C1.3544 16.353 2.68659 14.0063 4.48875 12.3672C4.73344 12.1468 5.19563 11.8569 5.38594 11.6365C5.57626 11.4161 5.47527 11.5204 5.49081 11.4316C5.60344 10.8091 5.46363 9.80011 5.49858 9.11969C5.54131 8.26143 5.76269 7.41864 6.03845 6.61063C4.44991 5.74852 3.54883 4.08226 3.67312 2.27682C3.72361 1.53455 4.11978 0.30515 5.01308 0.24716C5.9064 0.18917 6.17439 0.908251 6.68707 1.55774C7.19975 2.20723 7.70855 2.54744 8.31444 2.91472C8.93199 2.44307 9.52624 1.94048 10.2098 1.55388C13.348 -0.22836 18.1136 -0.255422 21.2442 1.55388C21.9238 1.94821 22.4909 2.4276 23.1007 2.91472C23.6366 2.58223 24.1804 2.17244 24.596 1.69692C25.198 1.0049 25.3184 0.15051 26.4409 0.243295C27.0972 0.301285 27.4196 0.885055 27.5944 1.45337C28.2081 3.4289 27.1905 5.67893 25.3689 6.60678C25.5126 6.94699 25.6213 7.30652 25.7029 7.66607C25.9904 8.93798 25.9476 10.2486 25.9592 11.5437C27.9129 12.9973 29.3615 15.0077 30.2782 17.2538C30.8064 18.5528 32.0027 21.7152 30.1539 22.4227C29.0898 22.8325 28.2391 22.3029 27.6915 21.4136C27.1284 20.4974 26.736 19.5657 25.9709 18.7577C25.9321 18.7152 25.6796 18.4407 25.6408 18.4871C25.6136 19.2409 25.5553 19.9987 25.4854 20.7487C25.3533 22.1404 25.1786 23.5322 25.0194 24.924C25.031 25.0245 25.4466 25.3725 25.5436 25.4846C26.0214 26.0374 26.5224 26.8918 26.7243 27.5954C26.8953 28.1947 27.0856 29.0374 26.2428 29.1612H18.8283C18.5914 29.1959 18.1913 28.8596 18.1913 28.6393V25.5657C16.5795 26.1302 14.8318 26.1457 13.2237 25.5657V28.6006L13.2199 28.6044ZM6.43073 5.65959C6.656 5.16475 6.93176 4.68923 7.23859 4.24077C7.30851 4.14025 7.61533 3.79617 7.59203 3.71498C7.56873 3.6338 6.98614 3.27039 6.87738 3.18534C6.4851 2.86832 6.09282 2.50879 5.79376 2.09899C5.4947 1.68919 5.40925 1.39923 5.30826 1.31032C4.89657 0.950777 4.70625 2.03327 4.68684 2.27682C4.5742 3.69952 5.16456 4.97917 6.43073 5.65959ZM24.9766 5.65959C26.235 4.95598 26.8409 3.71111 26.7205 2.27682C26.705 2.06805 26.4991 1.00877 26.1574 1.29098C25.8155 1.57321 25.7029 2.04873 25.5165 2.27682C25.031 2.85287 24.3669 3.29359 23.7725 3.74591C24.262 4.31809 24.6659 4.97145 24.9766 5.65959ZM25.5203 27.9666C25.3067 27.2862 24.9028 26.5903 24.4134 26.0722C24.1843 25.8287 23.8153 25.6392 23.7725 25.2797C23.7492 25.1019 23.7959 24.8119 23.8114 24.6225C23.8619 24.0387 23.9784 23.4588 24.0406 22.8789C24.2153 21.232 24.3124 19.5811 24.4717 17.9342C24.5105 17.5167 24.4989 16.8788 25.0427 16.8015C25.4077 16.7474 26.1301 17.304 26.4097 17.5477C27.0429 18.0965 27.5827 18.7964 28.0061 19.5115C28.4294 20.2268 28.6974 20.9961 29.0742 21.232C29.416 21.4485 29.8743 21.402 29.9364 20.9458C30.049 20.1185 29.5053 18.5914 29.1829 17.7989C28.5421 16.2255 27.5439 14.6443 26.3127 13.4651C25.9049 13.0747 25.2913 12.6997 24.9339 12.3285C24.7708 12.1545 24.7202 11.9844 24.7008 11.7485C24.5805 10.2524 24.8329 9.08103 24.4212 7.54235C23.1667 2.85287 18.4554 0.788404 13.8685 1.49202C9.93017 2.09512 6.86961 5.35804 6.65988 9.34778C6.61716 10.1596 6.72979 11.0643 6.65988 11.8607C6.63658 12.1352 6.53559 12.2241 6.34917 12.4019C6.16273 12.5798 5.78988 12.831 5.53353 13.0591C3.69642 14.6944 2.29044 16.9948 1.67289 19.3801C1.52918 19.9291 1.07476 21.7307 2.24382 21.3015C2.61668 21.1662 3.12548 20.0064 3.35464 19.6237C3.88674 18.7345 4.5004 17.8955 5.34322 17.277C5.7355 16.9871 6.32974 16.527 6.73756 17.0412C6.8735 17.2126 6.85019 17.4008 6.8735 17.5862C7.04439 18.9703 7.10654 20.4355 7.24247 21.8351C7.37842 23.2345 7.54154 23.8222 7.59203 24.7732C7.5998 24.9279 7.61145 25.1637 7.59203 25.3144C7.55707 25.6238 7.08712 25.9407 6.8735 26.1843C6.42296 26.6947 6.06952 27.3248 5.84425 27.9627H11.9731V24.58C11.9731 24.4021 12.2256 24.1238 12.4003 24.0773C12.7849 23.9769 13.0024 24.201 13.3209 24.3209C14.8783 24.8969 16.2727 24.9742 17.8534 24.4098C18.2224 24.2784 18.7351 23.9111 19.1119 24.1238C19.2051 24.1779 19.4264 24.4447 19.4264 24.5451V27.9666H25.5203Z" fill="black"/><path d="M13.4175 11.11C13.8059 11.1458 13.8836 11.4617 14.0661 11.7014C14.9011 12.7762 16.412 12.9192 17.3053 11.8367C17.5578 11.5352 17.7714 10.8703 18.3074 11.1834C19.0415 11.6125 18.02 12.7375 17.5928 13.0507C16.1169 14.1254 13.8098 13.6693 12.9864 12.003C12.7056 11.4347 12.9864 11.1264 13.3942 11.11H13.4175Z" fill="black"/><path d="M10.8812 7.1789C12.9202 6.90055 13.1844 9.81167 11.3317 10.0243C9.38195 10.2485 9.11785 7.4186 10.8812 7.1789Z" fill="black"/><path d="M20.0012 7.17797C22.2928 6.84937 22.2267 10.3635 20.009 10.0118C18.4515 9.76434 18.4826 7.39448 20.0012 7.17797Z" fill="black"/></mask><g mask="url(#mask0_1589_438)"><path d="M13.2199 28.6044C13.1888 28.7978 12.9907 29.049 12.8004 29.1147C10.2797 29.2308 7.73185 29.1302 5.20339 29.165C3.93723 29.0529 4.86549 27.0541 5.21894 26.4318C5.57237 25.8093 5.94912 25.4072 6.38023 24.9279C6.15885 22.933 5.94135 20.9382 5.77045 18.9393C5.7122 18.258 5.80153 18.4948 5.7122 18.4948C5.62286 18.4948 4.78005 19.5811 4.67518 19.7435C3.86343 20.9498 3.37017 22.9678 1.47092 22.4884C-0.428333 22.009 0.270778 19.902 0.647522 18.6687C1.3544 16.353 2.68659 14.0063 4.48875 12.3672C4.73344 12.1468 5.19563 11.8569 5.38594 11.6365C5.57626 11.4161 5.47527 11.5204 5.49081 11.4316C5.60344 10.8091 5.46363 9.80011 5.49858 9.11969C5.54131 8.26143 5.76269 7.41864 6.03845 6.61063C4.44991 5.74852 3.54883 4.08226 3.67312 2.27682C3.72361 1.53455 4.11978 0.30515 5.01308 0.24716C5.9064 0.18917 6.17439 0.908251 6.68707 1.55774C7.19975 2.20723 7.70855 2.54744 8.31444 2.91472C8.93199 2.44307 9.52624 1.94048 10.2098 1.55388C13.348 -0.22836 18.1136 -0.255422 21.2442 1.55388C21.9238 1.94821 22.4909 2.4276 23.1007 2.91472C23.6366 2.58223 24.1804 2.17244 24.596 1.69692C25.198 1.0049 25.3184 0.15051 26.4409 0.243295C27.0972 0.301285 27.4196 0.885055 27.5944 1.45337C28.2081 3.4289 27.1905 5.67893 25.3689 6.60678C25.5126 6.94699 25.6213 7.30652 25.7029 7.66607C25.9904 8.93798 25.9476 10.2486 25.9592 11.5437C27.9129 12.9973 29.3615 15.0077 30.2782 17.2538C30.8064 18.5528 32.0027 21.7152 30.1539 22.4227C29.0898 22.8325 28.2391 22.3029 27.6915 21.4136C27.1284 20.4974 26.736 19.5657 25.9709 18.7577C25.9321 18.7152 25.6796 18.4407 25.6408 18.4871C25.6136 19.2409 25.5553 19.9987 25.4854 20.7487C25.3533 22.1404 25.1786 23.5322 25.0194 24.924C25.031 25.0245 25.4466 25.3725 25.5436 25.4846C26.0214 26.0374 26.5224 26.8918 26.7243 27.5954C26.8953 28.1947 27.0856 29.0374 26.2428 29.1612H18.8283C18.5914 29.1959 18.1913 28.8596 18.1913 28.6393V25.5657C16.5795 26.1302 14.8318 26.1457 13.2237 25.5657V28.6006L13.2199 28.6044ZM6.43073 5.65959C6.656 5.16475 6.93176 4.68923 7.23859 4.24077C7.30851 4.14025 7.61533 3.79617 7.59203 3.71498C7.56873 3.6338 6.98614 3.27039 6.87738 3.18534C6.4851 2.86832 6.09282 2.50879 5.79376 2.09899C5.4947 1.68919 5.40925 1.39923 5.30826 1.31032C4.89657 0.950777 4.70625 2.03327 4.68684 2.27682C4.5742 3.69952 5.16456 4.97917 6.43073 5.65959ZM24.9766 5.65959C26.235 4.95598 26.8409 3.71111 26.7205 2.27682C26.705 2.06805 26.4991 1.00877 26.1574 1.29098C25.8155 1.57321 25.7029 2.04873 25.5165 2.27682C25.031 2.85287 24.3669 3.29359 23.7725 3.74591C24.262 4.31809 24.6659 4.97145 24.9766 5.65959ZM25.5203 27.9666C25.3067 27.2862 24.9028 26.5903 24.4134 26.0722C24.1843 25.8287 23.8153 25.6392 23.7725 25.2797C23.7492 25.1019 23.7959 24.8119 23.8114 24.6225C23.8619 24.0387 23.9784 23.4588 24.0406 22.8789C24.2153 21.232 24.3124 19.5811 24.4717 17.9342C24.5105 17.5167 24.4989 16.8788 25.0427 16.8015C25.4077 16.7474 26.1301 17.304 26.4098 17.5477C27.0429 18.0965 27.5827 18.7964 28.0061 19.5115C28.4294 20.2268 28.6974 20.9961 29.0742 21.232C29.416 21.4485 29.8743 21.402 29.9364 20.9458C30.049 20.1185 29.5053 18.5914 29.1829 17.7989C28.5421 16.2255 27.5439 14.6443 26.3127 13.4651C25.9049 13.0747 25.2913 12.6997 24.9339 12.3285C24.7708 12.1545 24.7202 11.9844 24.7009 11.7485C24.5805 10.2524 24.8329 9.08103 24.4212 7.54235C23.1667 2.85287 18.4554 0.788404 13.8685 1.49202C9.93017 2.09512 6.86961 5.35804 6.65988 9.34778C6.61716 10.1596 6.72979 11.0643 6.65988 11.8607C6.63658 12.1352 6.53559 12.2241 6.34917 12.4019C6.16273 12.5798 5.78988 12.831 5.53353 13.0591C3.69642 14.6944 2.29044 16.9948 1.67289 19.3801C1.52918 19.9291 1.07476 21.7307 2.24382 21.3015C2.61668 21.1662 3.12548 20.0064 3.35464 19.6237C3.88674 18.7345 4.5004 17.8955 5.34322 17.277C5.7355 16.9871 6.32974 16.527 6.73756 17.0412C6.8735 17.2126 6.85019 17.4008 6.8735 17.5862C7.04439 18.9703 7.10654 20.4355 7.24247 21.8351C7.37842 23.2345 7.54154 23.8222 7.59203 24.7732C7.5998 24.9279 7.61145 25.1637 7.59203 25.3144C7.55707 25.6238 7.08712 25.9407 6.8735 26.1843C6.42296 26.6947 6.06952 27.3248 5.84425 27.9627H11.9731V24.58C11.9731 24.4021 12.2256 24.1238 12.4003 24.0773C12.7849 23.9769 13.0024 24.201 13.3209 24.3209C14.8783 24.8969 16.2727 24.9742 17.8534 24.4098C18.2224 24.2784 18.7351 23.9111 19.1119 24.1238C19.2051 24.1779 19.4264 24.4447 19.4264 24.5451V27.9666H25.5203Z" stroke="#24A2FF" stroke-width="0.4"/></g><mask id="mask1_1589_438" style="mask-type:luminance" maskUnits="userSpaceOnUse" x="-1" y="-1" width="34" height="32"><path d="M32.1801 -0.828125H-0.826172V30.2064H32.1801V-0.828125Z" fill="white"/><path d="M13.2199 28.6044C13.1888 28.7978 12.9907 29.049 12.8004 29.1147C10.2797 29.2308 7.73185 29.1302 5.20339 29.165C3.93723 29.0529 4.86549 27.0541 5.21894 26.4318C5.57237 25.8093 5.94912 25.4072 6.38023 24.9279C6.15885 22.933 5.94135 20.9382 5.77045 18.9393C5.7122 18.258 5.80153 18.4948 5.7122 18.4948C5.62286 18.4948 4.78005 19.5811 4.67518 19.7435C3.86343 20.9498 3.37017 22.9678 1.47092 22.4884C-0.428333 22.009 0.270778 19.902 0.647522 18.6687C1.3544 16.353 2.68659 14.0063 4.48875 12.3672C4.73344 12.1468 5.19563 11.8569 5.38594 11.6365C5.57626 11.4161 5.47527 11.5204 5.49081 11.4316C5.60344 10.8091 5.46363 9.80011 5.49858 9.11969C5.54131 8.26143 5.76269 7.41864 6.03845 6.61063C4.44991 5.74852 3.54883 4.08226 3.67312 2.27682C3.72361 1.53455 4.11978 0.30515 5.01308 0.24716C5.9064 0.18917 6.17439 0.908251 6.68707 1.55774C7.19975 2.20723 7.70855 2.54744 8.31444 2.91472C8.93199 2.44307 9.52624 1.94048 10.2098 1.55388C13.348 -0.22836 18.1136 -0.255422 21.2442 1.55388C21.9238 1.94821 22.4909 2.4276 23.1007 2.91472C23.6366 2.58223 24.1804 2.17244 24.596 1.69692C25.198 1.0049 25.3184 0.15051 26.4409 0.243295C27.0972 0.301285 27.4196 0.885055 27.5944 1.45337C28.2081 3.4289 27.1905 5.67893 25.3689 6.60678C25.5126 6.94699 25.6213 7.30652 25.7029 7.66607C25.9904 8.93798 25.9476 10.2486 25.9592 11.5437C27.9129 12.9973 29.3615 15.0077 30.2782 17.2538C30.8064 18.5528 32.0027 21.7152 30.1539 22.4227C29.0898 22.8325 28.2391 22.3029 27.6915 21.4136C27.1284 20.4974 26.736 19.5657 25.9709 18.7577C25.9321 18.7152 25.6796 18.4407 25.6408 18.4871C25.6136 19.2409 25.5553 19.9987 25.4854 20.7487C25.3533 22.1404 25.1786 23.5322 25.0194 24.924C25.031 25.0245 25.4466 25.3725 25.5436 25.4846C26.0214 26.0374 26.5224 26.8918 26.7243 27.5954C26.8953 28.1947 27.0856 29.0374 26.2428 29.1612H18.8283C18.5914 29.1959 18.1913 28.8596 18.1913 28.6393V25.5657C16.5795 26.1302 14.8318 26.1457 13.2237 25.5657V28.6006L13.2199 28.6044ZM6.43073 5.65959C6.656 5.16475 6.93176 4.68923 7.23859 4.24077C7.30851 4.14025 7.61533 3.79617 7.59203 3.71498C7.56873 3.6338 6.98614 3.27039 6.87738 3.18534C6.4851 2.86832 6.09282 2.50879 5.79376 2.09899C5.4947 1.68919 5.40925 1.39923 5.30826 1.31032C4.89657 0.950777 4.70625 2.03327 4.68684 2.27682C4.5742 3.69952 5.16456 4.97917 6.43073 5.65959ZM24.9766 5.65959C26.235 4.95598 26.8409 3.71111 26.7205 2.27682C26.705 2.06805 26.4991 1.00877 26.1574 1.29098C25.8155 1.57321 25.7029 2.04873 25.5165 2.27682C25.031 2.85287 24.3669 3.29359 23.7725 3.74591C24.262 4.31809 24.6659 4.97145 24.9766 5.65959ZM25.5203 27.9666C25.3067 27.2862 24.9028 26.5903 24.4134 26.0722C24.1843 25.8287 23.8153 25.6392 23.7725 25.2797C23.7492 25.1019 23.7959 24.8119 23.8114 24.6225C23.8619 24.0387 23.9784 23.4588 24.0406 22.8789C24.2153 21.232 24.3124 19.5811 24.4717 17.9342C24.5105 17.5167 24.4989 16.8788 25.0427 16.8015C25.4077 16.7474 26.1301 17.304 26.4097 17.5477C27.0429 18.0965 27.5827 18.7964 28.0061 19.5115C28.4294 20.2268 28.6974 20.9961 29.0742 21.232C29.416 21.4485 29.8743 21.402 29.9364 20.9458C30.049 20.1185 29.5053 18.5914 29.1829 17.7989C28.5421 16.2255 27.5439 14.6443 26.3127 13.4651C25.9049 13.0747 25.2913 12.6997 24.9339 12.3285C24.7708 12.1545 24.7202 11.9844 24.7008 11.7485C24.5805 10.2524 24.8329 9.08103 24.4212 7.54235C23.1667 2.85287 18.4554 0.788404 13.8685 1.49202C9.93017 2.09512 6.86961 5.35804 6.65988 9.34778C6.61716 10.1596 6.72979 11.0643 6.65988 11.8607C6.63658 12.1352 6.53559 12.2241 6.34917 12.4019C6.16273 12.5798 5.78988 12.831 5.53353 13.0591C3.69642 14.6944 2.29044 16.9948 1.67289 19.3801C1.52918 19.9291 1.07476 21.7307 2.24382 21.3015C2.61668 21.1662 3.12548 20.0064 3.35464 19.6237C3.88674 18.7345 4.5004 17.8955 5.34322 17.277C5.7355 16.9871 6.32974 16.527 6.73756 17.0412C6.8735 17.2126 6.85019 17.4008 6.8735 17.5862C7.04439 18.9703 7.10654 20.4355 7.24247 21.8351C7.37842 23.2345 7.54154 23.8222 7.59203 24.7732C7.5998 24.9279 7.61145 25.1637 7.59203 25.3144C7.55707 25.6238 7.08712 25.9407 6.8735 26.1843C6.42296 26.6947 6.06952 27.3248 5.84425 27.9627H11.9731V24.58C11.9731 24.4021 12.2256 24.1238 12.4003 24.0773C12.7849 23.9769 13.0024 24.201 13.3209 24.3209C14.8783 24.8969 16.2727 24.9742 17.8534 24.4098C18.2224 24.2784 18.7351 23.9111 19.1119 24.1238C19.2051 24.1779 19.4264 24.4447 19.4264 24.5451V27.9666H25.5203Z" fill="black"/><path d="M13.4175 11.11C13.8059 11.1458 13.8836 11.4617 14.0661 11.7014C14.9011 12.7762 16.412 12.9192 17.3053 11.8367C17.5578 11.5352 17.7714 10.8703 18.3074 11.1834C19.0415 11.6125 18.02 12.7375 17.5928 13.0507C16.1169 14.1254 13.8098 13.6693 12.9864 12.003C12.7056 11.4347 12.9864 11.1264 13.3942 11.11H13.4175Z" fill="black"/><path d="M10.8812 7.1789C12.9202 6.90055 13.1844 9.81167 11.3317 10.0243C9.38195 10.2485 9.11785 7.4186 10.8812 7.1789Z" fill="black"/><path d="M20.0012 7.17797C22.2928 6.84937 22.2267 10.3635 20.009 10.0118C18.4515 9.76434 18.4826 7.39448 20.0012 7.17797Z" fill="black"/></mask><g mask="url(#mask1_1589_438)"><path d="M13.4175 11.11C13.8059 11.1458 13.8836 11.4617 14.0661 11.7014C14.9011 12.7762 16.412 12.9192 17.3053 11.8367C17.5578 11.5352 17.7714 10.8703 18.3074 11.1834C19.0415 11.6125 18.02 12.7375 17.5928 13.0507C16.1169 14.1254 13.8098 13.6693 12.9864 12.003C12.7056 11.4347 12.9864 11.1264 13.3942 11.11H13.4175Z" stroke="#24A2FF" stroke-width="0.4"/></g><mask id="mask2_1589_438" style="mask-type:luminance" maskUnits="userSpaceOnUse" x="-1" y="-1" width="34" height="32"><path d="M32.1801 -0.828125H-0.826172V30.2064H32.1801V-0.828125Z" fill="white"/><path d="M13.2199 28.6044C13.1888 28.7978 12.9907 29.049 12.8004 29.1147C10.2797 29.2308 7.73185 29.1302 5.20339 29.165C3.93723 29.0529 4.86549 27.0541 5.21894 26.4318C5.57237 25.8093 5.94912 25.4072 6.38023 24.9279C6.15885 22.933 5.94135 20.9382 5.77045 18.9393C5.7122 18.258 5.80153 18.4948 5.7122 18.4948C5.62286 18.4948 4.78005 19.5811 4.67518 19.7435C3.86343 20.9498 3.37017 22.9678 1.47092 22.4884C-0.428333 22.009 0.270778 19.902 0.647522 18.6687C1.3544 16.353 2.68659 14.0063 4.48875 12.3672C4.73344 12.1468 5.19563 11.8569 5.38594 11.6365C5.57626 11.4161 5.47527 11.5204 5.49081 11.4316C5.60344 10.8091 5.46363 9.80011 5.49858 9.11969C5.54131 8.26143 5.76269 7.41864 6.03845 6.61063C4.44991 5.74852 3.54883 4.08226 3.67312 2.27682C3.72361 1.53455 4.11978 0.30515 5.01308 0.24716C5.9064 0.18917 6.17439 0.908251 6.68707 1.55774C7.19975 2.20723 7.70855 2.54744 8.31444 2.91472C8.93199 2.44307 9.52624 1.94048 10.2098 1.55388C13.348 -0.22836 18.1136 -0.255422 21.2442 1.55388C21.9238 1.94821 22.4909 2.4276 23.1007 2.91472C23.6366 2.58223 24.1804 2.17244 24.596 1.69692C25.198 1.0049 25.3184 0.15051 26.4409 0.243295C27.0972 0.301285 27.4196 0.885055 27.5944 1.45337C28.2081 3.4289 27.1905 5.67893 25.3689 6.60678C25.5126 6.94699 25.6213 7.30652 25.7029 7.66607C25.9904 8.93798 25.9476 10.2486 25.9592 11.5437C27.9129 12.9973 29.3615 15.0077 30.2782 17.2538C30.8064 18.5528 32.0027 21.7152 30.1539 22.4227C29.0898 22.8325 28.2391 22.3029 27.6915 21.4136C27.1284 20.4974 26.736 19.5657 25.9709 18.7577C25.9321 18.7152 25.6796 18.4407 25.6408 18.4871C25.6136 19.2409 25.5553 19.9987 25.4854 20.7487C25.3533 22.1404 25.1786 23.5322 25.0194 24.924C25.031 25.0245 25.4466 25.3725 25.5436 25.4846C26.0214 26.0374 26.5224 26.8918 26.7243 27.5954C26.8953 28.1947 27.0856 29.0374 26.2428 29.1612H18.8283C18.5914 29.1959 18.1913 28.8596 18.1913 28.6393V25.5657C16.5795 26.1302 14.8318 26.1457 13.2237 25.5657V28.6006L13.2199 28.6044ZM6.43073 5.65959C6.656 5.16475 6.93176 4.68923 7.23859 4.24077C7.30851 4.14025 7.61533 3.79617 7.59203 3.71498C7.56873 3.6338 6.98614 3.27039 6.87738 3.18534C6.4851 2.86832 6.09282 2.50879 5.79376 2.09899C5.4947 1.68919 5.40925 1.39923 5.30826 1.31032C4.89657 0.950777 4.70625 2.03327 4.68684 2.27682C4.5742 3.69952 5.16456 4.97917 6.43073 5.65959ZM24.9766 5.65959C26.235 4.95598 26.8409 3.71111 26.7205 2.27682C26.705 2.06805 26.4991 1.00877 26.1574 1.29098C25.8155 1.57321 25.7029 2.04873 25.5165 2.27682C25.031 2.85287 24.3669 3.29359 23.7725 3.74591C24.262 4.31809 24.6659 4.97145 24.9766 5.65959ZM25.5203 27.9666C25.3067 27.2862 24.9028 26.5903 24.4134 26.0722C24.1843 25.8287 23.8153 25.6392 23.7725 25.2797C23.7492 25.1019 23.7959 24.8119 23.8114 24.6225C23.8619 24.0387 23.9784 23.4588 24.0406 22.8789C24.2153 21.232 24.3124 19.5811 24.4717 17.9342C24.5105 17.5167 24.4989 16.8788 25.0427 16.8015C25.4077 16.7474 26.1301 17.304 26.4097 17.5477C27.0429 18.0965 27.5827 18.7964 28.0061 19.5115C28.4294 20.2268 28.6974 20.9961 29.0742 21.232C29.416 21.4485 29.8743 21.402 29.9364 20.9458C30.049 20.1185 29.5053 18.5914 29.1829 17.7989C28.5421 16.2255 27.5439 14.6443 26.3127 13.4651C25.9049 13.0747 25.2913 12.6997 24.9339 12.3285C24.7708 12.1545 24.7202 11.9844 24.7008 11.7485C24.5805 10.2524 24.8329 9.08103 24.4212 7.54235C23.1667 2.85287 18.4554 0.788404 13.8685 1.49202C9.93017 2.09512 6.86961 5.35804 6.65988 9.34778C6.61716 10.1596 6.72979 11.0643 6.65988 11.8607C6.63658 12.1352 6.53559 12.2241 6.34917 12.4019C6.16273 12.5798 5.78988 12.831 5.53353 13.0591C3.69642 14.6944 2.29044 16.9948 1.67289 19.3801C1.52918 19.9291 1.07476 21.7307 2.24382 21.3015C2.61668 21.1662 3.12548 20.0064 3.35464 19.6237C3.88674 18.7345 4.5004 17.8955 5.34322 17.277C5.7355 16.9871 6.32974 16.527 6.73756 17.0412C6.8735 17.2126 6.85019 17.4008 6.8735 17.5862C7.04439 18.9703 7.10654 20.4355 7.24247 21.8351C7.37842 23.2345 7.54154 23.8222 7.59203 24.7732C7.5998 24.9279 7.61145 25.1637 7.59203 25.3144C7.55707 25.6238 7.08712 25.9407 6.8735 26.1843C6.42296 26.6947 6.06952 27.3248 5.84425 27.9627H11.9731V24.58C11.9731 24.4021 12.2256 24.1238 12.4003 24.0773C12.7849 23.9769 13.0024 24.201 13.3209 24.3209C14.8783 24.8969 16.2727 24.9742 17.8534 24.4098C18.2224 24.2784 18.7351 23.9111 19.1119 24.1238C19.2051 24.1779 19.4264 24.4447 19.4264 24.5451V27.9666H25.5203Z" fill="black"/><path d="M13.4175 11.11C13.8059 11.1458 13.8836 11.4617 14.0661 11.7014C14.9011 12.7762 16.412 12.9192 17.3053 11.8367C17.5578 11.5352 17.7714 10.8703 18.3074 11.1834C19.0415 11.6125 18.02 12.7375 17.5928 13.0507C16.1169 14.1254 13.8098 13.6693 12.9864 12.003C12.7056 11.4347 12.9864 11.1264 13.3942 11.11H13.4175Z" fill="black"/><path d="M10.8812 7.1789C12.9202 6.90055 13.1844 9.81167 11.3317 10.0243C9.38195 10.2485 9.11785 7.4186 10.8812 7.1789Z" fill="black"/><path d="M20.0012 7.17797C22.2928 6.84937 22.2267 10.3635 20.009 10.0118C18.4515 9.76434 18.4826 7.39448 20.0012 7.17797Z" fill="black"/></mask><g mask="url(#mask2_1589_438)"><path d="M10.8812 7.1789C12.9202 6.90055 13.1844 9.81167 11.3317 10.0243C9.38195 10.2485 9.11785 7.4186 10.8812 7.1789Z" stroke="#24A2FF" stroke-width="0.4"/></g><mask id="mask3_1589_438" style="mask-type:luminance" maskUnits="userSpaceOnUse" x="-1" y="-1" width="34" height="32"><path d="M32.1801 -0.828125H-0.826172V30.2064H32.1801V-0.828125Z" fill="white"/><path d="M13.2199 28.6044C13.1888 28.7978 12.9907 29.049 12.8004 29.1147C10.2797 29.2308 7.73185 29.1302 5.20339 29.165C3.93723 29.0529 4.86549 27.0541 5.21894 26.4318C5.57237 25.8093 5.94912 25.4072 6.38023 24.9279C6.15885 22.933 5.94135 20.9382 5.77045 18.9393C5.7122 18.258 5.80153 18.4948 5.7122 18.4948C5.62286 18.4948 4.78005 19.5811 4.67518 19.7435C3.86343 20.9498 3.37017 22.9678 1.47092 22.4884C-0.428333 22.009 0.270778 19.902 0.647522 18.6687C1.3544 16.353 2.68659 14.0063 4.48875 12.3672C4.73344 12.1468 5.19563 11.8569 5.38594 11.6365C5.57626 11.4161 5.47527 11.5204 5.49081 11.4316C5.60344 10.8091 5.46363 9.80011 5.49858 9.11969C5.54131 8.26143 5.76269 7.41864 6.03845 6.61063C4.44991 5.74852 3.54883 4.08226 3.67312 2.27682C3.72361 1.53455 4.11978 0.30515 5.01308 0.24716C5.9064 0.18917 6.17439 0.908251 6.68707 1.55774C7.19975 2.20723 7.70855 2.54744 8.31444 2.91472C8.93199 2.44307 9.52624 1.94048 10.2098 1.55388C13.348 -0.22836 18.1136 -0.255422 21.2442 1.55388C21.9238 1.94821 22.4909 2.4276 23.1007 2.91472C23.6366 2.58223 24.1804 2.17244 24.596 1.69692C25.198 1.0049 25.3184 0.15051 26.4409 0.243295C27.0972 0.301285 27.4196 0.885055 27.5944 1.45337C28.2081 3.4289 27.1905 5.67893 25.3689 6.60678C25.5126 6.94699 25.6213 7.30652 25.7029 7.66607C25.9904 8.93798 25.9476 10.2486 25.9592 11.5437C27.9129 12.9973 29.3615 15.0077 30.2782 17.2538C30.8064 18.5528 32.0027 21.7152 30.1539 22.4227C29.0898 22.8325 28.2391 22.3029 27.6915 21.4136C27.1284 20.4974 26.736 19.5657 25.9709 18.7577C25.9321 18.7152 25.6796 18.4407 25.6408 18.4871C25.6136 19.2409 25.5553 19.9987 25.4854 20.7487C25.3533 22.1404 25.1786 23.5322 25.0194 24.924C25.031 25.0245 25.4466 25.3725 25.5436 25.4846C26.0214 26.0374 26.5224 26.8918 26.7243 27.5954C26.8953 28.1947 27.0856 29.0374 26.2428 29.1612H18.8283C18.5914 29.1959 18.1913 28.8596 18.1913 28.6393V25.5657C16.5795 26.1302 14.8318 26.1457 13.2237 25.5657V28.6006L13.2199 28.6044ZM6.43073 5.65959C6.656 5.16475 6.93176 4.68923 7.23859 4.24077C7.30851 4.14025 7.61533 3.79617 7.59203 3.71498C7.56873 3.6338 6.98614 3.27039 6.87738 3.18534C6.4851 2.86832 6.09282 2.50879 5.79376 2.09899C5.4947 1.68919 5.40925 1.39923 5.30826 1.31032C4.89657 0.950777 4.70625 2.03327 4.68684 2.27682C4.5742 3.69952 5.16456 4.97917 6.43073 5.65959ZM24.9766 5.65959C26.235 4.95598 26.8409 3.71111 26.7205 2.27682C26.705 2.06805 26.4991 1.00877 26.1574 1.29098C25.8155 1.57321 25.7029 2.04873 25.5165 2.27682C25.031 2.85287 24.3669 3.29359 23.7725 3.74591C24.262 4.31809 24.6659 4.97145 24.9766 5.65959ZM25.5203 27.9666C25.3067 27.2862 24.9028 26.5903 24.4134 26.0722C24.1843 25.8287 23.8153 25.6392 23.7725 25.2797C23.7492 25.1019 23.7959 24.8119 23.8114 24.6225C23.8619 24.0387 23.9784 23.4588 24.0406 22.8789C24.2153 21.232 24.3124 19.5811 24.4717 17.9342C24.5105 17.5167 24.4989 16.8788 25.0427 16.8015C25.4077 16.7474 26.1301 17.304 26.4097 17.5477C27.0429 18.0965 27.5827 18.7964 28.0061 19.5115C28.4294 20.2268 28.6974 20.9961 29.0742 21.232C29.416 21.4485 29.8743 21.402 29.9364 20.9458C30.049 20.1185 29.5053 18.5914 29.1829 17.7989C28.5421 16.2255 27.5439 14.6443 26.3127 13.4651C25.9049 13.0747 25.2913 12.6997 24.9339 12.3285C24.7708 12.1545 24.7202 11.9844 24.7008 11.7485C24.5805 10.2524 24.8329 9.08103 24.4212 7.54235C23.1667 2.85287 18.4554 0.788404 13.8685 1.49202C9.93017 2.09512 6.86961 5.35804 6.65988 9.34778C6.61716 10.1596 6.72979 11.0643 6.65988 11.8607C6.63658 12.1352 6.53559 12.2241 6.34917 12.4019C6.16273 12.5798 5.78988 12.831 5.53353 13.0591C3.69642 14.6944 2.29044 16.9948 1.67289 19.3801C1.52918 19.9291 1.07476 21.7307 2.24382 21.3015C2.61668 21.1662 3.12548 20.0064 3.35464 19.6237C3.88674 18.7345 4.5004 17.8955 5.34322 17.277C5.7355 16.9871 6.32974 16.527 6.73756 17.0412C6.8735 17.2126 6.85019 17.4008 6.8735 17.5862C7.04439 18.9703 7.10654 20.4355 7.24247 21.8351C7.37842 23.2345 7.54154 23.8222 7.59203 24.7732C7.5998 24.9279 7.61145 25.1637 7.59203 25.3144C7.55707 25.6238 7.08712 25.9407 6.8735 26.1843C6.42296 26.6947 6.06952 27.3248 5.84425 27.9627H11.9731V24.58C11.9731 24.4021 12.2256 24.1238 12.4003 24.0773C12.7849 23.9769 13.0024 24.201 13.3209 24.3209C14.8783 24.8969 16.2727 24.9742 17.8534 24.4098C18.2224 24.2784 18.7351 23.9111 19.1119 24.1238C19.2051 24.1779 19.4264 24.4447 19.4264 24.5451V27.9666H25.5203Z" fill="black"/><path d="M13.4175 11.11C13.8059 11.1458 13.8836 11.4617 14.0661 11.7014C14.9011 12.7762 16.412 12.9192 17.3053 11.8367C17.5578 11.5352 17.7714 10.8703 18.3074 11.1834C19.0415 11.6125 18.02 12.7375 17.5928 13.0507C16.1169 14.1254 13.8098 13.6693 12.9864 12.003C12.7056 11.4347 12.9864 11.1264 13.3942 11.11H13.4175Z" fill="black"/><path d="M10.8812 7.1789C12.9202 6.90055 13.1844 9.81167 11.3317 10.0243C9.38195 10.2485 9.11785 7.4186 10.8812 7.1789Z" fill="black"/><path d="M20.0012 7.17797C22.2928 6.84937 22.2267 10.3635 20.009 10.0118C18.4515 9.76434 18.4826 7.39448 20.0012 7.17797Z" fill="black"/></mask><g mask="url(#mask3_1589_438)"><path d="M20.0012 7.17797C22.2928 6.84937 22.2267 10.3635 20.009 10.0118C18.4515 9.76434 18.4826 7.39448 20.0012 7.17797Z" stroke="#24A2FF" stroke-width="0.4"/></g><path d="M37.793 22.9654L43.1029 6.57915H46.518L51.8279 22.9654H49.3658L44.4757 8.01294H45.0884L40.255 22.9654H37.793ZM40.55 19.2671V17.0367H49.0822V19.2671H40.55ZM59.1619 23.3067C57.9895 23.3067 57.0061 23.0223 56.2119 22.4533C55.4177 21.8768 54.8164 21.0992 54.4079 20.1205C53.9995 19.1419 53.7952 18.0381 53.7952 16.8092C53.7952 15.5802 53.9958 14.4764 54.3966 13.4978C54.805 12.5191 55.4026 11.7492 56.1892 11.1878C56.9834 10.6188 57.9592 10.3343 59.1165 10.3343C60.2662 10.3343 61.2571 10.6188 62.0891 11.1878C62.9287 11.7492 63.5754 12.5191 64.0293 13.4978C64.4831 14.4688 64.71 15.5726 64.71 16.8092C64.71 18.0381 64.4831 19.1457 64.0293 20.1319C63.5831 21.1105 62.9439 21.8843 62.1118 22.4533C61.2874 23.0223 60.3041 23.3067 59.1619 23.3067ZM53.3981 28.4274V10.6757H55.5085V19.5174H55.7808V28.4274H53.3981ZM58.8328 21.156C59.5893 21.156 60.2133 20.9626 60.7049 20.5757C61.2041 20.1888 61.5748 19.6692 61.8168 19.0167C62.0664 18.3567 62.1912 17.6209 62.1912 16.8092C62.1912 16.005 62.0664 15.2768 61.8168 14.6243C61.5748 13.9719 61.2004 13.4523 60.6936 13.0654C60.1868 12.6785 59.5401 12.485 58.7534 12.485C58.0122 12.485 57.3995 12.6671 56.9154 13.0312C56.4388 13.3954 56.0834 13.9036 55.8489 14.556C55.6219 15.2085 55.5085 15.9595 55.5085 16.8092C55.5085 17.6588 55.6219 18.4098 55.8489 19.0623C56.0758 19.7147 56.4351 20.2268 56.9267 20.5985C57.4184 20.9702 58.0538 21.156 58.8328 21.156ZM66.9883 8.66156V6.35156H69.3596V8.66156H66.9883ZM66.9883 22.9654V10.6757H69.3596V22.9654H66.9883ZM76.4018 22.9654V6.57915H78.5463L84.4687 18.9029L90.3573 6.57915H92.5244V22.954H90.2779V11.7454L85.0021 22.9654H83.9242L78.6369 11.7454V22.9654H76.4018ZM100.571 23.3067C99.3452 23.3067 98.2825 23.0298 97.3823 22.476C96.4823 21.9223 95.7864 21.1599 95.2947 20.1888C94.8106 19.2102 94.5685 18.0836 94.5685 16.8092C94.5685 15.5271 94.8181 14.4006 95.3174 13.4295C95.8166 12.4509 96.5163 11.6923 97.4164 11.1536C98.3165 10.6074 99.3679 10.3343 100.571 10.3343C101.796 10.3343 102.859 10.6113 103.759 11.165C104.659 11.7188 105.355 12.4812 105.847 13.4523C106.338 14.4233 106.584 15.5422 106.584 16.8092C106.584 18.0912 106.335 19.2216 105.835 20.2002C105.343 21.1713 104.647 21.9337 103.748 22.4874C102.847 23.0336 101.788 23.3067 100.571 23.3067ZM100.571 21.065C101.743 21.065 102.617 20.6706 103.192 19.8816C103.774 19.085 104.065 18.0609 104.065 16.8092C104.065 15.5271 103.77 14.503 103.18 13.7367C102.598 12.9629 101.728 12.576 100.571 12.576C99.7763 12.576 99.1221 12.7581 98.6077 13.1223C98.0934 13.4788 97.7114 13.9757 97.4617 14.6129C97.2121 15.2426 97.0873 15.9746 97.0873 16.8092C97.0873 18.0988 97.3823 19.1305 97.9723 19.9043C98.5623 20.6781 99.4284 21.065 100.571 21.065ZM117.224 22.9654V16.9229C117.224 16.445 117.182 15.9557 117.099 15.455C117.024 14.9468 116.872 14.4764 116.645 14.044C116.425 13.6116 116.112 13.2626 115.703 12.9971C115.302 12.7315 114.777 12.5988 114.126 12.5988C113.702 12.5988 113.302 12.6709 112.924 12.815C112.545 12.9516 112.213 13.1753 111.925 13.4864C111.646 13.7975 111.422 14.2071 111.256 14.7154C111.097 15.2236 111.017 15.8419 111.017 16.5702L109.542 16.0126C109.542 14.8974 109.751 13.915 110.166 13.0654C110.582 12.2081 111.18 11.5405 111.959 11.0626C112.738 10.5847 113.68 10.3457 114.784 10.3457C115.631 10.3457 116.343 10.4823 116.917 10.7554C117.492 11.0285 117.957 11.3888 118.313 11.8364C118.676 12.2764 118.952 12.7581 119.141 13.2816C119.33 13.805 119.459 14.3171 119.527 14.8178C119.595 15.3185 119.629 15.7584 119.629 16.1378V22.9654H117.224ZM108.612 22.9654V10.6757H110.734V14.226H111.017V22.9654H108.612ZM126.816 23.2954C125.326 23.2954 124.112 22.9654 123.174 22.3054C122.236 21.6454 121.661 20.7161 121.449 19.5174L123.878 19.1419C124.029 19.7792 124.377 20.2837 124.921 20.6554C125.473 21.0195 126.158 21.2016 126.975 21.2016C127.717 21.2016 128.295 21.0498 128.711 20.7464C129.135 20.443 129.346 20.0257 129.346 19.4947C129.346 19.1836 129.271 18.9333 129.119 18.7436C128.976 18.5464 128.67 18.3606 128.2 18.186C127.731 18.0115 127.016 17.7953 126.056 17.5374C125.005 17.2643 124.168 16.9723 123.548 16.6612C122.936 16.3426 122.497 15.9746 122.232 15.5574C121.976 15.1326 121.847 14.6205 121.847 14.0212C121.847 13.2777 122.044 12.6291 122.437 12.0754C122.83 11.5216 123.382 11.0929 124.093 10.7895C124.812 10.4861 125.652 10.3343 126.612 10.3343C127.549 10.3343 128.386 10.4823 129.119 10.7781C129.853 11.074 130.447 11.495 130.901 12.0412C131.354 12.5799 131.627 13.2133 131.718 13.9416L129.289 14.3854C129.206 13.7936 128.931 13.3271 128.461 12.9857C127.992 12.6443 127.383 12.4584 126.635 12.4281C125.916 12.3978 125.334 12.5191 124.887 12.7923C124.441 13.0578 124.218 13.4257 124.218 13.896C124.218 14.1691 124.301 14.4006 124.467 14.5902C124.642 14.7798 124.974 14.9619 125.466 15.1364C125.958 15.3109 126.684 15.5195 127.644 15.7623C128.673 16.0278 129.49 16.3237 130.095 16.6498C130.701 16.9685 131.132 17.3515 131.388 17.7991C131.654 18.2391 131.786 18.7739 131.786 19.4036C131.786 20.6174 131.343 21.5695 130.458 22.2598C129.58 22.9501 128.366 23.2954 126.816 23.2954ZM140.854 22.9654C140.083 23.1171 139.326 23.1816 138.585 23.1588C137.843 23.136 137.182 22.9919 136.599 22.7264C136.017 22.4608 135.578 22.0436 135.283 21.4747C135.018 20.9664 134.875 20.4505 134.852 19.9271C134.837 19.3961 134.829 18.7967 134.829 18.1291V7.26191H137.212V18.0154C137.212 18.5085 137.216 18.9371 137.223 19.3012C137.239 19.6654 137.318 19.9726 137.462 20.2229C137.734 20.6933 138.165 20.9626 138.755 21.0309C139.352 21.0916 140.053 21.065 140.854 20.9512V22.9654ZM132.481 12.5874V10.6757H140.854V12.5874H132.481ZM147.865 23.3067C146.647 23.3067 145.576 23.0412 144.654 22.5102C143.738 21.9715 143.023 21.2243 142.51 20.2685C142.002 19.305 141.749 18.1899 141.749 16.9229C141.749 15.5802 141.999 14.4157 142.498 13.4295C143.005 12.4433 143.708 11.6809 144.609 11.1423C145.508 10.6036 146.556 10.3343 147.751 10.3343C148.999 10.3343 150.062 10.6264 150.94 11.2105C151.816 11.787 152.471 12.6102 152.902 13.6798C153.341 14.7495 153.515 16.0202 153.424 17.4919H151.053V16.6271C151.038 15.2008 150.765 14.1464 150.236 13.4636C149.714 12.7809 148.916 12.4395 147.842 12.4395C146.654 12.4395 145.762 12.815 145.165 13.566C144.566 14.3171 144.268 15.4019 144.268 16.8205C144.268 18.1708 144.566 19.2177 145.165 19.9612C145.762 20.697 146.624 21.065 147.751 21.065C148.492 21.065 149.131 20.8982 149.669 20.5643C150.213 20.2229 150.636 19.7375 150.94 19.1078L153.265 19.8474C152.789 20.9474 152.066 21.8008 151.098 22.4078C150.13 23.007 149.052 23.3067 147.865 23.3067ZM143.497 17.4919V15.6371H152.244V17.4919H143.497ZM155.516 22.9654V10.6757H157.626V13.6571L157.331 13.2702C157.482 12.8757 157.679 12.5153 157.921 12.1891C158.163 11.8553 158.443 11.5822 158.761 11.3698C159.07 11.1423 159.415 10.9677 159.794 10.8464C160.179 10.7174 160.572 10.6416 160.973 10.6188C161.374 10.5885 161.759 10.6074 162.131 10.6757V12.906C161.73 12.7998 161.283 12.7695 160.792 12.815C160.307 12.8605 159.862 13.016 159.453 13.2816C159.067 13.5319 158.761 13.8353 158.534 14.1919C158.314 14.5485 158.156 14.9468 158.058 15.3867C157.959 15.8191 157.91 16.2781 157.91 16.7636V22.9654H155.516Z" fill="#212529"/></g><defs><clipPath id="clip0_1589_438"><rect width="164" height="30" fill="white"/></clipPath></defs></svg>
