<svg width="106" height="24" viewBox="0 0 106 24" fill="none" xmlns="http://www.w3.org/2000/svg"><mask id="mask0_1589_414" style="mask-type:luminance" maskUnits="userSpaceOnUse" x="0" y="0" width="106" height="24"><path d="M105.6 0H0V24H105.6V0Z" fill="white"/></mask><g mask="url(#mask0_1589_414)"><path fill-rule="evenodd" clip-rule="evenodd" d="M21.6697 23.5789H26.3207V0H21.6697V23.5789ZM13.1257 15.6844C13.1257 14.5536 12.7213 13.4593 11.9124 12.6569C11.1402 11.8544 10.1107 11.4168 9.00766 11.4168C7.9046 11.4168 6.87509 11.8544 6.06618 12.6569C5.29405 13.4593 4.85282 14.5536 4.85282 15.6844C4.85282 16.8151 5.29405 17.8729 6.06618 18.7118C6.87509 19.5143 7.9046 19.952 9.00766 19.952C10.1107 19.952 11.1402 19.5143 11.9124 18.7118C12.7213 17.8729 13.1257 16.8151 13.1257 15.6844ZM17.7586 7.84272V23.5625H13.8611V22.0304C12.3904 23.2706 10.4784 24.0001 8.41937 24.0001C3.75038 24.0001 0 20.2802 0 15.6844C0 11.052 3.75038 7.3686 8.41937 7.3686C10.4784 7.3686 12.3904 8.09808 13.8611 9.33828L14.2288 7.84272H17.7586ZM43.3144 12.586C44.0845 13.4269 44.5246 14.488 44.5246 15.6221C44.5246 16.7563 44.0845 17.854 43.3144 18.6589C42.5443 19.4638 41.5175 19.9028 40.4173 19.9028C39.3172 19.9028 38.2537 19.4638 37.4836 18.6589C36.7141 17.854 36.2735 16.7563 36.2735 15.6221C36.2735 14.488 36.7141 13.4269 37.4836 12.586C38.2537 11.7805 39.3172 11.3414 40.4173 11.3414C41.5175 11.3414 42.5443 11.7805 43.3144 12.586ZM41.0041 7.24428C38.7311 7.24428 36.6408 8.15892 35.1372 9.62244V0H30.4433V23.5615H35.1372V21.6224C36.6408 23.086 38.7311 24 41.0041 24C45.6247 24 49.3645 20.2687 49.3645 15.6221C49.3645 11.0122 45.6247 7.24428 41.0041 7.24428ZM64.6044 15.6844C64.6044 14.5536 64.2 13.4593 63.3911 12.6569C62.6189 11.8544 61.5894 11.4168 60.4864 11.4168C59.3833 11.4168 58.3537 11.8544 57.5448 12.6569C56.7727 13.4593 56.3315 14.5536 56.3315 15.6844C56.3315 16.8151 56.7727 17.8729 57.5448 18.7118C58.3537 19.5143 59.3833 19.952 60.4864 19.952C61.5894 19.952 62.6189 19.5143 63.3911 18.7118C64.2 17.8729 64.6044 16.8151 64.6044 15.6844ZM69.2372 7.84272V23.5625H65.3398V22.0304C63.869 23.2706 61.9571 24.0001 59.898 24.0001C55.2284 24.0001 51.4787 20.2802 51.4787 15.6844C51.4787 11.052 55.2284 7.3686 59.898 7.3686C61.9571 7.3686 63.869 8.09808 65.3398 9.33828L65.7074 7.84272H69.2372ZM86.2555 12.0761V7.78968H72.1967V12.0761H76.7161V23.579H81.3698V12.0761H86.2555ZM100.965 15.6479C100.965 14.5171 100.56 13.4593 99.7876 12.6569C98.9782 11.818 97.9855 11.3803 96.8444 11.3803C95.7782 11.3803 94.7114 11.818 93.9756 12.6569C93.1295 13.4593 92.7248 14.5536 92.7248 15.6844C92.7248 16.8516 93.1295 17.9094 93.9756 18.7483C94.7114 19.5508 95.7782 19.9885 96.8444 19.9885C97.9855 19.9885 98.9782 19.5508 99.7876 18.7483C100.56 17.9094 100.965 16.8151 100.965 15.6479ZM105.6 15.6844C105.6 20.3167 101.7 24.0001 96.8083 24.0001C91.9523 24.0001 88.0527 20.3167 88.0527 15.6844C88.0527 11.0885 91.9523 7.3686 96.8083 7.3686C101.7 7.3686 105.6 11.0885 105.6 15.6844ZM86.2555 4.3158H72.1967V0H86.2555V4.3158Z" fill="#FF592C"/></g></svg>
