<svg width="134" height="24" viewBox="0 0 134 24" fill="none" xmlns="http://www.w3.org/2000/svg"><g clip-path="url(#clip0_1589_430)"><path d="M3.26754 15.201V9.72148H4.58761C5.76956 9.72148 6.74261 9.85862 7.43666 10.2769C8.13071 10.6918 8.54989 11.3878 8.54989 12.4952C8.54989 14.3672 7.43666 15.201 4.7972 15.201H3.26754ZM0.0687179 17.8342H4.72505C9.93868 17.8342 11.8174 15.5439 11.8174 12.3546C11.8174 10.2042 10.9138 8.74776 9.31609 7.91394C8.06543 7.22136 6.46705 7.01222 4.51889 7.01222H3.26823V2.84994H10.2885L11.1234 0.28125H0V17.8314H0.0687179V17.8342ZM13.9724 17.8342H17.0304L20.9926 12.1455C21.7589 11.1059 22.3127 10.0643 22.6625 9.50891H22.7312C22.6625 10.2735 22.5938 11.2438 22.5938 12.214V17.7628H25.7211V5.28079H22.6632L18.7009 10.9695C18.0069 12.009 17.3808 13.0506 17.0311 13.606H16.9623C17.0311 12.8422 17.0998 11.8712 17.0998 10.9009V5.35211H13.9724V17.841V17.8355V17.8342ZM31.0749 17.8342H34.2738V7.91462H38.0265L38.8614 5.27874H27.2508V7.91531H31.0749V17.8355V17.8342ZM43.102 24.1468V17.8342C43.7273 18.0433 44.3526 18.1119 45.0467 18.1119C49.0096 18.1119 51.5831 15.4067 51.5831 11.5215C51.5831 7.63622 49.2192 4.93108 44.7003 4.93108C42.9618 4.93108 41.2947 5.27736 39.9031 5.69496L39.9719 24.1475L43.102 24.1468ZM43.102 15.129V7.77748C43.5899 7.64034 44.0056 7.56834 44.5622 7.56834C46.8574 7.56834 48.3149 8.81633 48.3149 11.5222C48.3149 13.9496 47.133 15.476 44.7691 15.476C44.1437 15.476 43.6558 15.3388 43.0992 15.129H43.102ZM53.4591 17.8342H56.5178L60.48 12.1455C61.2463 11.1059 61.7994 10.0643 62.1499 9.50891H62.2186C62.1499 10.2735 62.0812 11.2438 62.0812 12.214V17.7628H65.2078V5.28079H62.1499L58.1876 10.9695C57.4936 12.009 56.8682 13.0506 56.5178 13.606H56.4491C56.5178 12.8422 56.5865 11.8712 56.5865 10.9009V5.35211H53.4598V17.841V17.8355L53.4591 17.8342ZM67.7126 17.8342H70.9121V12.6323H72.7881C73.1358 12.6323 73.4828 12.9786 73.9013 13.8118L75.4997 17.8342H78.9054L76.6102 13.0479C76.1938 12.214 75.7753 11.7306 75.1493 11.5215V11.4529C76.191 10.8289 76.3319 9.02548 76.9572 8.12308C77.1668 7.84536 77.4451 7.70754 77.8609 7.70754C78.0705 7.70754 78.3488 7.70754 78.5549 7.84468V5.14091C78.2079 5.00376 77.5826 4.93245 77.2355 4.93245C76.1223 4.93245 75.4276 5.34731 74.9404 6.04331C73.8986 7.56902 73.8986 10.2056 72.3669 10.2056H70.9059V5.28079H67.7071V17.8376L67.7126 17.8342ZM85.995 18.1119C87.7336 18.1119 89.3313 17.5564 90.3043 16.8639L89.4 14.7135C88.4964 15.2003 87.6614 15.5466 86.4795 15.5466C84.3252 15.5466 82.9336 14.158 82.9336 11.5928C82.9336 9.30251 84.3252 7.49908 86.6863 7.49908C87.937 7.49908 88.8406 7.84536 89.7443 8.46936V5.76559C89.0502 5.35005 87.937 4.93245 86.3393 4.93245C82.5859 4.93245 79.6654 7.70616 79.6654 11.66C79.6654 15.2668 81.8891 18.1105 85.9916 18.1105L85.995 18.1132V18.1119Z" fill="#0BBBEF"/><path d="M127.185 13.5991C123.432 13.5991 120.443 10.6155 120.371 6.79954C120.371 3.05417 123.43 0 127.185 0C130.941 0 133.999 3.05143 133.999 6.79954C133.999 10.547 130.941 13.5991 127.185 13.5991ZM127.185 1.6608C124.353 1.6608 122.035 3.97371 122.035 6.79954C122.099 9.69051 124.353 11.9383 127.185 11.9383C130.017 11.9383 132.335 9.62469 132.335 6.79954C132.335 3.97371 130.017 1.6608 127.185 1.6608Z" fill="#005893"/><path d="M126.322 3.31641H127.651V7.78795H126.322V3.31641Z" fill="#005893"/><path d="M130.808 6.46561V7.79109H126.326V6.46561H130.808ZM92.1152 17.8375H104.352V15.1324H96.2871C97.4003 10.6917 104.212 9.72138 104.212 4.79658C104.212 2.16001 102.404 0.21875 98.5795 0.21875C96.2149 0.21875 94.1294 0.911322 92.7406 1.60732L93.5755 4.10332C94.8268 3.47932 96.2871 2.92389 98.0944 2.92389C99.4859 2.92389 100.806 3.54789 100.806 5.14286C100.806 8.75041 92.8093 9.02812 92.1152 17.8375ZM112.552 13.5374V17.8375H115.679V13.5374H118.322V10.9008H115.679V0.21875H113.383L104.693 11.4562V13.5374H112.552ZM108.243 11.0414L112.692 5.07429C112.692 5.56115 112.555 7.08686 112.555 8.47269V10.9687H110.468C109.843 10.9687 108.661 11.0379 108.245 11.0379L108.243 11.0414Z" fill="#005893"/></g><defs><clipPath id="clip0_1589_430"><rect width="134" height="24" fill="white"/></clipPath></defs></svg>
