<svg width="1920" height="1020" viewBox="0 0 1920 1020" fill="none" xmlns="http://www.w3.org/2000/svg"><g clip-path="url(#clip0_1959_469)"><path d="M127.335 48.1484L127.197 48.2939L97.4111 79.5332L97.2637 79.6885H-18.6855V245.782H62.459L62.6045 246.021L85.8516 283.798L85.9258 283.918V400.804L127.029 438.304H212.785V180.664L212.964 180.515L258.005 142.736L258.145 142.62H434.358V0H435.358V591.594H527.647L558.587 562.091L561.49 252.815L561.493 252.588L561.667 252.439L624.869 198.679L625.01 198.56H717.373L770.714 180.538V0C770.714 -0.276102 770.938 -0.499934 771.214 -0.5C771.49 -0.5 771.714 -0.276142 771.714 0V181.256L771.374 181.371L717.615 199.533L717.537 199.56H625.378L562.487 253.053L559.585 562.312L559.583 562.523L559.43 562.67L528.191 592.456L528.047 592.594H435.358V929.415H650.317L674.094 884.021V754.829C674.094 754.553 674.318 754.329 674.594 754.329C674.87 754.329 675.094 754.553 675.094 754.829V884.269L675.036 884.377L651.062 930.146L650.923 930.415H264.652L264.505 930.262L224.549 888.852L224.408 888.706V808.785L194.906 777.124H108.422L108.272 776.923L85.0254 745.684L84.9258 745.55V636.637H168.037L212.785 591.887V439.304H126.642L126.498 439.173L85.0889 401.396L84.9258 401.246V284.201L61.8994 246.782H-18.6855V1020.5H-92.7588L-92.9033 1020.36L-121.235 993.482L-121.392 993.335V888.674L-148.017 854.133H-222.098V888.698L-222.228 888.841L-273.807 945.508L-273.955 945.671H-434C-434.276 945.671 -434.5 945.447 -434.5 945.171C-434.5 944.895 -434.276 944.671 -434 944.671H-274.397L-223.098 888.312V854.133H-245.64L-300.705 908.476L-300.851 908.62H-434C-434.276 908.62 -434.5 908.396 -434.5 908.12C-434.5 907.844 -434.276 907.62 -434 907.62H-301.262L-246.195 853.276L-246.05 853.133H-223.098V0C-223.098 -0.275985 -222.874 -0.499745 -222.598 -0.5C-222.322 -0.5 -222.098 -0.276142 -222.098 0V19.1152H-165.433V78.6885H-19.6855V-0.5H127.335V48.1484ZM-120.392 284.226V452.853L-120.585 453.002L-165.626 487.874L-165.762 487.979H-222.098V853.133H-147.524L-147.375 853.327L-120.495 888.199L-120.392 888.334V992.903L-92.3604 1019.5H-19.6855V246.782H-92.3096L-120.392 284.226ZM2079.59 -0.5C2079.86 -0.5 2080.09 -0.276142 2080.09 0V848.773H2118.33L2118.48 848.955L2167 907.62H2354.92C2355.2 907.62 2355.42 907.844 2355.42 908.12C2355.42 908.396 2355.19 908.62 2354.92 908.62H2166.53L2166.38 908.438L2117.85 849.773H2080.09V878.152L2130.67 938.859H2354.92C2355.2 938.859 2355.42 939.083 2355.42 939.359C2355.42 939.635 2355.19 939.859 2354.92 939.859H2130.21L2130.06 939.679L2079.2 878.653L2079.09 878.515V849.773H2010.04L1979.11 878.551V994.109L1978.89 994.258L1944.02 1018.23L1943.89 1018.32H1882.21L1882.21 1017.82L1883.67 240.243H1810.31L1774.97 285.684V394.697L1774.82 394.844L1731.96 436.98L1731.81 437.124H1652.92V591.884L1689.68 627.919H1774.97V739.756L1774.85 739.896L1746.52 773.314L1746.37 773.491H1652.66L1628.22 802.957V891.633L1628.06 891.782L1585.19 930.286L1585.05 930.415H1205.36L1205.21 930.173L1177.61 884.403L1177.54 884.284V754.829C1177.54 754.553 1177.76 754.329 1178.04 754.329C1178.31 754.329 1178.54 754.553 1178.54 754.829V884.005L1205.93 929.415H1417.27V592.594H1326.73L1326.58 592.419L1301.16 562.633L1301.03 562.486L1301.04 562.295L1309.02 239.913L1276.6 199.56H1122.67L1122.54 199.474L1081.86 171.867L1081.64 171.718V0C1081.64 -0.276142 1081.87 -0.5 1082.14 -0.5C1082.42 -0.499868 1082.64 -0.276061 1082.64 0V171.188L1122.98 198.56H1277.08L1277.23 198.747L1309.92 239.431L1310.03 239.573L1310.03 239.756L1302.04 562.128L1327.19 591.594H1417.27V0C1417.27 -0.276142 1417.5 -0.5 1417.77 -0.5C1418.05 -0.5 1418.27 -0.276142 1418.27 0V143.346H1595.91L1596.04 143.43L1652.7 181.208L1652.92 181.356V436.124H1731.4L1773.97 394.277V285.341L1774.08 285.206L1809.67 239.437L1809.82 239.243H1883.67V78.9619H1756.07L1755.92 78.7715L1731.22 47.5322L1731.11 47.3965V0C1731.11 -0.276061 1731.33 -0.499868 1731.61 -0.5C1731.88 -0.5 1732.11 -0.276142 1732.11 0V47.0479L1756.55 77.9619H1883.67V0H1884.67V77.9619H2026.78V17.6621H2079.09V0C2079.09 -0.276142 2079.31 -0.5 2079.59 -0.5ZM1883.21 1017.32H1943.58L1978.11 993.583V878.115L1978.27 877.968L2009.5 848.907L2009.65 848.773H2079.09V491.611H2018.36L2018.21 491.465L1978.25 451.508L1978.11 451.361V276.996L1942.8 240.243H1884.67L1883.21 1017.32ZM213.785 181.13V592.301L213.639 592.447L168.598 637.49L168.451 637.637H85.9258V745.218L108.925 776.124H195.341L195.489 776.283L225.274 808.249L225.408 808.393V888.302L265.077 929.415H434.358V706.654H337.308L337.162 706.512L307.377 677.452L307.227 677.305V621.673L307.372 621.526L337.305 591.594H434.358V143.62H258.508L213.785 181.13ZM1418.27 591.594H1518.96L1519.11 591.744L1554.71 628.069L1554.85 628.215V681.724L1554.62 681.872L1519.03 705.119L1518.9 705.201H1418.27V929.415H1584.67L1627.22 891.187V802.598L1627.34 802.459L1652.04 772.672L1652.19 772.491H1745.91L1773.97 739.388V628.919H1689.27L1689.12 628.775L1652.07 592.451L1651.92 592.304V181.891L1595.61 144.346H1418.27V591.594ZM991.354 754.329C991.63 754.34 991.845 754.574 991.834 754.85L986.758 880.307L1019.29 911.391C1019.49 911.581 1019.49 911.898 1019.3 912.098C1019.11 912.297 1018.79 912.304 1018.59 912.113L985.904 880.874L985.74 880.719L985.75 880.492L990.835 754.809C990.846 754.533 991.079 754.318 991.354 754.329ZM867.108 754.329C867.384 754.329 867.608 754.553 867.608 754.829V880.742L867.435 880.892L831.11 912.131C830.901 912.311 830.585 912.287 830.405 912.078C830.225 911.869 830.25 911.553 830.459 911.373L866.608 880.283V754.829C866.608 754.553 866.832 754.329 867.108 754.329ZM308.227 622.087V676.884L337.715 705.654H434.358V592.594H337.719L308.227 622.087ZM1418.27 704.201H1518.6L1553.85 681.182V628.621L1518.54 592.594H1418.27V704.201ZM1884.67 239.243H1943.22L1943.37 239.397L1978.97 276.448L1979.11 276.594V450.947L2018.77 490.611H2079.09V129.09H2026.78V78.9619H1884.67V239.243ZM-165.433 129.816H-222.098V486.979H-166.104L-121.392 452.362V283.894L-121.291 283.76L-92.959 245.982L-92.8086 245.782H-19.6855V79.6885H-165.433V129.816ZM-222.098 128.816H-166.433V20.1152H-222.098V128.816ZM2027.78 128.09H2079.09V18.6621H2027.78V128.09ZM-18.6855 78.6885H96.835L126.335 47.7471V0.5H-18.6855V78.6885Z" fill="#F8F8F8" fill-opacity="0.04"/></g><defs><clipPath id="clip0_1959_469"><rect width="1920" height="1020" fill="white"/></clipPath></defs></svg>
