<svg width="63" height="70" viewBox="0 0 63 70" fill="none" xmlns="http://www.w3.org/2000/svg"><path d="M17.8863 2.45954C17.8863 2.45954 16.8297 0 15.2161 0C13.628 0 12.802 0.728637 12.2513 1.23136C11.7006 1.73409 2.4861 9.25909 2.4861 9.25909C2.4861 9.25909 -0.19373 11.585 0.0111794 15.96C0.184072 20.335 1.04533 26.5618 5.51491 35.2355C9.95248 43.89 21.0592 57.1136 28.0773 61.7623C28.0773 61.7623 34.58 66.7195 40.6312 68.7336C42.389 69.2841 45.9044 70 46.7241 70C47.5565 70 49.0261 70 50.7134 68.775C52.4295 67.5373 62.0571 59.8436 62.0571 59.8436C62.0571 59.8436 64.4135 57.7277 61.6761 55.2682C58.9258 52.8086 50.5757 47.3391 48.7892 45.9009C46.9994 44.4405 44.4509 45.0832 43.3495 46.0727C42.2513 47.0686 40.2887 48.7073 40.0485 48.9141C39.6899 49.1877 38.707 50.0755 37.6056 49.6332C36.2033 49.0827 30.453 45.9805 25.1222 38.7323C19.8233 31.4905 19.2406 29.1232 18.4498 26.565C18.3157 26.1868 18.3138 25.7747 18.4446 25.3954C18.5753 25.0161 18.8309 24.6916 19.1702 24.4745C19.9642 23.9273 22.8874 21.5059 22.8874 21.5059C22.8874 21.5059 24.7796 19.6509 23.9888 17.465C23.1979 15.2791 17.8863 2.45954 17.8863 2.45954Z" fill="#C1C1C1"/></svg>
