<svg width="292" height="65" viewBox="0 0 292 65" fill="none" xmlns="http://www.w3.org/2000/svg">
<rect width="291.209" height="65.0005" rx="32.5002" fill="white" fill-opacity="0.14"/>
<path d="M20.2051 12C17.1115 14.2938 14.5744 17.3307 12.8013 20.8621C11.0282 24.3931 10.0696 28.3188 10.0036 32.3175C9.93774 36.3164 10.7665 40.275 12.4221 43.8697C14.0777 47.4644 16.5131 50.5931 19.5294 53M26.7165 18.2279C24.5509 19.8336 22.7749 21.9594 21.5338 24.4314C20.2927 26.9031 19.6214 29.6511 19.5754 32.4503C19.5292 35.2495 20.1093 38.0205 21.2681 40.5368C22.4272 43.053 24.1321 45.2431 26.2433 46.928M32.2072 26.5319C31.2791 27.2202 30.5178 28.131 29.9861 29.1906C29.4541 30.25 29.1664 31.4277 29.1468 32.6272C29.1269 33.8269 29.3756 35.0145 29.8721 36.0929C30.369 37.1712 31.0996 38.1099 32.0045 38.8319" stroke="white" stroke-linecap="round" stroke-linejoin="round"/>
<path d="M63.0039 53.0005C66.0975 50.7067 68.6346 47.6698 70.4077 44.1384C72.1807 40.6073 73.1394 36.6817 73.2053 32.683C73.2712 28.6841 72.4425 24.7255 70.7869 21.1308C69.1313 17.5361 66.6959 14.4074 63.6796 12.0005M56.4925 46.7726C58.6581 45.1669 60.4341 43.0411 61.6752 40.5691C62.9163 38.0973 63.5876 35.3494 63.6336 32.5502C63.6798 29.751 63.0996 26.98 61.9409 24.4637C60.7818 21.9475 59.0769 19.7574 56.9656 18.0725M51.0018 38.4686C51.9299 37.7803 52.6912 36.8695 53.2229 35.8099C53.7549 34.7505 54.0426 33.5728 54.0622 32.3733C54.0821 31.1735 53.8334 29.986 53.3368 28.9076C52.84 27.8292 52.1094 26.8906 51.2045 26.1685" stroke="white" stroke-linecap="round" stroke-linejoin="round"/>
<path d="M41.6064 29.584C43.6888 29.584 45.3768 31.272 45.377 33.3545C45.377 35.4371 43.6889 37.126 41.6064 37.126C39.5241 37.1259 37.8359 35.4371 37.8359 33.3545C37.8361 31.2721 39.5242 29.584 41.6064 29.584Z" stroke="white"/>
<path d="M95.457 39V27.428H91.365V25.8H93.477C94.0343 25.8 94.4817 25.7193 94.819 25.558C95.171 25.3967 95.4203 25.14 95.567 24.788C95.7283 24.436 95.809 23.9667 95.809 23.38H97.349V39H95.457ZM90.529 39V37.152H101.089V39H90.529ZM108.956 23.028C110.13 23.028 111.127 23.2993 111.948 23.842C112.784 24.37 113.415 25.1547 113.84 26.196C114.28 27.2227 114.5 28.484 114.5 29.98C114.5 31.2707 114.39 32.4807 114.17 33.61C113.965 34.7393 113.62 35.7367 113.136 36.602C112.667 37.4527 112.036 38.1273 111.244 38.626C110.467 39.11 109.499 39.352 108.34 39.352C107.416 39.352 106.632 39.198 105.986 38.89C105.341 38.582 104.813 38.1493 104.402 37.592C104.006 37.0347 103.706 36.3893 103.5 35.656L105.48 35.48C105.656 36.096 105.964 36.5873 106.404 36.954C106.844 37.3207 107.49 37.504 108.34 37.504C109.206 37.504 109.946 37.262 110.562 36.778C111.193 36.2793 111.677 35.5387 112.014 34.556C112.352 33.5733 112.535 32.3413 112.564 30.86L112.96 30.948C112.799 31.476 112.513 31.9673 112.102 32.422C111.706 32.862 111.208 33.2213 110.606 33.5C110.02 33.764 109.352 33.896 108.604 33.896C107.578 33.896 106.683 33.676 105.92 33.236C105.158 32.796 104.564 32.18 104.138 31.388C103.713 30.5813 103.5 29.6427 103.5 28.572C103.5 27.428 103.728 26.4453 104.182 25.624C104.652 24.788 105.297 24.15 106.118 23.71C106.94 23.2553 107.886 23.028 108.956 23.028ZM108.912 24.876C107.886 24.876 107.057 25.1987 106.426 25.844C105.796 26.4893 105.48 27.3987 105.48 28.572C105.48 29.6427 105.774 30.5007 106.36 31.146C106.962 31.7767 107.754 32.092 108.736 32.092C109.44 32.092 110.071 31.9527 110.628 31.674C111.186 31.3807 111.626 30.97 111.948 30.442C112.271 29.914 112.432 29.2907 112.432 28.572C112.432 27.8533 112.286 27.2153 111.992 26.658C111.714 26.1007 111.31 25.668 110.782 25.36C110.254 25.0373 109.631 24.876 108.912 24.876ZM116.692 39C116.692 37.9 116.86 36.91 117.198 36.03C117.55 35.1353 118.158 34.2847 119.024 33.478C119.904 32.6713 121.121 31.8573 122.676 31.036C123.394 30.6547 123.974 30.3027 124.414 29.98C124.854 29.6573 125.176 29.3127 125.382 28.946C125.587 28.5793 125.69 28.132 125.69 27.604C125.69 27.0613 125.572 26.592 125.338 26.196C125.103 25.7853 124.751 25.4627 124.282 25.228C123.827 24.9933 123.255 24.876 122.566 24.876C121.466 24.876 120.593 25.162 119.948 25.734C119.317 26.306 118.921 27.12 118.76 28.176L116.78 28.044C116.956 26.5187 117.542 25.3013 118.54 24.392C119.537 23.4827 120.879 23.028 122.566 23.028C123.636 23.028 124.553 23.2187 125.316 23.6C126.078 23.9813 126.658 24.5167 127.054 25.206C127.464 25.8807 127.67 26.6653 127.67 27.56C127.67 28.352 127.538 29.0413 127.274 29.628C127.01 30.2 126.562 30.7353 125.932 31.234C125.316 31.7327 124.465 32.268 123.38 32.84C122.441 33.3387 121.649 33.8447 121.004 34.358C120.373 34.8713 119.889 35.37 119.552 35.854C119.229 36.3233 119.053 36.756 119.024 37.152H127.692V39H116.692ZM134.019 39V36.316H136.747V39H134.019ZM148.223 39V27.428H144.131V25.8H146.243C146.8 25.8 147.247 25.7193 147.585 25.558C147.937 25.3967 148.186 25.14 148.333 24.788C148.494 24.436 148.575 23.9667 148.575 23.38H150.115V39H148.223ZM143.295 39V37.152H153.855V39H143.295ZM161.81 39.352C160.637 39.352 159.632 39.088 158.796 38.56C157.975 38.0173 157.344 37.2253 156.904 36.184C156.479 35.1427 156.266 33.8813 156.266 32.4C156.266 31.1093 156.369 29.8993 156.574 28.77C156.794 27.6407 157.139 26.6507 157.608 25.8C158.092 24.9347 158.723 24.26 159.5 23.776C160.292 23.2773 161.267 23.028 162.426 23.028C163.35 23.028 164.135 23.182 164.78 23.49C165.425 23.798 165.946 24.2307 166.342 24.788C166.753 25.3453 167.061 25.9907 167.266 26.724L165.286 26.9C165.11 26.284 164.802 25.7927 164.362 25.426C163.937 25.0593 163.291 24.876 162.426 24.876C161.561 24.876 160.82 25.1253 160.204 25.624C159.588 26.108 159.104 26.8413 158.752 27.824C158.415 28.8067 158.231 30.0387 158.202 31.52L157.806 31.432C157.967 30.904 158.246 30.42 158.642 29.98C159.053 29.5253 159.551 29.166 160.138 28.902C160.739 28.6233 161.414 28.484 162.162 28.484C163.189 28.484 164.083 28.704 164.846 29.144C165.609 29.584 166.203 30.2073 166.628 31.014C167.053 31.806 167.266 32.7373 167.266 33.808C167.266 34.952 167.031 35.942 166.562 36.778C166.107 37.5993 165.469 38.2373 164.648 38.692C163.841 39.132 162.895 39.352 161.81 39.352ZM161.854 37.504C162.881 37.504 163.709 37.1813 164.34 36.536C164.971 35.876 165.286 34.9667 165.286 33.808C165.286 32.7227 164.985 31.8647 164.384 31.234C163.797 30.6033 163.013 30.288 162.03 30.288C161.326 30.288 160.695 30.4347 160.138 30.728C159.581 31.0067 159.141 31.41 158.818 31.938C158.495 32.466 158.334 33.0893 158.334 33.808C158.334 34.5267 158.473 35.1647 158.752 35.722C159.045 36.2793 159.456 36.7193 159.984 37.042C160.512 37.35 161.135 37.504 161.854 37.504ZM174.957 39.352C173.931 39.352 172.999 39.176 172.163 38.824C171.327 38.472 170.667 37.9513 170.183 37.262C169.699 36.5727 169.457 35.722 169.457 34.71C169.457 33.5807 169.795 32.6493 170.469 31.916C171.144 31.168 172.039 30.662 173.153 30.398L173.197 30.838C172.303 30.5887 171.577 30.1853 171.019 29.628C170.477 29.056 170.205 28.286 170.205 27.318C170.205 26.4967 170.411 25.7633 170.821 25.118C171.232 24.4727 171.789 23.9667 172.493 23.6C173.212 23.2187 174.033 23.028 174.957 23.028C175.881 23.028 176.703 23.2187 177.421 23.6C178.14 23.9667 178.697 24.4727 179.093 25.118C179.504 25.7633 179.709 26.4967 179.709 27.318C179.709 28.286 179.438 29.056 178.895 29.628C178.353 30.1853 177.627 30.5887 176.717 30.838L176.761 30.398C177.891 30.662 178.785 31.168 179.445 31.916C180.12 32.6493 180.457 33.5807 180.457 34.71C180.457 35.722 180.215 36.5727 179.731 37.262C179.247 37.9513 178.587 38.472 177.751 38.824C176.93 39.176 175.999 39.352 174.957 39.352ZM174.957 37.504C175.984 37.504 176.827 37.2693 177.487 36.8C178.147 36.316 178.477 35.5827 178.477 34.6C178.477 33.6907 178.184 32.9647 177.597 32.422C177.011 31.8647 176.131 31.586 174.957 31.586C173.799 31.586 172.919 31.8647 172.317 32.422C171.731 32.9647 171.437 33.6907 171.437 34.6C171.437 35.5827 171.767 36.316 172.427 36.8C173.087 37.2693 173.931 37.504 174.957 37.504ZM174.957 29.826C175.793 29.826 176.461 29.6207 176.959 29.21C177.473 28.7847 177.729 28.154 177.729 27.318C177.729 26.57 177.48 25.976 176.981 25.536C176.497 25.096 175.823 24.876 174.957 24.876C174.107 24.876 173.432 25.096 172.933 25.536C172.435 25.976 172.185 26.57 172.185 27.318C172.185 28.154 172.435 28.7847 172.933 29.21C173.447 29.6207 174.121 29.826 174.957 29.826ZM186.785 39V36.316H189.513V39H186.785ZM200.988 39V27.428H196.896V25.8H199.008C199.566 25.8 200.013 25.7193 200.35 25.558C200.702 25.3967 200.952 25.14 201.098 24.788C201.26 24.436 201.34 23.9667 201.34 23.38H202.88V39H200.988ZM196.06 39V37.152H206.62V39H196.06ZM214.4 39.352C212.713 39.352 211.415 38.9487 210.506 38.142C209.596 37.3207 209.105 36.2647 209.032 34.974L210.99 34.842C211.078 35.7953 211.43 36.4773 212.046 36.888C212.676 37.2987 213.461 37.504 214.4 37.504C215.03 37.504 215.624 37.416 216.182 37.24C216.739 37.0493 217.186 36.7487 217.524 36.338C217.876 35.9127 218.052 35.348 218.052 34.644C218.052 33.9547 217.898 33.39 217.59 32.95C217.282 32.4953 216.856 32.1653 216.314 31.96C215.786 31.74 215.184 31.63 214.51 31.63H213.278V29.782H214.51C215.052 29.782 215.551 29.7013 216.006 29.54C216.46 29.3787 216.82 29.122 217.084 28.77C217.362 28.4033 217.502 27.9267 217.502 27.34C217.502 26.5333 217.245 25.9247 216.732 25.514C216.218 25.0887 215.478 24.876 214.51 24.876C213.527 24.876 212.779 25.074 212.266 25.47C211.767 25.866 211.466 26.4087 211.364 27.098L209.384 26.966C209.53 25.7927 210.044 24.8467 210.924 24.128C211.804 23.3947 212.999 23.028 214.51 23.028C215.522 23.028 216.402 23.204 217.15 23.556C217.898 23.8933 218.47 24.3773 218.866 25.008C219.276 25.6387 219.482 26.3867 219.482 27.252C219.482 28.22 219.174 29.0047 218.558 29.606C217.956 30.1927 217.062 30.596 215.874 30.816V30.42C217.15 30.5667 218.162 31.0213 218.91 31.784C219.658 32.5467 220.032 33.5 220.032 34.644C220.032 35.6413 219.79 36.492 219.306 37.196C218.822 37.9 218.154 38.4353 217.304 38.802C216.453 39.1687 215.485 39.352 214.4 39.352ZM226.359 39V36.316H229.087V39H226.359ZM240.562 39V27.428H236.47V25.8H238.582C239.14 25.8 239.587 25.7193 239.924 25.558C240.276 25.3967 240.526 25.14 240.672 24.788C240.834 24.436 240.914 23.9667 240.914 23.38H242.454V39H240.562ZM235.634 39V37.152H246.194V39H235.634ZM253.974 39.352C252.287 39.352 250.989 38.9487 250.08 38.142C249.171 37.3207 248.679 36.2647 248.606 34.974L250.564 34.842C250.652 35.7953 251.004 36.4773 251.62 36.888C252.251 37.2987 253.035 37.504 253.974 37.504C254.605 37.504 255.199 37.416 255.756 37.24C256.313 37.0493 256.761 36.7487 257.098 36.338C257.45 35.9127 257.626 35.348 257.626 34.644C257.626 33.9547 257.472 33.39 257.164 32.95C256.856 32.4953 256.431 32.1653 255.888 31.96C255.36 31.74 254.759 31.63 254.084 31.63H252.852V29.782H254.084C254.627 29.782 255.125 29.7013 255.58 29.54C256.035 29.3787 256.394 29.122 256.658 28.77C256.937 28.4033 257.076 27.9267 257.076 27.34C257.076 26.5333 256.819 25.9247 256.306 25.514C255.793 25.0887 255.052 24.876 254.084 24.876C253.101 24.876 252.353 25.074 251.84 25.47C251.341 25.866 251.041 26.4087 250.938 27.098L248.958 26.966C249.105 25.7927 249.618 24.8467 250.498 24.128C251.378 23.3947 252.573 23.028 254.084 23.028C255.096 23.028 255.976 23.204 256.724 23.556C257.472 23.8933 258.044 24.3773 258.44 25.008C258.851 25.6387 259.056 26.3867 259.056 27.252C259.056 28.22 258.748 29.0047 258.132 29.606C257.531 30.1927 256.636 30.596 255.448 30.816V30.42C256.724 30.5667 257.736 31.0213 258.484 31.784C259.232 32.5467 259.606 33.5 259.606 34.644C259.606 35.6413 259.364 36.492 258.88 37.196C258.396 37.9 257.729 38.4353 256.878 38.802C256.027 39.1687 255.059 39.352 253.974 39.352Z" fill="white"/>
</svg>
