<svg width="328" height="84" viewBox="0 0 328 84" fill="none" xmlns="http://www.w3.org/2000/svg">
<rect width="328.005" height="84.0052" rx="42.0026" fill="white" fill-opacity="0.2"/>
<rect x="10.0049" y="12" width="60" height="60" rx="30" fill="white" fill-opacity="0.2"/>
<path d="M35.6519 24.4257C35.6519 24.4257 35.3233 23.0915 34.5141 22.9611C33.7178 22.8328 33.2439 23.136 32.9266 23.3467C32.6094 23.5575 27.3729 26.6335 27.3729 26.6335C27.3729 26.6335 25.8387 27.5979 25.5835 29.8358C25.3122 32.0711 25.2346 35.3023 26.7662 40.0674C28.2833 44.8202 32.7709 52.4319 35.9099 55.3594C35.9099 55.3594 38.7651 58.4019 41.6348 59.9135C42.4712 60.3351 44.1755 60.9826 44.5866 61.0489C45.004 61.1162 45.7409 61.2349 46.6873 60.7493C47.6492 60.2596 53.1066 57.1313 53.1066 57.1313C53.1066 57.1313 54.4614 56.2474 53.2899 54.7774C52.112 53.3063 48.3723 49.8544 47.5941 48.9798C46.8161 48.0937 45.4854 48.2141 44.8522 48.6275C44.22 49.0444 43.1017 49.7178 42.9644 49.8034C42.7621 49.9133 42.1966 50.2846 41.6805 49.971C41.0223 49.5782 38.3926 47.5384 36.3124 43.4274C34.2478 39.3223 34.1493 38.0732 33.9621 36.7104C33.9257 36.5076 33.9585 36.2982 34.0551 36.1162C34.1517 35.9341 34.3065 35.7901 34.4944 35.7073C34.9373 35.4936 36.6013 34.5004 36.6013 34.5004C36.6013 34.5004 37.702 33.7115 37.4843 32.5377C37.2666 31.3639 35.6519 24.4257 35.6519 24.4257Z" fill="white"/>
<path d="M92.6049 48.8544C91.5782 48.8544 90.6469 48.6784 89.8109 48.3264C88.9749 47.9744 88.3149 47.4538 87.8309 46.7644C87.3469 46.0751 87.1049 45.2244 87.1049 44.2124C87.1049 43.0831 87.4422 42.1518 88.1169 41.4184C88.7915 40.6704 89.6862 40.1644 90.8009 39.9004L90.8449 40.3404C89.9502 40.0911 89.2242 39.6878 88.6669 39.1304C88.1242 38.5584 87.8529 37.7884 87.8529 36.8204C87.8529 35.9991 88.0582 35.2658 88.4689 34.6204C88.8795 33.9751 89.4369 33.4691 90.1409 33.1024C90.8595 32.7211 91.6809 32.5304 92.6049 32.5304C93.5289 32.5304 94.3502 32.7211 95.0689 33.1024C95.7875 33.4691 96.3449 33.9751 96.7409 34.6204C97.1515 35.2658 97.3569 35.9991 97.3569 36.8204C97.3569 37.7884 97.0855 38.5584 96.5429 39.1304C96.0002 39.6878 95.2742 40.0911 94.3649 40.3404L94.4089 39.9004C95.5382 40.1644 96.4329 40.6704 97.0929 41.4184C97.7675 42.1518 98.1049 43.0831 98.1049 44.2124C98.1049 45.2244 97.8629 46.0751 97.3789 46.7644C96.8949 47.4538 96.2349 47.9744 95.3989 48.3264C94.5775 48.6784 93.6462 48.8544 92.6049 48.8544ZM92.6049 47.0064C93.6315 47.0064 94.4749 46.7718 95.1349 46.3024C95.7949 45.8184 96.1249 45.0851 96.1249 44.1024C96.1249 43.1931 95.8315 42.4671 95.2449 41.9244C94.6582 41.3671 93.7782 41.0884 92.6049 41.0884C91.4462 41.0884 90.5662 41.3671 89.9649 41.9244C89.3782 42.4671 89.0849 43.1931 89.0849 44.1024C89.0849 45.0851 89.4149 45.8184 90.0749 46.3024C90.7349 46.7718 91.5782 47.0064 92.6049 47.0064ZM92.6049 39.3284C93.4409 39.3284 94.1082 39.1231 94.6069 38.7124C95.1202 38.2871 95.3769 37.6564 95.3769 36.8204C95.3769 36.0724 95.1275 35.4784 94.6289 35.0384C94.1449 34.5984 93.4702 34.3784 92.6049 34.3784C91.7542 34.3784 91.0795 34.5984 90.5809 35.0384C90.0822 35.4784 89.8329 36.0724 89.8329 36.8204C89.8329 37.6564 90.0822 38.2871 90.5809 38.7124C91.0942 39.1231 91.7689 39.3284 92.6049 39.3284ZM106.5 50.9224C105.488 49.3971 104.726 47.8424 104.212 46.2584C103.699 44.6598 103.442 43.0611 103.442 41.4624C103.442 38.2064 104.462 35.0531 106.5 32.0024H108.15C106.288 35.1704 105.356 38.3238 105.356 41.4624C105.356 43.0318 105.591 44.6084 106.06 46.1924C106.53 47.7618 107.226 49.3384 108.15 50.9224H106.5ZM118.944 32.5304C120.117 32.5304 121.114 32.8018 121.936 33.3444C122.772 33.8724 123.402 34.6571 123.828 35.6984C124.268 36.7251 124.488 37.9864 124.488 39.4824C124.488 40.7731 124.378 41.9831 124.158 43.1124C123.952 44.2418 123.608 45.2391 123.124 46.1044C122.654 46.9551 122.024 47.6298 121.232 48.1284C120.454 48.6124 119.486 48.8544 118.328 48.8544C117.404 48.8544 116.619 48.7004 115.974 48.3924C115.328 48.0844 114.8 47.6518 114.39 47.0944C113.994 46.5371 113.693 45.8918 113.488 45.1584L115.468 44.9824C115.644 45.5984 115.952 46.0898 116.392 46.4564C116.832 46.8231 117.477 47.0064 118.328 47.0064C119.193 47.0064 119.934 46.7644 120.55 46.2804C121.18 45.7818 121.664 45.0411 122.002 44.0584C122.339 43.0758 122.522 41.8438 122.552 40.3624L122.948 40.4504C122.786 40.9784 122.5 41.4698 122.09 41.9244C121.694 42.3644 121.195 42.7238 120.594 43.0024C120.007 43.2664 119.34 43.3984 118.592 43.3984C117.565 43.3984 116.67 43.1784 115.908 42.7384C115.145 42.2984 114.551 41.6824 114.126 40.8904C113.7 40.0838 113.488 39.1451 113.488 38.0744C113.488 36.9304 113.715 35.9478 114.17 35.1264C114.639 34.2904 115.284 33.6524 116.106 33.2124C116.927 32.7578 117.873 32.5304 118.944 32.5304ZM118.9 34.3784C117.873 34.3784 117.044 34.7011 116.414 35.3464C115.783 35.9918 115.468 36.9011 115.468 38.0744C115.468 39.1451 115.761 40.0031 116.348 40.6484C116.949 41.2791 117.741 41.5944 118.724 41.5944C119.428 41.5944 120.058 41.4551 120.616 41.1764C121.173 40.8831 121.613 40.4724 121.936 39.9444C122.258 39.4164 122.42 38.7931 122.42 38.0744C122.42 37.3558 122.273 36.7178 121.98 36.1604C121.701 35.6031 121.298 35.1704 120.77 34.8624C120.242 34.5398 119.618 34.3784 118.9 34.3784ZM126.679 48.5024C126.679 47.4024 126.848 46.4124 127.185 45.5324C127.537 44.6378 128.146 43.7871 129.011 42.9804C129.891 42.1738 131.108 41.3598 132.663 40.5384C133.382 40.1571 133.961 39.8051 134.401 39.4824C134.841 39.1598 135.164 38.8151 135.369 38.4484C135.574 38.0818 135.677 37.6344 135.677 37.1064C135.677 36.5638 135.56 36.0944 135.325 35.6984C135.09 35.2878 134.738 34.9651 134.269 34.7304C133.814 34.4958 133.242 34.3784 132.553 34.3784C131.453 34.3784 130.58 34.6644 129.935 35.2364C129.304 35.8084 128.908 36.6224 128.747 37.6784L126.767 37.5464C126.943 36.0211 127.53 34.8038 128.527 33.8944C129.524 32.9851 130.866 32.5304 132.553 32.5304C133.624 32.5304 134.54 32.7211 135.303 33.1024C136.066 33.4838 136.645 34.0191 137.041 34.7084C137.452 35.3831 137.657 36.1678 137.657 37.0624C137.657 37.8544 137.525 38.5438 137.261 39.1304C136.997 39.7024 136.55 40.2378 135.919 40.7364C135.303 41.2351 134.452 41.7704 133.367 42.3424C132.428 42.8411 131.636 43.3471 130.991 43.8604C130.36 44.3738 129.876 44.8724 129.539 45.3564C129.216 45.8258 129.04 46.2584 129.011 46.6544H137.679V48.5024H126.679ZM139.871 48.5024C139.871 47.4024 140.039 46.4124 140.377 45.5324C140.729 44.6378 141.337 43.7871 142.203 42.9804C143.083 42.1738 144.3 41.3598 145.855 40.5384C146.573 40.1571 147.153 39.8051 147.593 39.4824C148.033 39.1598 148.355 38.8151 148.561 38.4484C148.766 38.0818 148.869 37.6344 148.869 37.1064C148.869 36.5638 148.751 36.0944 148.517 35.6984C148.282 35.2878 147.93 34.9651 147.461 34.7304C147.006 34.4958 146.434 34.3784 145.745 34.3784C144.645 34.3784 143.772 34.6644 143.127 35.2364C142.496 35.8084 142.1 36.6224 141.939 37.6784L139.959 37.5464C140.135 36.0211 140.721 34.8038 141.719 33.8944C142.716 32.9851 144.058 32.5304 145.745 32.5304C146.815 32.5304 147.732 32.7211 148.495 33.1024C149.257 33.4838 149.837 34.0191 150.233 34.7084C150.643 35.3831 150.849 36.1678 150.849 37.0624C150.849 37.8544 150.717 38.5438 150.453 39.1304C150.189 39.7024 149.741 40.2378 149.111 40.7364C148.495 41.2351 147.644 41.7704 146.559 42.3424C145.62 42.8411 144.828 43.3471 144.183 43.8604C143.552 44.3738 143.068 44.8724 142.731 45.3564C142.408 45.8258 142.232 46.2584 142.203 46.6544L150.871 46.6544V48.5024H139.871ZM157.858 50.9224H156.208C157.132 49.3384 157.829 47.7618 158.298 46.1924C158.767 44.6084 159.002 43.0318 159.002 41.4624C159.002 38.3238 158.071 35.1704 156.208 32.0024H157.858C159.897 35.0531 160.916 38.2064 160.916 41.4624C160.916 43.0611 160.659 44.6598 160.146 46.2584C159.633 47.8424 158.87 49.3971 157.858 50.9224ZM168.233 42.9584V41.2204H175.273V42.9584H168.233ZM179.445 48.5024C179.445 47.4024 179.613 46.4124 179.951 45.5324C180.303 44.6378 180.911 43.7871 181.777 42.9804C182.657 42.1738 183.874 41.3598 185.429 40.5384C186.147 40.1571 186.727 39.8051 187.167 39.4824C187.607 39.1598 187.929 38.8151 188.135 38.4484C188.34 38.0818 188.443 37.6344 188.443 37.1064C188.443 36.5638 188.325 36.0944 188.091 35.6984C187.856 35.2878 187.504 34.9651 187.035 34.7304C186.58 34.4958 186.008 34.3784 185.319 34.3784C184.219 34.3784 183.346 34.6644 182.701 35.2364C182.07 35.8084 181.674 36.6224 181.513 37.6784L179.533 37.5464C179.709 36.0211 180.295 34.8038 181.293 33.8944C182.29 32.9851 183.632 32.5304 185.319 32.5304C186.389 32.5304 187.306 32.7211 188.069 33.1024C188.831 33.4838 189.411 34.0191 189.807 34.7084C190.217 35.3831 190.423 36.1678 190.423 37.0624C190.423 37.8544 190.291 38.5438 190.027 39.1304C189.763 39.7024 189.315 40.2378 188.685 40.7364C188.069 41.2351 187.218 41.7704 186.133 42.3424C185.194 42.8411 184.402 43.3471 183.757 43.8604C183.126 44.3738 182.642 44.8724 182.305 45.3564C181.982 45.8258 181.806 46.2584 181.777 46.6544H190.445V48.5024H179.445ZM198.004 48.8544C196.317 48.8544 195.019 48.4511 194.11 47.6444C193.201 46.8231 192.709 45.7671 192.636 44.4764L194.594 44.3444C194.682 45.2978 195.034 45.9798 195.65 46.3904C196.281 46.8011 197.065 47.0064 198.004 47.0064C198.635 47.0064 199.229 46.9184 199.786 46.7424C200.343 46.5518 200.791 46.2511 201.128 45.8404C201.48 45.4151 201.656 44.8504 201.656 44.1464C201.656 43.4571 201.502 42.8924 201.194 42.4524C200.886 41.9978 200.461 41.6678 199.918 41.4624C199.39 41.2424 198.789 41.1324 198.114 41.1324H196.882V39.2844H198.114C198.657 39.2844 199.155 39.2038 199.61 39.0424C200.065 38.8811 200.424 38.6244 200.688 38.2724C200.967 37.9058 201.106 37.4291 201.106 36.8424C201.106 36.0358 200.849 35.4271 200.336 35.0164C199.823 34.5911 199.082 34.3784 198.114 34.3784C197.131 34.3784 196.383 34.5764 195.87 34.9724C195.371 35.3684 195.071 35.9111 194.968 36.6004L192.988 36.4684C193.135 35.2951 193.648 34.3491 194.528 33.6304C195.408 32.8971 196.603 32.5304 198.114 32.5304C199.126 32.5304 200.006 32.7064 200.754 33.0584C201.502 33.3958 202.074 33.8798 202.47 34.5104C202.881 35.1411 203.086 35.8891 203.086 36.7544C203.086 37.7224 202.778 38.5071 202.162 39.1084C201.561 39.6951 200.666 40.0984 199.478 40.3184V39.9224C200.754 40.0691 201.766 40.5238 202.514 41.2864C203.262 42.0491 203.636 43.0024 203.636 44.1464C203.636 45.1438 203.394 45.9944 202.91 46.6984C202.426 47.4024 201.759 47.9378 200.908 48.3044C200.057 48.6711 199.089 48.8544 198.004 48.8544ZM213.264 48.5024V45.1144H205.608V43.3984L213.132 32.8824H215.156V43.2664H217.048V45.1144H215.156V48.5024H213.264ZM207.544 43.2664H213.264V35.5224L207.544 43.2664ZM220.999 42.9584V41.2204H228.039V42.9584H220.999ZM237.578 48.8544C235.892 48.8544 234.594 48.4511 233.684 47.6444C232.775 46.8231 232.284 45.7671 232.21 44.4764L234.168 44.3444C234.256 45.2978 234.608 45.9798 235.224 46.3904C235.855 46.8011 236.64 47.0064 237.578 47.0064C238.209 47.0064 238.803 46.9184 239.36 46.7424C239.918 46.5518 240.365 46.2511 240.702 45.8404C241.054 45.4151 241.23 44.8504 241.23 44.1464C241.23 43.4571 241.076 42.8924 240.768 42.4524C240.46 41.9978 240.035 41.6678 239.492 41.4624C238.964 41.2424 238.363 41.1324 237.688 41.1324H236.456V39.2844H237.688C238.231 39.2844 238.73 39.2038 239.184 39.0424C239.639 38.8811 239.998 38.6244 240.262 38.2724C240.541 37.9058 240.68 37.4291 240.68 36.8424C240.68 36.0358 240.424 35.4271 239.91 35.0164C239.397 34.5911 238.656 34.3784 237.688 34.3784C236.706 34.3784 235.958 34.5764 235.444 34.9724C234.946 35.3684 234.645 35.9111 234.542 36.6004L232.562 36.4684C232.709 35.2951 233.222 34.3491 234.102 33.6304C234.982 32.8971 236.178 32.5304 237.688 32.5304C238.7 32.5304 239.58 32.7064 240.328 33.0584C241.076 33.3958 241.648 33.8798 242.044 34.5104C242.455 35.1411 242.66 35.8891 242.66 36.7544C242.66 37.7224 242.352 38.5071 241.736 39.1084C241.135 39.6951 240.24 40.0984 239.052 40.3184V39.9224C240.328 40.0691 241.34 40.5238 242.088 41.2864C242.836 42.0491 243.21 43.0024 243.21 44.1464C243.21 45.1438 242.968 45.9944 242.484 46.6984C242 47.4024 241.333 47.9378 240.482 48.3044C239.632 48.6711 238.664 48.8544 237.578 48.8544ZM252.838 48.5024V45.1144H245.182V43.3984L252.706 32.8824H254.73V43.2664H256.622V45.1144H254.73V48.5024H252.838ZM247.118 43.2664H252.838V35.5224L247.118 43.2664ZM260.573 42.9584V41.2204H267.613V42.9584H260.573ZM271.785 48.5024C271.785 47.4024 271.953 46.4124 272.291 45.5324C272.643 44.6378 273.251 43.7871 274.117 42.9804C274.997 42.1738 276.214 41.3598 277.769 40.5384C278.487 40.1571 279.067 39.8051 279.507 39.4824C279.947 39.1598 280.269 38.8151 280.475 38.4484C280.68 38.0818 280.783 37.6344 280.783 37.1064C280.783 36.5638 280.665 36.0944 280.431 35.6984C280.196 35.2878 279.844 34.9651 279.375 34.7304C278.92 34.4958 278.348 34.3784 277.659 34.3784C276.559 34.3784 275.686 34.6644 275.041 35.2364C274.41 35.8084 274.014 36.6224 273.853 37.6784L271.873 37.5464C272.049 36.0211 272.635 34.8038 273.633 33.8944C274.63 32.9851 275.972 32.5304 277.659 32.5304C278.729 32.5304 279.646 32.7211 280.409 33.1024C281.171 33.4838 281.751 34.0191 282.147 34.7084C282.557 35.3831 282.763 36.1678 282.763 37.0624C282.763 37.8544 282.631 38.5438 282.367 39.1304C282.103 39.7024 281.655 40.2378 281.025 40.7364C280.409 41.2351 279.558 41.7704 278.473 42.3424C277.534 42.8411 276.742 43.3471 276.097 43.8604C275.466 44.3738 274.982 44.8724 274.645 45.3564C274.322 45.8258 274.146 46.2584 274.117 46.6544H282.785V48.5024L271.785 48.5024ZM290.344 48.8544C288.657 48.8544 287.359 48.4511 286.45 47.6444C285.541 46.8231 285.049 45.7671 284.976 44.4764L286.934 44.3444C287.022 45.2978 287.374 45.9798 287.99 46.3904C288.621 46.8011 289.405 47.0064 290.344 47.0064C290.975 47.0064 291.569 46.9184 292.126 46.7424C292.683 46.5518 293.131 46.2511 293.468 45.8404C293.82 45.4151 293.996 44.8504 293.996 44.1464C293.996 43.4571 293.842 42.8924 293.534 42.4524C293.226 41.9978 292.801 41.6678 292.258 41.4624C291.73 41.2424 291.129 41.1324 290.454 41.1324H289.222V39.2844H290.454C290.997 39.2844 291.495 39.2038 291.95 39.0424C292.405 38.8811 292.764 38.6244 293.028 38.2724C293.307 37.9058 293.446 37.4291 293.446 36.8424C293.446 36.0358 293.189 35.4271 292.676 35.0164C292.163 34.5911 291.422 34.3784 290.454 34.3784C289.471 34.3784 288.723 34.5764 288.21 34.9724C287.711 35.3684 287.411 35.9111 287.308 36.6004L285.328 36.4684C285.475 35.2951 285.988 34.3491 286.868 33.6304C287.748 32.8971 288.943 32.5304 290.454 32.5304C291.466 32.5304 292.346 32.7064 293.094 33.0584C293.842 33.3958 294.414 33.8798 294.81 34.5104C295.221 35.1411 295.426 35.8891 295.426 36.7544C295.426 37.7224 295.118 38.5071 294.502 39.1084C293.901 39.6951 293.006 40.0984 291.818 40.3184V39.9224C293.094 40.0691 294.106 40.5238 294.854 41.2864C295.602 42.0491 295.976 43.0024 295.976 44.1464C295.976 45.1438 295.734 45.9944 295.25 46.6984C294.766 47.4024 294.099 47.9378 293.248 48.3044C292.397 48.6711 291.429 48.8544 290.344 48.8544Z" fill="white"/>
</svg>
