<svg width="316" height="54" viewBox="0 0 316 54" fill="none" xmlns="http://www.w3.org/2000/svg">
<rect x="0.5" y="0.5" width="43" height="53" rx="9.5" stroke="#A4A4A4" stroke-dasharray="4 4"/>
<path d="M21.7191 35.9995V21.9855H17.0911V20.4775H19.3011C19.9597 20.4775 20.4884 20.3908 20.8871 20.2175C21.2857 20.0442 21.5717 19.7408 21.7451 19.3075C21.9357 18.8742 22.0311 18.2848 22.0311 17.5395H23.4871V35.9995H21.7191ZM15.9471 35.9995V34.3095H28.0631V35.9995H15.9471Z" fill="#A4A4A4"/>
<rect x="52.5" y="0.5" width="43" height="53" rx="9.5" stroke="#A4A4A4" stroke-dasharray="4 4"/>
<path d="M69.4291 33.4515L76.9431 19.9575L78.5811 20.0875L71.0671 33.5815L69.4291 33.4515ZM74.0051 36.4155C72.7051 36.4155 71.5697 36.0168 70.5991 35.2195C69.6284 34.4222 68.8831 33.3042 68.3631 31.8655C67.8431 30.4268 67.5831 28.7368 67.5831 26.7955C67.5831 24.8368 67.8431 23.1382 68.3631 21.6995C68.8831 20.2435 69.6284 19.1168 70.5991 18.3195C71.5697 17.5222 72.7051 17.1235 74.0051 17.1235C75.3224 17.1235 76.4577 17.5222 77.4111 18.3195C78.3817 19.1168 79.1271 20.2435 79.6471 21.6995C80.1671 23.1382 80.4271 24.8368 80.4271 26.7955C80.4271 28.7368 80.1671 30.4268 79.6471 31.8655C79.1271 33.3042 78.3817 34.4222 77.4111 35.2195C76.4577 36.0168 75.3224 36.4155 74.0051 36.4155ZM74.0051 34.6735C74.9411 34.6735 75.7471 34.3528 76.4231 33.7115C77.0991 33.0528 77.6191 32.1342 77.9831 30.9555C78.3644 29.7595 78.5551 28.3728 78.5551 26.7955C78.5551 25.1835 78.3644 23.7882 77.9831 22.6095C77.6191 21.4135 77.0991 20.4948 76.4231 19.8535C75.7471 19.1948 74.9411 18.8655 74.0051 18.8655C73.0864 18.8655 72.2804 19.1948 71.5871 19.8535C70.9111 20.4948 70.3824 21.4135 70.0011 22.6095C69.6371 23.7882 69.4551 25.1835 69.4551 26.7955C69.4551 28.3728 69.6371 29.7595 70.0011 30.9555C70.3824 32.1342 70.9111 33.0528 71.5871 33.7115C72.2804 34.3528 73.0864 34.6735 74.0051 34.6735Z" fill="#A4A4A4"/>
<rect x="110.5" y="0.5" width="43" height="53" rx="9.5" stroke="#A4A4A4" stroke-dasharray="4 4"/>
<path d="M131.927 36.4155C129.986 36.4155 128.469 35.9475 127.377 35.0115C126.285 34.0582 125.687 32.8275 125.583 31.3195L127.403 31.1895C127.524 32.3682 127.992 33.2435 128.807 33.8155C129.622 34.3875 130.662 34.6735 131.927 34.6735C132.759 34.6735 133.522 34.5435 134.215 34.2835C134.926 34.0062 135.489 33.5902 135.905 33.0355C136.338 32.4635 136.555 31.7355 136.555 30.8515C136.555 30.0022 136.356 29.3002 135.957 28.7455C135.576 28.1735 135.038 27.7402 134.345 27.4455C133.652 27.1508 132.863 27.0035 131.979 27.0035H130.419V25.2875H131.979C132.724 25.2875 133.392 25.1748 133.981 24.9495C134.588 24.7242 135.064 24.3775 135.411 23.9095C135.758 23.4242 135.931 22.8262 135.931 22.1155C135.931 21.0755 135.584 20.2782 134.891 19.7235C134.215 19.1515 133.27 18.8655 132.057 18.8655C130.861 18.8655 129.916 19.1255 129.223 19.6455C128.547 20.1482 128.131 20.8502 127.975 21.7515L126.129 21.6215C126.32 20.2695 126.926 19.1862 127.949 18.3715C128.972 17.5395 130.341 17.1235 132.057 17.1235C133.201 17.1235 134.198 17.3228 135.047 17.7215C135.914 18.1202 136.581 18.6922 137.049 19.4375C137.534 20.1655 137.777 21.0322 137.777 22.0375C137.777 23.1988 137.404 24.1435 136.659 24.8715C135.914 25.5822 134.83 26.0588 133.409 26.3015V25.8335C134.934 26.0242 136.148 26.5788 137.049 27.4975C137.968 28.3988 138.427 29.5255 138.427 30.8775C138.427 32.0215 138.141 33.0095 137.569 33.8415C137.014 34.6735 136.243 35.3148 135.255 35.7655C134.284 36.1988 133.175 36.4155 131.927 36.4155Z" fill="#A4A4A4"/>
<rect x="162.5" y="0.5" width="43" height="53" rx="9.5" stroke="#A4A4A4" stroke-dasharray="4 4"/>
<path d="M183.719 35.9995V21.9855H179.091V20.4775H181.301C181.96 20.4775 182.488 20.3908 182.887 20.2175C183.286 20.0442 183.572 19.7408 183.745 19.3075C183.936 18.8742 184.031 18.2848 184.031 17.5395H185.487V35.9995H183.719ZM177.947 35.9995V34.3095H190.063V35.9995H177.947Z" fill="#A4A4A4"/>
<rect x="220.5" y="0.5" width="43" height="53" rx="9.5" stroke="#A4A4A4" stroke-dasharray="4 4"/>
<path d="M235.583 35.9995C235.583 34.7515 235.791 33.6248 236.207 32.6195C236.64 31.5968 237.36 30.6348 238.365 29.7335C239.37 28.8148 240.748 27.9048 242.499 27.0035C243.435 26.5182 244.189 26.0675 244.761 25.6515C245.35 25.2182 245.784 24.7588 246.061 24.2735C246.338 23.7882 246.477 23.1988 246.477 22.5055C246.477 21.7948 246.321 21.1708 246.009 20.6335C245.714 20.0788 245.264 19.6455 244.657 19.3335C244.068 19.0215 243.322 18.8655 242.421 18.8655C241.034 18.8655 239.925 19.2382 239.093 19.9835C238.261 20.7288 237.741 21.8035 237.533 23.2075L235.687 23.0775C235.895 21.2575 236.588 19.8102 237.767 18.7355C238.946 17.6608 240.497 17.1235 242.421 17.1235C243.669 17.1235 244.735 17.3575 245.619 17.8255C246.503 18.2762 247.179 18.9002 247.647 19.6975C248.115 20.4948 248.349 21.4135 248.349 22.4535C248.349 23.4068 248.176 24.2302 247.829 24.9235C247.5 25.5995 246.954 26.2322 246.191 26.8215C245.446 27.3935 244.449 28.0002 243.201 28.6415C242.022 29.2482 241.034 29.8808 240.237 30.5395C239.44 31.1808 238.833 31.8222 238.417 32.4635C238.001 33.1048 237.776 33.7115 237.741 34.2835H248.427V35.9995H235.583Z" fill="#A4A4A4"/>
<rect x="272.5" y="0.5" width="43" height="53" rx="9.5" stroke="#A4A4A4" stroke-dasharray="4 4"/>
<path d="M289.429 33.4515L296.943 19.9575L298.581 20.0875L291.067 33.5815L289.429 33.4515ZM294.005 36.4155C292.705 36.4155 291.57 36.0168 290.599 35.2195C289.628 34.4222 288.883 33.3042 288.363 31.8655C287.843 30.4268 287.583 28.7368 287.583 26.7955C287.583 24.8368 287.843 23.1382 288.363 21.6995C288.883 20.2435 289.628 19.1168 290.599 18.3195C291.57 17.5222 292.705 17.1235 294.005 17.1235C295.322 17.1235 296.458 17.5222 297.411 18.3195C298.382 19.1168 299.127 20.2435 299.647 21.6995C300.167 23.1382 300.427 24.8368 300.427 26.7955C300.427 28.7368 300.167 30.4268 299.647 31.8655C299.127 33.3042 298.382 34.4222 297.411 35.2195C296.458 36.0168 295.322 36.4155 294.005 36.4155ZM294.005 34.6735C294.941 34.6735 295.747 34.3528 296.423 33.7115C297.099 33.0528 297.619 32.1342 297.983 30.9555C298.364 29.7595 298.555 28.3728 298.555 26.7955C298.555 25.1835 298.364 23.7882 297.983 22.6095C297.619 21.4135 297.099 20.4948 296.423 19.8535C295.747 19.1948 294.941 18.8655 294.005 18.8655C293.086 18.8655 292.28 19.1948 291.587 19.8535C290.911 20.4948 290.382 21.4135 290.001 22.6095C289.637 23.7882 289.455 25.1835 289.455 26.7955C289.455 28.3728 289.637 29.7595 290.001 30.9555C290.382 32.1342 290.911 33.0528 291.587 33.7115C292.28 34.3528 293.086 34.6735 294.005 34.6735Z" fill="#A4A4A4"/>
</svg>
