<svg width="1920" height="1021" viewBox="0 0 1920 1021" fill="none" xmlns="http://www.w3.org/2000/svg">
<path d="M-434 908.12H-301.056L-245.844 853.632H-147.771L-120.891 888.504V993.12L-92.559 1020H-19.1855V0H126.835V47.9487L97.0497 79.188H-165.933M-222.597 487.479H-165.933L-120.891 452.607V284.06L-92.559 246.282H62.1791L85.4262 284.06V401.026L126.835 438.803H213.285M213.285 438.803V180.897L258.326 143.12H434.858V0V706.154M213.285 438.803V592.094L168.244 637.137H85.4262V745.385L108.673 776.624H195.123L224.908 808.59V888.504L264.864 929.915H434.858M434.858 929.915V706.154M434.858 929.915H650.62L674.593 884.145V754.829M-434 945.171H-274.177L-222.597 888.504V129.316M-222.597 0V19.6154M-222.597 129.316H-165.933V19.6154H-222.597M-222.597 129.316V19.6154M434.858 706.154H337.511L307.726 677.094V621.88L337.511 592.094H527.847L559.085 562.308L561.991 252.821L625.194 199.06H717.455L771.214 180.897V0M1082.14 0V171.453L1122.83 199.06H1276.84L1309.53 239.744L1301.54 562.308L1326.96 592.094H1518.75L1554.35 628.419V681.453L1518.75 704.701H1417.77V143.846M1417.77 0V143.846M1417.77 929.915H1205.64L1178.04 884.145V754.829M1417.77 929.915H1584.86L1627.72 891.41V802.778L1652.42 772.991H1746.14L1774.47 739.573V628.419H1689.47L1652.42 592.094V436.624M1417.77 929.915V143.846M991.334 754.829L986.249 880.513L1018.94 911.752M830.785 911.752L867.108 880.513V754.829M1417.77 143.846H1595.76L1652.42 181.624V436.624M1652.42 436.624H1731.61L1774.47 394.487V285.513L1810.07 239.744H1884.17M2079.59 491.111H2018.56L1978.61 451.154V276.795L1943.01 239.744H1884.17M1731.61 0V47.2222L1756.31 78.4615H1884.17M2027.28 78.4615H1891.79H1884.17M1884.17 78.4615V0V239.744M1884.17 239.744L1882.71 1017.82H1943.74L1978.61 993.846V878.333L2009.85 849.274H2079.59M2079.59 849.274V128.59M2079.59 849.274V878.333L2130.44 939.359H2354.92M2079.59 849.274H2118.09L2166.76 908.12H2354.92M2079.59 0V18.1624M2079.59 18.1624H2027.28V128.59H2079.59M2079.59 18.1624V128.59" stroke="#9C9C9C" stroke-opacity="0.1" stroke-linecap="round"/>
</svg>
