<svg width="350" height="192" viewBox="0 0 350 192" fill="none" xmlns="http://www.w3.org/2000/svg">
<rect width="160" height="48" rx="24" fill="white"/>
<path d="M33.8 30V15.8H37.16C38.3867 15.8 39.4533 16.08 40.36 16.64C41.28 17.1867 41.9867 17.9933 42.48 19.06C42.9867 20.1133 43.24 21.4 43.24 22.92C43.24 24.44 42.9867 25.7267 42.48 26.78C41.9867 27.8333 41.28 28.6333 40.36 29.18C39.4533 29.7267 38.3867 30 37.16 30H33.8ZM35.52 28.32H37.06C38.4467 28.32 39.52 27.8733 40.28 26.98C41.0533 26.0733 41.44 24.72 41.44 22.92C41.44 21.12 41.0533 19.7667 40.28 18.86C39.52 17.94 38.4467 17.48 37.06 17.48H35.52L35.52 28.32ZM48.5922 30.24C47.9255 30.24 47.3255 30.12 46.7922 29.88C46.2589 29.64 45.8389 29.3067 45.5322 28.88C45.2255 28.44 45.0722 27.9333 45.0722 27.36C45.0722 26.4533 45.3389 25.7533 45.8722 25.26C46.4189 24.7533 47.2722 24.3867 48.4322 24.16L51.9922 23.44C51.9922 22.5333 51.7855 21.86 51.3722 21.42C50.9722 20.98 50.3922 20.76 49.6322 20.76C48.8989 20.76 48.3255 20.9267 47.9122 21.26C47.4989 21.58 47.2122 22.0467 47.0522 22.66L45.2722 22.52C45.4722 21.52 45.9455 20.7133 46.6922 20.1C47.4522 19.4733 48.4322 19.16 49.6322 19.16C50.9122 19.16 51.9055 19.5467 52.6122 20.32C53.3189 21.08 53.6722 22.1333 53.6722 23.48V27.88C53.6722 28.12 53.7255 28.2867 53.8322 28.38C53.9389 28.4733 54.0989 28.52 54.3122 28.52H54.9922V30C54.9122 30.0133 54.7855 30.02 54.6122 30.02C54.4389 30.0333 54.2722 30.04 54.1122 30.04C53.6589 30.04 53.2722 29.9667 52.9522 29.82C52.6455 29.6733 52.4122 29.44 52.2522 29.12C52.0922 28.7867 52.0055 28.36 51.9922 27.84H52.3122C52.2189 28.2933 51.9922 28.7067 51.6322 29.08C51.2855 29.44 50.8455 29.7267 50.3122 29.94C49.7789 30.14 49.2055 30.24 48.5922 30.24ZM48.7522 28.76C49.4722 28.76 50.0722 28.64 50.5522 28.4C51.0322 28.1467 51.3922 27.8 51.6322 27.36C51.8722 26.9067 51.9922 26.3867 51.9922 25.8V24.88L48.7522 25.52C48.0322 25.6533 47.5322 25.86 47.2522 26.14C46.9722 26.4067 46.8322 26.76 46.8322 27.2C46.8322 27.6933 46.9989 28.08 47.3322 28.36C47.6789 28.6267 48.1522 28.76 48.7522 28.76ZM63.5444 30C62.5177 30 61.751 29.76 61.2444 29.28C60.7377 28.8 60.4844 28.0667 60.4844 27.08V16.92H62.1644V27.08C62.1644 27.5733 62.2777 27.94 62.5044 28.18C62.731 28.4067 63.0777 28.52 63.5444 28.52H66.3844V30H63.5444ZM56.9844 20.88V19.4H66.3844V20.88H56.9844ZM72.5766 30.24C71.9099 30.24 71.3099 30.12 70.7766 29.88C70.2432 29.64 69.8232 29.3067 69.5166 28.88C69.2099 28.44 69.0566 27.9333 69.0566 27.36C69.0566 26.4533 69.3232 25.7533 69.8566 25.26C70.4032 24.7533 71.2566 24.3867 72.4166 24.16L75.9766 23.44C75.9766 22.5333 75.7699 21.86 75.3566 21.42C74.9566 20.98 74.3766 20.76 73.6166 20.76C72.8832 20.76 72.3099 20.9267 71.8966 21.26C71.4832 21.58 71.1966 22.0467 71.0366 22.66L69.2566 22.52C69.4566 21.52 69.9299 20.7133 70.6766 20.1C71.4366 19.4733 72.4166 19.16 73.6166 19.16C74.8966 19.16 75.8899 19.5467 76.5966 20.32C77.3032 21.08 77.6566 22.1333 77.6566 23.48V27.88C77.6566 28.12 77.7099 28.2867 77.8166 28.38C77.9232 28.4733 78.0832 28.52 78.2966 28.52H78.9766V30C78.8966 30.0133 78.7699 30.02 78.5966 30.02C78.4232 30.0333 78.2566 30.04 78.0966 30.04C77.6432 30.04 77.2566 29.9667 76.9366 29.82C76.6299 29.6733 76.3966 29.44 76.2366 29.12C76.0766 28.7867 75.9899 28.36 75.9766 27.84H76.2966C76.2032 28.2933 75.9766 28.7067 75.6166 29.08C75.2699 29.44 74.8299 29.7267 74.2966 29.94C73.7632 30.14 73.1899 30.24 72.5766 30.24ZM72.7366 28.76C73.4566 28.76 74.0566 28.64 74.5366 28.4C75.0166 28.1467 75.3766 27.8 75.6166 27.36C75.8566 26.9067 75.9766 26.3867 75.9766 25.8V24.88L72.7366 25.52C72.0166 25.6533 71.5166 25.86 71.2366 26.14C70.9566 26.4067 70.8166 26.76 70.8166 27.2C70.8166 27.6933 70.9832 28.08 71.3166 28.36C71.6632 28.6267 72.1366 28.76 72.7366 28.76ZM93.3609 30V15.8H97.6809C99.1743 15.8 100.354 16.18 101.221 16.94C102.088 17.6867 102.521 18.72 102.521 20.04C102.521 20.7067 102.368 21.3 102.061 21.82C101.754 22.3267 101.361 22.7267 100.881 23.02C100.401 23.3133 99.9076 23.48 99.4009 23.52L99.3209 23.28C100.268 23.3333 100.974 23.56 101.441 23.96C101.921 24.36 102.201 25.0133 102.281 25.92L102.641 30H100.921L100.581 26.14C100.541 25.7 100.434 25.3467 100.261 25.08C100.101 24.8 99.8409 24.6 99.4809 24.48C99.1343 24.3467 98.6543 24.28 98.0409 24.28H95.0809V30H93.3609ZM95.0809 22.6H97.6809C98.6676 22.6 99.4209 22.38 99.9409 21.94C100.461 21.4867 100.721 20.8533 100.721 20.04C100.721 19.2133 100.461 18.58 99.9409 18.14C99.4209 17.7 98.6676 17.48 97.6809 17.48H95.0809V22.6ZM108.553 30.24C107.886 30.24 107.286 30.12 106.753 29.88C106.22 29.64 105.8 29.3067 105.493 28.88C105.186 28.44 105.033 27.9333 105.033 27.36C105.033 26.4533 105.3 25.7533 105.833 25.26C106.38 24.7533 107.233 24.3867 108.393 24.16L111.953 23.44C111.953 22.5333 111.746 21.86 111.333 21.42C110.933 20.98 110.353 20.76 109.593 20.76C108.86 20.76 108.286 20.9267 107.873 21.26C107.46 21.58 107.173 22.0467 107.013 22.66L105.233 22.52C105.433 21.52 105.906 20.7133 106.653 20.1C107.413 19.4733 108.393 19.16 109.593 19.16C110.873 19.16 111.866 19.5467 112.573 20.32C113.28 21.08 113.633 22.1333 113.633 23.48V27.88C113.633 28.12 113.686 28.2867 113.793 28.38C113.9 28.4733 114.06 28.52 114.273 28.52H114.953V30C114.873 30.0133 114.746 30.02 114.573 30.02C114.4 30.0333 114.233 30.04 114.073 30.04C113.62 30.04 113.233 29.9667 112.913 29.82C112.606 29.6733 112.373 29.44 112.213 29.12C112.053 28.7867 111.966 28.36 111.953 27.84H112.273C112.18 28.2933 111.953 28.7067 111.593 29.08C111.246 29.44 110.806 29.7267 110.273 29.94C109.74 30.14 109.166 30.24 108.553 30.24ZM108.713 28.76C109.433 28.76 110.033 28.64 110.513 28.4C110.993 28.1467 111.353 27.8 111.593 27.36C111.833 26.9067 111.953 26.3867 111.953 25.8V24.88L108.713 25.52C107.993 25.6533 107.493 25.86 107.213 26.14C106.933 26.4067 106.793 26.76 106.793 27.2C106.793 27.6933 106.96 28.08 107.293 28.36C107.64 28.6267 108.113 28.76 108.713 28.76ZM118.705 33V31.52H119.925C120.299 31.52 120.572 31.46 120.745 31.34C120.932 31.2333 121.072 31.0533 121.165 30.8L121.545 29.8H120.965L117.025 19.4H118.865L122.085 28.24L125.105 19.4H126.945L122.645 31.34C122.445 31.9133 122.145 32.3333 121.745 32.6C121.345 32.8667 120.792 33 120.085 33H118.705Z" fill="#080808"/>
<rect x="190" width="160" height="48" rx="24" fill="white"/>
<path d="M214.88 30L210.6 15.8H212.44L216.24 28.88H215.76L219.56 15.8H221.4L217.12 30H214.88ZM226.592 30.24C225.926 30.24 225.326 30.12 224.792 29.88C224.259 29.64 223.839 29.3067 223.532 28.88C223.226 28.44 223.072 27.9333 223.072 27.36C223.072 26.4533 223.339 25.7533 223.872 25.26C224.419 24.7533 225.272 24.3867 226.432 24.16L229.992 23.44C229.992 22.5333 229.786 21.86 229.372 21.42C228.972 20.98 228.392 20.76 227.632 20.76C226.899 20.76 226.326 20.9267 225.912 21.26C225.499 21.58 225.212 22.0467 225.052 22.66L223.272 22.52C223.472 21.52 223.946 20.7133 224.692 20.1C225.452 19.4733 226.432 19.16 227.632 19.16C228.912 19.16 229.906 19.5467 230.612 20.32C231.319 21.08 231.672 22.1333 231.672 23.48V27.88C231.672 28.12 231.726 28.2867 231.832 28.38C231.939 28.4733 232.099 28.52 232.312 28.52H232.992V30C232.912 30.0133 232.786 30.02 232.612 30.02C232.439 30.0333 232.272 30.04 232.112 30.04C231.659 30.04 231.272 29.9667 230.952 29.82C230.646 29.6733 230.412 29.44 230.252 29.12C230.092 28.7867 230.006 28.36 229.992 27.84H230.312C230.219 28.2933 229.992 28.7067 229.632 29.08C229.286 29.44 228.846 29.7267 228.312 29.94C227.779 30.14 227.206 30.24 226.592 30.24ZM226.752 28.76C227.472 28.76 228.072 28.64 228.552 28.4C229.032 28.1467 229.392 27.8 229.632 27.36C229.872 26.9067 229.992 26.3867 229.992 25.8V24.88L226.752 25.52C226.032 25.6533 225.532 25.86 225.252 26.14C224.972 26.4067 224.832 26.76 224.832 27.2C224.832 27.6933 224.999 28.08 225.332 28.36C225.679 28.6267 226.152 28.76 226.752 28.76ZM239.244 30.24C238.191 30.24 237.351 29.8867 236.724 29.18C236.098 28.46 235.784 27.4733 235.784 26.22V19.4H237.464V25.76C237.464 26.7867 237.644 27.5467 238.004 28.04C238.378 28.52 238.944 28.76 239.704 28.76C240.531 28.76 241.184 28.4933 241.664 27.96C242.144 27.4133 242.384 26.6667 242.384 25.72V19.4H244.064V30H242.464V27.38L242.724 27.52C242.511 28.3867 242.104 29.06 241.504 29.54C240.904 30.0067 240.151 30.24 239.244 30.24ZM251.437 30V18.64C251.437 18.2133 251.317 17.88 251.077 17.64C250.837 17.4 250.503 17.28 250.077 17.28H247.577V15.8H250.157C251.13 15.8 251.863 16.0533 252.357 16.56C252.863 17.0533 253.117 17.7867 253.117 18.76V30H251.437ZM247.177 30V28.52H256.777V30H247.177ZM265.529 30C264.502 30 263.735 29.76 263.229 29.28C262.722 28.8 262.469 28.0667 262.469 27.08V16.92H264.149V27.08C264.149 27.5733 264.262 27.94 264.489 28.18C264.715 28.4067 265.062 28.52 265.529 28.52H268.369V30H265.529ZM258.969 20.88V19.4H268.369V20.88H258.969ZM287.993 30.32C286.86 30.32 285.9 30.02 285.113 29.42C284.326 28.82 283.726 27.9667 283.313 26.86C282.913 25.7533 282.713 24.44 282.713 22.92C282.713 21.3867 282.913 20.0667 283.313 18.96C283.726 17.8533 284.326 17 285.113 16.4C285.9 15.7867 286.86 15.48 287.993 15.48C289.246 15.48 290.313 15.8933 291.193 16.72C292.073 17.5333 292.66 18.6733 292.953 20.14L291.113 20.26C290.886 19.2333 290.493 18.46 289.933 17.94C289.386 17.42 288.74 17.16 287.993 17.16C287.233 17.16 286.593 17.3867 286.073 17.84C285.566 18.28 285.18 18.9333 284.913 19.8C284.646 20.6533 284.513 21.6933 284.513 22.92C284.513 24.1333 284.646 25.1667 284.913 26.02C285.18 26.8733 285.566 27.5267 286.073 27.98C286.593 28.42 287.233 28.64 287.993 28.64C288.82 28.64 289.52 28.3533 290.093 27.78C290.666 27.2067 291.053 26.3533 291.253 25.22L293.073 25.32C292.82 26.88 292.246 28.1067 291.353 29C290.46 29.88 289.34 30.32 287.993 30.32ZM299.945 30.24C298.972 30.24 298.119 30.0133 297.385 29.56C296.665 29.1067 296.105 28.4667 295.705 27.64C295.305 26.8 295.105 25.82 295.105 24.7C295.105 23.5667 295.305 22.5867 295.705 21.76C296.105 20.9333 296.665 20.2933 297.385 19.84C298.119 19.3867 298.972 19.16 299.945 19.16C300.919 19.16 301.765 19.3867 302.485 19.84C303.219 20.2933 303.785 20.9333 304.185 21.76C304.585 22.5867 304.785 23.5667 304.785 24.7C304.785 25.82 304.585 26.8 304.185 27.64C303.785 28.4667 303.219 29.1067 302.485 29.56C301.765 30.0133 300.919 30.24 299.945 30.24ZM299.945 28.64C300.919 28.64 301.672 28.2933 302.205 27.6C302.752 26.8933 303.025 25.9267 303.025 24.7C303.025 23.4733 302.752 22.5133 302.205 21.82C301.672 21.1133 300.919 20.76 299.945 20.76C298.972 20.76 298.212 21.1133 297.665 21.82C297.132 22.5133 296.865 23.4733 296.865 24.7C296.865 25.9267 297.132 26.8933 297.665 27.6C298.212 28.2933 298.972 28.64 299.945 28.64ZM310.497 30V19.4H311.897L312.057 22.08L311.897 22.04C312.031 21.1333 312.317 20.4667 312.757 20.04C313.211 19.6133 313.811 19.4 314.557 19.4H316.737V20.92H314.577C314.057 20.92 313.617 21.0267 313.257 21.24C312.911 21.44 312.644 21.74 312.457 22.14C312.271 22.5267 312.177 23.0133 312.177 23.6V30H310.497ZM307.737 30V28.52H315.537V30H307.737ZM307.737 20.88V19.4H311.417V20.88H307.737ZM324.11 30.24C323.11 30.24 322.243 30.0133 321.51 29.56C320.79 29.1067 320.23 28.4667 319.83 27.64C319.443 26.8 319.25 25.82 319.25 24.7C319.25 23.58 319.443 22.6067 319.83 21.78C320.23 20.9533 320.783 20.3133 321.49 19.86C322.21 19.3933 323.056 19.16 324.03 19.16C324.95 19.16 325.763 19.38 326.47 19.82C327.176 20.2467 327.73 20.8733 328.13 21.7C328.53 22.5267 328.73 23.5333 328.73 24.72V25.22H321.01C321.076 26.3533 321.376 27.2067 321.91 27.78C322.456 28.3533 323.19 28.64 324.11 28.64C324.803 28.64 325.37 28.48 325.81 28.16C326.263 27.8267 326.576 27.3933 326.75 26.86L328.55 27C328.27 27.9467 327.736 28.7267 326.95 29.34C326.176 29.94 325.23 30.24 324.11 30.24ZM321.01 23.74H326.89C326.81 22.7133 326.51 21.96 325.99 21.48C325.47 21 324.816 20.76 324.03 20.76C323.216 20.76 322.543 21.0133 322.01 21.52C321.49 22.0133 321.156 22.7533 321.01 23.74Z" fill="#080808"/>
<rect x="190" y="144" width="160" height="48" rx="24" fill="white"/>
<path d="M215.14 174V161.48H210.8V159.8H221.2V161.48H216.86V174H215.14ZM228.172 174.24C227.172 174.24 226.306 174.013 225.572 173.56C224.852 173.107 224.292 172.467 223.892 171.64C223.506 170.8 223.312 169.82 223.312 168.7C223.312 167.58 223.506 166.607 223.892 165.78C224.292 164.953 224.846 164.313 225.552 163.86C226.272 163.393 227.119 163.16 228.092 163.16C229.012 163.16 229.826 163.38 230.532 163.82C231.239 164.247 231.792 164.873 232.192 165.7C232.592 166.527 232.792 167.533 232.792 168.72V169.22H225.072C225.139 170.353 225.439 171.207 225.972 171.78C226.519 172.353 227.252 172.64 228.172 172.64C228.866 172.64 229.432 172.48 229.872 172.16C230.326 171.827 230.639 171.393 230.812 170.86L232.612 171C232.332 171.947 231.799 172.727 231.012 173.34C230.239 173.94 229.292 174.24 228.172 174.24ZM225.072 167.74H230.952C230.872 166.713 230.572 165.96 230.052 165.48C229.532 165 228.879 164.76 228.092 164.76C227.279 164.76 226.606 165.013 226.072 165.52C225.552 166.013 225.219 166.753 225.072 167.74ZM238.544 174V163.4H239.944L240.104 166.08L239.944 166.04C240.078 165.133 240.364 164.467 240.804 164.04C241.258 163.613 241.858 163.4 242.604 163.4H244.784V164.92H242.624C242.104 164.92 241.664 165.027 241.304 165.24C240.958 165.44 240.691 165.74 240.504 166.14C240.318 166.527 240.224 167.013 240.224 167.6V174H238.544ZM235.784 174V172.52H243.584V174H235.784ZM235.784 164.88V163.4H239.464V164.88H235.784ZM250.537 174V163.4H251.937L252.097 166.08L251.937 166.04C252.07 165.133 252.357 164.467 252.797 164.04C253.25 163.613 253.85 163.4 254.597 163.4H256.777V164.92H254.617C254.097 164.92 253.657 165.027 253.297 165.24C252.95 165.44 252.683 165.74 252.497 166.14C252.31 166.527 252.217 167.013 252.217 167.6V174H250.537ZM247.777 174V172.52H255.577V174H247.777ZM247.777 164.88V163.4H251.457V164.88H247.777ZM262.569 174.24C261.902 174.24 261.302 174.12 260.769 173.88C260.235 173.64 259.815 173.307 259.509 172.88C259.202 172.44 259.049 171.933 259.049 171.36C259.049 170.453 259.315 169.753 259.849 169.26C260.395 168.753 261.249 168.387 262.409 168.16L265.969 167.44C265.969 166.533 265.762 165.86 265.349 165.42C264.949 164.98 264.369 164.76 263.609 164.76C262.875 164.76 262.302 164.927 261.889 165.26C261.475 165.58 261.189 166.047 261.029 166.66L259.249 166.52C259.449 165.52 259.922 164.713 260.669 164.1C261.429 163.473 262.409 163.16 263.609 163.16C264.889 163.16 265.882 163.547 266.589 164.32C267.295 165.08 267.649 166.133 267.649 167.48V171.88C267.649 172.12 267.702 172.287 267.809 172.38C267.915 172.473 268.075 172.52 268.289 172.52H268.969V174C268.889 174.013 268.762 174.02 268.589 174.02C268.415 174.033 268.249 174.04 268.089 174.04C267.635 174.04 267.249 173.967 266.929 173.82C266.622 173.673 266.389 173.44 266.229 173.12C266.069 172.787 265.982 172.36 265.969 171.84H266.289C266.195 172.293 265.969 172.707 265.609 173.08C265.262 173.44 264.822 173.727 264.289 173.94C263.755 174.14 263.182 174.24 262.569 174.24ZM262.729 172.76C263.449 172.76 264.049 172.64 264.529 172.4C265.009 172.147 265.369 171.8 265.609 171.36C265.849 170.907 265.969 170.387 265.969 169.8V168.88L262.729 169.52C262.009 169.653 261.509 169.86 261.229 170.14C260.949 170.407 260.809 170.76 260.809 171.2C260.809 171.693 260.975 172.08 261.309 172.36C261.655 172.627 262.129 172.76 262.729 172.76ZM283.953 174V159.8H285.673V173.2L284.813 172.32H292.753V174H283.953ZM299.805 174V163.4H301.485V174H299.805ZM295.545 174V172.52H305.145V174H295.545ZM295.745 164.88V163.4H301.485V164.88H295.745ZM299.645 161.74V159.78H301.405V161.74H299.645ZM307.617 174V163.4H309.157L309.217 166.1L309.017 165.92C309.151 165.293 309.391 164.78 309.737 164.38C310.097 163.967 310.524 163.66 311.017 163.46C311.511 163.26 312.031 163.16 312.577 163.16C313.391 163.16 314.064 163.34 314.597 163.7C315.144 164.06 315.557 164.547 315.837 165.16C316.117 165.76 316.257 166.433 316.257 167.18V174H314.577V167.66C314.577 166.673 314.384 165.927 313.997 165.42C313.611 164.9 313.017 164.64 312.217 164.64C311.671 164.64 311.177 164.76 310.737 165C310.297 165.227 309.944 165.567 309.677 166.02C309.424 166.46 309.297 167.007 309.297 167.66V174H307.617ZM319.73 174V159.8H321.41V169.1L326.57 163.4H328.81L324.63 167.9L329.01 174H326.97L323.49 169.04L321.41 171.24V174H319.73Z" fill="#080808"/>
<rect y="144" width="160" height="48" rx="24" fill="white"/>
<path d="M33.4 174V159.8H35.84L40.88 172.04V159.8H42.6V174H40.16L35.12 161.76V174H33.4ZM49.9922 174.24C49.0189 174.24 48.1655 174.013 47.4322 173.56C46.7122 173.107 46.1522 172.467 45.7522 171.64C45.3522 170.8 45.1522 169.82 45.1522 168.7C45.1522 167.567 45.3522 166.587 45.7522 165.76C46.1522 164.933 46.7122 164.293 47.4322 163.84C48.1655 163.387 49.0189 163.16 49.9922 163.16C50.9655 163.16 51.8122 163.387 52.5322 163.84C53.2655 164.293 53.8322 164.933 54.2322 165.76C54.6322 166.587 54.8322 167.567 54.8322 168.7C54.8322 169.82 54.6322 170.8 54.2322 171.64C53.8322 172.467 53.2655 173.107 52.5322 173.56C51.8122 174.013 50.9655 174.24 49.9922 174.24ZM49.9922 172.64C50.9655 172.64 51.7189 172.293 52.2522 171.6C52.7989 170.893 53.0722 169.927 53.0722 168.7C53.0722 167.473 52.7989 166.513 52.2522 165.82C51.7189 165.113 50.9655 164.76 49.9922 164.76C49.0189 164.76 48.2589 165.113 47.7122 165.82C47.1789 166.513 46.9122 167.473 46.9122 168.7C46.9122 169.927 47.1789 170.893 47.7122 171.6C48.2589 172.293 49.0189 172.64 49.9922 172.64ZM60.9244 174L56.9844 163.4H58.8244L61.9844 172.28L65.1444 163.4H66.9844L63.0444 174H60.9244ZM72.5766 174.24C71.9099 174.24 71.3099 174.12 70.7766 173.88C70.2432 173.64 69.8232 173.307 69.5166 172.88C69.2099 172.44 69.0566 171.933 69.0566 171.36C69.0566 170.453 69.3232 169.753 69.8566 169.26C70.4032 168.753 71.2566 168.387 72.4166 168.16L75.9766 167.44C75.9766 166.533 75.7699 165.86 75.3566 165.42C74.9566 164.98 74.3766 164.76 73.6166 164.76C72.8832 164.76 72.3099 164.927 71.8966 165.26C71.4832 165.58 71.1966 166.047 71.0366 166.66L69.2566 166.52C69.4566 165.52 69.9299 164.713 70.6766 164.1C71.4366 163.473 72.4166 163.16 73.6166 163.16C74.8966 163.16 75.8899 163.547 76.5966 164.32C77.3032 165.08 77.6566 166.133 77.6566 167.48V171.88C77.6566 172.12 77.7099 172.287 77.8166 172.38C77.9232 172.473 78.0832 172.52 78.2966 172.52H78.9766V174C78.8966 174.013 78.7699 174.02 78.5966 174.02C78.4232 174.033 78.2566 174.04 78.0966 174.04C77.6432 174.04 77.2566 173.967 76.9366 173.82C76.6299 173.673 76.3966 173.44 76.2366 173.12C76.0766 172.787 75.9899 172.36 75.9766 171.84H76.2966C76.2032 172.293 75.9766 172.707 75.6166 173.08C75.2699 173.44 74.8299 173.727 74.2966 173.94C73.7632 174.14 73.1899 174.24 72.5766 174.24ZM72.7366 172.76C73.4566 172.76 74.0566 172.64 74.5366 172.4C75.0166 172.147 75.3766 171.8 75.6166 171.36C75.8566 170.907 75.9766 170.387 75.9766 169.8V168.88L72.7366 169.52C72.0166 169.653 71.5166 169.86 71.2366 170.14C70.9566 170.407 70.8166 170.76 70.8166 171.2C70.8166 171.693 70.9832 172.08 71.3166 172.36C71.6632 172.627 72.1366 172.76 72.7366 172.76ZM93.3609 174V159.8H95.8009L100.841 172.04V159.8H102.561V174H100.121L95.0809 161.76V174H93.3609ZM110.133 174.24C109.133 174.24 108.266 174.013 107.533 173.56C106.813 173.107 106.253 172.467 105.853 171.64C105.466 170.8 105.273 169.82 105.273 168.7C105.273 167.58 105.466 166.607 105.853 165.78C106.253 164.953 106.806 164.313 107.513 163.86C108.233 163.393 109.08 163.16 110.053 163.16C110.973 163.16 111.786 163.38 112.493 163.82C113.2 164.247 113.753 164.873 114.153 165.7C114.553 166.527 114.753 167.533 114.753 168.72V169.22H107.033C107.1 170.353 107.4 171.207 107.933 171.78C108.48 172.353 109.213 172.64 110.133 172.64C110.826 172.64 111.393 172.48 111.833 172.16C112.286 171.827 112.6 171.393 112.773 170.86L114.573 171C114.293 171.947 113.76 172.727 112.973 173.34C112.2 173.94 111.253 174.24 110.133 174.24ZM107.033 167.74H112.913C112.833 166.713 112.533 165.96 112.013 165.48C111.493 165 110.84 164.76 110.053 164.76C109.24 164.76 108.566 165.013 108.033 165.52C107.513 166.013 107.18 166.753 107.033 167.74ZM123.505 174C122.479 174 121.712 173.76 121.205 173.28C120.699 172.8 120.445 172.067 120.445 171.08V160.92H122.125V171.08C122.125 171.573 122.239 171.94 122.465 172.18C122.692 172.407 123.039 172.52 123.505 172.52H126.345V174H123.505ZM116.945 164.88V163.4H126.345V164.88H116.945Z" fill="#080808"/>
<rect x="155" y="76" width="40" height="40" rx="20" fill="white"/>
<path d="M170.864 86C171.581 86 172.013 86.5228 172.158 86.7168C172.257 86.8483 172.329 86.974 172.377 87.0635C172.401 87.1094 172.42 87.1495 172.435 87.1797C172.442 87.1948 172.448 87.2073 172.453 87.2178L172.461 87.2373L172.462 87.2402L172.463 87.2412V87.2422L172.468 87.2539H172.469V87.2559C172.469 87.2575 172.47 87.2605 172.472 87.2637C172.474 87.27 172.478 87.279 172.483 87.291C172.493 87.3153 172.508 87.351 172.526 87.3965C172.564 87.4879 172.618 87.6193 172.683 87.7783C172.812 88.0966 172.987 88.5275 173.169 88.9756C173.526 89.8569 173.925 90.8478 174.034 91.1543C174.259 91.7849 174.087 92.3407 173.922 92.6699C173.838 92.838 173.744 92.9714 173.672 93.0635C173.635 93.1104 173.602 93.1485 173.575 93.1777C173.562 93.1924 173.551 93.2055 173.541 93.2158L173.518 93.2393L172.812 92.5303L173.518 93.2402L173.487 93.2695L173.455 93.2959V93.2969L173.453 93.2979C173.452 93.2991 173.449 93.3013 173.446 93.3037C173.441 93.3085 173.432 93.3154 173.422 93.3242C173.401 93.3419 173.37 93.3677 173.333 93.3984C173.259 93.4599 173.158 93.5436 173.051 93.6318C172.96 93.7068 172.852 93.7937 172.749 93.876C172.811 94.0673 172.88 94.2561 173.001 94.502C173.197 94.8996 173.535 95.4665 174.189 96.3721L174.423 96.6807C175.322 97.8238 176.218 98.4413 176.659 98.6963C176.841 98.5405 177.14 98.288 177.333 98.1104L177.337 98.1074C177.654 97.8187 178.094 97.6389 178.532 97.5938C178.991 97.5465 179.551 97.6381 180.028 98.0322H180.027C180.224 98.1912 180.809 98.5948 181.513 99.0928C182.005 99.4413 182.557 99.836 182.973 100.166L183.335 100.471L183.337 100.472C183.617 100.727 183.827 101.029 183.931 101.377C184.035 101.728 184.009 102.054 183.933 102.317C183.859 102.571 183.738 102.765 183.646 102.89C183.598 102.954 183.553 103.006 183.517 103.045C183.498 103.065 183.482 103.082 183.468 103.096C183.461 103.103 183.454 103.109 183.448 103.114C183.445 103.117 183.443 103.12 183.44 103.122C183.439 103.123 183.438 103.124 183.437 103.125L183.434 103.128L183.412 103.147L183.39 103.166H183.389L183.383 103.172C183.378 103.176 183.37 103.181 183.361 103.188C183.343 103.203 183.317 103.225 183.283 103.252C183.215 103.307 183.118 103.385 183 103.48C182.764 103.671 182.443 103.929 182.109 104.197C181.457 104.721 180.714 105.312 180.471 105.49L180.472 105.491C179.781 105.999 179.141 106 178.866 106C178.723 106 178.553 105.975 178.439 105.956C178.301 105.934 178.14 105.903 177.978 105.869C177.659 105.803 177.287 105.714 177.017 105.628L177.008 105.625L177 105.622C176.119 105.325 175.243 104.828 174.613 104.429C174.292 104.225 174.023 104.039 173.832 103.903C173.737 103.835 173.661 103.779 173.607 103.739C173.581 103.72 173.56 103.704 173.545 103.692C173.538 103.687 173.532 103.683 173.527 103.68C173.525 103.678 173.524 103.677 173.522 103.676L173.521 103.674L173.52 103.673C172.52 102.988 171.321 101.775 170.253 100.499C169.158 99.1897 168.119 97.7183 167.509 96.5127V96.5117C166.304 94.1428 166.053 92.4003 166.004 91.1504L166.002 90.8652C166.023 90.2175 166.218 89.6997 166.427 89.3291C166.545 89.1195 166.667 88.9568 166.766 88.8418C166.815 88.7841 166.859 88.7373 166.895 88.7021C166.912 88.6847 166.928 88.6702 166.94 88.6582C166.947 88.6521 166.953 88.6463 166.958 88.6416C166.96 88.6395 166.963 88.6376 166.965 88.6357C166.966 88.6347 166.968 88.6337 166.969 88.6328L166.97 88.6309H166.971C166.974 88.6344 167.019 88.6839 167.586 89.3291L166.972 88.6299L166.982 88.6201L166.994 88.6104L166.996 88.6084L167.021 88.5889C167.038 88.5747 167.063 88.5538 167.095 88.5273C167.159 88.4743 167.251 88.3982 167.361 88.3066C167.583 88.1234 167.88 87.8776 168.181 87.6279C168.482 87.3782 168.787 87.1244 169.024 86.9258C169.143 86.8265 169.245 86.7413 169.32 86.6777C169.398 86.6121 169.43 86.5842 169.433 86.582C169.627 86.4027 170.075 86 170.864 86Z" stroke="#0169F9" stroke-width="2"/>
<path d="M270 144V116C270 104.954 261.046 96 250 96H195" stroke="#9C9C9C" stroke-dasharray="8 8"/>
<path d="M80 48V76C80 87.0457 88.9543 96 100 96H155" stroke="#9C9C9C" stroke-dasharray="8 8"/>
<path d="M80 144V116C80 104.954 88.9543 96 100 96H155" stroke="#9C9C9C" stroke-dasharray="8 8"/>
<path d="M270 48V76C270 87.0457 261.046 96 250 96H195" stroke="#0169F9" stroke-dasharray="8 8"/>
</svg>
