<svg width="900" height="548" viewBox="0 0 900 548" fill="none" xmlns="http://www.w3.org/2000/svg">
<defs>
<pattern id="aiflow-layer-dots-sm" x="0" y="0" width="12.24" height="12.24" patternUnits="userSpaceOnUse">
<circle cx="6.12" cy="6.12" r="0.46" fill="#C2C2C2"/>
</pattern>
<pattern id="aiflow-layer-dots-md" x="0" y="0" width="12.24" height="12.24" patternUnits="userSpaceOnUse">
<circle cx="6.12" cy="6.12" r="0.92" fill="#C2C2C2"/>
</pattern>
<pattern id="aiflow-layer-dots-lg" x="0" y="0" width="12.24" height="12.24" patternUnits="userSpaceOnUse">
<circle cx="6.12" cy="6.12" r="1.45" fill="#C2C2C2"/>
</pattern>
<pattern id="aiflow-layer-dots-xl" x="0" y="0" width="12.24" height="12.24" patternUnits="userSpaceOnUse">
<circle cx="6.12" cy="6.12" r="2.1" fill="#C2C2C2"/>
</pattern>
<radialGradient id="aiflow-layer-fade-md" cx="0" cy="0" r="1" gradientUnits="userSpaceOnUse" gradientTransform="translate(450 274) rotate(90) scale(320 220)">
<stop stop-color="white"/>
<stop offset="1" stop-color="white" stop-opacity="0"/>
</radialGradient>
<radialGradient id="aiflow-layer-fade-lg" cx="0" cy="0" r="1" gradientUnits="userSpaceOnUse" gradientTransform="translate(450 274) rotate(90) scale(245 165)">
<stop stop-color="white"/>
<stop offset="1" stop-color="white" stop-opacity="0"/>
</radialGradient>
<radialGradient id="aiflow-layer-fade-xl" cx="0" cy="0" r="1" gradientUnits="userSpaceOnUse" gradientTransform="translate(450 274) rotate(90) scale(176 118)">
<stop stop-color="white"/>
<stop offset="1" stop-color="white" stop-opacity="0"/>
</radialGradient>
<mask id="aiflow-layer-mask-md" maskUnits="userSpaceOnUse" x="0" y="0" width="900" height="548">
<rect width="900" height="548" fill="url(#aiflow-layer-fade-md)"/>
</mask>
<mask id="aiflow-layer-mask-lg" maskUnits="userSpaceOnUse" x="0" y="0" width="900" height="548">
<rect width="900" height="548" fill="url(#aiflow-layer-fade-lg)"/>
</mask>
<mask id="aiflow-layer-mask-xl" maskUnits="userSpaceOnUse" x="0" y="0" width="900" height="548">
<rect width="900" height="548" fill="url(#aiflow-layer-fade-xl)"/>
</mask>
</defs>
<rect width="900" height="548" fill="url(#aiflow-layer-dots-sm)" opacity="0.22"/>
<rect width="900" height="548" fill="url(#aiflow-layer-dots-md)" opacity="0.36" mask="url(#aiflow-layer-mask-md)"/>
<rect width="900" height="548" fill="url(#aiflow-layer-dots-lg)" opacity="0.56" mask="url(#aiflow-layer-mask-lg)"/>
<rect width="900" height="548" fill="url(#aiflow-layer-dots-xl)" opacity="0.72" mask="url(#aiflow-layer-mask-xl)"/>
</svg>