<svg width="1840" height="436" viewBox="0 0 1840 436" fill="none" xmlns="http://www.w3.org/2000/svg">
<defs>
<pattern id="aiflow-opti-grid" x="-210.046" y="-319.863" width="53.812" height="53.786" patternUnits="userSpaceOnUse">
<path d="M53.812 0H0V53.786" stroke="#DADADA" stroke-opacity="0.6" stroke-width="0.664512"/>
</pattern>
<pattern id="aiflow-opti-cross-a" x="-263.857" y="-319.864" width="430.493" height="430.291" patternUnits="userSpaceOnUse">
<path d="M215.247 199.01V231.282M199.104 215.146H231.39" stroke="#DADADA" stroke-opacity="0.6" stroke-width="1.32902" stroke-linecap="round"/>
</pattern>
<pattern id="aiflow-opti-cross-b" x="-479.104" y="-535.01" width="430.493" height="430.291" patternUnits="userSpaceOnUse">
<path d="M215.247 199.01V231.282M199.104 215.146H231.39" stroke="#DADADA" stroke-opacity="0.6" stroke-width="1.32902" stroke-linecap="round"/>
</pattern>
<radialGradient id="aiflow-opti-grid-fade" cx="0" cy="0" r="1" gradientUnits="userSpaceOnUse" gradientTransform="translate(920 218) rotate(90) scale(537.864 1183.86)">
<stop stop-color="white"/>
<stop offset="1" stop-color="white" stop-opacity="0"/>
</radialGradient>
<radialGradient id="aiflow-opti-cross-fade" cx="0" cy="0" r="1" gradientUnits="userSpaceOnUse" gradientTransform="translate(920 218) rotate(90) scale(554 1200)">
<stop stop-color="white"/>
<stop offset="1" stop-color="white" stop-opacity="0"/>
</radialGradient>
<mask id="aiflow-opti-grid-mask" maskUnits="userSpaceOnUse" x="-280" y="-340" width="2400" height="1120">
<rect x="-280" y="-340" width="2400" height="1120" fill="url(#aiflow-opti-grid-fade)"/>
</mask>
<mask id="aiflow-opti-cross-mask" maskUnits="userSpaceOnUse" x="-280" y="-340" width="2400" height="1120">
<rect x="-280" y="-340" width="2400" height="1120" fill="url(#aiflow-opti-cross-fade)"/>
</mask>
</defs>
<g opacity="0.7" style="mix-blend-mode:soft-light" mask="url(#aiflow-opti-grid-mask)">
<rect x="-280" y="-340" width="2400" height="1120" fill="url(#aiflow-opti-grid)"/>
</g>
<g opacity="0.8" style="mix-blend-mode:soft-light" mask="url(#aiflow-opti-cross-mask)">
<rect x="-280" y="-340" width="2400" height="1120" fill="url(#aiflow-opti-cross-a)"/>
<rect x="-280" y="-340" width="2400" height="1120" fill="url(#aiflow-opti-cross-b)"/>
</g>
</svg>