<svg width="1920" height="1108" viewBox="0 0 1920 1108" fill="none" xmlns="http://www.w3.org/2000/svg">
<defs>
<pattern id="aiflow-see-grid" x="-170.046" y="16.1367" width="53.812" height="53.786" patternUnits="userSpaceOnUse">
<path d="M53.812 0H0V53.786" stroke="#DADADA" stroke-opacity="0.6" stroke-width="0.664512"/>
</pattern>
<pattern id="aiflow-see-cross-a" x="-223.857" y="16.136" width="430.493" height="430.291" patternUnits="userSpaceOnUse">
<path d="M215.247 199.01V231.282M199.104 215.146H231.39" stroke="#DADADA" stroke-opacity="0.6" stroke-width="1.32902" stroke-linecap="round"/>
</pattern>
<pattern id="aiflow-see-cross-b" x="-439.104" y="-199.01" width="430.493" height="430.291" patternUnits="userSpaceOnUse">
<path d="M215.247 199.01V231.282M199.104 215.146H231.39" stroke="#DADADA" stroke-opacity="0.6" stroke-width="1.32902" stroke-linecap="round"/>
</pattern>
<radialGradient id="aiflow-see-grid-fade" cx="0" cy="0" r="1" gradientUnits="userSpaceOnUse" gradientTransform="translate(960 554) rotate(90) scale(537.864 1183.86)">
<stop stop-color="white"/>
<stop offset="1" stop-color="white" stop-opacity="0"/>
</radialGradient>
<radialGradient id="aiflow-see-cross-fade" cx="0" cy="0" r="1" gradientUnits="userSpaceOnUse" gradientTransform="translate(960 554) rotate(90) scale(554 1200)">
<stop stop-color="white"/>
<stop offset="1" stop-color="white" stop-opacity="0"/>
</radialGradient>
<mask id="aiflow-see-grid-mask" maskUnits="userSpaceOnUse" x="-240" y="0" width="2400" height="1108">
<rect x="-240" y="0" width="2400" height="1108" fill="url(#aiflow-see-grid-fade)"/>
</mask>
<mask id="aiflow-see-cross-mask" maskUnits="userSpaceOnUse" x="-240" y="0" width="2400" height="1108">
<rect x="-240" y="0" width="2400" height="1108" fill="url(#aiflow-see-cross-fade)"/>
</mask>
</defs>
<g opacity="0.7" style="mix-blend-mode:soft-light" mask="url(#aiflow-see-grid-mask)">
<rect x="-240" y="0" width="2400" height="1108" fill="url(#aiflow-see-grid)"/>
</g>
<g opacity="0.8" style="mix-blend-mode:soft-light" mask="url(#aiflow-see-cross-mask)">
<rect x="-240" y="0" width="2400" height="1108" fill="url(#aiflow-see-cross-a)"/>
<rect x="-240" y="0" width="2400" height="1108" fill="url(#aiflow-see-cross-b)"/>
</g>
</svg>