<svg width="1920" height="669" viewBox="0 0 1920 669" fill="none" xmlns="http://www.w3.org/2000/svg">
<defs>
<pattern id="call-center-cost-grid" x="-170.048" y="-245.863" width="53.812" height="53.786" patternUnits="userSpaceOnUse">
<path d="M53.812 0H0V53.786" stroke="#DADADA" stroke-opacity="0.6" stroke-width="0.664512"/>
</pattern>
<pattern id="call-center-cost-cross-a" x="-223.857" y="-460.999" width="430.493" height="430.291" patternUnits="userSpaceOnUse">
<path d="M215.247 199.01V231.282M199.104 215.146H231.39" stroke="#DADADA" stroke-opacity="0.6" stroke-width="1.32902" stroke-linecap="round"/>
</pattern>
<pattern id="call-center-cost-cross-b" x="-439.104" y="-245.864" width="430.493" height="430.291" patternUnits="userSpaceOnUse">
<path d="M215.247 199.01V231.282M199.104 215.146H231.39" stroke="#DADADA" stroke-opacity="0.6" stroke-width="1.32902" stroke-linecap="round"/>
</pattern>
<radialGradient id="call-center-cost-grid-fade" cx="0" cy="0" r="1" gradientUnits="userSpaceOnUse" gradientTransform="translate(960 292) rotate(90) scale(537.864 1183.86)">
<stop stop-color="white"/>
<stop offset="1" stop-color="white" stop-opacity="0"/>
</radialGradient>
<radialGradient id="call-center-cost-cross-fade" cx="0" cy="0" r="1" gradientUnits="userSpaceOnUse" gradientTransform="translate(960 292) rotate(90) scale(554 1200)">
<stop stop-color="white"/>
<stop offset="1" stop-color="white" stop-opacity="0"/>
</radialGradient>
<mask id="call-center-cost-grid-mask" maskUnits="userSpaceOnUse" x="-240" y="-280" width="2400" height="1120">
<rect x="-240" y="-280" width="2400" height="1120" fill="url(#call-center-cost-grid-fade)"/>
</mask>
<mask id="call-center-cost-cross-mask" maskUnits="userSpaceOnUse" x="-240" y="-280" width="2400" height="1120">
<rect x="-240" y="-280" width="2400" height="1120" fill="url(#call-center-cost-cross-fade)"/>
</mask>
</defs>
<g opacity="0.7" style="mix-blend-mode:soft-light" mask="url(#call-center-cost-grid-mask)">
<rect x="-240" y="-280" width="2400" height="1120" fill="url(#call-center-cost-grid)"/>
</g>
<g opacity="0.8" style="mix-blend-mode:soft-light" mask="url(#call-center-cost-cross-mask)">
<rect x="-240" y="-280" width="2400" height="1120" fill="url(#call-center-cost-cross-a)"/>
<rect x="-240" y="-280" width="2400" height="1120" fill="url(#call-center-cost-cross-b)"/>
</g>
</svg>