<svg preserveAspectRatio="none" width="100%" height="100%" overflow="visible" style="display: block;" viewBox="0 0 1838 100.014" fill="none" xmlns="http://www.w3.org/2000/svg">
<g id="Group 1940">
<path id="Vector 126" d="M1 60.0094V100.009" stroke="url(#paint0_linear_0_4)" stroke-width="2"/>
<path id="Vector 164" d="M19 60.0094V100.009" stroke="url(#paint1_linear_0_4)" stroke-width="2"/>
<path id="Vector 165" d="M37 60.0094V100.009" stroke="url(#paint2_linear_0_4)" stroke-width="2"/>
<path id="Vector 166" d="M55 60.0094V100.009" stroke="url(#paint3_linear_0_4)" stroke-width="2"/>
<path id="Vector 167" d="M73 60.0094V100.009" stroke="url(#paint4_linear_0_4)" stroke-width="2"/>
<path id="Vector 168" d="M91 60.0094V100.009" stroke="url(#paint5_linear_0_4)" stroke-width="2"/>
<path id="Vector 169" d="M109 60.0094V100.009" stroke="url(#paint6_linear_0_4)" stroke-width="2"/>
<path id="Vector 170" d="M127 60.0094V100.009" stroke="url(#paint7_linear_0_4)" stroke-width="2"/>
<path id="Vector 171" d="M145 60.0094V100.009" stroke="url(#paint8_linear_0_4)" stroke-width="2"/>
<path id="Vector 172" d="M163 60.0094V100.009" stroke="url(#paint9_linear_0_4)" stroke-width="2"/>
<path id="Vector 173" d="M181 60.0094V100.009" stroke="url(#paint10_linear_0_4)" stroke-width="2"/>
<path id="Vector 174" d="M199 60.0094V100.009" stroke="url(#paint11_linear_0_4)" stroke-width="2"/>
<path id="Vector 175" d="M216 0.00943354L216.943 100.005" stroke="url(#paint12_linear_0_4)" stroke-width="2"/>
<path id="Union" opacity="0.3" d="M236 100.009H234V60.0094H236V100.009ZM254 100.009H252V60.0094H254V100.009ZM272 100.009H270V60.0094H272V100.009ZM290 100.009H288V60.0094H290V100.009ZM308 100.009H306V60.0094H308V100.009ZM326 100.009H324V60.0094H326V100.009ZM344 100.009H342V60.0094H344V100.009ZM362 100.009H360V60.0094H362V100.009ZM380 100.009H378V60.0094H380V100.009ZM398 100.009H396V60.0094H398V100.009ZM416 100.009H414V60.0094H416V100.009ZM434 100.009H432V60.0094H434V100.009ZM452 100.009H450V60.0094H452V100.009ZM470 100.009H468V60.0094H470V100.009ZM488 100.009H486V60.0094H488V100.009ZM506 100.009H504V60.0094H506V100.009ZM524 100.009H522V60.0094H524V100.009ZM542 100.009H540V60.0094H542V100.009ZM560 100.009H558V60.0094H560V100.009ZM578 100.009H576V60.0094H578V100.009ZM596 100.009H594V60.0094H596V100.009ZM614 100.009H612V60.0094H614V100.009ZM632 100.009H630V60.0094H632V100.009ZM650 100.009H648V60.0094H650V100.009ZM668 100.009H666V60.0094H668V100.009ZM686 100.009H684V60.0094H686V100.009ZM704 100.009H702V60.0094H704V100.009ZM722 100.009H720V60.0094H722V100.009ZM740 100.009H738V60.0094H740V100.009ZM758 100.009H756V60.0094H758V100.009ZM776 100.009H774V60.0094H776V100.009ZM794 100.009H792V60.0094H794V100.009ZM812 100.009H810V60.0094H812V100.009ZM830 100.009H828V60.0094H830V100.009ZM848 100.009H846V60.0094H848V100.009ZM866 100.009H864V60.0094H866V100.009ZM884 100.009H882V60.0094H884V100.009ZM902 100.009H900V60.0094H902V100.009ZM920 100.009H918V60.0094H920V100.009ZM938 100.009H936V60.0094H938V100.009ZM956 100.009H954V60.0094H956V100.009ZM974 100.009H972V60.0094H974V100.009ZM992 100.009H990V60.0094H992V100.009ZM1010 100.009H1008V60.0094H1010V100.009ZM1028 100.009H1026V60.0094H1028V100.009ZM1046 100.009H1044V60.0094H1046V100.009ZM1064 100.009H1062V60.0094H1064V100.009ZM1082 100.009H1080V60.0094H1082V100.009ZM1100 100.009H1098V60.0094H1100V100.009ZM1118 100.009H1116V60.0094H1118V100.009ZM1136 100.009H1134V60.0094H1136V100.009ZM1154 100.009H1152V60.0094H1154V100.009ZM1172 100.009H1170V60.0094H1172V100.009ZM1190 100.009H1188V60.0094H1190V100.009ZM1208 100.009H1206V60.0094H1208V100.009ZM1226 100.009H1224V60.0094H1226V100.009ZM1244 100.009H1242V60.0094H1244V100.009ZM1262 100.009H1260V60.0094H1262V100.009ZM1280 100.009H1278V60.0094H1280V100.009ZM1298 100.009H1296V60.0094H1298V100.009ZM1316 100.009H1314V60.0094H1316V100.009ZM1334 100.009H1332V60.0094H1334V100.009ZM1352 100.009H1350V60.0094H1352V100.009ZM1370 100.009H1368V60.0094H1370V100.009ZM1388 100.009H1386V60.0094H1388V100.009ZM1406 100.009H1404V60.0094H1406V100.009ZM1424 100.009H1422V60.0094H1424V100.009ZM1442 100.009H1440V60.0094H1442V100.009ZM1460 100.009H1458V60.0094H1460V100.009ZM1478 100.009H1476V60.0094H1478V100.009ZM1496 100.009H1494V60.0094H1496V100.009ZM1514 100.009H1512V60.0094H1514V100.009ZM1532 100.009H1530V60.0094H1532V100.009ZM1550 100.009H1548V60.0094H1550V100.009ZM1568 100.009H1566V60.0094H1568V100.009ZM1586 100.009H1584V60.0094H1586V100.009ZM1604 100.009H1602V60.0094H1604V100.009ZM1622 100.009H1620V60.0094H1622V100.009ZM1640 100.009H1638V60.0094H1640V100.009ZM1658 100.009H1656V60.0094H1658V100.009ZM1676 100.009H1674V60.0094H1676V100.009ZM1694 100.009H1692V60.0094H1694V100.009ZM1712 100.009H1710V60.0094H1712V100.009ZM1730 100.009H1728V60.0094H1730V100.009ZM1748 100.009H1746V60.0094H1748V100.009ZM1766 100.009H1764V60.0094H1766V100.009ZM1784 100.009H1782V60.0094H1784V100.009ZM1802 100.009H1800V60.0094H1802V100.009ZM1820 100.009H1818V60.0094H1820V100.009ZM1838 100.009H1836V60.0094H1838V100.009Z" fill="url(#paint13_linear_0_4)"/>
</g>
<defs>
<linearGradient id="paint0_linear_0_4" x1="1.00889" y1="76.6761" x2="2.00002" y2="76.6761" gradientUnits="userSpaceOnUse">
<stop stop-color="white"/>
<stop offset="1" stop-color="#EEDEC7"/>
</linearGradient>
<linearGradient id="paint1_linear_0_4" x1="19.0089" y1="76.6761" x2="20" y2="76.6761" gradientUnits="userSpaceOnUse">
<stop stop-color="white"/>
<stop offset="1" stop-color="#EEDEC7"/>
</linearGradient>
<linearGradient id="paint2_linear_0_4" x1="37.0089" y1="76.6761" x2="38" y2="76.6761" gradientUnits="userSpaceOnUse">
<stop stop-color="white"/>
<stop offset="1" stop-color="#EEDEC7"/>
</linearGradient>
<linearGradient id="paint3_linear_0_4" x1="55.0089" y1="76.6761" x2="56" y2="76.6761" gradientUnits="userSpaceOnUse">
<stop stop-color="white"/>
<stop offset="1" stop-color="#EEDEC7"/>
</linearGradient>
<linearGradient id="paint4_linear_0_4" x1="73.0089" y1="76.6761" x2="74" y2="76.6761" gradientUnits="userSpaceOnUse">
<stop stop-color="white"/>
<stop offset="1" stop-color="#EEDEC7"/>
</linearGradient>
<linearGradient id="paint5_linear_0_4" x1="91.0089" y1="76.6761" x2="92" y2="76.6761" gradientUnits="userSpaceOnUse">
<stop stop-color="white"/>
<stop offset="1" stop-color="#EEDEC7"/>
</linearGradient>
<linearGradient id="paint6_linear_0_4" x1="109.009" y1="76.6761" x2="110" y2="76.6761" gradientUnits="userSpaceOnUse">
<stop stop-color="white"/>
<stop offset="1" stop-color="#EEDEC7"/>
</linearGradient>
<linearGradient id="paint7_linear_0_4" x1="127.009" y1="76.6761" x2="128" y2="76.6761" gradientUnits="userSpaceOnUse">
<stop stop-color="white"/>
<stop offset="1" stop-color="#EEDEC7"/>
</linearGradient>
<linearGradient id="paint8_linear_0_4" x1="145.009" y1="76.6761" x2="146" y2="76.6761" gradientUnits="userSpaceOnUse">
<stop stop-color="white"/>
<stop offset="1" stop-color="#EEDEC7"/>
</linearGradient>
<linearGradient id="paint9_linear_0_4" x1="163.009" y1="76.6761" x2="164" y2="76.6761" gradientUnits="userSpaceOnUse">
<stop stop-color="white"/>
<stop offset="1" stop-color="#EEDEC7"/>
</linearGradient>
<linearGradient id="paint10_linear_0_4" x1="181.009" y1="76.6761" x2="182" y2="76.6761" gradientUnits="userSpaceOnUse">
<stop stop-color="white"/>
<stop offset="1" stop-color="#EEDEC7"/>
</linearGradient>
<linearGradient id="paint11_linear_0_4" x1="199.009" y1="76.6761" x2="200" y2="76.6761" gradientUnits="userSpaceOnUse">
<stop stop-color="white"/>
<stop offset="1" stop-color="#EEDEC7"/>
</linearGradient>
<linearGradient id="paint12_linear_0_4" x1="216.402" y1="41.6742" x2="217.393" y2="41.6648" gradientUnits="userSpaceOnUse">
<stop stop-color="white"/>
<stop offset="1" stop-color="#EEDEC7"/>
</linearGradient>
<linearGradient id="paint13_linear_0_4" x1="248.258" y1="76.6761" x2="1837.94" y2="88.3486" gradientUnits="userSpaceOnUse">
<stop stop-color="white"/>
<stop offset="1" stop-color="#EEDEC7"/>
</linearGradient>
</defs>
</svg>
